<?xml version="1.0" encoding="UTF-8" standalone="no"?>
<!-- Created with Inkscape (http://www.inkscape.org/) -->

<svg
   xmlns:dc="http://purl.org/dc/elements/1.1/"
   xmlns:cc="http://creativecommons.org/ns#"
   xmlns:rdf="http://www.w3.org/1999/02/22-rdf-syntax-ns#"
   xmlns:svg="http://www.w3.org/2000/svg"
   xmlns="http://www.w3.org/2000/svg"
   xmlns:sodipodi="http://sodipodi.sourceforge.net/DTD/sodipodi-0.dtd"
   xmlns:inkscape="http://www.inkscape.org/namespaces/inkscape"
   id="svg2"
   version="1.1"
   inkscape:version="0.48.1 r9760"
   width="693.75"
   height="693.75"
   xml:space="preserve"
   sodipodi:docname="CHUA1V1.eps"><metadata
     id="metadata8"><rdf:RDF><cc:Work
         rdf:about=""><dc:format>image/svg+xml</dc:format><dc:type
           rdf:resource="http://purl.org/dc/dcmitype/StillImage" /><dc:title></dc:title></cc:Work></rdf:RDF></metadata><defs
     id="defs6"><clipPath
       clipPathUnits="userSpaceOnUse"
       id="clipPath20"><path
         d="m 582.75,111.012 4897.88,0 0,5341.79 -4897.88,0 0,-5341.79 z"
         id="path22" /></clipPath><clipPath
       clipPathUnits="userSpaceOnUse"
       id="clipPath30"><path
         d="m 69.375,5480.62 5411.245,0 0,-5411.245 -5411.245,0 0,5411.245 z"
         id="path32" /></clipPath><clipPath
       clipPathUnits="userSpaceOnUse"
       id="clipPath88"><path
         d="m 263.625,860.25 97.125,0 0,-180.375 -97.125,0 0,180.375 z"
         id="path90" /></clipPath><clipPath
       clipPathUnits="userSpaceOnUse"
       id="clipPath98"><path
         d="m 69.375,5480.62 5411.245,0 0,-5411.245 -5411.245,0 0,5411.245 z"
         id="path100" /></clipPath><clipPath
       clipPathUnits="userSpaceOnUse"
       id="clipPath110"><path
         d="m 263.625,1540.12 97.125,0 0,-180.37 -97.125,0 0,180.37 z"
         id="path112" /></clipPath><clipPath
       clipPathUnits="userSpaceOnUse"
       id="clipPath120"><path
         d="m 69.375,5480.62 5411.245,0 0,-5411.245 -5411.245,0 0,5411.245 z"
         id="path122" /></clipPath><clipPath
       clipPathUnits="userSpaceOnUse"
       id="clipPath132"><path
         d="m 263.625,2220 97.125,0 0,-180.38 -97.125,0 0,180.38 z"
         id="path134" /></clipPath><clipPath
       clipPathUnits="userSpaceOnUse"
       id="clipPath142"><path
         d="m 69.375,5480.62 5411.245,0 0,-5411.245 -5411.245,0 0,5411.245 z"
         id="path144" /></clipPath><filter
       id="filter3927"
       inkscape:label="filter1"><feBlend
         blend="normal"
         id="feBlend3929"
         in2="SourceGraphic" /></filter></defs><sodipodi:namedview
     pagecolor="#ffffff"
     bordercolor="#666666"
     borderopacity="1"
     objecttolerance="10"
     gridtolerance="10"
     guidetolerance="10"
     inkscape:pageopacity="0"
     inkscape:pageshadow="2"
     inkscape:window-width="1680"
     inkscape:window-height="921"
     id="namedview4"
     showgrid="true"
     showguides="true"
     inkscape:guide-bbox="true"
     inkscape:zoom="1.0474233"
     inkscape:cx="316.10658"
     inkscape:cy="349.9063"
     inkscape:window-x="0"
     inkscape:window-y="0"
     inkscape:window-maximized="0"
     inkscape:current-layer="g10"><inkscape:grid
       type="xygrid"
       id="grid3139" /></sodipodi:namedview><g
     id="g10"
     inkscape:groupmode="layer"
     inkscape:label="ink_ext_XXXXXX"
     transform="matrix(1.25,0,0,-1.25,0,693.75)"><g
       id="g12"
       transform="scale(0.1,0.1)"><path
         d="m 0,0 5550,0 0,5550 L 0,5550 0,0 z"
         style="fill:#ffffff;fill-opacity:1;fill-rule:nonzero;stroke:none"
         id="path14" /><g
         id="g16"><g
           id="g18"
           clip-path="url(#clipPath20)"><path
             d="m 1680.58,5425.05 790.56,-774.48 946.94,-770.58 1009.63,-768.04 1035.38,-198.68 -46.08,-29.38 4.16,-37.25 6.08,-37.25 12.2,-74.48 6.11,-37.23 6.15,-37.25 6.17,-37.23 6.22,-37.25 2.65,-37.24 -6.3,-37.24 -6.31,-37.22 -6.36,-37.25 -6.38,-37.21 -6.44,-37.21 -6.5,-37.2 -6.61,-37.13 -6.74,-36.96 5.41,-34.98 -5.45,-37.26 -5.54,-37.23 -5.6,-37.26 -5.71,-37.24 -5.8,-37.25 -5.9,-37.25 -6.03,-37.25 -6.15,-37.24 -6.3,-37.26 -6.43,-37.23 -6.61,-37.26 -6.79,-37.24 -6.97,-37.25 -7.19,-37.25 -7.41,-37.25 -7.64,-37.24 -7.91,-37.25 -8.2,-37.26 -8.5,-37.24 -8.83,-37.25 -9.2,-37.24 -9.59,-37.26 -10,-37.24 -10.49,-37.24 -10.98,-37.25 -11.54,-37.24 -12.16,-37.26 -12.8,-37.24 -13.56,-37.24 -14.36,-37.25 -15.26,-37.25 -16.25,-37.23 -17.37,-37.246 -18.61,-37.238 -19.99,-37.242 -21.58,-37.239 -23.36,-37.242 -25.38,-37.242 -27.72,-37.227 -30.39,-37.226 -33.52,-37.227 -37.17,-37.226 -41.49,-37.211 -46.63,-37.215 -52.85,-37.195 -60.45,-37.172 -69.9,-37.172 -81.83,-37.129 -97.24,-37.09 -117.63,-37.016 -145.47,-36.921 -184.95,-36.731 -243.68,-36.391 -336.65,-35.714 -495.52,-34.203 -794.41,-30.317 -768.88,-13.89 -679.227,-5.079 -70.848,-0.734"
             style="fill:none;stroke:#ff0000;stroke-opacity:1;stroke-width:13.875;stroke-linecap:butt;stroke-linejoin:round;stroke-miterlimit:10;stroke-dasharray:none"
             id="path24" /></g></g><g
         id="g26"><g
           id="g28"
           clip-path="url(#clipPath30)"><path
             d="m 1097.82,2800.54 0,-36.07"
             style="fill:none;stroke:#000000;stroke-opacity:1;stroke-width:13.875;stroke-linecap:butt;stroke-linejoin:round;stroke-miterlimit:10;stroke-dasharray:none"
             id="path34" /><path
             d="m 2069.09,2800.54 0,-36.07"
             style="fill:none;stroke:#000000;stroke-opacity:1;stroke-width:13.875;stroke-linecap:butt;stroke-linejoin:round;stroke-miterlimit:10;stroke-dasharray:none"
             id="path36" /><path
             d="m 3040.38,2800.54 0,-36.07"
             style="fill:none;stroke:#000000;stroke-opacity:1;stroke-width:13.875;stroke-linecap:butt;stroke-linejoin:round;stroke-miterlimit:10;stroke-dasharray:none"
             id="path38" /><path
             d="m 4011.65,2800.54 0,-36.07"
             style="fill:none;stroke:#000000;stroke-opacity:1;stroke-width:13.875;stroke-linecap:butt;stroke-linejoin:round;stroke-miterlimit:10;stroke-dasharray:none"
             id="path40" /><path
             d="m 4982.91,2800.54 0,-36.07"
             style="fill:none;stroke:#000000;stroke-opacity:1;stroke-width:13.875;stroke-linecap:butt;stroke-linejoin:round;stroke-miterlimit:10;stroke-dasharray:none"
             id="path42" /><path
             d="m 555,2800.54 4911.75,0"
             style="fill:none;stroke:#000000;stroke-opacity:1;stroke-width:13.875;stroke-linecap:butt;stroke-linejoin:round;stroke-miterlimit:10;stroke-dasharray:none"
             id="path44" /><path
             d="m 612.188,2800.54 0,-72.15"
             style="fill:none;stroke:#000000;stroke-opacity:1;stroke-width:13.875;stroke-linecap:butt;stroke-linejoin:round;stroke-miterlimit:10;stroke-dasharray:none"
             id="path46" /><path
             d="m 1583.46,2800.54 0,-72.15"
             style="fill:none;stroke:#000000;stroke-opacity:1;stroke-width:13.875;stroke-linecap:butt;stroke-linejoin:round;stroke-miterlimit:10;stroke-dasharray:none"
             id="path48" /><path
             d="m 1491.12,2598.09 c 0,13.6 2.07,25.34 6.19,35.25 4.1,9.89 9.57,17.23 16.35,21.99 5.36,3.76 10.86,5.65 16.49,5.65 9.1,0 17.27,-4.64 24.49,-13.88 9.11,-11.57 13.66,-27.25 13.66,-47.05 0,-13.87 -1.98,-25.66 -5.96,-35.34 -3.97,-9.68 -9.07,-16.73 -15.28,-21.13 -6.21,-4.41 -12.14,-6.62 -17.79,-6.62 -11.41,0 -20.95,6.73 -28.61,20.16 -6.36,11.42 -9.54,25.09 -9.54,40.97 z m 17.34,-2.16 c 0,-16.47 2.03,-29.91 6.08,-40.32 3.32,-8.67 8.31,-13.02 14.96,-13.02 3.18,0 6.46,1.42 9.86,4.23 3.4,2.82 5.97,7.64 7.7,14.42 2.74,9.98 4.11,24.21 4.11,42.71 0,13.58 -1.44,24.93 -4.33,34.03 -2.02,6.81 -4.77,11.57 -8.24,14.32 -2.3,1.88 -5.21,2.82 -8.67,2.82 -3.9,0 -7.44,-1.73 -10.62,-5.2 -4.2,-4.92 -7.04,-12.62 -8.57,-23.09 -1.51,-10.48 -2.28,-20.79 -2.28,-30.9 z m 88.9,-39.67 c 2.73,0 5.05,-0.97 6.94,-2.93 1.87,-1.95 2.81,-4.23 2.81,-6.82 0,-2.75 -0.94,-5.07 -2.81,-6.94 -1.89,-1.89 -4.21,-2.82 -6.94,-2.82 -2.75,0 -5.06,0.93 -6.94,2.82 -1.88,1.87 -2.83,4.19 -2.83,6.94 0,2.74 0.95,5.05 2.83,6.94 1.88,1.87 4.19,2.81 6.94,2.81 z m 103.41,104.72 0,-3.27 c -7.81,-0.72 -14.17,-2.23 -19.08,-4.55 -4.91,-2.3 -9.75,-5.85 -14.53,-10.61 -4.77,-4.77 -8.71,-10.09 -11.82,-15.94 -3.11,-5.86 -5.74,-12.75 -7.91,-20.7 8.54,5.78 17.06,8.67 25.59,8.67 8.09,0 15.14,-3.29 21.13,-9.87 5.99,-6.57 9.01,-15.07 9.01,-25.47 0,-9.98 -3.04,-19.08 -9.12,-27.32 -7.23,-9.96 -16.83,-14.96 -28.83,-14.96 -8.25,0 -15.18,2.75 -20.82,8.24 -11.12,10.41 -16.69,23.99 -16.69,40.75 0,10.7 2.14,20.86 6.4,30.47 4.26,9.6 10.36,18.18 18.31,25.69 7.96,7.51 15.59,12.54 22.89,15.06 7.29,2.54 14.05,3.81 20.27,3.81 l 5.2,0 z m -54.85,-61.58 c -1.01,-7.95 -1.53,-14.38 -1.53,-19.29 0,-5.65 1.06,-11.75 3.16,-18.33 2.09,-6.57 5.16,-11.8 9.21,-15.72 3.04,-2.73 6.71,-4.1 11.06,-4.1 5.05,0 9.6,2.41 13.65,7.25 4.05,4.84 6.08,11.67 6.08,20.5 0,10.11 -2.03,18.81 -6.08,26.11 -4.05,7.3 -9.68,10.95 -16.92,10.95 -2.3,0 -4.73,-0.46 -7.25,-1.41 -2.53,-0.94 -6.33,-2.92 -11.38,-5.96"
             style="fill:#000000;fill-opacity:1;fill-rule:nonzero;stroke:none"
             id="path50" /><path
             d="m 2554.73,2800.54 0,-72.15"
             style="fill:none;stroke:#000000;stroke-opacity:1;stroke-width:13.875;stroke-linecap:butt;stroke-linejoin:round;stroke-miterlimit:10;stroke-dasharray:none"
             id="path52" /><path
             d="m 2462.37,2598.09 c 0,13.6 2.07,25.34 6.19,35.25 4.1,9.89 9.57,17.23 16.35,21.99 5.36,3.76 10.86,5.65 16.49,5.65 9.1,0 17.27,-4.64 24.49,-13.88 9.11,-11.57 13.66,-27.25 13.66,-47.05 0,-13.87 -1.98,-25.66 -5.96,-35.34 -3.97,-9.68 -9.07,-16.73 -15.28,-21.13 -6.21,-4.41 -12.14,-6.62 -17.79,-6.62 -11.41,0 -20.95,6.73 -28.61,20.16 -6.36,11.42 -9.54,25.09 -9.54,40.97 z m 17.34,-2.16 c 0,-16.47 2.03,-29.91 6.08,-40.32 3.32,-8.67 8.31,-13.02 14.96,-13.02 3.18,0 6.46,1.42 9.86,4.23 3.4,2.82 5.97,7.64 7.7,14.42 2.74,9.98 4.11,24.21 4.11,42.71 0,13.58 -1.44,24.93 -4.33,34.03 -2.02,6.81 -4.77,11.57 -8.24,14.32 -2.3,1.88 -5.21,2.82 -8.67,2.82 -3.9,0 -7.44,-1.73 -10.62,-5.2 -4.2,-4.92 -7.04,-12.62 -8.57,-23.09 -1.51,-10.48 -2.28,-20.79 -2.28,-30.9 z m 88.9,-39.67 c 2.73,0 5.05,-0.97 6.94,-2.93 1.87,-1.95 2.81,-4.23 2.81,-6.82 0,-2.75 -0.94,-5.07 -2.81,-6.94 -1.89,-1.89 -4.21,-2.82 -6.94,-2.82 -2.75,0 -5.06,0.93 -6.94,2.82 -1.88,1.87 -2.83,4.19 -2.83,6.94 0,2.74 0.95,5.05 2.83,6.94 1.88,1.87 4.19,2.81 6.94,2.81 z m 40.75,102.33 63.95,0 0,-3.47 -39.89,-118.37 -9.76,0 35.57,107.54 -32.75,0 c -6.64,0 -11.34,-0.81 -14.08,-2.39 -5.06,-2.75 -9.03,-6.94 -11.94,-12.59 l -2.59,0.88 11.49,28.4"
             style="fill:#000000;fill-opacity:1;fill-rule:nonzero;stroke:none"
             id="path54" /><path
             d="m 3526.01,2800.54 0,-72.15"
             style="fill:none;stroke:#000000;stroke-opacity:1;stroke-width:13.875;stroke-linecap:butt;stroke-linejoin:round;stroke-miterlimit:10;stroke-dasharray:none"
             id="path56" /><path
             d="m 3433.62,2598.09 c 0,13.6 2.07,25.34 6.19,35.25 4.1,9.89 9.57,17.23 16.35,21.99 5.36,3.76 10.86,5.65 16.49,5.65 9.1,0 17.27,-4.64 24.49,-13.88 9.11,-11.57 13.66,-27.25 13.66,-47.05 0,-13.87 -1.98,-25.66 -5.96,-35.34 -3.97,-9.68 -9.07,-16.73 -15.28,-21.13 -6.21,-4.41 -12.14,-6.62 -17.79,-6.62 -11.41,0 -20.95,6.73 -28.61,20.16 -6.36,11.42 -9.54,25.09 -9.54,40.97 z m 17.34,-2.16 c 0,-16.47 2.03,-29.91 6.08,-40.32 3.32,-8.67 8.31,-13.02 14.96,-13.02 3.18,0 6.46,1.42 9.86,4.23 3.4,2.82 5.97,7.64 7.7,14.42 2.74,9.98 4.11,24.21 4.11,42.71 0,13.58 -1.44,24.93 -4.33,34.03 -2.02,6.81 -4.77,11.57 -8.24,14.32 -2.3,1.88 -5.21,2.82 -8.67,2.82 -3.9,0 -7.44,-1.73 -10.62,-5.2 -4.2,-4.92 -7.04,-12.62 -8.57,-23.09 -1.51,-10.48 -2.28,-20.79 -2.28,-30.9 z m 88.9,-39.67 c 2.73,0 5.05,-0.97 6.94,-2.93 1.87,-1.95 2.81,-4.23 2.81,-6.82 0,-2.75 -0.94,-5.07 -2.81,-6.94 -1.89,-1.89 -4.21,-2.82 -6.94,-2.82 -2.75,0 -5.06,0.93 -6.94,2.82 -1.88,1.87 -2.83,4.19 -2.83,6.94 0,2.74 0.95,5.05 2.83,6.94 1.88,1.87 4.19,2.81 6.94,2.81 z m 57.23,42.93 c -9.54,7.8 -15.69,14.06 -18.44,18.74 -2.73,4.71 -4.1,9.58 -4.1,14.64 0,7.8 2.99,14.49 8.99,20.05 5.99,5.57 13.98,8.36 23.96,8.36 9.67,0 17.44,-2.61 23.3,-7.82 5.85,-5.2 8.78,-11.12 8.78,-17.77 0,-4.48 -1.6,-9.03 -4.78,-13.65 -3.17,-4.64 -9.75,-10.13 -19.73,-16.49 10.27,-7.95 17.07,-14.23 20.39,-18.85 4.48,-5.93 6.73,-12.23 6.73,-18.87 0,-8.38 -3.19,-15.57 -9.55,-21.57 -6.35,-6 -14.73,-9 -25.14,-9 -11.42,0 -20.31,3.54 -26.67,10.63 -5.06,5.77 -7.59,12.07 -7.59,18.86 0,5.2 1.81,10.4 5.41,15.6 3.63,5.21 9.77,10.92 18.44,17.14 z m 13.66,9.53 c 7.07,6.36 11.55,11.38 13.44,15.07 1.88,3.69 2.82,7.84 2.82,12.46 0,6.08 -1.74,10.88 -5.21,14.43 -3.46,3.54 -8.17,5.3 -14.09,5.3 -6.07,0 -10.98,-1.73 -14.74,-5.2 -3.76,-3.47 -5.65,-7.51 -5.65,-12.14 0,-3.03 0.81,-6.11 2.39,-9.22 1.6,-3.1 3.83,-6.03 6.73,-8.78 l 14.31,-11.92 z m -9.55,-12.79 c -4.91,-4.04 -8.52,-8.49 -10.84,-13.34 -2.3,-4.84 -3.47,-10.07 -3.47,-15.71 0,-7.67 2.07,-13.77 6.18,-18.32 4.12,-4.55 9.37,-6.83 15.72,-6.83 6.37,0 11.46,1.81 15.29,5.43 3.83,3.61 5.74,7.93 5.74,13 0,4.19 -1.15,8.02 -3.46,11.49 -4.06,6.21 -12.43,14.3 -25.16,24.28"
             style="fill:#000000;fill-opacity:1;fill-rule:nonzero;stroke:none"
             id="path58" /><path
             d="m 4497.28,2800.54 0,-72.15"
             style="fill:none;stroke:#000000;stroke-opacity:1;stroke-width:13.875;stroke-linecap:butt;stroke-linejoin:round;stroke-miterlimit:10;stroke-dasharray:none"
             id="path60" /><path
             d="m 4404.87,2598.09 c 0,13.6 2.07,25.34 6.19,35.25 4.1,9.89 9.57,17.23 16.35,21.99 5.36,3.76 10.86,5.65 16.49,5.65 9.1,0 17.27,-4.64 24.49,-13.88 9.11,-11.57 13.66,-27.25 13.66,-47.05 0,-13.87 -1.98,-25.66 -5.96,-35.34 -3.97,-9.68 -9.07,-16.73 -15.28,-21.13 -6.21,-4.41 -12.14,-6.62 -17.79,-6.62 -11.41,0 -20.95,6.73 -28.61,20.16 -6.36,11.42 -9.54,25.09 -9.54,40.97 z m 17.34,-2.16 c 0,-16.47 2.03,-29.91 6.08,-40.32 3.32,-8.67 8.31,-13.02 14.96,-13.02 3.18,0 6.46,1.42 9.86,4.23 3.4,2.82 5.97,7.64 7.7,14.42 2.74,9.98 4.11,24.21 4.11,42.71 0,13.58 -1.44,24.93 -4.33,34.03 -2.02,6.81 -4.77,11.57 -8.24,14.32 -2.3,1.88 -5.21,2.82 -8.67,2.82 -3.9,0 -7.44,-1.73 -10.62,-5.2 -4.2,-4.92 -7.04,-12.62 -8.57,-23.09 -1.51,-10.48 -2.28,-20.79 -2.28,-30.9 z m 88.9,-39.67 c 2.73,0 5.05,-0.97 6.94,-2.93 1.87,-1.95 2.81,-4.23 2.81,-6.82 0,-2.75 -0.94,-5.07 -2.81,-6.94 -1.89,-1.89 -4.21,-2.82 -6.94,-2.82 -2.75,0 -5.06,0.93 -6.94,2.82 -1.88,1.87 -2.83,4.19 -2.83,6.94 0,2.74 0.95,5.05 2.83,6.94 1.88,1.87 4.19,2.81 6.94,2.81 z m 32.08,-19.51 0,3.25 c 7.66,0 14.77,1.73 21.35,5.2 6.58,3.47 12.93,9.51 19.08,18.11 6.15,8.59 10.38,18.02 12.68,28.29 -9.24,-5.92 -17.55,-8.89 -24.93,-8.89 -8.38,0 -15.57,3.22 -21.56,9.64 -6.01,6.44 -9.01,15.07 -9.01,25.92 0,10.41 2.97,19.71 8.9,27.96 7.23,9.83 16.69,14.75 28.4,14.75 9.82,0 18.2,-4.05 25.14,-12.14 8.53,-9.98 12.79,-22.34 12.79,-37.08 0,-13.31 -3.24,-25.7 -9.75,-37.19 -6.51,-11.48 -15.54,-20.99 -27.1,-28.51 -9.55,-6.2 -19.87,-9.31 -31.01,-9.31 l -4.98,0 z m 54.64,61.34 c 1,7.68 1.51,13.74 1.51,18.22 0,5.79 -0.97,11.96 -2.93,18.54 -1.95,6.58 -4.7,11.63 -8.24,15.18 -3.54,3.54 -7.55,5.3 -12.03,5.3 -5.2,0 -9.79,-2.35 -13.76,-7.04 -3.99,-4.7 -5.97,-11.68 -5.97,-20.92 0,-12.43 2.61,-22.12 7.81,-29.05 3.9,-5.07 8.59,-7.59 14.08,-7.59 2.75,0 5.97,0.65 9.66,1.95 3.68,1.31 6.97,3.11 9.87,5.41"
             style="fill:#000000;fill-opacity:1;fill-rule:nonzero;stroke:none"
             id="path62" /><path
             d="m 555,5171.07 -36.074,0"
             style="fill:none;stroke:#000000;stroke-opacity:1;stroke-width:13.875;stroke-linecap:butt;stroke-linejoin:round;stroke-miterlimit:10;stroke-dasharray:none"
             id="path64" /><path
             d="m 555,4493.78 -36.074,0"
             style="fill:none;stroke:#000000;stroke-opacity:1;stroke-width:13.875;stroke-linecap:butt;stroke-linejoin:round;stroke-miterlimit:10;stroke-dasharray:none"
             id="path66" /><path
             d="m 555,3816.48 -36.074,0"
             style="fill:none;stroke:#000000;stroke-opacity:1;stroke-width:13.875;stroke-linecap:butt;stroke-linejoin:round;stroke-miterlimit:10;stroke-dasharray:none"
             id="path68" /><path
             d="m 555,3139.19 -36.074,0"
             style="fill:none;stroke:#000000;stroke-opacity:1;stroke-width:13.875;stroke-linecap:butt;stroke-linejoin:round;stroke-miterlimit:10;stroke-dasharray:none"
             id="path70" /><path
             d="m 555,2461.9 -36.074,0"
             style="fill:none;stroke:#000000;stroke-opacity:1;stroke-width:13.875;stroke-linecap:butt;stroke-linejoin:round;stroke-miterlimit:10;stroke-dasharray:none"
             id="path72" /><path
             d="m 555,1784.62 -36.074,0"
             style="fill:none;stroke:#000000;stroke-opacity:1;stroke-width:13.875;stroke-linecap:butt;stroke-linejoin:round;stroke-miterlimit:10;stroke-dasharray:none"
             id="path74" /><path
             d="m 555,1107.32 -36.074,0"
             style="fill:none;stroke:#000000;stroke-opacity:1;stroke-width:13.875;stroke-linecap:butt;stroke-linejoin:round;stroke-miterlimit:10;stroke-dasharray:none"
             id="path76" /><path
             d="m 555,430.027 -36.074,0"
             style="fill:none;stroke:#000000;stroke-opacity:1;stroke-width:13.875;stroke-linecap:butt;stroke-linejoin:round;stroke-miterlimit:10;stroke-dasharray:none"
             id="path78" /><path
             d="m 555,124.875 0,5300.175"
             style="fill:none;stroke:#000000;stroke-opacity:1;stroke-width:13.875;stroke-linecap:butt;stroke-linejoin:round;stroke-miterlimit:10;stroke-dasharray:none"
             id="path80" /><path
             d="m 555,768.676 -72.148,0"
             style="fill:none;stroke:#000000;stroke-opacity:1;stroke-width:13.875;stroke-linecap:butt;stroke-linejoin:round;stroke-miterlimit:10;stroke-dasharray:none"
             id="path82" /></g></g><g
         id="g84"><g
           id="g86"
           clip-path="url(#clipPath88)"><path
             d="m 294.191,757.062 119.238,0 0,9.32422 -119.238,0 0,-9.32422 z"
             style="fill:#000000;fill-opacity:1;fill-rule:nonzero;stroke:none"
             id="path92" /></g></g><g
         id="g94"><g
           id="g96"
           clip-path="url(#clipPath98)"><path
             d="m 469.363,829.477 0,-3.262 c -7.804,-0.723 -14.164,-2.235 -19.078,-4.551 -4.914,-2.305 -9.754,-5.855 -14.523,-10.613 -4.77,-4.774 -8.707,-10.09 -11.817,-15.946 -3.105,-5.855 -5.746,-12.75 -7.914,-20.699 8.528,5.785 17.055,8.672 25.582,8.672 8.094,0 15.141,-3.289 21.141,-9.867 5.996,-6.574 8.996,-15.066 8.996,-25.473 0,-9.976 -3.035,-19.078 -9.105,-27.32 -7.227,-9.961 -16.84,-14.957 -28.836,-14.957 -8.239,0 -15.176,2.746 -20.813,8.242 -11.129,10.406 -16.691,23.988 -16.691,40.75 0,10.699 2.133,20.856 6.394,30.469 4.266,9.601 10.371,18.176 18.321,25.683 7.949,7.52 15.574,12.543 22.871,15.067 7.3,2.543 14.054,3.805 20.269,3.805 l 5.203,0 z m -54.847,-61.579 c -1.012,-7.949 -1.52,-14.375 -1.52,-19.285 0,-5.648 1.051,-11.754 3.145,-18.332 2.097,-6.574 5.168,-11.804 9.214,-15.719 3.036,-2.734 6.719,-4.105 11.055,-4.105 5.059,0 9.613,2.414 13.66,7.254 4.047,4.844 6.071,11.672 6.071,20.496 0,10.113 -2.024,18.813 -6.071,26.113 -4.047,7.297 -9.683,10.946 -16.91,10.946 -2.312,0 -4.734,-0.457 -7.262,-1.403 -2.531,-0.941 -6.324,-2.925 -11.382,-5.965"
             style="fill:#000000;fill-opacity:1;fill-rule:nonzero;stroke:none"
             id="path102" /><path
             d="m 555,1445.97 -72.148,0"
             style="fill:none;stroke:#000000;stroke-opacity:1;stroke-width:13.875;stroke-linecap:butt;stroke-linejoin:round;stroke-miterlimit:10;stroke-dasharray:none"
             id="path104" /></g></g><g
         id="g106"><g
           id="g108"
           clip-path="url(#clipPath110)"><path
             d="m 294.191,1436.94 119.238,0 0,9.3242 -119.238,0 0,-9.3242 z"
             style="fill:#000000;fill-opacity:1;fill-rule:nonzero;stroke:none"
             id="path114" /></g></g><g
         id="g116"><g
           id="g118"
           clip-path="url(#clipPath120)"><path
             d="m 472.398,1431.51 0,-12.57 -16.043,0 0,-31.44 -14.523,0 0,31.44 -50.516,0 0,11.28 55.5,79.13 9.539,0 0,-77.84 16.043,0 z m -30.566,0 0,59.42 -41.844,-59.42 41.844,0"
             style="fill:#000000;fill-opacity:1;fill-rule:nonzero;stroke:none"
             id="path124" /><path
             d="m 555,2123.25 -72.148,0"
             style="fill:none;stroke:#000000;stroke-opacity:1;stroke-width:13.875;stroke-linecap:butt;stroke-linejoin:round;stroke-miterlimit:10;stroke-dasharray:none"
             id="path126" /></g></g><g
         id="g128"><g
           id="g130"
           clip-path="url(#clipPath132)"><path
             d="m 294.191,2116.81 119.238,0 0,9.3242 -119.238,0 0,-9.3242 z"
             style="fill:#000000;fill-opacity:1;fill-rule:nonzero;stroke:none"
             id="path136" /></g></g><g
         id="g138"><g
           id="g140"
           clip-path="url(#clipPath142)"><path
             d="m 471.098,2090.37 -8.239,-22.99 -70.457,0 0,3.26 c 20.668,18.92 35.231,34.39 43.684,46.4 8.457,11.98 12.684,22.9 12.684,32.73 0,7.66 -2.313,13.91 -6.938,18.75 -4.625,4.83 -10.191,7.26 -16.695,7.26 -5.782,0 -11.02,-1.69 -15.715,-5.09 -4.699,-3.4 -8.133,-8.42 -10.301,-15.07 l -3.25,0 c 1.445,10.84 5.203,19.15 11.274,24.93 6.07,5.77 13.656,8.68 22.761,8.68 9.684,0 17.778,-3.11 24.282,-9.33 6.503,-6.22 9.757,-13.51 9.757,-21.89 0,-6.08 -1.445,-12.14 -4.336,-18.22 -4.336,-9.53 -11.347,-19.58 -21.031,-30.14 -14.598,-16.04 -23.773,-25.72 -27.531,-29.04 l 31.219,0 c 6.359,0 10.804,0.25 13.332,0.75 2.531,0.52 4.843,1.49 6.937,2.93 2.094,1.44 3.867,3.47 5.313,6.08 l 3.25,0"
             style="fill:#000000;fill-opacity:1;fill-rule:nonzero;stroke:none"
             id="path146" /><path
             d="m 555,2800.54 -72.148,0"
             style="fill:none;stroke:#000000;stroke-opacity:1;stroke-width:13.875;stroke-linecap:butt;stroke-linejoin:round;stroke-miterlimit:10;stroke-dasharray:none"
             id="path148" /><path
             d="m 395.004,2792.34 c 0,13.6 2.058,25.34 6.18,35.25 4.117,9.89 9.574,17.23 16.367,21.99 5.347,3.76 10.84,5.65 16.476,5.65 9.106,0 17.27,-4.64 24.496,-13.88 9.106,-11.57 13.661,-27.25 13.661,-47.05 0,-13.87 -1.989,-25.66 -5.961,-35.34 -3.977,-9.68 -9.071,-16.73 -15.285,-21.13 -6.215,-4.41 -12.141,-6.62 -17.778,-6.62 -11.418,0 -20.957,6.73 -28.617,20.16 -6.359,11.42 -9.539,25.09 -9.539,40.97 z m 17.344,-2.16 c 0,-16.47 2.023,-29.91 6.07,-40.32 3.324,-8.67 8.309,-13.02 14.957,-13.02 3.18,0 6.469,1.42 9.867,4.23 3.395,2.82 5.961,7.64 7.696,14.42 2.746,9.98 4.117,24.21 4.117,42.71 0,13.58 -1.446,24.93 -4.336,34.03 -2.024,6.81 -4.77,11.57 -8.239,14.32 -2.312,1.88 -5.203,2.82 -8.671,2.82 -3.903,0 -7.442,-1.73 -10.621,-5.2 -4.192,-4.92 -7.047,-12.62 -8.563,-23.09 -1.52,-10.48 -2.277,-20.79 -2.277,-30.9"
             style="fill:#000000;fill-opacity:1;fill-rule:nonzero;stroke:none"
             id="path150" /><path
             d="m 555,3477.84 -72.148,0"
             style="fill:none;stroke:#000000;stroke-opacity:1;stroke-width:13.875;stroke-linecap:butt;stroke-linejoin:round;stroke-miterlimit:10;stroke-dasharray:none"
             id="path152" /><path
             d="m 471.098,3436.24 -8.239,-22.99 -70.457,0 0,3.26 c 20.668,18.93 35.231,34.4 43.684,46.4 8.457,11.99 12.684,22.91 12.684,32.73 0,7.66 -2.313,13.91 -6.938,18.76 -4.625,4.83 -10.191,7.26 -16.695,7.26 -5.782,0 -11.02,-1.7 -15.715,-5.1 -4.699,-3.4 -8.133,-8.42 -10.301,-15.06 l -3.25,0 c 1.445,10.83 5.203,19.14 11.274,24.93 6.07,5.77 13.656,8.67 22.761,8.67 9.684,0 17.778,-3.11 24.282,-9.32 6.503,-6.22 9.757,-13.52 9.757,-21.9 0,-6.08 -1.445,-12.14 -4.336,-18.22 -4.336,-9.53 -11.347,-19.57 -21.031,-30.13 -14.598,-16.04 -23.773,-25.73 -27.531,-29.04 l 31.219,0 c 6.359,0 10.804,0.25 13.332,0.74 2.531,0.52 4.843,1.49 6.937,2.93 2.094,1.45 3.867,3.47 5.313,6.08 l 3.25,0"
             style="fill:#000000;fill-opacity:1;fill-rule:nonzero;stroke:none"
             id="path154" /><path
             d="m 555,4155.13 -72.148,0"
             style="fill:none;stroke:#000000;stroke-opacity:1;stroke-width:13.875;stroke-linecap:butt;stroke-linejoin:round;stroke-miterlimit:10;stroke-dasharray:none"
             id="path156" /><path
             d="m 472.398,4137.14 0,-12.57 -16.043,0 0,-31.45 -14.523,0 0,31.45 -50.516,0 0,11.28 55.5,79.11 9.539,0 0,-77.82 16.043,0 z m -30.566,0 0,59.4 -41.844,-59.4 41.844,0"
             style="fill:#000000;fill-opacity:1;fill-rule:nonzero;stroke:none"
             id="path158" /><path
             d="m 555,4832.42 -72.148,0"
             style="fill:none;stroke:#000000;stroke-opacity:1;stroke-width:13.875;stroke-linecap:butt;stroke-linejoin:round;stroke-miterlimit:10;stroke-dasharray:none"
             id="path160" /><path
             d="m 469.363,4894.84 0,-3.25 c -7.804,-0.72 -14.164,-2.24 -19.078,-4.55 -4.914,-2.32 -9.754,-5.86 -14.523,-10.63 -4.77,-4.77 -8.707,-10.08 -11.817,-15.93 -3.105,-5.86 -5.746,-12.76 -7.914,-20.71 8.528,5.78 17.055,8.68 25.582,8.68 8.094,0 15.141,-3.29 21.141,-9.87 5.996,-6.58 8.996,-15.06 8.996,-25.47 0,-9.97 -3.035,-19.08 -9.105,-27.32 -7.227,-9.97 -16.84,-14.96 -28.836,-14.96 -8.239,0 -15.176,2.75 -20.813,8.24 -11.129,10.41 -16.691,23.99 -16.691,40.76 0,10.69 2.133,20.85 6.394,30.46 4.266,9.61 10.371,18.17 18.321,25.69 7.949,7.52 15.574,12.54 22.871,15.07 7.3,2.52 14.054,3.79 20.269,3.79 l 5.203,0 z m -54.847,-61.57 c -1.012,-7.95 -1.52,-14.38 -1.52,-19.29 0,-5.64 1.051,-11.75 3.145,-18.32 2.097,-6.58 5.168,-11.82 9.214,-15.72 3.036,-2.75 6.719,-4.12 11.055,-4.12 5.059,0 9.613,2.42 13.66,7.26 4.047,4.85 6.071,11.67 6.071,20.49 0,10.12 -2.024,18.82 -6.071,26.13 -4.047,7.29 -9.683,10.94 -16.91,10.94 -2.312,0 -4.734,-0.47 -7.262,-1.41 -2.531,-0.94 -6.324,-2.93 -11.382,-5.96"
             style="fill:#000000;fill-opacity:1;fill-rule:nonzero;stroke:none"
             id="path162" /></g></g></g><path
       style="fill:none;stroke:#0400ff;stroke-width:3;stroke-linecap:butt;stroke-linejoin:miter;stroke-opacity:1;stroke-miterlimit:4;stroke-dasharray:none"
       d="m 684,13.75 0,664"
       id="path3147"
       inkscape:connector-curvature="0"
       transform="matrix(0.8,0,0,-0.8,0,555)" /><text
       xml:space="preserve"
       style="font-size:17.60000038000000089px;font-style:normal;font-variant:normal;font-weight:normal;font-stretch:normal;line-height:125%;letter-spacing:0px;word-spacing:0px;fill:#000000;fill-opacity:1;stroke:none;font-family:Arial;-inkscape-font-specification:Arial;filter:url(#filter3927)"
       x="33.600006"
       y="-547.20007"
       id="text3917"
       sodipodi:linespacing="125%"
       transform="scale(1,-1)"><tspan
         sodipodi:role="line"
         id="tspan3919"
         x="33.600006"
         y="-547.20007">λ=0.5</tspan></text>
<text
       transform="scale(1,-1)"
       sodipodi:linespacing="125%"
       id="text3921"
       y="-547.20007"
       x="533.59991"
       style="font-size:17.60000038000000089px;font-style:normal;font-variant:normal;font-weight:normal;font-stretch:normal;line-height:125%;letter-spacing:0px;word-spacing:0px;fill:#000000;fill-opacity:1;stroke:none;font-family:Arial;-inkscape-font-specification:Arial;filter:url(#filter3927)"
       xml:space="preserve"><tspan
         y="-547.20007"
         x="533.59991"
         id="tspan3923"
         sodipodi:role="line">λ=1</tspan></text>
</g></svg>