<?xml version="1.0" encoding="UTF-8" standalone="no"?>
<!-- Created with Inkscape (http://www.inkscape.org/) -->

<svg
   xmlns:dc="http://purl.org/dc/elements/1.1/"
   xmlns:cc="http://creativecommons.org/ns#"
   xmlns:rdf="http://www.w3.org/1999/02/22-rdf-syntax-ns#"
   xmlns:svg="http://www.w3.org/2000/svg"
   xmlns="http://www.w3.org/2000/svg"
   xmlns:sodipodi="http://sodipodi.sourceforge.net/DTD/sodipodi-0.dtd"
   xmlns:inkscape="http://www.inkscape.org/namespaces/inkscape"
   id="svg2"
   version="1.1"
   inkscape:version="0.48.1 r9760"
   width="693.75"
   height="693.75"
   xml:space="preserve"
   sodipodi:docname="CHUA2V1.eps"><metadata
     id="metadata8"><rdf:RDF><cc:Work
         rdf:about=""><dc:format>image/svg+xml</dc:format><dc:type
           rdf:resource="http://purl.org/dc/dcmitype/StillImage" /><dc:title></dc:title></cc:Work></rdf:RDF></metadata><defs
     id="defs6"><clipPath
       clipPathUnits="userSpaceOnUse"
       id="clipPath20"><path
         d="m 790.875,5397.27 4661.915,0 0,-5223.832 -4661.915,0 0,5223.832 z"
         id="path22" /></clipPath><clipPath
       clipPathUnits="userSpaceOnUse"
       id="clipPath32"><path
         d="m 69.375,5480.62 5411.245,0 0,-5411.245 -5411.245,0 0,5411.245 z"
         id="path34" /></clipPath><clipPath
       clipPathUnits="userSpaceOnUse"
       id="clipPath100"><path
         d="m 69.375,2886 194.25,0 0,-208.12 -194.25,0 0,208.12 z"
         id="path102" /></clipPath><clipPath
       clipPathUnits="userSpaceOnUse"
       id="clipPath110"><path
         d="m 69.375,5480.62 5411.245,0 0,-5411.245 -5411.245,0 0,5411.245 z"
         id="path112" /></clipPath><clipPath
       clipPathUnits="userSpaceOnUse"
       id="clipPath120"><path
         d="m 471.75,277.5 97.125,0 0,-180.375 -97.125,0 0,180.375 z"
         id="path122" /></clipPath><clipPath
       clipPathUnits="userSpaceOnUse"
       id="clipPath130"><path
         d="m 69.375,5480.62 5411.245,0 0,-5411.245 -5411.245,0 0,5411.245 z"
         id="path132" /></clipPath><clipPath
       clipPathUnits="userSpaceOnUse"
       id="clipPath142"><path
         d="m 346.875,1998 97.125,0 0,-180.38 -97.125,0 0,180.38 z"
         id="path144" /></clipPath><clipPath
       clipPathUnits="userSpaceOnUse"
       id="clipPath152"><path
         d="m 69.375,5480.62 5411.245,0 0,-5411.245 -5411.245,0 0,5411.245 z"
         id="path154" /></clipPath><filter
       id="filter3147"
       inkscape:label="filter1"><feBlend
         blend="normal"
         id="feBlend3149"
         in2="SourceGraphic" /></filter></defs><sodipodi:namedview
     pagecolor="#ffffff"
     bordercolor="#666666"
     borderopacity="1"
     objecttolerance="10"
     gridtolerance="10"
     guidetolerance="10"
     inkscape:pageopacity="0"
     inkscape:pageshadow="2"
     inkscape:window-width="1680"
     inkscape:window-height="921"
     id="namedview4"
     showgrid="true"
     inkscape:zoom="1.0482658"
     inkscape:cx="146.19365"
     inkscape:cy="349.62506"
     inkscape:window-x="0"
     inkscape:window-y="0"
     inkscape:window-maximized="0"
     inkscape:current-layer="g10"><inkscape:grid
       type="xygrid"
       id="grid3141" /></sodipodi:namedview><g
     id="g10"
     inkscape:groupmode="layer"
     inkscape:label="ink_ext_XXXXXX"
     transform="matrix(1.25,0,0,-1.25,0,693.75)"><g
       id="g12"
       transform="scale(0.1,0.1)"><path
         d="m 0,0 5550,0 0,5550 L 0,5550 0,0 z"
         style="fill:#ffffff;fill-opacity:1;fill-rule:nonzero;stroke:none"
         id="path14" /><g
         id="g16"><g
           id="g18"
           clip-path="url(#clipPath20)"><path
             d="m -5341.88,5224.36 10506.67,-432.4 -2191.92,-299.61 197.92,-380 289.29,-379.92 580.35,-759.86 290.91,-379.94 292.07,-379.93 293.7,-379.94 295.82,-379.91 125.85,-379.91 -299.49,-379.881 -300.43,-379.86 -301.88,-379.8123"
             style="fill:none;stroke:#ff0000;stroke-opacity:1;stroke-width:13.875;stroke-linecap:butt;stroke-linejoin:round;stroke-miterlimit:10;stroke-dasharray:none"
             id="path24" /><path
             d="m 5425.04,187.312 0,5251.298"
             style="fill:none;stroke:#00ff00;stroke-opacity:1;stroke-width:13.875;stroke-linecap:butt;stroke-linejoin:round;stroke-miterlimit:10;stroke-dasharray:none"
             id="path26" /></g></g><g
         id="g28"><g
           id="g30"
           clip-path="url(#clipPath32)"><path
             d="m 4963.02,3642.12 0,-36.08"
             style="fill:none;stroke:#000000;stroke-opacity:1;stroke-width:13.875;stroke-linecap:butt;stroke-linejoin:round;stroke-miterlimit:10;stroke-dasharray:none"
             id="path36" /><path
             d="m 4038.96,3642.12 0,-36.08"
             style="fill:none;stroke:#000000;stroke-opacity:1;stroke-width:13.875;stroke-linecap:butt;stroke-linejoin:round;stroke-miterlimit:10;stroke-dasharray:none"
             id="path38" /><path
             d="m 3114.89,3642.12 0,-36.08"
             style="fill:none;stroke:#000000;stroke-opacity:1;stroke-width:13.875;stroke-linecap:butt;stroke-linejoin:round;stroke-miterlimit:10;stroke-dasharray:none"
             id="path40" /><path
             d="m 2190.84,3642.12 0,-36.08"
             style="fill:none;stroke:#000000;stroke-opacity:1;stroke-width:13.875;stroke-linecap:butt;stroke-linejoin:round;stroke-miterlimit:10;stroke-dasharray:none"
             id="path42" /><path
             d="m 1266.78,3642.12 0,-36.08"
             style="fill:none;stroke:#000000;stroke-opacity:1;stroke-width:13.875;stroke-linecap:butt;stroke-linejoin:round;stroke-miterlimit:10;stroke-dasharray:none"
             id="path44" /><path
             d="m 763.125,3642.12 4661.915,0"
             style="fill:none;stroke:#000000;stroke-opacity:1;stroke-width:13.875;stroke-linecap:butt;stroke-linejoin:round;stroke-miterlimit:10;stroke-dasharray:none"
             id="path46" /><path
             d="m 804.75,3642.12 0,-72.15"
             style="fill:none;stroke:#000000;stroke-opacity:1;stroke-width:13.875;stroke-linecap:butt;stroke-linejoin:round;stroke-miterlimit:10;stroke-dasharray:none"
             id="path48" /><path
             d="m 1728.8,3642.12 0,-72.15"
             style="fill:none;stroke:#000000;stroke-opacity:1;stroke-width:13.875;stroke-linecap:butt;stroke-linejoin:round;stroke-miterlimit:10;stroke-dasharray:none"
             id="path50" /><path
             d="m 1546.62,3444.47 c 0,13.6 2.07,25.33 6.19,35.24 4.1,9.9 9.57,17.24 16.35,21.99 5.36,3.76 10.86,5.65 16.49,5.65 9.1,0 17.27,-4.64 24.49,-13.87 9.11,-11.58 13.66,-27.25 13.66,-47.05 0,-13.88 -1.98,-25.66 -5.96,-35.34 -3.97,-9.69 -9.07,-16.74 -15.28,-21.14 -6.21,-4.41 -12.14,-6.61 -17.79,-6.61 -11.41,0 -20.95,6.73 -28.61,20.16 -6.36,11.41 -9.54,25.08 -9.54,40.97 z m 17.34,-2.17 c 0,-16.46 2.03,-29.91 6.08,-40.32 3.32,-8.67 8.31,-13.01 14.96,-13.01 3.18,0 6.46,1.41 9.86,4.23 3.4,2.82 5.97,7.63 7.7,14.42 2.74,9.97 4.11,24.21 4.11,42.7 0,13.59 -1.44,24.94 -4.33,34.04 -2.02,6.8 -4.77,11.57 -8.24,14.32 -2.3,1.87 -5.21,2.82 -8.67,2.82 -3.9,0 -7.44,-1.74 -10.62,-5.21 -4.2,-4.91 -7.04,-12.61 -8.57,-23.09 -1.51,-10.47 -2.28,-20.78 -2.28,-30.9 z m 88.9,-39.66 c 2.73,0 5.05,-0.98 6.94,-2.93 1.87,-1.96 2.81,-4.23 2.81,-6.83 0,-2.75 -0.94,-5.06 -2.81,-6.93 -1.89,-1.89 -4.21,-2.82 -6.94,-2.82 -2.75,0 -5.06,0.93 -6.94,2.82 -1.88,1.87 -2.83,4.18 -2.83,6.93 0,2.75 0.95,5.05 2.83,6.94 1.88,1.87 4.19,2.82 6.94,2.82 z m 32.08,-19.51 0,3.25 c 7.66,0 14.77,1.73 21.35,5.2 6.58,3.47 12.93,9.5 19.08,18.1 6.15,8.59 10.38,18.03 12.68,28.3 -9.24,-5.93 -17.55,-8.9 -24.93,-8.9 -8.38,0 -15.57,3.22 -21.56,9.64 -6.01,6.44 -9.01,15.07 -9.01,25.92 0,10.41 2.97,19.72 8.9,27.96 7.23,9.84 16.69,14.75 28.4,14.75 9.82,0 18.2,-4.05 25.14,-12.14 8.53,-9.98 12.79,-22.34 12.79,-37.07 0,-13.31 -3.24,-25.7 -9.75,-37.19 -6.51,-11.49 -15.54,-20.99 -27.1,-28.51 -9.55,-6.21 -19.87,-9.31 -31.01,-9.31 l -4.98,0 z m 54.64,61.34 c 1,7.67 1.51,13.74 1.51,18.22 0,5.78 -0.97,11.96 -2.93,18.53 -1.95,6.58 -4.7,11.63 -8.24,15.18 -3.54,3.54 -7.54,5.3 -12.03,5.3 -5.2,0 -9.79,-2.34 -13.76,-7.03 -3.99,-4.71 -5.97,-11.69 -5.97,-20.92 0,-12.44 2.61,-22.12 7.81,-29.06 3.9,-5.07 8.59,-7.59 14.08,-7.59 2.75,0 5.97,0.65 9.66,1.96 3.68,1.3 6.97,3.1 9.87,5.41 z m 35.54,-61.34 0,3.25 c 7.67,0 14.78,1.73 21.36,5.2 6.57,3.47 12.93,9.5 19.08,18.1 6.14,8.59 10.38,18.03 12.68,28.3 -9.24,-5.93 -17.55,-8.9 -24.94,-8.9 -8.37,0 -15.56,3.22 -21.55,9.64 -6.01,6.44 -9.01,15.07 -9.01,25.92 0,10.41 2.97,19.72 8.89,27.96 7.23,9.84 16.69,14.75 28.41,14.75 9.82,0 18.2,-4.05 25.14,-12.14 8.53,-9.98 12.79,-22.34 12.79,-37.07 0,-13.31 -3.25,-25.7 -9.76,-37.19 -6.5,-11.49 -15.53,-20.99 -27.09,-28.51 -9.55,-6.21 -19.87,-9.31 -31.01,-9.31 l -4.99,0 z m 54.65,61.34 c 1,7.67 1.51,13.74 1.51,18.22 0,5.78 -0.97,11.96 -2.93,18.53 -1.96,6.58 -4.7,11.63 -8.24,15.18 -3.54,3.54 -7.55,5.3 -12.03,5.3 -5.2,0 -9.79,-2.34 -13.76,-7.03 -3.99,-4.71 -5.97,-11.69 -5.97,-20.92 0,-12.44 2.61,-22.12 7.81,-29.06 3.9,-5.07 8.59,-7.59 14.08,-7.59 2.75,0 5.97,0.65 9.66,1.96 3.68,1.3 6.97,3.1 9.87,5.41 z m 108.61,-35.98 -8.24,-22.99 -70.46,0 0,3.26 c 20.66,18.93 35.23,34.4 43.68,46.4 8.46,11.99 12.68,22.91 12.68,32.73 0,7.66 -2.3,13.91 -6.94,18.76 -4.62,4.83 -10.18,7.26 -16.69,7.26 -5.77,0 -11.02,-1.7 -15.72,-5.1 -4.69,-3.4 -8.13,-8.42 -10.3,-15.06 l -3.24,0 c 1.44,10.83 5.2,19.14 11.26,24.93 6.08,5.77 13.67,8.67 22.77,8.67 9.69,0 17.78,-3.11 24.28,-9.32 6.51,-6.22 9.76,-13.52 9.76,-21.9 0,-6.08 -1.44,-12.14 -4.33,-18.22 -4.34,-9.53 -11.35,-19.57 -21.03,-30.13 -14.6,-16.04 -23.79,-25.73 -27.53,-29.04 l 31.22,0 c 6.35,0 10.79,0.25 13.32,0.74 2.54,0.52 4.84,1.49 6.93,2.93 2.11,1.45 3.88,3.47 5.32,6.08 l 3.26,0"
             style="fill:#000000;fill-opacity:1;fill-rule:nonzero;stroke:none"
             id="path52" /><path
             d="m 2652.86,3642.12 0,-72.15"
             style="fill:none;stroke:#000000;stroke-opacity:1;stroke-width:13.875;stroke-linecap:butt;stroke-linejoin:round;stroke-miterlimit:10;stroke-dasharray:none"
             id="path54" /><path
             d="m 2476.24,3444.47 c 0,13.6 2.07,25.33 6.19,35.24 4.11,9.9 9.57,17.24 16.36,21.99 5.35,3.76 10.85,5.65 16.48,5.65 9.11,0 17.28,-4.64 24.49,-13.87 9.12,-11.58 13.67,-27.25 13.67,-47.05 0,-13.88 -1.98,-25.66 -5.97,-35.34 -3.96,-9.69 -9.07,-16.74 -15.27,-21.14 -6.22,-4.41 -12.14,-6.61 -17.79,-6.61 -11.42,0 -20.95,6.73 -28.61,20.16 -6.37,11.41 -9.55,25.08 -9.55,40.97 z m 17.35,-2.17 c 0,-16.46 2.02,-29.91 6.07,-40.32 3.32,-8.67 8.32,-13.01 14.96,-13.01 3.18,0 6.47,1.41 9.87,4.23 3.4,2.82 5.96,7.63 7.7,14.42 2.73,9.97 4.1,24.21 4.1,42.7 0,13.59 -1.44,24.94 -4.33,34.04 -2.02,6.8 -4.77,11.57 -8.24,14.32 -2.3,1.87 -5.2,2.82 -8.67,2.82 -3.9,0 -7.44,-1.74 -10.61,-5.21 -4.21,-4.91 -7.05,-12.61 -8.58,-23.09 -1.51,-10.47 -2.27,-20.78 -2.27,-30.9 z m 88.89,-39.66 c 2.74,0 5.06,-0.98 6.94,-2.93 1.88,-1.96 2.82,-4.23 2.82,-6.83 0,-2.75 -0.94,-5.06 -2.82,-6.93 -1.88,-1.89 -4.2,-2.82 -6.94,-2.82 -2.74,0 -5.06,0.93 -6.93,2.82 -1.89,1.87 -2.84,4.18 -2.84,6.93 0,2.75 0.95,5.05 2.84,6.94 1.87,1.87 4.19,2.82 6.93,2.82 z m 32.08,-19.51 0,3.25 c 7.66,0 14.78,1.73 21.36,5.2 6.57,3.47 12.93,9.5 19.08,18.1 6.14,8.59 10.38,18.03 12.68,28.3 -9.24,-5.93 -17.56,-8.9 -24.94,-8.9 -8.38,0 -15.56,3.22 -21.56,9.64 -6,6.44 -9,15.07 -9,25.92 0,10.41 2.96,19.72 8.89,27.96 7.23,9.84 16.69,14.75 28.4,14.75 9.83,0 18.21,-4.05 25.14,-12.14 8.54,-9.98 12.8,-22.34 12.8,-37.07 0,-13.31 -3.25,-25.7 -9.76,-37.19 -6.51,-11.49 -15.54,-20.99 -27.1,-28.51 -9.54,-6.21 -19.86,-9.31 -31.01,-9.31 l -4.98,0 z m 54.64,61.34 c 1,7.67 1.51,13.74 1.51,18.22 0,5.78 -0.96,11.96 -2.92,18.53 -1.96,6.58 -4.7,11.63 -8.24,15.18 -3.54,3.54 -7.55,5.3 -12.03,5.3 -5.21,0 -9.8,-2.34 -13.77,-7.03 -3.98,-4.71 -5.96,-11.69 -5.96,-20.92 0,-12.44 2.6,-22.12 7.81,-29.06 3.9,-5.07 8.59,-7.59 14.08,-7.59 2.75,0 5.97,0.65 9.66,1.96 3.68,1.3 6.96,3.1 9.86,5.41 z m 35.55,-61.34 0,3.25 c 7.66,0 14.78,1.73 21.36,5.2 6.57,3.47 12.93,9.5 19.07,18.1 6.15,8.59 10.38,18.03 12.68,28.3 -9.24,-5.93 -17.55,-8.9 -24.93,-8.9 -8.38,0 -15.57,3.22 -21.56,9.64 -6.01,6.44 -9.01,15.07 -9.01,25.92 0,10.41 2.97,19.72 8.9,27.96 7.23,9.84 16.69,14.75 28.4,14.75 9.82,0 18.2,-4.05 25.14,-12.14 8.54,-9.98 12.79,-22.34 12.79,-37.07 0,-13.31 -3.24,-25.7 -9.75,-37.19 -6.51,-11.49 -15.54,-20.99 -27.1,-28.51 -9.54,-6.21 -19.86,-9.31 -31.01,-9.31 l -4.98,0 z m 54.64,61.34 c 1,7.67 1.51,13.74 1.51,18.22 0,5.78 -0.97,11.96 -2.92,18.53 -1.96,6.58 -4.71,11.63 -8.25,15.18 -3.53,3.54 -7.54,5.3 -12.03,5.3 -5.2,0 -9.79,-2.34 -13.76,-7.03 -3.98,-4.71 -5.97,-11.69 -5.97,-20.92 0,-12.44 2.61,-22.12 7.82,-29.06 3.89,-5.07 8.59,-7.59 14.08,-7.59 2.75,0 5.97,0.65 9.66,1.96 3.67,1.3 6.96,3.1 9.86,5.41 z m 109.9,-14.96 0,-12.57 -16.04,0 0,-31.44 -14.52,0 0,31.44 -50.51,0 0,11.28 55.5,79.13 9.53,0 0,-77.84 16.04,0 z m -30.56,0 0,59.42 -41.84,-59.42 41.84,0"
             style="fill:#000000;fill-opacity:1;fill-rule:nonzero;stroke:none"
             id="path56" /><path
             d="m 3576.92,3642.12 0,-72.15"
             style="fill:none;stroke:#000000;stroke-opacity:1;stroke-width:13.875;stroke-linecap:butt;stroke-linejoin:round;stroke-miterlimit:10;stroke-dasharray:none"
             id="path58" /><path
             d="m 3391.99,3444.47 c 0,13.6 2.07,25.33 6.19,35.24 4.11,9.9 9.57,17.24 16.36,21.99 5.35,3.76 10.85,5.65 16.48,5.65 9.1,0 17.28,-4.64 24.49,-13.87 9.12,-11.58 13.67,-27.25 13.67,-47.05 0,-13.88 -1.98,-25.66 -5.97,-35.34 -3.96,-9.69 -9.07,-16.74 -15.27,-21.14 -6.22,-4.41 -12.14,-6.61 -17.79,-6.61 -11.42,0 -20.95,6.73 -28.61,20.16 -6.37,11.41 -9.55,25.08 -9.55,40.97 z m 17.35,-2.17 c 0,-16.46 2.02,-29.91 6.07,-40.32 3.32,-8.67 8.32,-13.01 14.96,-13.01 3.18,0 6.47,1.41 9.87,4.23 3.4,2.82 5.96,7.63 7.7,14.42 2.73,9.97 4.1,24.21 4.1,42.7 0,13.59 -1.44,24.94 -4.33,34.04 -2.02,6.8 -4.77,11.57 -8.24,14.32 -2.3,1.87 -5.2,2.82 -8.67,2.82 -3.9,0 -7.44,-1.74 -10.61,-5.21 -4.21,-4.91 -7.05,-12.61 -8.58,-23.09 -1.51,-10.47 -2.27,-20.78 -2.27,-30.9 z m 88.89,-39.66 c 2.74,0 5.06,-0.98 6.94,-2.93 1.88,-1.96 2.82,-4.23 2.82,-6.83 0,-2.75 -0.94,-5.06 -2.82,-6.93 -1.88,-1.89 -4.2,-2.82 -6.94,-2.82 -2.74,0 -5.06,0.93 -6.93,2.82 -1.89,1.87 -2.84,4.18 -2.84,6.93 0,2.75 0.95,5.05 2.84,6.94 1.87,1.87 4.19,2.82 6.93,2.82 z m 32.08,-19.51 0,3.25 c 7.66,0 14.78,1.73 21.36,5.2 6.57,3.47 12.93,9.5 19.08,18.1 6.14,8.59 10.37,18.03 12.68,28.3 -9.24,-5.93 -17.55,-8.9 -24.94,-8.9 -8.38,0 -15.56,3.22 -21.56,9.64 -6,6.44 -9,15.07 -9,25.92 0,10.41 2.96,19.72 8.89,27.96 7.23,9.84 16.69,14.75 28.4,14.75 9.83,0 18.21,-4.05 25.14,-12.14 8.54,-9.98 12.8,-22.34 12.8,-37.07 0,-13.31 -3.25,-25.7 -9.76,-37.19 -6.51,-11.49 -15.54,-20.99 -27.1,-28.51 -9.54,-6.21 -19.86,-9.31 -31.01,-9.31 l -4.98,0 z m 54.64,61.34 c 1,7.67 1.51,13.74 1.51,18.22 0,5.78 -0.96,11.96 -2.92,18.53 -1.96,6.58 -4.7,11.63 -8.24,15.18 -3.54,3.54 -7.55,5.3 -12.03,5.3 -5.21,0 -9.8,-2.34 -13.77,-7.03 -3.98,-4.71 -5.96,-11.69 -5.96,-20.92 0,-12.44 2.6,-22.12 7.81,-29.06 3.9,-5.07 8.59,-7.59 14.08,-7.59 2.75,0 5.97,0.65 9.66,1.96 3.68,1.3 6.96,3.1 9.86,5.41 z m 35.55,-61.34 0,3.25 c 7.66,0 14.78,1.73 21.36,5.2 6.57,3.47 12.93,9.5 19.07,18.1 6.15,8.59 10.38,18.03 12.68,28.3 -9.23,-5.93 -17.55,-8.9 -24.93,-8.9 -8.38,0 -15.57,3.22 -21.56,9.64 -6.01,6.44 -9.01,15.07 -9.01,25.92 0,10.41 2.97,19.72 8.9,27.96 7.23,9.84 16.69,14.75 28.4,14.75 9.82,0 18.2,-4.05 25.14,-12.14 8.54,-9.98 12.79,-22.34 12.79,-37.07 0,-13.31 -3.24,-25.7 -9.75,-37.19 -6.51,-11.49 -15.54,-20.99 -27.1,-28.51 -9.54,-6.21 -19.87,-9.31 -31.01,-9.31 l -4.98,0 z m 54.64,61.34 c 1,7.67 1.51,13.74 1.51,18.22 0,5.78 -0.97,11.96 -2.92,18.53 -1.96,6.58 -4.71,11.63 -8.25,15.18 -3.53,3.54 -7.54,5.3 -12.03,5.3 -5.2,0 -9.79,-2.34 -13.76,-7.03 -3.98,-4.71 -5.97,-11.69 -5.97,-20.92 0,-12.44 2.61,-22.12 7.82,-29.06 3.89,-5.07 8.58,-7.59 14.08,-7.59 2.75,0 5.97,0.65 9.66,1.96 3.67,1.3 6.96,3.1 9.86,5.41 z m 106.88,62.88 0,-3.26 c -7.81,-0.72 -14.16,-2.23 -19.08,-4.55 -4.91,-2.31 -9.75,-5.86 -14.53,-10.61 -4.77,-4.78 -8.71,-10.09 -11.82,-15.95 -3.11,-5.86 -5.74,-12.75 -7.91,-20.7 8.54,5.79 17.06,8.67 25.59,8.67 8.09,0 15.14,-3.29 21.13,-9.86 5.99,-6.58 9.01,-15.07 9.01,-25.48 0,-9.97 -3.04,-19.07 -9.12,-27.32 -7.23,-9.96 -16.83,-14.95 -28.83,-14.95 -8.25,0 -15.18,2.74 -20.82,8.24 -11.12,10.4 -16.69,23.99 -16.69,40.75 0,10.7 2.14,20.85 6.4,30.47 4.26,9.6 10.36,18.17 18.31,25.68 7.96,7.52 15.59,12.54 22.89,15.07 7.29,2.54 14.05,3.8 20.27,3.8 l 5.2,0 z m -54.85,-61.58 c -1.01,-7.95 -1.53,-14.37 -1.53,-19.28 0,-5.65 1.06,-11.76 3.16,-18.33 2.09,-6.58 5.16,-11.81 9.21,-15.72 3.04,-2.74 6.71,-4.11 11.06,-4.11 5.05,0 9.6,2.42 13.65,7.26 4.05,4.84 6.08,11.67 6.08,20.49 0,10.12 -2.03,18.81 -6.08,26.11 -4.05,7.3 -9.68,10.95 -16.92,10.95 -2.3,0 -4.73,-0.46 -7.25,-1.4 -2.53,-0.94 -6.33,-2.93 -11.38,-5.97"
             style="fill:#000000;fill-opacity:1;fill-rule:nonzero;stroke:none"
             id="path60" /><path
             d="m 4500.98,3642.12 0,-72.15"
             style="fill:none;stroke:#000000;stroke-opacity:1;stroke-width:13.875;stroke-linecap:butt;stroke-linejoin:round;stroke-miterlimit:10;stroke-dasharray:none"
             id="path62" /><path
             d="m 4321.62,3444.47 c 0,13.6 2.07,25.33 6.19,35.24 4.1,9.9 9.57,17.24 16.35,21.99 5.36,3.76 10.86,5.65 16.49,5.65 9.1,0 17.27,-4.64 24.49,-13.87 9.11,-11.58 13.66,-27.25 13.66,-47.05 0,-13.88 -1.98,-25.66 -5.96,-35.34 -3.97,-9.69 -9.07,-16.74 -15.28,-21.14 -6.21,-4.41 -12.14,-6.61 -17.79,-6.61 -11.41,0 -20.95,6.73 -28.61,20.16 -6.36,11.41 -9.54,25.08 -9.54,40.97 z m 17.34,-2.17 c 0,-16.46 2.03,-29.91 6.08,-40.32 3.32,-8.67 8.31,-13.01 14.96,-13.01 3.18,0 6.46,1.41 9.86,4.23 3.4,2.82 5.97,7.63 7.7,14.42 2.74,9.97 4.11,24.21 4.11,42.7 0,13.59 -1.44,24.94 -4.33,34.04 -2.02,6.8 -4.77,11.57 -8.24,14.32 -2.3,1.87 -5.21,2.82 -8.67,2.82 -3.9,0 -7.44,-1.74 -10.62,-5.21 -4.2,-4.91 -7.04,-12.61 -8.57,-23.09 -1.51,-10.47 -2.28,-20.78 -2.28,-30.9 z m 88.9,-39.66 c 2.73,0 5.05,-0.98 6.94,-2.93 1.87,-1.96 2.81,-4.23 2.81,-6.83 0,-2.75 -0.94,-5.06 -2.81,-6.93 -1.89,-1.89 -4.21,-2.82 -6.94,-2.82 -2.75,0 -5.06,0.93 -6.94,2.82 -1.88,1.87 -2.83,4.18 -2.83,6.93 0,2.75 0.95,5.05 2.83,6.94 1.88,1.87 4.19,2.82 6.94,2.82 z m 32.08,-19.51 0,3.25 c 7.66,0 14.77,1.73 21.35,5.2 6.58,3.47 12.93,9.5 19.08,18.1 6.15,8.59 10.38,18.03 12.68,28.3 -9.24,-5.93 -17.55,-8.9 -24.93,-8.9 -8.38,0 -15.57,3.22 -21.56,9.64 -6.01,6.44 -9.01,15.07 -9.01,25.92 0,10.41 2.97,19.72 8.9,27.96 7.23,9.84 16.69,14.75 28.4,14.75 9.82,0 18.2,-4.05 25.14,-12.14 8.53,-9.98 12.79,-22.34 12.79,-37.07 0,-13.31 -3.24,-25.7 -9.75,-37.19 -6.51,-11.49 -15.54,-20.99 -27.1,-28.51 -9.55,-6.21 -19.87,-9.31 -31.01,-9.31 l -4.98,0 z m 54.64,61.34 c 1,7.67 1.51,13.74 1.51,18.22 0,5.78 -0.97,11.96 -2.93,18.53 -1.95,6.58 -4.7,11.63 -8.24,15.18 -3.54,3.54 -7.54,5.3 -12.03,5.3 -5.2,0 -9.79,-2.34 -13.76,-7.03 -3.99,-4.71 -5.97,-11.69 -5.97,-20.92 0,-12.44 2.61,-22.12 7.81,-29.06 3.9,-5.07 8.59,-7.59 14.08,-7.59 2.75,0 5.97,0.65 9.66,1.96 3.68,1.3 6.97,3.1 9.87,5.41 z m 35.54,-61.34 0,3.25 c 7.67,0 14.78,1.73 21.36,5.2 6.58,3.47 12.93,9.5 19.08,18.1 6.14,8.59 10.38,18.03 12.68,28.3 -9.24,-5.93 -17.55,-8.9 -24.94,-8.9 -8.37,0 -15.56,3.22 -21.55,9.64 -6.01,6.44 -9.01,15.07 -9.01,25.92 0,10.41 2.97,19.72 8.89,27.96 7.23,9.84 16.69,14.75 28.41,14.75 9.82,0 18.2,-4.05 25.14,-12.14 8.53,-9.98 12.79,-22.34 12.79,-37.07 0,-13.31 -3.25,-25.7 -9.76,-37.19 -6.5,-11.49 -15.53,-20.99 -27.09,-28.51 -9.55,-6.21 -19.87,-9.31 -31.01,-9.31 l -4.99,0 z m 54.65,61.34 c 1,7.67 1.51,13.74 1.51,18.22 0,5.78 -0.97,11.96 -2.93,18.53 -1.96,6.58 -4.7,11.63 -8.24,15.18 -3.54,3.54 -7.55,5.3 -12.03,5.3 -5.2,0 -9.79,-2.34 -13.76,-7.03 -3.99,-4.71 -5.97,-11.69 -5.97,-20.92 0,-12.44 2.61,-22.12 7.81,-29.06 3.9,-5.07 8.59,-7.59 14.08,-7.59 2.75,0 5.97,0.65 9.66,1.96 3.68,1.3 6.97,3.1 9.87,5.41 z m 60.7,1.1 c -9.55,7.79 -15.69,14.05 -18.44,18.74 -2.73,4.71 -4.11,9.57 -4.11,14.64 0,7.8 3,14.48 8.99,20.05 6,5.56 13.99,8.35 23.97,8.35 9.67,0 17.44,-2.61 23.29,-7.81 5.86,-5.2 8.78,-11.13 8.78,-17.77 0,-4.48 -1.59,-9.04 -4.77,-13.66 -3.18,-4.63 -9.75,-10.13 -19.73,-16.48 10.27,-7.95 17.07,-14.24 20.38,-18.86 4.49,-5.92 6.73,-12.22 6.73,-18.87 0,-8.38 -3.19,-15.56 -9.54,-21.56 -6.36,-6.01 -14.74,-9 -25.14,-9 -11.42,0 -20.32,3.54 -26.67,10.62 -5.07,5.77 -7.59,12.08 -7.59,18.86 0,5.2 1.8,10.41 5.41,15.61 3.62,5.2 9.77,10.92 18.44,17.14 z m 13.65,9.53 c 7.08,6.35 11.56,11.37 13.45,15.06 1.87,3.7 2.81,7.84 2.81,12.46 0,6.08 -1.73,10.88 -5.2,14.43 -3.47,3.54 -8.17,5.31 -14.1,5.31 -6.06,0 -10.97,-1.74 -14.73,-5.21 -3.76,-3.47 -5.65,-7.51 -5.65,-12.14 0,-3.02 0.8,-6.1 2.39,-9.21 1.59,-3.11 3.83,-6.04 6.73,-8.78 l 14.3,-11.92 z m -9.55,-12.8 c -4.91,-4.03 -8.51,-8.49 -10.83,-13.33 -2.3,-4.84 -3.47,-10.07 -3.47,-15.72 0,-7.66 2.07,-13.77 6.18,-18.32 4.12,-4.55 9.36,-6.82 15.71,-6.82 6.38,0 11.46,1.8 15.3,5.43 3.83,3.6 5.74,7.93 5.74,13 0,4.19 -1.15,8.01 -3.47,11.48 -4.05,6.22 -12.43,14.31 -25.16,24.28"
             style="fill:#000000;fill-opacity:1;fill-rule:nonzero;stroke:none"
             id="path64" /><path
             d="m 5425.04,3642.12 0,-72.15"
             style="fill:none;stroke:#000000;stroke-opacity:1;stroke-width:13.875;stroke-linecap:butt;stroke-linejoin:round;stroke-miterlimit:10;stroke-dasharray:none"
             id="path66" /><path
             d="m 5390.87,3493.25 29.05,14.1 2.82,0 0,-100.81 c 0,-6.65 0.29,-10.81 0.86,-12.47 0.58,-1.66 1.73,-2.92 3.47,-3.8 1.73,-0.86 5.27,-1.37 10.63,-1.51 l 0,-3.26 -44.89,0 0,3.26 c 5.65,0.14 9.3,0.65 10.95,1.51 1.66,0.88 2.83,2.03 3.47,3.47 0.65,1.44 0.98,5.72 0.98,12.8 l 0,64.39 c 0,8.81 -0.29,14.44 -0.87,16.9 -0.43,1.88 -1.2,3.26 -2.28,4.12 -1.08,0.87 -2.41,1.3 -4.01,1.3 -2.16,0 -5.13,-0.94 -8.88,-2.81 l -1.3,2.81"
             style="fill:#000000;fill-opacity:1;fill-rule:nonzero;stroke:none"
             id="path68" /><path
             d="m 763.125,4333.07 -36.074,0"
             style="fill:none;stroke:#000000;stroke-opacity:1;stroke-width:13.875;stroke-linecap:butt;stroke-linejoin:round;stroke-miterlimit:10;stroke-dasharray:none"
             id="path70" /><path
             d="m 763.125,4678.55 -36.074,0"
             style="fill:none;stroke:#000000;stroke-opacity:1;stroke-width:13.875;stroke-linecap:butt;stroke-linejoin:round;stroke-miterlimit:10;stroke-dasharray:none"
             id="path72" /><path
             d="m 763.125,5024.04 -36.074,0"
             style="fill:none;stroke:#000000;stroke-opacity:1;stroke-width:13.875;stroke-linecap:butt;stroke-linejoin:round;stroke-miterlimit:10;stroke-dasharray:none"
             id="path74" /><path
             d="m 763.125,2951.16 -36.074,0"
             style="fill:none;stroke:#000000;stroke-opacity:1;stroke-width:13.875;stroke-linecap:butt;stroke-linejoin:round;stroke-miterlimit:10;stroke-dasharray:none"
             id="path76" /><path
             d="m 763.125,3296.64 -36.074,0"
             style="fill:none;stroke:#000000;stroke-opacity:1;stroke-width:13.875;stroke-linecap:butt;stroke-linejoin:round;stroke-miterlimit:10;stroke-dasharray:none"
             id="path78" /><path
             d="m 763.125,3987.61 -36.074,0"
             style="fill:none;stroke:#000000;stroke-opacity:1;stroke-width:13.875;stroke-linecap:butt;stroke-linejoin:round;stroke-miterlimit:10;stroke-dasharray:none"
             id="path80" /><path
             d="m 763.125,1569.23 -36.074,0"
             style="fill:none;stroke:#000000;stroke-opacity:1;stroke-width:13.875;stroke-linecap:butt;stroke-linejoin:round;stroke-miterlimit:10;stroke-dasharray:none"
             id="path82" /><path
             d="m 763.125,2260.2 -36.074,0"
             style="fill:none;stroke:#000000;stroke-opacity:1;stroke-width:13.875;stroke-linecap:butt;stroke-linejoin:round;stroke-miterlimit:10;stroke-dasharray:none"
             id="path84" /><path
             d="m 763.125,2605.68 -36.074,0"
             style="fill:none;stroke:#000000;stroke-opacity:1;stroke-width:13.875;stroke-linecap:butt;stroke-linejoin:round;stroke-miterlimit:10;stroke-dasharray:none"
             id="path86" /><path
             d="m 763.125,532.801 -36.074,0"
             style="fill:none;stroke:#000000;stroke-opacity:1;stroke-width:13.875;stroke-linecap:butt;stroke-linejoin:round;stroke-miterlimit:10;stroke-dasharray:none"
             id="path88" /><path
             d="m 763.125,878.273 -36.074,0"
             style="fill:none;stroke:#000000;stroke-opacity:1;stroke-width:13.875;stroke-linecap:butt;stroke-linejoin:round;stroke-miterlimit:10;stroke-dasharray:none"
             id="path90" /><path
             d="m 763.125,1223.76 -36.074,0"
             style="fill:none;stroke:#000000;stroke-opacity:1;stroke-width:13.875;stroke-linecap:butt;stroke-linejoin:round;stroke-miterlimit:10;stroke-dasharray:none"
             id="path92" /><path
             d="m 763.125,187.312 0,5182.208"
             style="fill:none;stroke:#000000;stroke-opacity:1;stroke-width:13.875;stroke-linecap:butt;stroke-linejoin:round;stroke-miterlimit:10;stroke-dasharray:none"
             id="path94" /></g></g><g
         id="g96"><g
           id="g98"
           clip-path="url(#clipPath100)"><path
             d="m 153.707,2799.28 c 2.023,-3.47 3.398,-6.67 4.121,-9.64 0.723,-2.96 1.516,-8.78 2.383,-17.46 l 3.687,-43.36 c 3.614,4.2 8.743,10.92 15.391,20.16 3.18,4.48 7.156,10.56 11.926,18.22 2.89,4.62 4.695,7.88 5.418,9.76 0.289,1.01 0.433,2.02 0.433,3.04 0,0.56 -0.214,1.08 -0.648,1.51 -0.434,0.43 -1.52,0.94 -3.254,1.53 -1.734,0.56 -3.141,1.58 -4.226,3.02 -1.083,1.44 -1.626,3.17 -1.626,5.2 0,2.32 0.688,4.23 2.059,5.74 1.375,1.53 3.145,2.28 5.313,2.28 2.601,0 4.804,-1.08 6.613,-3.24 1.805,-2.17 2.707,-5.14 2.707,-8.9 0,-4.62 -1.59,-9.93 -4.77,-15.93 -3.179,-5.99 -9.285,-15.14 -18.316,-27.43 -9.035,-12.28 -19.984,-25.72 -32.848,-40.32 -8.816,-9.98 -15.39,-16.29 -19.726,-18.97 -4.336,-2.67 -8.024,-4.01 -11.059,-4.01 -1.879,0 -3.504,0.73 -4.875,2.17 -1.375,1.44 -2.062,3.04 -2.062,4.77 0,2.32 0.976,4.41 2.929,6.29 1.95,1.87 4.008,2.81 6.176,2.81 1.156,0 2.168,-0.29 3.035,-0.86 0.434,-0.29 0.942,-1.12 1.52,-2.5 0.578,-1.37 1.082,-2.27 1.515,-2.7 0.289,-0.29 0.653,-0.44 1.086,-0.44 0.289,0 0.868,0.29 1.735,0.87 3.324,2.02 7.082,5.2 11.273,9.53 5.637,5.79 9.828,10.49 12.574,14.1 l -4.988,55.72 c -0.723,9.24 -1.914,14.89 -3.574,16.9 -1.664,2.03 -4.445,3.04 -8.348,3.04 -1.301,0 -3.543,-0.21 -6.722,-0.65 l -0.649,3.26 25.797,6.49"
             style="fill:#000000;fill-opacity:1;fill-rule:nonzero;stroke:none"
             id="path104" /></g></g><g
         id="g106"><g
           id="g108"
           clip-path="url(#clipPath110)"><path
             d="m 763.125,187.312 -72.148,0"
             style="fill:none;stroke:#000000;stroke-opacity:1;stroke-width:13.875;stroke-linecap:butt;stroke-linejoin:round;stroke-miterlimit:10;stroke-dasharray:none"
             id="path114" /></g></g><g
         id="g116"><g
           id="g118"
           clip-path="url(#clipPath120)"><path
             d="m 502.316,174.312 119.238,0 0,9.32422 -119.238,0 0,-9.32422 z"
             style="fill:#000000;fill-opacity:1;fill-rule:nonzero;stroke:none"
             id="path124" /></g></g><g
         id="g126"><g
           id="g128"
           clip-path="url(#clipPath130)"><path
             d="m 617.871,232.629 29.051,14.098 2.816,0 0,-100.817 c 0,-6.648 0.289,-10.808 0.867,-12.461 0.579,-1.664 1.735,-2.926 3.469,-3.801 1.735,-0.859 5.278,-1.375 10.625,-1.511 l 0,-3.262 -44.879,0 0,3.262 c 5.637,0.136 9.289,0.652 10.95,1.511 1.664,0.875 2.82,2.028 3.468,3.469 0.653,1.442 0.977,5.715 0.977,12.793 l 0,64.395 c 0,8.808 -0.289,14.441 -0.867,16.898 -0.434,1.887 -1.192,3.262 -2.278,4.121 -1.082,0.875 -2.422,1.305 -4.011,1.305 -2.168,0 -5.129,-0.945 -8.887,-2.817 l -1.301,2.817"
             style="fill:#000000;fill-opacity:1;fill-rule:nonzero;stroke:none"
             id="path134" /><path
             d="m 763.125,1914.72 -72.148,0"
             style="fill:none;stroke:#000000;stroke-opacity:1;stroke-width:13.875;stroke-linecap:butt;stroke-linejoin:round;stroke-miterlimit:10;stroke-dasharray:none"
             id="path136" /></g></g><g
         id="g138"><g
           id="g140"
           clip-path="url(#clipPath142)"><path
             d="m 377.441,1894.81 119.238,0 0,9.3242 -119.238,0 0,-9.3242 z"
             style="fill:#000000;fill-opacity:1;fill-rule:nonzero;stroke:none"
             id="path146" /></g></g><g
         id="g148"><g
           id="g150"
           clip-path="url(#clipPath152)"><path
             d="m 478.254,1904.34 c 0,13.6 2.058,25.34 6.18,35.25 4.117,9.89 9.574,17.23 16.367,21.99 5.347,3.76 10.84,5.65 16.476,5.65 9.106,0 17.27,-4.64 24.496,-13.88 9.106,-11.57 13.661,-27.25 13.661,-47.05 0,-13.87 -1.989,-25.66 -5.961,-35.34 -3.977,-9.68 -9.071,-16.73 -15.285,-21.13 -6.215,-4.41 -12.141,-6.62 -17.778,-6.62 -11.418,0 -20.957,6.73 -28.617,20.16 -6.359,11.42 -9.539,25.09 -9.539,40.97 z m 17.344,-2.16 c 0,-16.47 2.023,-29.91 6.07,-40.32 3.324,-8.67 8.309,-13.02 14.957,-13.02 3.18,0 6.469,1.42 9.867,4.23 3.395,2.82 5.961,7.64 7.696,14.42 2.746,9.98 4.117,24.21 4.117,42.71 0,13.58 -1.446,24.93 -4.336,34.03 -2.024,6.8 -4.77,11.57 -8.239,14.32 -2.312,1.88 -5.203,2.82 -8.671,2.82 -3.903,0 -7.442,-1.73 -10.621,-5.2 -4.192,-4.92 -7.047,-12.62 -8.563,-23.09 -1.52,-10.48 -2.277,-20.79 -2.277,-30.9 z m 88.886,-39.67 c 2.746,0 5.059,-0.97 6.938,-2.93 1.879,-1.96 2.816,-4.23 2.816,-6.82 0,-2.75 -0.937,-5.07 -2.816,-6.94 -1.879,-1.89 -4.192,-2.82 -6.938,-2.82 -2.746,0 -5.058,0.93 -6.937,2.82 -1.879,1.87 -2.82,4.19 -2.82,6.94 0,2.74 0.941,5.05 2.82,6.94 1.879,1.87 4.191,2.81 6.937,2.81 z m 100.809,102.33 -6.938,-14.96 -35.769,0 -7.805,-16.05 c 15.465,-2.31 27.75,-8.09 36.856,-17.35 7.804,-7.93 11.707,-17.34 11.707,-28.18 0,-6.35 -1.266,-12.21 -3.793,-17.55 -2.531,-5.35 -5.746,-9.91 -9.649,-13.66 -3.902,-3.77 -8.238,-6.72 -13.007,-8.88 -6.649,-3.33 -13.586,-5 -20.813,-5 -7.082,0 -12.25,1.24 -15.5,3.69 -3.254,2.46 -4.879,5.14 -4.879,8.02 0,1.74 0.684,3.22 2.059,4.44 1.375,1.24 3.07,1.85 5.093,1.85 1.446,0 2.747,-0.23 3.903,-0.66 1.156,-0.43 3.109,-1.66 5.855,-3.67 4.481,-3.04 8.961,-4.57 13.442,-4.57 6.937,0 12.972,2.61 18.101,7.81 5.129,5.21 7.696,11.56 7.696,19.08 0,7.23 -2.313,13.95 -6.938,20.16 -4.625,6.22 -10.984,11.06 -19.078,14.53 -6.504,2.59 -15.246,4.12 -26.231,4.55 l 22.981,46.4 42.707,0"
             style="fill:#000000;fill-opacity:1;fill-rule:nonzero;stroke:none"
             id="path156" /><path
             d="m 763.125,3642.12 -72.148,0"
             style="fill:none;stroke:#000000;stroke-opacity:1;stroke-width:13.875;stroke-linecap:butt;stroke-linejoin:round;stroke-miterlimit:10;stroke-dasharray:none"
             id="path158" /><path
             d="m 603.129,3638.72 c 0,13.6 2.059,25.33 6.18,35.24 4.117,9.9 9.574,17.24 16.367,21.99 5.347,3.76 10.84,5.65 16.476,5.65 9.106,0 17.27,-4.64 24.496,-13.87 9.106,-11.58 13.661,-27.25 13.661,-47.05 0,-13.88 -1.989,-25.66 -5.961,-35.34 -3.977,-9.69 -9.071,-16.74 -15.286,-21.14 -6.214,-4.41 -12.14,-6.61 -17.777,-6.61 -11.418,0 -20.957,6.73 -28.617,20.16 -6.359,11.41 -9.539,25.08 -9.539,40.97 z m 17.344,-2.17 c 0,-16.46 2.023,-29.91 6.07,-40.32 3.324,-8.67 8.309,-13.01 14.957,-13.01 3.18,0 6.469,1.41 9.867,4.23 3.395,2.82 5.961,7.63 7.695,14.42 2.747,9.97 4.118,24.21 4.118,42.7 0,13.59 -1.446,24.94 -4.336,34.04 -2.024,6.8 -4.77,11.57 -8.239,14.32 -2.312,1.87 -5.203,2.82 -8.671,2.82 -3.903,0 -7.442,-1.74 -10.622,-5.21 -4.191,-4.91 -7.046,-12.61 -8.562,-23.09 -1.52,-10.47 -2.277,-20.78 -2.277,-30.9"
             style="fill:#000000;fill-opacity:1;fill-rule:nonzero;stroke:none"
             id="path160" /><path
             d="m 763.125,5369.52 -72.148,0"
             style="fill:none;stroke:#000000;stroke-opacity:1;stroke-width:13.875;stroke-linecap:butt;stroke-linejoin:round;stroke-miterlimit:10;stroke-dasharray:none"
             id="path162" /><path
             d="m 478.254,5359.22 c 0,13.58 2.058,25.33 6.18,35.23 4.117,9.9 9.574,17.23 16.367,22 5.347,3.76 10.84,5.64 16.476,5.64 9.106,0 17.27,-4.63 24.496,-13.88 9.106,-11.56 13.661,-27.24 13.661,-47.04 0,-13.87 -1.989,-25.65 -5.961,-35.34 -3.977,-9.68 -9.071,-16.72 -15.285,-21.13 -6.215,-4.41 -12.141,-6.62 -17.778,-6.62 -11.418,0 -20.957,6.72 -28.617,20.17 -6.359,11.41 -9.539,25.07 -9.539,40.97 z m 17.344,-2.17 c 0,-16.48 2.023,-29.92 6.07,-40.32 3.324,-8.68 8.309,-13.01 14.957,-13.01 3.18,0 6.469,1.41 9.867,4.23 3.395,2.82 5.961,7.62 7.696,14.41 2.746,9.98 4.117,24.21 4.117,42.71 0,13.59 -1.446,24.93 -4.336,34.04 -2.024,6.79 -4.77,11.56 -8.239,14.31 -2.312,1.88 -5.203,2.82 -8.671,2.82 -3.903,0 -7.442,-1.74 -10.621,-5.2 -4.192,-4.92 -7.047,-12.61 -8.563,-23.09 -1.52,-10.49 -2.277,-20.78 -2.277,-30.9 z m 88.886,-39.67 c 2.746,0 5.059,-0.98 6.938,-2.93 1.879,-1.95 2.816,-4.23 2.816,-6.83 0,-2.74 -0.937,-5.06 -2.816,-6.94 -1.879,-1.88 -4.192,-2.81 -6.938,-2.81 -2.746,0 -5.058,0.93 -6.937,2.81 -1.879,1.88 -2.82,4.2 -2.82,6.94 0,2.75 0.941,5.06 2.82,6.94 1.879,1.88 4.191,2.82 6.937,2.82 z m 100.809,102.33 -6.938,-14.96 -35.769,0 -7.805,-16.05 c 15.465,-2.31 27.75,-8.09 36.856,-17.34 7.804,-7.95 11.707,-17.34 11.707,-28.18 0,-6.36 -1.266,-12.22 -3.793,-17.56 -2.531,-5.35 -5.746,-9.91 -9.649,-13.66 -3.902,-3.76 -8.238,-6.72 -13.007,-8.89 -6.649,-3.32 -13.586,-4.99 -20.813,-4.99 -7.082,0 -12.25,1.23 -15.5,3.69 -3.254,2.46 -4.879,5.13 -4.879,8.02 0,1.73 0.684,3.21 2.059,4.44 1.375,1.23 3.07,1.85 5.093,1.85 1.446,0 2.747,-0.22 3.903,-0.65 1.156,-0.44 3.109,-1.66 5.855,-3.69 4.481,-3.03 8.961,-4.55 13.442,-4.55 6.937,0 12.972,2.6 18.101,7.8 5.129,5.21 7.696,11.56 7.696,19.08 0,7.23 -2.313,13.95 -6.938,20.16 -4.625,6.22 -10.984,11.06 -19.078,14.53 -6.504,2.6 -15.246,4.12 -26.231,4.55 l 22.981,46.4 42.707,0"
             style="fill:#000000;fill-opacity:1;fill-rule:nonzero;stroke:none"
             id="path164" /></g></g></g><text
       xml:space="preserve"
       style="font-size:19.20000076000000178px;font-style:normal;font-variant:normal;font-weight:normal;font-stretch:normal;line-height:125%;letter-spacing:0px;word-spacing:0px;fill:#000000;fill-opacity:1;stroke:none;font-family:Arial;-inkscape-font-specification:Arial;filter:url(#filter3147)"
       x="527.99994"
       y="-545.6001"
       id="text3143"
       sodipodi:linespacing="125%"
       transform="scale(1,-1)"><tspan
         sodipodi:role="line"
         id="tspan3145"
         x="527.99994"
         y="-545.6001">λ=1</tspan></text>
</g></svg>