<?xml version="1.0" encoding="UTF-8" standalone="no"?>
<!-- Created with Inkscape (http://www.inkscape.org/) -->

<svg
   xmlns:dc="http://purl.org/dc/elements/1.1/"
   xmlns:cc="http://creativecommons.org/ns#"
   xmlns:rdf="http://www.w3.org/1999/02/22-rdf-syntax-ns#"
   xmlns:svg="http://www.w3.org/2000/svg"
   xmlns="http://www.w3.org/2000/svg"
   xmlns:sodipodi="http://sodipodi.sourceforge.net/DTD/sodipodi-0.dtd"
   xmlns:inkscape="http://www.inkscape.org/namespaces/inkscape"
   id="svg2"
   version="1.1"
   inkscape:version="0.48.1 r9760"
   width="693.75"
   height="693.75"
   xml:space="preserve"
   sodipodi:docname="POLINOM4LIMAx2.eps"><metadata
     id="metadata8"><rdf:RDF><cc:Work
         rdf:about=""><dc:format>image/svg+xml</dc:format><dc:type
           rdf:resource="http://purl.org/dc/dcmitype/StillImage" /><dc:title></dc:title></cc:Work></rdf:RDF></metadata><defs
     id="defs6"><clipPath
       clipPathUnits="userSpaceOnUse"
       id="clipPath20"><path
         d="m 763.125,5452.8 4627.075,0 0,-5341.788 -4627.075,0 0,5341.788 z"
         id="path22" /></clipPath><clipPath
       clipPathUnits="userSpaceOnUse"
       id="clipPath32"><path
         d="m 69.375,5480.62 5411.245,0 0,-5411.245 -5411.245,0 0,5411.245 z"
         id="path34" /></clipPath><clipPath
       clipPathUnits="userSpaceOnUse"
       id="clipPath52"><path
         d="m 679.875,1221 208.125,0 0,-235.875 -208.125,0 0,235.875 z"
         id="path54" /></clipPath><clipPath
       clipPathUnits="userSpaceOnUse"
       id="clipPath62"><path
         d="m 69.375,5480.62 5411.245,0 0,-5411.245 -5411.245,0 0,5411.245 z"
         id="path64" /></clipPath><clipPath
       clipPathUnits="userSpaceOnUse"
       id="clipPath112"><path
         d="m 83.25,2872.12 291.375,0 0,-208.12 -291.375,0 0,208.12 z"
         id="path114" /></clipPath><clipPath
       clipPathUnits="userSpaceOnUse"
       id="clipPath122"><path
         d="m 69.375,5480.62 5411.245,0 0,-5411.245 -5411.245,0 0,5411.245 z"
         id="path124" /></clipPath><clipPath
       clipPathUnits="userSpaceOnUse"
       id="clipPath132"><path
         d="m 444,430.125 97.125,0 0,-180.375 -97.125,0 0,180.375 z"
         id="path134" /></clipPath><clipPath
       clipPathUnits="userSpaceOnUse"
       id="clipPath142"><path
         d="m 69.375,5480.62 5411.245,0 0,-5411.245 -5411.245,0 0,5411.245 z"
         id="path144" /></clipPath><clipPath
       clipPathUnits="userSpaceOnUse"
       id="clipPath154"><path
         d="m 444,1026.75 97.125,0 0,-180.375 -97.125,0 0,180.375 z"
         id="path156" /></clipPath><clipPath
       clipPathUnits="userSpaceOnUse"
       id="clipPath164"><path
         d="m 69.375,5480.62 5411.245,0 0,-5411.245 -5411.245,0 0,5411.245 z"
         id="path166" /></clipPath><filter
       id="filter3183"
       inkscape:label="filter1"><feBlend
         blend="normal"
         id="feBlend3185"
         in2="SourceGraphic" /></filter></defs><sodipodi:namedview
     pagecolor="#ffffff"
     bordercolor="#666666"
     borderopacity="1"
     objecttolerance="10"
     gridtolerance="10"
     guidetolerance="10"
     inkscape:pageopacity="0"
     inkscape:pageshadow="2"
     inkscape:window-width="1680"
     inkscape:window-height="921"
     id="namedview4"
     showgrid="true"
     inkscape:zoom="1.0565766"
     inkscape:cx="147.17343"
     inkscape:cy="422.59123"
     inkscape:window-x="0"
     inkscape:window-y="0"
     inkscape:window-maximized="0"
     inkscape:current-layer="g10"><inkscape:grid
       type="xygrid"
       id="grid3173" /></sodipodi:namedview><g
     id="g10"
     inkscape:groupmode="layer"
     inkscape:label="ink_ext_XXXXXX"
     transform="matrix(1.25,0,0,-1.25,0,693.75)"><g
       id="g12"
       transform="scale(0.1,0.1)"><path
         d="m 0,0 5550,0 0,5550 L 0,5550 0,0 z"
         style="fill:#ffffff;fill-opacity:1;fill-rule:nonzero;stroke:none"
         id="path14" /><g
         id="g16"><g
           id="g18"
           clip-path="url(#clipPath20)"><path
             d="m 5362.45,1531.86 0,3593.41"
             style="fill:none;stroke:#ff0000;stroke-opacity:1;stroke-width:13.875;stroke-linecap:butt;stroke-linejoin:round;stroke-miterlimit:10;stroke-dasharray:none"
             id="path24" /><path
             d="m 948.492,124.875 0.867,3.969 0.875,3.953 0.879,3.957 0.883,3.965 0.891,3.957 0.898,3.953 0.903,3.953 0.91,3.957 0.914,3.953 0.922,3.969 0.929,3.953 0.934,3.957 0.937,3.938 0.95,3.957 0.953,3.953 0.961,3.953 0.964,3.957 0.973,3.953 0.985,3.941 0.984,3.954 0.992,3.953 1.004,3.941 1.008,3.953 1.015,3.942 1.02,3.953 1.031,3.941 1.035,3.957 1.047,3.938 1.047,3.957 1.059,3.937 1.07,3.942 1.074,3.957 1.078,3.937 1.09,3.942 1.098,3.941 1.105,3.953 1.114,3.941 1.121,3.942 1.129,3.937 1.136,3.942 1.145,3.941 1.156,3.942 1.16,3.941 1.172,3.938 1.18,3.941 1.187,3.941 1.196,3.926 1.207,3.942 1.215,3.941 1.225,3.937 1.23,3.93 1.24,3.938 1.25,3.941 1.26,3.926 1.27,3.941 1.28,3.942 1.29,3.925 1.3,3.942 1.3,3.926 1.32,3.941 1.33,3.926 1.34,3.926 1.35,3.941 1.35,3.926 1.38,3.941 1.37,3.926 1.39,3.926 1.4,3.929 1.41,3.938 1.43,3.93 1.43,3.925 1.44,3.926 1.46,3.926 1.47,3.93 1.47,3.925 1.5,3.926 1.5,3.926 1.51,3.926 1.52,3.929 1.54,3.926 1.55,3.926 1.56,3.926 1.58,3.929 1.58,3.926 1.6,3.926 1.61,3.914 1.62,3.926 1.65,3.926 1.64,3.925 1.67,3.915 1.68,3.925 1.69,3.914 1.7,3.926 1.72,3.926 1.74,3.914 1.74,3.926 1.76,3.914 1.78,3.926 1.79,3.914 1.8,3.925 1.82,3.911 1.84,3.929 1.85,3.91 1.87,3.914 1.88,3.926 1.89,3.914 1.92,3.914 1.93,3.926 1.94,3.91 1.96,3.914 1.98,3.914 2,3.911 2.01,3.929 2.03,3.91 2.04,3.915 2.07,3.914 2.08,3.91 2.1,3.914 2.11,3.914 2.14,3.91 2.16,3.914 2.17,3.914 2.19,3.91 2.22,3.914 2.22,3.914 2.25,3.911 2.28,3.914 2.28,3.914 2.31,3.898 2.34,3.91 2.35,3.914 2.37,3.914 2.4,3.911 2.41,3.902 2.44,3.91 2.45,3.914 2.49,3.899 2.5,3.914 2.53,3.91 2.54,3.898 2.58,3.914 2.6,3.899 2.62,3.914 2.64,3.91 2.67,3.902 2.69,3.91 2.72,3.899 2.74,3.914 2.77,3.898 2.79,3.899 2.82,3.914 2.85,3.898 2.88,3.914 2.9,3.899 2.92,3.898 2.96,3.914 2.99,3.899 3.01,3.898 3.04,3.899 3.07,3.914 3.1,3.898 3.13,3.899 3.16,3.898 3.19,3.914 3.23,3.899 3.25,3.898 3.29,3.898 3.31,3.899 3.35,3.898 3.39,3.899 3.41,3.898 3.45,3.899 3.49,3.902 3.52,3.898 3.56,3.899 3.58,3.898 3.63,3.899 3.66,3.898 3.7,3.899 3.74,3.898 3.78,3.902 3.81,3.899 3.85,3.898 3.9,3.899 3.93,3.882 3.97,3.903 4.02,3.898 4.05,3.899 4.1,3.898 4.14,3.883 4.19,3.898 4.23,3.903 4.27,3.883 4.32,3.898 4.36,3.898 4.41,3.887 4.46,3.899 4.5,3.898 4.56,3.887 4.6,3.898 4.65,3.883 4.7,3.902 4.75,3.899 4.81,3.883 4.86,3.898 4.91,3.887 4.96,3.898 5.02,3.887 5.07,3.883 5.13,3.898 5.19,3.887 5.24,3.898 5.31,3.883 5.36,3.887 5.42,3.898 5.49,3.887 5.55,3.883 5.59,3.898 5.68,3.887 5.74,3.883 5.8,3.886 5.87,3.899 5.94,3.887 6.01,3.879 6.08,3.89 6.14,3.88 6.22,3.91 6.3,3.88 6.35,3.88 6.44,3.89 6.52,3.88 6.59,3.89 6.68,3.88 6.75,3.89 6.83,3.88 6.91,3.89 7.01,3.88 7.07,3.89 7.16,3.88 7.26,3.89 7.34,3.88 7.44,3.89 7.52,3.89 7.61,3.88 7.72,3.87 7.8,3.89 7.89,3.88 8.01,3.89 8.1,3.88 8.2,3.87 8.3,3.89 8.41,3.88 8.52,3.87 8.61,3.89 8.73,3.88 8.84,3.87 8.96,3.89 9.06,3.88 9.19,3.88 9.31,3.88 9.42,3.87 9.54,3.89 9.67,3.87 9.8,3.88 9.92,3.87 10.06,3.89 10.18,3.87 10.33,3.87 10.45,3.89 10.59,3.86 10.73,3.88 10.88,3.88 11.03,3.87 11.17,3.87 11.32,3.87 11.46,3.88 11.63,3.87 11.78,3.88 11.95,3.87 12.09,3.88 12.28,3.87 12.43,3.87 12.61,3.87 12.77,3.87 12.96,3.87 13.13,3.86 13.3,3.87 13.5,3.87 13.68,3.87 13.87,3.86 14.07,3.87 14.25,3.87 14.45,3.86 14.66,3.87 14.86,3.87 15.06,3.86 15.28,3.85 15.48,3.88 15.71,3.85 15.93,3.88 16.15,3.85 16.37,3.86 16.6,3.86 16.84,3.85 17.07,3.87 17.31,3.86 17.55,3.86 17.81,3.86 18.05,3.84 18.3,3.86 18.55,3.86 18.83,3.85 19.08,3.84 19.34,3.86 19.62,3.84 19.88,3.86 20.16,3.85 20.44,3.85 20.73,3.85 21,3.84 21.3,3.84 21.59,3.85 21.88,3.84 22.19,3.84 22.48,3.84 22.78,3.85 23.09,3.83 23.39,3.84 23.71,3.84 24.02,3.84 24.32,3.82 24.66,3.85 24.96,3.83 25.28,3.83 25.62,3.83 25.93,3.82 26.25,3.82 26.57,3.83 26.9,3.83 27.22,3.82 27.55,3.83 27.87,3.81 28.19,3.82 28.52,3.81 28.84,3.82 29.16,3.81 29.47,3.82 29.79,3.8 30.09,3.82 30.4,3.8 30.72,3.81 31,3.81 31.3,3.8 31.59,3.8 31.87,3.8 32.14,3.8 32.41,3.8 32.68,3.79 32.92,3.8 33.16,3.79 33.4,3.8 33.62,3.79 33.81,3.79 34.02,3.79 34.2,3.79 34.39,3.78 34.52,3.79 34.66,3.79 34.78,3.77 34.88,3.79 34.98,3.79 35.04,3.77 140.39,15.13 35.03,3.78 34.97,3.78 34.86,3.79 34.76,3.77 34.59,3.79 34.41,3.79 34.2,3.77 33.95,3.79 33.68,3.79 33.38,3.78 33.04,3.79 32.66,3.79 32.26,3.79 31.82,3.8 31.34,3.79 30.82,3.8 30.28,3.8 29.7,3.8 29.08,3.8 28.43,3.81 27.74,3.81 27.01,3.8 26.26,3.82 25.48,3.82 24.66,3.81 23.8,3.83 22.94,3.82 22.02,3.82 21.09,3.83 20.15,3.83 19.16,3.85 18.16,3.83 17.16,3.84 16.14,3.84 15.11,3.85 14.06,3.84 13.01,3.85 11.97,3.84 10.92,3.85 9.87,3.85 8.84,3.85 7.8,3.85 6.78,3.86 5.79,3.85 4.8,3.85 3.82,3.86 2.88,3.85 1.97,3.84 1.06,3.86 0.2,3.86 -0.64,3.84 -1.45,3.86 -2.24,3.84 -2.97,3.85 -3.7,3.85 -4.39,3.85 -5.04,3.84 -5.64,3.84 -6.25,3.85 -6.79,3.82 -7.32,3.85 -7.79,3.84 -8.26,3.83 -8.7,3.83 -9.07,3.85 -9.46,3.82 -9.79,3.82 -10.1,3.83 -10.39,3.83 -10.64,3.81 -10.88,3.84 -11.09,3.81 -11.28,3.81 -11.44,3.82 -11.57,3.82 -11.72,3.8 -11.8,3.81 -11.91,3.81 -11.96,3.8 -12,3.8 -12.04,3.79 -12.06,3.78 -12.07,3.79 -12.07,3.79 -12.03,3.79 -12.02,3.77 -11.97,3.78 -11.91,3.77 -11.85,3.78 -11.78,3.75 -11.69,3.77 -11.62,3.74 -11.5,3.75 -11.41,3.74 -11.3,3.75 -11.17,3.73 -11.06,3.72 -10.94,3.72 -10.79,3.72 -10.65,3.69 -10.52,3.7 -10.37,3.68 -10.22,3.68 -10.08,3.66 -9.9,3.66 -9.76,3.64 -9.58,3.62 -9.44,3.62 -9.26,3.59 -9.1,3.59 -8.92,3.56 -8.74,3.54 -8.59,3.51 -8.39,3.49 -8.22,3.47 -8.04,3.43 -7.87,3.4 -7.67,3.37 -7.49,3.32 -7.31,3.27 -7.1,3.22 -6.92,3.17 -6.72,3.1 -6.52,3.02 -6.3,2.94 -6.09,2.83 -5.87,2.71 -5.63,2.6 -5.38,2.44 -5.13,2.28 -4.84,2.08 -4.53,1.85 -4.22,1.57 -3.86,1.31 -3.47,0.98 -3.05,0.64 -2.64,0.28 -2.16,-0.08 -1.71,-0.46 -1.25,-0.82 -0.8,-1.12 -0.39,-1.43 0.01,-1.68 0.38,-1.92 0.73,-2.09 1.04,-2.28 1.35,-2.4 1.61,-2.53 1.87,-2.64 2.13,-2.72 2.35,-2.8 2.58,-2.86 2.78,-2.93 3,-2.95 3.19,-3.01 3.37,-3.06 3.57,-3.07 3.74,-3.1 3.92,-3.12 4.09,-3.15 4.27,-3.17 4.43,-3.16 4.59,-3.19 4.74,-3.19 4.92,-3.21 5.06,-3.22 5.23,-3.22 5.37,-3.22 5.53,-3.21 5.66,-3.24 5.81,-3.22 5.96,-3.23 6.1,-3.23 6.24,-3.22 6.38,-3.22 6.51,-3.22 6.64,-3.22 6.79,-3.22 6.91,-3.2 7.04,-3.21 7.16,-3.19 7.28,-3.2 7.41,-3.18 7.52,-3.18 7.64,-3.18 7.76,-3.17 7.87,-3.15 7.96,-3.17 8.09,-3.13 8.17,-3.14 8.29,-3.13 8.38,-3.12 8.46,-3.11 8.56,-3.11 8.64,-3.1 8.73,-3.08 8.81,-3.08 8.88,-3.06 8.97,-3.05 9.02,-3.06 9.08,-3.03 9.15,-3.03 9.2,-3.01 9.24,-3.01 9.29,-3 9.33,-2.98 9.36,-2.99 9.4,-2.95 9.42,-2.96 9.43,-2.94 9.45,-2.93 9.45,-2.92 9.45,-2.9 9.45,-2.9 9.45,-2.89 9.41,-2.87 37.35,-11.38 9.22,-2.82 9.16,-2.8 9.1,-2.79 9.02,-2.77 8.93,-2.76 8.84,-2.75 8.75,-2.75 8.64,-2.72 8.52,-2.72 8.39,-2.69 8.27,-2.69 8.13,-2.68 7.98,-2.66 7.83,-2.64 7.64,-2.64 7.49,-2.62 7.3,-2.61 7.12,-2.59 6.92,-2.58 6.72,-2.57 6.49,-2.55 6.28,-2.54 6.05,-2.53 5.81,-2.51 5.58,-2.48 5.31,-2.48 5.07,-2.47 4.78,-2.46 4.52,-2.43 4.25,-2.43 3.97,-2.4 3.67,-2.4 3.38,-2.37 3.08,-2.36 2.79,-2.36 2.47,-2.33 2.15,-2.31 1.84,-2.3 1.53,-2.28 1.21,-2.28 0.88,-2.25 0.57,-2.23 0.24,-2.22 -0.08,-2.21 -0.42,-2.19 -0.74,-2.16 -1.06,-2.17 -1.39,-2.13 -1.71,-2.13 -2.01,-2.1 -2.35,-2.09 -2.64,-2.06 -2.98,-2.06 -3.26,-2.04 -3.56,-2.02 -3.86,-2 -4.16,-1.98 -4.43,-1.96 -4.72,-1.96 -4.98,-1.93 -5.24,-1.91 -5.51,-1.89 -5.76,-1.87 -5.99,-1.86 -6.23,-1.85 -6.45,-1.81 -6.68,-1.81 -6.88,-1.78 -7.08,-1.76 -7.27,-1.74 -7.45,-1.73 -7.61,-1.7 -7.78,-1.68 -7.93,-1.67 -8.08,-1.65 -8.2,-1.62 -8.32,-1.61 -8.44,-1.58 -8.55,-1.57 -8.62,-1.55 -8.72,-1.53 -8.8,-1.5 -8.85,-1.48 -8.89,-1.47 -8.95,-1.45 -8.98,-1.41 -9,-1.4 -9.02,-1.39 -9.02,-1.35 -9.02,-1.34 -9,-1.31 -8.99,-1.3 -8.95,-1.26 -8.91,-1.25 -8.87,-1.23 -8.8,-1.2 -8.73,-1.2 -8.66,-1.14 -8.59,-1.14 -8.49,-1.11 -8.4,-1.1 -8.28,-1.07 -8.17,-1.04 -8.05,-1.01 -7.92,-1 -7.79,-0.97 -7.64,-0.96 -7.49,-0.91 -7.34,-0.91 -7.18,-0.87 -7,-0.85 -6.84,-0.83 -6.65,-0.8 -6.47,-0.77 -6.26,-0.76 -6.06,-0.72 -5.87,-0.7 -5.64,-0.68 -5.44,-0.63 -5.22,-0.63 -4.98,-0.59 -4.75,-0.58 -4.52,-0.53 -4.27,-0.52 -4.03,-0.48 -3.77,-0.48 -3.51,-0.43 -3.26,-0.4 -2.99,-0.37 -2.72,-0.35 -2.44,-0.33 -2.18,-0.29 -1.88,-0.27 -1.6,-0.23 -1.3,-0.21 -1.01,-0.18 -0.73,-0.16 -0.42,-0.1 -0.1,-0.1 0.19,-0.06 0.51,-0.04 0.82,0 1.14,0.03 1.46,0.07 1.77,0.08 2.11,0.12 2.43,0.16 2.76,0.18 3.09,0.22 3.43,0.24 3.76,0.27 4.1,0.33 4.42,0.33 4.78,0.37 5.1,0.42 5.44,0.43 5.78,0.47 6.12,0.51 6.46,0.54 6.78,0.57 7.13,0.61 7.45,0.64 7.79,0.67 8.1,0.7 8.43,0.75 8.75,0.78 9.06,0.81 9.36,0.84 9.67,0.89 9.95,0.91 10.24,0.95 10.52,0.98 10.79,1.03 11.04,1.06 11.28,1.09 11.5,1.14 11.72,1.17 11.93,1.2 12.11,1.24 12.26,1.27 12.42,1.32 12.53,1.35 12.62,1.38 12.71,1.43 12.77,1.47 12.77,1.5 12.77,1.54 12.72,1.58 12.66,1.61 12.54,1.67 12.39,1.69 12.2,1.74 11.97,1.77 11.71,1.81 11.38,1.85 11.03,1.89 10.6,1.95 10.16,1.97 9.63,2.01 9.06,2.05 8.45,2.1 7.75,2.13 7.05,2.18 6.26,2.22 5.42,2.26 4.53,2.29 3.59,2.35 2.6,2.38 1.55,2.43 0.46,2.47 -0.67,2.5 -1.82,2.55 -3.04,2.6 -4.27,2.63 -5.52,2.68 -6.8,2.7 -8.1,2.77 -9.4,2.8 -10.69,2.83 -12.01,2.87 -13.29,2.93 -14.56,2.96 -15.84,2.99 -17.05,3.04 -18.26,3.08 -19.42,3.11 -20.54,3.16 -21.62,3.2 -22.64,3.23 -23.63,3.26 -24.56,3.31 -25.42,3.35 -26.24,3.38 -26.98,3.42 -27.69,3.47 -28.33,3.49 -28.9,3.54 -29.42,3.56 -29.89,3.63 -30.3,3.63 -30.64,3.69 -30.94,3.73 -31.18,3.77 -31.05,3.76 -31.19,3.78 -31.29,3.85 -31.33,3.87 -31.33,3.9 -31.29,3.94 -31.22,3.98 -31.1,4.03 -30.96,4.05 -30.77,4.09 -30.57,4.12 -30.32,4.16 -30.04,4.19 -29.76,4.23 -29.43,4.28 -29.09,4.3 -28.74,4.33 -28.35,4.37 -27.94,4.41 -27.53,4.43 -27.11,4.48 -26.66,4.49 -26.2,4.54 -25.74,4.56 -25.27,4.61 -24.77,4.62 -24.29,4.67 -23.78,4.68 -23.28,4.74 -22.79,4.74 -22.25,4.77 -21.76,4.8 -21.23,4.85 -20.71,4.85 -20.19,4.89 -19.68,4.91 -19.15,4.93 -18.63,4.96 -18.12,4.98 -17.59,5 -17.1,5.04 -16.56,5.03 -16.07,5.08 -15.57,5.08 -15.05,5.12 -14.57,5.12 -14.07,5.14 -13.58,5.17 -13.1,5.17 -12.61,5.19 -12.16,5.22 -11.67,5.21 -11.21,5.24 -10.74,5.25 -10.29,5.26 -9.84,5.27 -9.41,5.29 -8.96,5.3 -8.52,5.3 -8.1,5.32 -7.67,5.33 -7.26,5.32 -6.86,5.34 -6.43,5.35 -6.04,5.35 -5.65,5.36 -5.26,5.37 -4.87,5.37 -4.48,5.37 -4.12,5.36 -3.75,5.39 -3.37,5.38 -3.02,5.39 -2.66,5.38 -2.32,5.4 -1.97,5.38 -1.62,5.4 -1.3,5.38 -0.95,5.39 -0.64,5.39 -0.32,5.39 0.01,5.39 0.32,5.39 0.64,5.38 0.93,5.38 1.25,5.37 1.52,5.39 1.85,5.37 2.12,5.37 2.4,5.37 2.71,5.37 2.97,5.35 3.24,5.36 3.53,5.34 3.8,5.35 4.05,5.35 4.33,5.33 4.58,5.34 4.84,5.32 5.1,5.32 5.34,5.31 5.59,5.32 5.84,5.31 6.08,5.3 6.32,5.29 6.55,5.29 6.8,5.28 7.02,5.28 7.25,5.26 7.47,5.28 7.71,5.26 7.92,5.24 8.14,5.25 8.35,5.24 8.57,5.23 8.78,5.23 8.99,5.22 9.18,5.22 9.4,5.2 9.6,5.21 9.8,5.18 9.98,5.19 10.18,5.19 10.37,5.18 10.56,5.16 10.74,5.17 10.94,5.15 11.1,5.16 11.29,5.13 11.46,5.15 11.63,5.14 11.79,5.12 11.98,5.12 12.12,5.12 12.3,5.1 12.44,5.11 12.6,5.09 12.77,5.09 12.9,5.1 13.04,5.08 13.2,5.07 13.33,5.07 13.47,5.06 13.6,5.07 13.72,5.05 13.86,5.05 13.98,5.05 14.1,5.03 14.2,5.04 14.32,5.04 14.43,5.02 14.53,5.02 14.62,5.02 14.74,5.01 14.8,5.01 14.9,5.01 14.99,5 15.07,4.99 15.13,4.99 15.2,5 15.27,4.98 15.32,4.98 15.39,4.99 15.43,4.98 15.48,4.98 15.51,4.97 15.54,4.96 15.59,4.97 15.61,4.96 15.62,4.97 93.79,29.74 15.6,4.95 15.57,4.95 15.54,4.96 15.5,4.95 15.44,4.95 15.4,4.94 15.34,4.96 15.3,4.95 15.2,4.95 15.15,4.95 15.06,4.95 14.97,4.95 14.87,4.95 14.79,4.97 14.67,4.95 14.57,4.96 14.46,4.96 14.32,4.96 14.19,4.97 14.07,4.96 13.93,4.97 13.78,4.98 13.62,4.98 13.48,4.97 13.3,5 13.14,4.98 12.97,4.99 12.8,4.99 12.61,5 12.42,5.01 12.22,5.01 12.03,5.02 11.84,5.01 11.62,5.04 11.41,5.02 11.21,5.05 10.98,5.04 10.76,5.05 10.53,5.06 10.3,5.07 10.07,5.06 9.84,5.08 9.6,5.09 9.35,5.09 9.11,5.11 8.86,5.12 8.6,5.12 8.37,5.12 8.1,5.13 7.84,5.15 7.58,5.16 7.32,5.16 7.05,5.18 6.79,5.19 6.52,5.19 6.25,5.2 5.98,5.22 5.71,5.22 5.42,5.23 5.15,5.24 4.87,5.24 4.58,5.26 4.3,5.28 4.03,5.28 3.71,5.29 3.45,5.3 3.13,5.3 2.85,5.33 2.55,5.31 2.25,5.34 1.94,5.35 1.62,5.34 1.32,5.35 1.01,5.36 0.68,5.37 0.36,5.37 0.04,5.38 -0.3,5.37 -0.64,5.4 -0.98,5.38 -1.33,5.38 -1.7,5.4 -2.04,5.38 -2.41,5.39 -2.79,5.4 -3.17,5.38 -3.55,5.38 -3.95,5.37 -4.34,5.38 -4.76,5.36 -5.17,5.37 -5.59,5.34 -6.02,5.34 -6.46,5.35 -6.9,5.31 -7.35,5.32 -7.82,5.29 -8.27,5.29 -8.75,5.27 -9.21,5.26 -9.72,5.25 -10.19,5.22 -10.69,5.21 -11.18,5.19 -11.7,5.18 -12.19,5.15 -12.71,5.13 -13.21,5.12 -13.74,5.11 -14.25,5.07 -14.78,5.05 -15.27,5.04 -15.8,5.02 -16.32,5 -16.83,4.96 -17.35,4.96 -17.84,4.94 -18.34,4.91 -18.86,4.88 -19.34,4.87 -19.81,4.85 -20.31,4.82 -20.78,4.82 -21.24,4.77 -21.69,4.77 -22.13,4.73 -22.57,4.74 -22.99,4.7 -23.41,4.68 -23.8,4.66 -24.18,4.63 -24.56,4.64 -24.93,4.59 -25.27,4.59 -25.6,4.57 -25.93,4.54 -26.22,4.53 -26.52,4.51 -26.79,4.5 -27.04,4.46 -27.3,4.47 -27.52,4.44 -27.74,4.43 -27.93,4.41 -28.13,4.39 -28.27,4.38 -28.44,4.36 -28.57,4.34 -28.7,4.34 -28.8,4.32 -28.9,4.3 -28.98,4.29 -29.04,4.27 -29.08,4.27 -29.12,4.25 -29.14,4.23 -29.15,4.22 -29.15,4.22 -29.14,4.19 -29.09,4.19 -29.07,4.17 -29.02,4.16 -28.94,4.15 -28.87,4.15 -28.78,4.12 -28.69,4.12 -28.58,4.11 -28.48,4.1 -28.34,4.09 -28.21,4.08 -28.08,4.06 -27.92,4.06 -27.77,4.05 -27.61,4.03 -27.43,4.03 -27.26,4.02 -27.07,4.01 -26.88,4 -26.69,3.99 -26.49,3.98 -26.29,3.97 -26.07,3.97 -25.87,3.95 -25.65,3.95 -25.44,3.94 -25.19,3.94 -24.98,3.91 -24.75,3.91 -24.52,3.92 -24.28,3.89 -24.04,3.89 -23.83,3.88 -23.55,3.88 -23.34,3.87 -23.09,3.85 -22.86,3.85 -22.6,3.84 -22.36,3.84 -22.12,3.84 -21.88,3.81 -21.63,3.81 -21.4,3.8 -21.14,3.79 -20.91,3.79 -20.66,3.79 -20.39,3.76 -20.13,3.76 -19.91,3.75 -19.66,3.74 -19.44,3.73 -19.2,3.74 -18.97,3.72 -18.73,3.72 -18.51,3.7 -18.29,3.69 -18.05,3.69 -17.82,3.68 -17.61,3.67 -17.39,3.67 -17.16,3.66 -16.96,3.65 -16.74,3.65 -16.53,3.64 -16.32,3.62 -16.09,3.62 -15.92,3.6 -15.69,3.61 -15.5,3.6 -15.29,3.57 -15.11,3.59 -14.9,3.56 -14.71,3.57 -14.53,3.55 -14.33,3.53 -14.13,3.54 -13.98,3.53 -13.77,3.52 -13.6,3.51 -13.44,3.5 -13.25,3.48 -13.08,3.48 -12.9,3.49 -12.74,3.45 -12.57,3.46 -12.42,3.44 -12.25,3.44 -12.09,3.43 -11.93,3.41 -11.78,3.4 -11.63,3.4 -11.46,3.38 -11.33,3.38 -11.17,3.35 -11.03,3.36 -10.89,3.33 -10.76,3.33 -10.61,3.32 -10.48,3.31 -10.33,3.29 -10.2,3.29 -10.09,3.27 -9.93,3.27 -9.83,3.24 -9.69,3.24 -9.56,3.22 -9.45,3.2 -9.34,3.21 -9.2,3.17 -9.1,3.17 -8.97,3.14 -8.86,3.16 -8.76,3.12 -8.64,3.1 -8.54,3.1 -8.42,3.08 -8.32,3.07 -8.22,3.03 -8.11,3.04 -8.02,3.02 -7.91,2.99 -7.81,2.97 -7.73,2.95 -7.62,2.95 -7.53,2.92 -7.44,2.9 -7.35,2.89 -7.25,2.86 -7.17,2.84 -7.08,2.82 -7,2.8 -6.91,2.78 -6.83,2.74 -6.74,2.72 -6.67,2.71 -6.58,2.68 -6.51,2.65 -6.42,2.62 -6.36,2.6 -6.27,2.56 -6.2,2.54 -6.13,2.51 -6.05,2.49 -5.98,2.44 -5.91,2.41 -5.84,2.37 -5.78,2.35 -5.7,2.3 -5.64,2.26 -5.57,2.24 -5.5,2.18 -5.44,2.15 -5.38,2.09 -5.31,2.05 -5.25,2.02 -5.19,1.97 -5.12,1.9 -5.06,1.86 -5.01,1.8 -4.94,1.75 -4.89,1.69 -4.82,1.62 -4.77,1.57 -4.7,1.49 -4.65,1.43 -4.59,1.36 -4.53,1.29 -4.48,1.19 -4.41,1.12 -4.36,1.05 -4.3,0.95 -4.24,0.85 -4.18,0.76 -4.13,0.67 -4.06,0.57 -4,0.44 -3.94,0.35 -3.88,0.22 -3.82,0.1 -3.75,-0.02 -3.69,-0.15 -3.62,-0.29 -3.55,-0.43 -3.48,-0.57 -3.41,-0.71 -3.34,-0.86 -3.26,-1.01 -3.19,-1.18 -3.11,-1.33 -3.03,-1.48 -2.95,-1.67 -2.87,-1.8 -2.79,-1.99 -2.7,-2.13 -2.62,-2.31 -2.53,-2.46 -2.45,-2.62 -2.36,-2.76 -2.27,-2.91 -2.19,-3.05 -2.11,-3.21 -2.02,-3.33 -1.94,-3.46 -1.87,-3.57 -1.78,-3.71 -1.71,-3.8 -1.63,-3.91 -1.52,-3.92 -1.47,-3.99 -1.39,-4.1 -1.34,-4.16 -1.27,-4.24 -1.22,-4.32 -1.16,-4.37 -1.11,-4.45 -1.06,-4.5 -1.01,-4.57 -0.96,-4.6 -0.92,-4.66 -0.88,-4.71 -0.83,-4.74 -0.79,-4.79 -0.76,-4.83 -0.72,-4.85 -0.69,-4.89 -0.64,-4.92 -0.62,-4.94 -0.59,-4.98 -0.56,-5 -0.53,-5.02 -0.5,-5.05 -0.48,-5.07 -0.45,-5.07 -0.43,-5.11 -0.4,-5.12 -0.38,-5.13 -0.36,-5.15 -0.34,-5.16 -0.32,-5.18 -0.31,-5.19 -0.28,-5.2 -0.27,-5.22 -0.25,-5.22 -0.23,-5.23 -0.22,-5.24 -0.2,-5.24 -0.19,-5.26 -0.17,-5.26 -0.16,-5.27 -0.14,-5.28 -0.14,-5.28 -0.12,-5.3 -0.11,-5.29 -0.1,-5.3 -0.09,-5.32 -0.07,-5.3 -0.07,-5.31 -0.06,-5.33 -0.04,-5.31 -0.04,-5.33 -0.03,-5.34 -0.02,-5.33 -0.01,-5.34 -0.01,-5.33 0.01,-5.35 0.01,-5.35 0.01,-5.34 0.03,-5.36 0.03,-5.35 0.04,-5.36 0.05,-5.35 0.05,-5.36 0.06,-5.35 0.06,-5.37 0.07,-5.36 0.07,-5.37 0.08,-5.37 0.09,-5.37 0.09,-5.37 0.09,-5.37 0.1,-5.36 0.1,-5.38 0.11,-5.37 0.12,-5.38 0.11,-5.37 0.13,-5.38 0.12,-5.37 0.13,-5.38 0.13,-5.37 0.13,-5.39 0.14,-5.38 0.14,-5.38 0.15,-5.37 0.15,-5.39 0.15,-5.38 0.15,-5.39 0.16,-5.38 0.15,-5.38 0.16,-5.38 0.17,-5.39 0.16,-5.38 0.17,-5.39 0.17,-5.39 0.18,-5.39 0.17,-5.38 0.18,-5.38 0.17,-5.39 0.18,-5.4 0.19,-5.38 0.18,-5.38 0.18,-5.38 0.19,-5.4 0.19,-5.39 0.19,-5.38 0.19,-5.4 0.19,-5.38 0.19,-5.39 0.2,-5.39 0.19,-5.38 0.2,-5.39 0.2,-5.39 0.2,-5.39 0.19,-5.4 0.2,-5.38 0.2,-5.39 0.21,-5.39 0.2,-5.39 0.2,-5.39 0.21,-5.38 0.2,-5.39 0.21,-5.4 0.2,-5.38 0.21,-5.4 0.2,-5.38 0.21,-5.4 0.21,-5.38 0.2,-5.38 0.21,-5.4 0.42,-10.78 0.21,-5.39 0.41,-10.78 0.63,-16.18 1.89,-48.5 0.83,-21.56 0.21,-5.39 0.21,-5.39 0.42,-10.79 0.41,-10.78 0.42,-10.77 0.21,-5.39 0.41,-10.78 0.41,-10.78 0.21,-5.39 0.2,-5.39 0.21,-5.39 0.2,-5.4 0.21,-5.38 0.41,-10.78 0.2,-5.4 0.2,-5.38 0.21,-5.4 0.2,-5.38 0.21,-5.4 0.2,-5.38 0.2,-5.4 0.41,-10.78 0.2,-5.38 0.2,-5.39 0.2,-5.39 0.2,-5.39 0.2,-5.39 0.2,-5.39 0.2,-5.4 0.2,-5.38 0.2,-5.4 0.2,-5.38 0.2,-5.4 0.2,-5.38 0.2,-5.4 0.4,-10.78 0.19,-5.38 0.2,-5.4 0.4,-10.77 0.19,-5.4 0.4,-10.78 0.19,-5.38 0.4,-10.78 0.39,-10.78 0.39,-10.78 0.39,-10.78 0.58,-16.18 0.2,-5.38 0.39,-10.79 0.39,-10.78 0.38,-10.78 0.39,-10.78 0.39,-10.78 0.57,-16.16 0.59,-16.17 0.38,-10.78 0.38,-10.78 0.38,-10.78 0.39,-10.78 0.19,-5.39 0.57,-16.17 0.38,-10.78 0.19,-5.39 0.19,-5.38 0.19,-5.4 0.19,-5.38 0.38,-10.78 0.19,-5.4 0.19,-5.38 0.19,-5.39 0.19,-5.39 0.19,-5.39 0.19,-5.4 0.18,-5.38 0.19,-5.4 0.18,-5.38 0.19,-5.38 0.19,-5.4 0.19,-5.38 0.18,-5.4 0.18,-5.38 0.19,-5.39 0.18,-5.4 0.19,-5.38 0.18,-5.4 0.19,-5.38 0.17,-5.4 0.19,-5.38 0.18,-5.38 0.18,-5.4 0.18,-5.39 0.18,-5.39 0.18,-5.39 0.18,-5.38 0.18,-5.4 0.18,-5.38 0.17,-5.4 0.18,-5.38 0.17,-5.4 0.18,-5.38 0.17,-5.39 0.17,-5.39 0.17,-5.39 0.18,-5.4 0.16,-5.38 0.18,-5.4 0.16,-5.38 0.17,-5.38 0.17,-5.4 0.16,-5.38 0.17,-5.4 0.16,-5.38 0.16,-5.4 0.16,-5.39 0.16,-5.38 0.16,-5.4 0.16,-5.38 0.16,-5.4 0.15,-5.38 0.15,-5.4 0.15,-5.38 0.16,-5.39 0.14,-5.39 0.15,-5.39 0.15,-5.39 0.14,-5.39 0.15,-5.39 0.14,-5.39 0.14,-5.39 0.13,-5.39 0.14,-5.4 0.14,-5.38 0.13,-5.38 0.13,-5.4 0.13,-5.38 0.13,-5.4 0.12,-5.38 0.13,-5.4 0.12,-5.38 0.12,-5.4 0.12,-5.39 0.11,-5.39 0.12,-5.39 0.11,-5.4 0.11,-5.38 0.11,-5.4 0.1,-5.38 0.11,-5.38 0.1,-5.4 0.09,-5.38 0.1,-5.4 0.1,-5.38 0.09,-5.4 0.09,-5.39 0.09,-5.39 0.08,-5.39 0.08,-5.39 0.08,-5.39 0.08,-5.39 0.07,-5.39 0.08,-5.39 0.07,-5.39 0.06,-5.4 0.07,-5.38 0.06,-5.4 0.06,-5.38 0.06,-5.38 0.06,-5.4 0.05,-5.38 0.05,-5.4 0.05,-5.38 0.04,-5.4 0.05,-5.39 0.04,-5.39 0.04,-5.39 0.03,-5.38 0.03,-5.4 0.03,-5.38 0.03,-5.4 0.02,-5.38 0.03,-5.4 0.02,-5.38 0.02,-5.39 0.01,-5.4 0.02,-5.38 0.01,-5.38 0.01,-5.4 0.01,-5.38 0,-5.4 0,-10.77 0,-5.39 -0.01,-5.39 0,-5.38 -0.01,-5.4 -0.01,-5.38 -0.01,-5.38 -0.02,-5.4 -0.01,-5.39 -0.02,-5.38 -0.02,-5.4 -0.02,-5.38 -0.03,-5.38 -0.02,-5.4 -0.03,-5.38 -0.02,-5.39 -0.03,-5.38 -0.03,-5.4 -0.03,-5.38 -0.03,-5.39 -0.04,-5.4 -0.03,-5.38 -0.03,-5.38 -0.04,-5.38 -0.03,-5.4 -0.04,-5.39 -0.04,-5.38 -0.04,-5.38 -0.03,-5.4 -0.04,-5.38 -0.04,-5.39 -0.04,-5.39 -0.03,-5.39 -0.04,-5.38 -0.04,-5.39 -0.03,-5.39 -0.04,-5.38 -0.03,-5.39 -0.04,-5.39 -0.03,-5.39 -0.03,-5.38 -0.03,-5.4 -0.03,-5.39 -0.03,-5.38 -0.02,-5.4 -0.03,-5.38 -0.02,-5.38 -0.01,-5.4 -0.02,-5.38 -0.02,-5.4 0,-5.38 -0.01,-5.39 -0.01,-5.4 0,-10.77 0.01,-5.39 0.01,-5.39 0.01,-5.39 0.02,-5.4 0.03,-5.38 0.02,-5.39 0.03,-5.39 0.04,-5.39 0.05,-5.39 0.05,-5.38 0.05,-5.4 0.06,-5.39 0.07,-5.39 0.08,-5.39 0.08,-5.39 0.09,-5.39 0.1,-5.38 0.11,-5.4 0.11,-5.38 0.13,-5.38 0.13,-5.39 0.14,-5.4 0.16,-5.38 0.16,-5.39 0.18,-5.38 0.18,-5.38 0.2,-5.37 0.21,-5.38 0.22,-5.39 0.24,-5.37 0.25,-5.37 0.26,-5.37 0.28,-5.37 0.29,-5.37 0.31,-5.37 0.32,-5.35 0.35,-5.36 0.36,-5.35 0.38,-5.34 0.4,-5.35 0.42,-5.34 0.44,-5.33 0.46,-5.33 0.49,-5.32 0.51,-5.32 0.53,-5.3 0.56,-5.3 0.59,-5.28 0.62,-5.28 0.64,-5.27 0.68,-5.26 0.7,-5.24 0.75,-5.23 0.77,-5.2 0.81,-5.21 0.85,-5.17 0.89,-5.18 0.93,-5.13 0.98,-5.12 1.01,-5.1 1.07,-5.06 1.11,-5.05 1.17,-5.01 1.22,-4.97 1.28,-4.93 1.33,-4.9 1.39,-4.86 1.46,-4.81 1.53,-4.78 1.59,-4.7 1.66,-4.65 1.74,-4.59 1.82,-4.54 1.89,-4.45 1.98,-4.39 2.06,-4.3 2.16,-4.22 2.24,-4.12 2.33,-4.02 2.44,-3.94 2.52,-3.82 2.56,-3.61 2.64,-3.48 2.74,-3.37 2.84,-3.26 2.93,-3.12 3.03,-3.01 3.12,-2.86 3.22,-2.74 3.32,-2.6 3.41,-2.46 3.51,-2.31 3.6,-2.2 3.69,-2.04 3.78,-1.9 3.87,-1.77 3.96,-1.64 4.04,-1.5 4.13,-1.36 4.22,-1.25 4.29,-1.11 4.38,-0.98 4.45,-0.88 4.54,-0.75 4.61,-0.64 4.69,-0.52 4.77,-0.42 4.84,-0.32 4.91,-0.22 4.99,-0.13 5.07,-0.02 5.14,0.07 5.21,0.15 5.29,0.22 5.36,0.32 5.43,0.39 5.51,0.47 5.59,0.54 5.66,0.61 5.73,0.68 5.81,0.74 5.89,0.82 5.97,0.85 6.05,0.93 6.12,0.98 6.2,1.04 6.29,1.08 6.37,1.14 6.45,1.19 6.53,1.23 6.62,1.3 6.71,1.31 6.8,1.38 6.88,1.4 6.97,1.46 7.07,1.48 7.16,1.53 7.25,1.57 7.35,1.59 7.45,1.64 7.54,1.67 7.65,1.7 7.74,1.72 7.86,1.76 7.95,1.79 8.08,1.82 8.17,1.86 33.83,7.65 8.76,1.98 8.88,2 8.99,2.01 9.11,2.05 9.26,2.07 9.38,2.08 9.5,2.11 9.66,2.14 9.78,2.13 9.92,2.18 10.06,2.18 10.21,2.21 10.35,2.22 10.51,2.25 10.65,2.24 10.81,2.28 10.98,2.29 11.12,2.3 11.3,2.31 11.46,2.34 11.62,2.36 11.81,2.36 11.98,2.37 12.15,2.4 12.34,2.4 12.53,2.41 12.71,2.43 12.9,2.46 13.1,2.44 13.31,2.47 13.5,2.48 13.7,2.49 13.92,2.49 14.14,2.51 14.34,2.53 14.59,2.53 14.79,2.55 15.02,2.54 15.27,2.57 15.49,2.56 15.75,2.58 15.99,2.6 16.25,2.59 16.48,2.61 16.76,2.61 17.01,2.62 17.29,2.62 17.56,2.64 17.83,2.65 18.12,2.65 18.42,2.66 18.69,2.67 18.99,2.66 19.3,2.68 19.61,2.69 19.91,2.69 20.21,2.69 20.55,2.71 20.88,2.71 21.21,2.72 21.53,2.71 21.88,2.72 22.23,2.74 22.56,2.73 22.93,2.74 23.29,2.74 23.64,2.75 24.02,2.74 24.38,2.75 24.76,2.77 25.14,2.75 25.53,2.78 25.91,2.76 26.3,2.78 26.72,2.77 27.09,2.78 27.5,2.79 27.91,2.79 28.3,2.77 28.72,2.79 29.14,2.8 29.54,2.79 29.96,2.79 30.37,2.8 30.79,2.79 31.19,2.81 31.62,2.8 32.02,2.8 32.44,2.8 32.84,2.8 33.26,2.81 33.66,2.81 34.05,2.81 34.45,2.8 34.84,2.8 35.22,2.82 35.59,2.8 35.96,2.82 36.32,2.8 36.66,2.8 37.01,2.82 37.32,2.8 37.64,2.8 37.94,2.82 38.21,2.81 38.49,2.8 38.72,2.8 38.97,2.8 39.17,2.81 39.36,2.8 39.53,2.8 39.65,2.8 39.78,2.81 39.88,2.8 39.93,2.8 119.84,8.4 39.86,2.8 39.77,2.79 39.61,2.8 39.45,2.79 39.22,2.79 38.98,2.8 38.67,2.79 38.32,2.8 37.95,2.79 37.5,2.79 37.04,2.79 36.5,2.8 35.92,2.79 35.31,2.79 34.65,2.79 33.92,2.79 33.16,2.8 32.36,2.79 31.5,2.79 30.58,2.79 29.63,2.79 28.66,2.78 27.61,2.78 26.54,2.79 25.44,2.79 24.29,2.77 23.13,2.79 21.92,2.78 20.7,2.77 19.47,2.78 18.21,2.77 16.94,2.76 15.66,2.76 14.4,2.77 13.13,2.74 11.86,2.75 10.62,2.75 9.36,2.73 8.16,2.73 6.95,2.72 5.8,2.72 4.66,2.71 3.56,2.7 2.48,2.7 1.45,2.67 0.49,2.68 -0.49,2.66 -1.37,2.66 -2.23,2.63 -3.04,2.64 -3.82,2.62 -4.53,2.61 -5.22,2.6 -5.84,2.57 -6.44,2.57 -6.98,2.55 -7.48,2.55 -7.93,2.53 -8.36,2.51 -8.72,2.52 -9.09,2.48 -9.38,2.47 -9.66,2.44 -9.88,2.44 -10.08,2.43 -10.27,2.4 -10.41,2.39 -10.52,2.36 -10.6,2.34 -10.66,2.33 -10.72,2.32 -10.71,2.29 -10.72,2.26 -10.69,2.25 -10.64,2.22 -10.57,2.2 -10.49,2.18 -10.39,2.17 -10.29,2.12 -10.15,2.11 -10.02,2.08 -9.85,2.05 -9.7,2.04 -9.52,2 -9.34,1.97 -9.14,1.94 -8.94,1.92 -8.72,1.89 -8.49,1.84 -8.29,1.83 -8.05,1.79 -7.79,1.75 -7.57,1.72 -7.29,1.69 -7.05,1.66 -6.8,1.61 -6.52,1.57 -6.26,1.55 -5.99,1.49 -5.72,1.48 -5.44,1.41 -5.14,1.39 -4.89,1.33 -4.59,1.3 -4.32,1.25 -4.02,1.23 -3.75,1.16 -3.44,1.13 -3.16,1.08 -2.89,1.02 -2.58,0.99 -2.3,0.94 -2.01,0.89 -1.72,0.84 -1.45,0.8 -1.15,0.74 -0.87,0.7 -0.6,0.64 -0.3,0.61 -0.03,0.54 0.24,0.5 0.52,0.44 0.81,0.41 1.05,0.34 1.33,0.31 1.58,0.25 1.86,0.19 2.1,0.16 2.36,0.09 2.61,0.06 2.85,0 3.1,-0.04 3.33,-0.1 3.55,-0.14 3.79,-0.18 4.01,-0.24 4.23,-0.27 4.44,-0.34 4.65,-0.36 4.85,-0.41 5.04,-0.46 5.25,-0.49 5.42,-0.54 5.6,-0.58 5.78,-0.63 5.95,-0.65 6.11,-0.69 6.26,-0.74 6.41,-0.77 6.57,-0.81 6.7,-0.85 6.83,-0.87 6.95,-0.9 7.08,-0.95 7.18,-0.96 7.29,-1 7.38,-1.05 7.48,-1.05 7.56,-1.1 7.63,-1.11 7.7,-1.15 7.77,-1.17 7.83,-1.19 7.86,-1.22 7.91,-1.25 7.94,-1.26 7.96,-1.27 7.99,-1.32 8,-1.32 7.99,-1.35 7.98,-1.37 7.98,-1.38 7.94,-1.4 7.93,-1.41 7.86,-1.45 7.84,-1.44 7.77,-1.46 7.72,-1.48 7.64,-1.48 7.57,-1.52 7.46,-1.51 7.37,-1.52 7.27,-1.54 7.16,-1.55 7.03,-1.56 6.9,-1.57 6.75,-1.58 6.63,-1.58 6.44,-1.6 6.31,-1.6 6.11,-1.6 5.96,-1.61 5.75,-1.63 5.57,-1.62 5.36,-1.64 5.14,-1.64 4.94,-1.63 4.7,-1.64 4.48,-1.65 4.24,-1.65 4.01,-1.65 3.74,-1.66 3.49,-1.64 3.23,-1.67 2.97,-1.65 2.69,-1.67 2.43,-1.65 2.13,-1.66 1.86,-1.65 1.57,-1.67 1.29,-1.65 0.99,-1.65 0.69,-1.65 0.39,-1.65 0.1,-1.66 -0.2,-1.63 -0.51,-1.64 -0.79,-1.64 -1.11,-1.63 -1.4,-1.64 -1.71,-1.62 -2,-1.61 -2.29,-1.63 -2.57,-1.61 -2.89,-1.59 -3.17,-1.6 -3.45,-1.59 -3.72,-1.59 -4.01,-1.58 -4.27,-1.56 -4.55,-1.57 -4.8,-1.56 -5.07,-1.55 -5.3,-1.53 -5.56,-1.54 -5.79,-1.52 -6.02,-1.52 -6.24,-1.5 -6.46,-1.5 -6.67,-1.48 -6.87,-1.47 -7.06,-1.46 -7.26,-1.45 -7.42,-1.45 -7.6,-1.42 -7.76,-1.43 -7.91,-1.41 -8.05,-1.4 -8.18,-1.38 -8.33,-1.38 -8.42,-1.36 -8.55,-1.34 -8.64,-1.33 -8.73,-1.32 -8.82,-1.32 -8.9,-1.29 -8.94,-1.28 -9.02,-1.26 -9.07,-1.25 -9.1,-1.23 -9.13,-1.23 -9.15,-1.2 -9.18,-1.19 -9.17,-1.17 -9.17,-1.17 -9.16,-1.13 -9.14,-1.13 -9.12,-1.11 -9.08,-1.08 -9.04,-1.08 -8.99,-1.06 -8.93,-1.04 -8.87,-1.01 -8.79,-1 -8.73,-0.99 -8.63,-0.95 -8.53,-0.95 -8.44,-0.92 -8.34,-0.91 -8.22,-0.87 -8.1,-0.86 -7.97,-0.85 -7.84,-0.82 -7.71,-0.8 -7.56,-0.78 -7.41,-0.75 -7.25,-0.74 -7.09,-0.7 -6.93,-0.68 -6.75,-0.67 -6.58,-0.64 -6.38,-0.62 -6.21,-0.58 -6.01,-0.57 -5.81,-0.54 -5.6,-0.51 -5.4,-0.5 -5.19,-0.46 -4.97,-0.45 -4.74,-0.4 -4.52,-0.39 -4.28,-0.36 -4.05,-0.32 -3.81,-0.3 -3.57,-0.28 -3.32,-0.24 -3.06,-0.22 -2.82,-0.18 -2.56,-0.15 -2.28,-0.13 -2.02,-0.09 -1.74,-0.06 -1.49,-0.03 -1.19,0 -0.92,0.03 -0.64,0.07 -0.34,0.11 -0.04,0.13 0.23,0.16 0.53,0.21 0.83,0.24 1.14,0.27 1.44,0.31 1.75,0.35 2.04,0.37 2.37,0.42 2.67,0.46 2.99,0.5 3.31,0.52 3.62,0.57 3.92,0.61 4.26,0.66 4.57,0.69 4.9,0.72 5.2,0.78 5.52,0.8 5.86,0.86 6.16,0.89 6.46,0.94 6.8,0.98 30.24,4.36 8.31,1.2 8.61,1.25 8.9,1.29 9.17,1.34 9.46,1.39 9.71,1.43 9.99,1.49 10.24,1.52 10.48,1.57 10.71,1.62 10.95,1.68 11.14,1.72 11.35,1.78 11.53,1.82 11.7,1.87 11.86,1.91 11.99,1.97 12.12,2.03 12.23,2.08 12.3,2.12 12.37,2.17 12.41,2.23 12.44,2.28 12.43,2.33 12.42,2.39 12.35,2.44 12.27,2.48 12.19,2.54 12.04,2.59 11.89,2.65 11.7,2.71 11.49,2.75 11.24,2.81 10.96,2.86 10.65,2.9 10.33,2.97 9.94,3.03 9.56,3.06 9.15,3.12 8.69,3.18 8.19,3.22 7.69,3.27 7.17,3.33 6.61,3.39 6.02,3.43 5.42,3.48 4.81,3.54 4.16,3.58 3.52,3.63 2.85,3.68 2.18,3.72 1.48,3.77 0.81,3.83 0.12,3.82 -0.55,3.87 -1.24,3.91 -1.89,3.95 -2.55,4 -3.2,4.04 -3.84,4.08 -4.45,4.1 -5.06,4.17 -5.67,4.2 -6.21,4.24 -6.77,4.27 -7.28,4.31 -7.79,4.34 -8.25,4.39 -8.72,4.41 -9.13,4.45 -9.52,4.49 -9.88,4.51 -10.21,4.53 -10.53,4.58 -10.81,4.61 -11.06,4.63 -11.28,4.67 -11.47,4.7 -11.64,4.71 -11.78,4.75 -11.91,4.77 -12,4.79 -12.06,4.83 -12.11,4.84 -12.12,4.87 -12.13,4.88 -12.1,4.92 -12.07,4.94 -12.01,4.94 -11.92,4.98 -11.83,4.99 -11.72,5.01 -11.59,5.03 -11.46,5.05 -11.29,5.06 -11.13,5.08 -10.95,5.1 -10.75,5.11 -10.55,5.13 -10.35,5.14 -10.13,5.16 -9.89,5.16 -9.65,5.19 -9.43,5.19 -9.17,5.2 -8.9,5.22 -8.66,5.23 -8.4,5.23 -8.13,5.25 -7.85,5.25 -7.59,5.28 -7.3,5.27 -7.03,5.29 -6.75,5.28 -6.46,5.3 -6.18,5.32 -5.9,5.3 -5.61,5.32 -5.33,5.33 -5.04,5.33 -4.76,5.33 -4.48,5.34 -4.19,5.36 -3.91,5.34 -3.64,5.36 -3.34,5.36 -3.08,5.36 -2.79,5.37 -2.53,5.37 -2.25,5.37 -1.98,5.37 -1.7,5.38 -1.46,5.37 -1.18,5.39 -0.92,5.38 -0.66,5.38 -0.42,5.38 -0.15,5.4 0.1,5.39 0.33,5.38 0.58,5.4 0.84,5.38 1.05,5.4 1.29,5.38 1.53,5.4 1.76,5.38 1.97,5.38 2.2,5.4 2.42,5.39 2.62,5.38 2.84,5.4 3.04,5.38 3.25,5.38 3.46,5.39 3.63,5.38 3.84,5.39 4.01,5.38 4.21,5.38 4.38,5.37 4.57,5.38 4.73,5.38 4.9,5.36 5.06,5.37 5.22,5.38 5.38,5.36 5.52,5.37 5.68,5.37 5.81,5.36 5.97,5.36 6.07,5.36 6.22,5.36 6.34,5.34 6.47,5.36 6.56,5.35 6.69,5.34 6.8,5.36 6.88,5.34 6.99,5.35 7.08,5.34 7.16,5.32 7.26,5.35 7.31,5.33 7.39,5.32 7.47,5.34 7.52,5.32 7.57,5.32 7.63,5.33 7.68,5.32 7.71,5.33 7.74,5.31 7.79,5.32 7.81,5.31 7.82,5.31 7.84,5.32 31.39,21.21 7.84,5.3 7.81,5.3 7.78,5.3 7.77,5.3 7.73,5.3 7.69,5.29 7.66,5.3 7.59,5.29 7.55,5.28 7.49,5.29 7.42,5.3 7.35,5.28 7.29,5.29 7.2,5.28 7.12,5.28 7.04,5.29 6.94,5.28 6.84,5.29 6.76,5.27 6.63,5.29 6.54,5.27 6.43,5.29 6.31,5.28 6.17,5.28 6.08,5.28 5.92,5.27 5.82,5.29 5.67,5.27 5.55,5.29 5.4,5.27 5.27,5.29 5.12,5.27 4.98,5.29 4.83,5.28 4.69,5.28 4.54,5.28 4.38,5.29 4.23,5.29 4.1,5.28 3.92,5.29 3.78,5.29 3.63,5.28 3.47,5.29 3.32,5.28 3.18,5.3 3.01,5.29 2.87,5.3 2.72,5.3 2.56,5.29 2.43,5.3 2.29,5.3 2.14,5.31 2,5.3 1.86,5.3 1.72,5.32 1.59,5.31 1.46,5.32 1.35,5.31 1.2,5.31 1.1,5.32 0.97,5.33 0.86,5.32 0.76,5.33 0.66,5.33 0.54,5.33 0.46,5.33 0.36,5.34 0.26,5.34 0.18,5.33 0.11,5.35 0.04,5.34 -0.04,5.35 -0.11,5.35 -0.15,5.36 -0.22,5.35 -0.28,5.36 -0.32,5.35 -0.35,5.38 -0.4,5.37 -0.43,5.36 -0.46,5.37 -0.47,5.37 -0.5,5.37 -0.5,5.37 -0.53,5.39 -0.51,5.38 -0.53,5.38 -0.51,5.38 -0.52,5.39 -0.5,5.38 -0.48,5.39 -0.46,5.38 -0.44,5.4 -0.42,5.38 -0.37,5.4 -0.36,5.38 -0.31,5.39 -0.28,5.39 -0.25,5.39 -0.19,5.4 -0.15,5.38 -0.1,5.38 -0.07,5.4 -0.01,5.38 0.04,5.38 0.08,5.39 0.14,5.37 0.18,5.38 0.22,5.37 0.28,5.37 0.32,5.37 0.36,5.37 0.4,5.36 0.45,5.36 0.47,5.35 0.51,5.35 0.54,5.34 0.56,5.35 0.58,5.33 0.59,5.34 0.59,5.31 0.61,5.33 0.58,5.3 0.59,5.31 0.55,5.3 0.53,5.29 0.48,5.29 0.45,5.27 0.38,5.27 0.31,5.27 0.24,5.25 0.15,5.24 0.03,5.25 -0.07,5.23 -0.21,5.23 -0.35,5.2 -0.5,5.22 -0.68,5.19 -0.86,5.19 -1.06,5.17 -1.3,5.18 -1.51,5.16 -1.76,5.15 -2.04,5.15 -2.31,5.13 -2.63,5.12 -2.94,5.12 -3.29,5.11 -3.63,5.09 -4.01,5.09 -4.4,5.07 -4.82,5.07 -5.23,5.05 -5.69,5.06 -6.14,5.03 -6.62,5.02 -7.12,5.01 -7.65,5.01 -8.15,5 -8.7,4.99 -9.26,4.97 -9.82,4.97 -10.42,4.95 -11,4.95 -11.6,4.94 -12.22,4.93 -12.86,4.91 -13.47,4.9 -14.11,4.9 -14.75,4.88 -15.38,4.87 -16.04,4.87 -16.7,4.86 -17.34,4.84 -17.98,4.82 -18.62,4.84 -19.26,4.8 -19.88,4.81 -20.52,4.78 -21.14,4.79 -21.74,4.78 -22.34,4.76 -22.92,4.74 -23.49,4.75 -24.04,4.73 -24.6,4.73 -25.12,4.72 -25.64,4.7 -26.11,4.69 -26.61,4.69 -27.06,4.68 -27.49,4.67 -27.91,4.66 -28.31,4.65 -28.69,4.65 -29.06,4.63 -29.37,4.64 -29.7,4.62 -30,4.62 -30.27,4.6 -30.52,4.6 -30.76,4.59 -30.97,4.59 -31.15,4.58 -31.33,4.58 -31.48,4.56 -31.62,4.57 -31.72,4.55 -31.82,4.55 -31.9,4.55 -31.93,4.54 -32,4.54 -32.01,4.52 -32.01,4.54 -32.01,4.52 -31.97,4.51 -31.93,4.53 -31.88,4.5 -31.8,4.5 -31.72,4.51 -31.61,4.49 -31.5,4.5 -31.39,4.5 -31.25,4.48 -31.09,4.49 -30.94,4.48 -30.79,4.49 -30.6,4.48 -30.41,4.47 -30.22,4.48 -30.03,4.47 -29.8,4.46 -29.59,4.47 -29.38,4.47 -29.14,4.45 -28.9,4.47 -28.66,4.45 -28.42,4.46 -28.16,4.46 -27.92,4.46 -27.65,4.45 -27.41,4.46 -27.12,4.44 -26.87,4.45 -26.59,4.46 -26.32,4.43 -26.05,4.46 -25.78,4.44 -25.5,4.44 -25.22,4.44 -24.95,4.45 -24.66,4.44 -24.39,4.44 -24.11,4.44 -23.83,4.44 -23.56,4.43 -23.28,4.44 -23.01,4.44 -22.72,4.44 -22.45,4.42 -22.17,4.44 -21.91,4.45 -21.65,4.42 -21.36,4.44 -21.11,4.42 -20.84,4.45 -20.57,4.42 -20.32,4.43 -20.05,4.44 -19.8,4.42 -19.55,4.43 -19.28,4.44 -19.04,4.43 -18.8,4.42 -18.55,4.44 -18.3,4.43 -18.08,4.43 -17.83,4.42 -17.6,4.44 -17.35,4.43 -17.14,4.43 -16.91,4.42 -16.68,4.44 -16.47,4.42 -16.25,4.43 -16.02,4.43 -15.8,4.44 -15.61,4.42 -15.41,4.43 -15.19,4.42 -14.99,4.45 -14.79,4.42 -14.58,4.43 -14.4,4.44 -14.21,4.42 -14.01,4.43 -13.83,4.44 -13.64,4.43 -13.46,4.44 -13.29,4.42 -13.12,4.44 -12.93,4.43 -12.76,4.44 -12.59,4.44 -12.43,4.43 -12.26,4.43 -12.11,4.45 -11.94,4.44 -11.78,4.42 -11.63,4.44 -11.47,4.44 -11.34,4.44 -11.17,4.44 -11.04,4.44 -10.88,4.46 -10.75,4.44 -10.61,4.43 -10.47,4.45 -10.34,4.45 -10.19,4.44 -10.08,4.45 -9.93,4.44 -9.83,4.45 -9.68,4.46 -9.56,4.45 -9.44,4.45 -9.32,4.45 -9.2,4.46 -9.09,4.46 -8.97,4.45 -8.86,4.46 -8.75,4.46 -8.63,4.46 -8.53,4.46 -8.43,4.47 -8.31,4.46 -8.21,4.47 -8.12,4.47 -8.02,4.47 -7.91,4.46 -7.81,4.48 -7.73,4.47 -7.62,4.48 -7.53,4.47 -7.44,4.48 -7.35,4.48 -7.27,4.48 -7.17,4.49 -7.08,4.48 -7.01,4.49 -6.92,4.49 -6.83,4.49 -6.76,4.49 -6.67,4.5 -6.59,4.49 -6.52,4.5 -6.44,4.5 -6.37,4.5 -6.28,4.51 -6.22,4.5 -6.14,4.51 -6.07,4.51 -6,4.51 -5.93,4.52 -5.87,4.51 -5.79,4.52 -5.74,4.52 -5.66,4.52 -5.6,4.53 -5.54,4.53 -5.47,4.53 -5.41,4.54 -5.36,4.53 -5.29,4.54 -5.23,4.54 -5.17,4.54 -5.12,4.55 -5.06,4.55 -5,4.55 -4.94,4.55 -4.9,4.56 -4.84,4.55 -4.78,4.57 -4.74,4.56 -4.68,4.57 -4.63,4.57 -4.58,4.57 -4.53,4.58 -4.49,4.58 -4.43,4.58 -4.39,4.59 -4.34,4.59 -4.3,4.59 -4.25,4.6 -4.19,4.59 -4.16,4.61 -4.12,4.6 -4.08,4.61 -4.02,4.61 -3.99,4.62 -3.95,4.61 -3.9,4.63 -3.87,4.62 -3.83,4.63 -3.78,4.64 -3.75,4.63 -3.71,4.64 -3.67,4.65 -3.63,4.65 -3.6,4.65 -3.56,4.65 -3.52,4.66 -3.49,4.67 -3.46,4.67 -3.41,4.67 -3.39,4.68 -3.35,4.68 -3.32,4.68 -3.29,4.69 -3.25,4.69 -3.22,4.7 -3.19,4.71 -3.16,4.7 -3.13,4.71 -3.1,4.72 -3.07,4.72 -3.03,4.73 -3.01,4.73 -2.98,4.73 -2.95,4.74 -2.93,4.75 -2.89,4.75 -2.87,4.75 -2.84,4.76 -2.82,4.77 -2.78,4.77 -2.76,4.77 -2.74,4.78 -2.71,4.79 -2.69,4.79 -2.65,4.8 -2.64,4.8 -2.61,4.81 -2.59,4.81 -2.56,4.82 -2.54,4.83 -2.52,4.83 -2.49,4.84 -2.47,4.84 -2.45,4.85 -2.43,4.86 -2.4,4.86 -2.38,4.87 -2.36,4.87 -2.35,4.89 -2.31,4.88 -2.3,4.9 -2.29,4.9 -2.25,4.91 -2.24,4.91 -2.22,4.92 -2.2,4.93 -2.18,4.93 -2.16,4.94 -2.14,4.95 -2.13,4.96 -2.1,4.96 -2.09,4.97 -2.07,4.98 -2.06,4.99 -2.03,4.99 -2.02,5 -2,5.01 -1.98,5.02 -1.97,5.02 -1.94,5.03 -1.94,5.04 -1.92,5.05 -1.9,5.05 -1.88,5.07 -1.87,5.07 -1.85,5.08 -1.84,5.09 -1.82,5.09 -1.81,5.11 -1.8,5.12 -1.77,5.12 -1.77,5.13 -1.74,5.14 -1.74,5.15 -1.72,5.15 -1.7,5.17 -1.7,5.18 -1.68,5.18 -1.66,5.19 -1.65,5.2 -1.64,5.21 -1.62,5.22 -1.61,5.23 -1.6,5.23 -1.587,5.25 -1.571,5.25 -1.558,5.26 -1.547,5.27 -1.535,5.28 -1.52,5.28 -1.507,5.3 -1.497,5.3 -1.484,5.31 -1.469,5.32 -1.457,5.33 -1.449,5.33 -1.434,5.34 -1.421,5.34 -1.411,5.36 -1.394,5.36 -1.387,5.36 -1.375,5.37 -1.359,5.38 -1.352,5.37 -1.336,5.38 -1.324,5.39 -1.316,5.39 -1.297,5.39 -1.289,5.39 -1.278,5.38 -1.265,5.39 -1.25,5.39 -1.239,5.39 -1.226,5.38 -1.215,5.37 -1.203,5.37 -1.188,5.36 -1.175,5.35 -1.16,5.34 -1.149,5.33 -1.137,5.31 -1.121,5.3 -1.105,5.28 -1.094,5.26 -1.078,5.24 -1.063,5.22 -1.05,5.19 -1.036,5.16 -1.019,5.12 -1.004,5.1 -0.988,5.06 -0.973,5.02 -0.957,4.98 -0.941,4.94 -0.926,4.89 -0.906,4.84 -0.891,4.8 -0.875,4.73 -0.859,4.69 -0.84,4.62 -0.821,4.57 -0.808,4.5 -0.789,4.44 -0.77,4.38 -0.754,4.31 -0.738,4.24 -0.723,4.16 -0.703,4.1 -0.683,4.03 -0.672,3.95 -0.652,3.88 -0.625,3.73 -0.61,3.67 -0.597,3.59 -0.579,3.51 -0.566,3.45 -0.551,3.38 -0.535,3.31 -0.523,3.24 -0.508,3.17 -0.492,3.1 -0.485,3.03 -0.469,2.96 -0.457,2.9 -0.445,2.82 -0.43,2.77 -0.421,2.7 -0.411,2.64 -0.398,2.57 -0.391,2.52 -0.379,2.45 -0.363,2.4 -0.359,2.34 -0.348,2.28 -0.34,2.22 -0.328,2.18 -0.32,2.12 -0.313,2.06 -0.304,2.02 -0.297,1.96 -0.289,1.92 -0.278,1.87 -0.273,1.83 -0.266,1.78 -0.261,1.73 -0.25,1.69 -0.247,1.65 -0.238,1.61 -0.234,1.57 -0.227,1.53 -0.222,1.48 -0.215,1.46 -0.211,1.41 -0.203,1.38 -0.2,1.34 -0.195,1.32 -0.187,1.27 -0.188,1.25 -0.18,1.21 -0.175,1.18 -0.172,1.15 -0.168,1.12 -0.16,1.09 -0.16,1.07 -0.157,1.04 -0.152,1 -0.148,0.99 -0.141,0.96 -0.141,0.93 -0.14,0.91 -0.133,0.88 -0.133,0.86 -0.125,0.84 -0.125,0.81 -0.125,0.8 -0.117,0.77 -0.117,0.75 -0.114,0.73 -0.109,0.72 -0.109,0.69 -0.106,0.67 -0.105,0.65 -0.102,0.64 -0.098,0.62 -0.097,0.6 -0.094,0.59 -0.094,0.57 -0.09,0.55 -0.089,0.54 -0.086,0.52 -0.086,0.5 -0.082,0.49 -0.082,0.48 -0.078,0.46 -0.079,0.45 -0.078,0.44 -0.074,0.42 -0.074,0.41 -0.07,0.4 -0.071,0.38 -0.066,0.38 -0.07,0.36 -0.067,0.35 -0.062,0.34 -0.063,0.33 -0.062,0.32 -0.063,0.31 -0.062,0.29 -0.059,0.29 -0.059,0.28 -0.054,0.27 -0.055,0.26 -0.055,0.25 -0.054,0.24 -0.055,0.23 -0.051,0.23 -0.051,0.22 -0.05,0.21 -0.051,0.2 -0.047,0.19 -0.051,0.19 -0.047,0.18 -0.043,0.17 -0.047,0.17 -0.046,0.15 -0.043,0.16 -0.047,0.14 -0.043,0.14 -0.043,0.14 -0.043,0.13 -0.039,0.12 -0.043,0.11 -0.039,0.12 -0.039,0.1 -0.043,0.11 -0.039,0.09 -0.039,0.09 -0.039,0.09 -0.039,0.08 -0.036,0.08 -0.039,0.07 -0.035,0.07 -0.039,0.07 -0.035,0.06 -0.035,0.06 -0.039,0.05 -0.035,0.05 -0.036,0.05 -0.035,0.04 -0.035,0.05 -0.035,0.03 -0.035,0.04 -0.035,0.03 -0.036,0.02 -0.035,0.03 -0.031,0.02 -0.035,0.02 -0.035,0.02 -0.035,0.02 -0.036,0.01 -0.031,0.01 -0.035,0.01 -0.035,0 -0.031,0.01 -0.036,0 -0.035,0 -0.031,0 -0.035,0 -0.035,-0.01 -0.032,0 -0.035,-0.01 -0.035,-0.01 -0.035,-0.01 -0.031,-0.01 -0.035,-0.01 -0.036,-0.02 -0.035,-0.01 -0.035,-0.02 -0.035,-0.02 -0.031,-0.01 -0.035,-0.02 -0.039,-0.02 -0.032,-0.02 -0.035,-0.02 -0.039,-0.02 -0.035,-0.03 -0.035,-0.02 -0.035,-0.02 -0.036,-0.03 -0.039,-0.02 -0.035,-0.03 -0.039,-0.02 -0.035,-0.03 -0.035,-0.02 -0.039,-0.03 -0.039,-0.03 -0.035,-0.02 -0.04,-0.03 -0.039,-0.03 -0.039,-0.02 -0.039,-0.03 -0.035,-0.03 -0.043,-0.02 -0.039,-0.03 -0.039,-0.03 -0.039,-0.03 -0.043,-0.02 -0.039,-0.03 -0.039,-0.02 -0.043,-0.03 -0.043,-0.03 -0.039,-0.02 -0.043,-0.03 -0.043,-0.02 -0.043,-0.03 -0.043,-0.02 -0.043,-0.02 -0.043,-0.03 -0.043,-0.02 -0.043,-0.02 -0.043,-0.03 -0.047,-0.02 -0.043,-0.02 -0.047,-0.02 -0.043,-0.02 -0.046,-0.03 -0.047,-0.02 -0.047,-0.02 -0.047,-0.02 -0.047,-0.01 -0.047,-0.02 -0.047,-0.02 -0.05,-0.02 -0.047,-0.01 -0.051,-0.02 -0.047,-0.01 -0.047,-0.02 -0.051,-0.01 -0.05,-0.02 -0.051,-0.01 -0.051,-0.01 -0.051,-0.01 -0.051,-0.02 -0.05,-0.01 -0.055,-0.01 -0.051,-0.01 -0.054,-0.01 -0.051,-0.01 -0.055,-0.01 -0.051,0 -0.054,-0.01 -0.055,0 -0.055,-0.01 -0.054,-0.01 -0.055,0 -0.059,0 -0.054,-0.01 -0.055,0 -0.059,-0.01 -0.054,0 -0.059,0 -0.352,0 -0.058,0 -0.059,0 -0.058,0.01 -0.063,0 -0.062,0.01 -0.059,0 -0.062,0 -0.063,0.01 -0.062,0.01 -0.059,0 -0.063,0.01 -0.066,0 -0.062,0.01 -0.063,0.01 -0.062,0.01 -0.067,0.01 -0.066,0 -0.063,0.01 -0.066,0.01 -0.067,0.01 -0.066,0.01 -0.062,0.01 -0.067,0.01 -0.066,0.01 -0.071,0.02 -0.066,0.01 -0.066,0.01 -0.071,0.01 -0.066,0.01 -0.07,0.01 -0.067,0.02 -0.07,0.01 -0.07,0.01 -0.071,0.02 -0.07,0.01 -0.07,0.01 -0.071,0.02 -0.07,0.01 -0.07,0.02 -0.075,0.01 -0.07,0.02 -0.074,0.01 -0.07,0.01 -0.075,0.02 -0.074,0.02 -0.07,0.01 -0.074,0.02 -0.075,0.01 -0.074,0.02 -0.074,0.01 -0.074,0.02 -0.074,0.01 -0.079,0.02 -0.074,0.02 -0.078,0.01 -0.074,0.02 -0.078,0.01 -0.078,0.02 -0.079,0.01 -0.074,0.02 -0.078,0.02 -0.078,0.01 -0.078,0.02 -0.078,0.01 -0.082,0.02 -0.078,0.01 -0.079,0.02 -0.082,0.02 -0.078,0.01 -0.082,0.02 -0.082,0.01 -0.078,0.02 -0.082,0.01 -0.082,0.02 -0.082,0.01 -0.082,0.02 -0.082,0.02 -0.082,0.01 -0.082,0.01 -0.086,0.02 -0.082,0.01 -0.082,0.02 -0.086,0.01 -0.082,0.01 -0.086,0.02 -0.086,0.01 -0.086,0.02 -0.086,0.01 -0.086,0.01 -0.086,0.02 -0.086,0.01 -0.086,0.01 -0.085,0.01 -0.09,0.02 -0.086,0.01 -0.09,0.01 -0.086,0.01 -0.09,0.01 -0.09,0.01 -0.086,0.02 -0.09,0.01 -0.089,0.01 -0.09,0.01 -0.09,0.01 -0.09,0.01 -0.094,0.01 -0.089,0.01 -0.094,0.01 -0.09,0.01 -0.094,0.01 -0.09,0.01 -0.093,0.01 -0.094,0.01 -0.094,0.01 -0.094,0 -0.093,0.01 -0.094,0.01 -0.094,0.01 -0.094,0.01 -0.097,0 -0.094,0.01 -0.098,0.01 -0.093,0.01 -0.098,0 -0.098,0.01 -0.097,0.01 -0.098,0 -0.098,0.01 -0.097,0.01 -0.098,0 -0.098,0.01 -0.101,0 -0.098,0.01 -0.102,0 -0.097,0.01 -0.102,0 -0.101,0.01 -0.102,0 -0.101,0.01 -0.102,0 -0.098,0 -0.105,0.01 -0.102,0 -0.105,0.01 -0.102,0 -0.105,0 -0.102,0.01 -0.105,0 -0.106,0 -0.105,0.01 -0.106,0 -0.105,0 -0.106,0 -0.105,0.01 -0.109,0 -0.106,0 -0.109,0.01 -0.106,0 -0.109,0 -0.109,0 -0.11,0 -0.109,0 -0.11,0.01 -0.222,0 -0.11,0 -0.222,0 -0.114,0.01 -0.339,0 -0.114,0 -0.343,0 -0.114,0 -0.703,0 -0.117,0.01 -2.449,0 -0.125,-0.01 -0.641,0 -0.129,0 -0.394,0 -0.129,0 -0.266,0 -0.133,-0.01 -0.265,0 -0.137,0 -0.133,0 -0.137,-0.01 -0.136,0 -0.133,0 -0.137,0 -0.136,0 -0.141,0 -0.137,-0.01 -0.137,0 -0.14,-0.01 -0.141,0 -0.14,0 -0.137,0 -0.145,-0.01 -0.14,0 -0.141,-0.01 -0.141,0 -0.144,0 -0.145,-0.01 -0.14,-0.01 -0.149,0 -0.144,-0.01 -0.145,0 -0.144,-0.01 -0.149,0 -0.144,-0.01 -0.149,-0.01 -0.148,-0.01 -0.149,0 -0.148,-0.01 -0.148,-0.01 -0.153,-0.01 -0.148,0 -0.153,-0.02 -0.152,0 -0.152,-0.02 -0.153,-0.01 -0.152,-0.01 -0.152,-0.01 -0.157,-0.01 -0.156,-0.01 -0.152,-0.02 -0.156,-0.01 -0.157,-0.02 -0.16,-0.01 -0.156,-0.01 -0.156,-0.02 -0.16,-0.02 -0.157,-0.02 -0.164,-0.01 -0.16,-0.02 -0.16,-0.02 -0.16,-0.02 -0.16,-0.02 -0.164,-0.02 -0.164,-0.02 -0.165,-0.03 -0.164,-0.02 -0.164,-0.02 -0.168,-0.03 -0.164,-0.02 -0.168,-0.03 -0.168,-0.02 -0.168,-0.04 -0.168,-0.02 -0.168,-0.03 -0.171,-0.03 -0.168,-0.03 -0.172,-0.04 -0.172,-0.03 -0.172,-0.03 -0.172,-0.04 -0.172,-0.03 -0.176,-0.04 -0.175,-0.04 -0.176,-0.04 -0.172,-0.04 -0.18,-0.04 -0.175,-0.05 -0.18,-0.04 -0.18,-0.04 -0.18,-0.05 -0.179,-0.05 -0.18,-0.04 -0.18,-0.05 -0.183,-0.06 -0.18,-0.05 -0.187,-0.05 -0.184,-0.06 -0.184,-0.05 -0.183,-0.06 -0.188,-0.06 -0.187,-0.06 -0.188,-0.05 -0.187,-0.07 -0.192,-0.06 -0.191,-0.07 -0.187,-0.06 -0.192,-0.07 -0.195,-0.07 -0.192,-0.07 -0.191,-0.07 -0.195,-0.08 -0.2,-0.07 -0.195,-0.08 -0.195,-0.07 -0.199,-0.08 -0.2,-0.08 -0.199,-0.09 -0.199,-0.08 -0.199,-0.08 -0.203,-0.09 -0.204,-0.09 -0.203,-0.09 -0.207,-0.09 -0.207,-0.09 -0.203,-0.1 -0.207,-0.09 -0.211,-0.1 -0.207,-0.1 -0.211,-0.1 -0.211,-0.11 -0.215,-0.1 -0.21,-0.1 -0.215,-0.11 -0.215,-0.11 -0.215,-0.11 -0.219,-0.11 -0.218,-0.12 -0.219,-0.11 -0.223,-0.12 -0.219,-0.11 -0.222,-0.12 -0.223,-0.12 -0.227,-0.13 -0.226,-0.12 -0.227,-0.13 -0.23,-0.12 -0.227,-0.13 -0.234,-0.13 -0.231,-0.13 -0.234,-0.13 -0.234,-0.13 -0.235,-0.14 -0.238,-0.14 -0.238,-0.13 -0.239,-0.14 -0.242,-0.14 -0.242,-0.14 -0.242,-0.14 -0.246,-0.15 -0.246,-0.14 -0.25,-0.15 -0.25,-0.14 -0.25,-0.15 -0.254,-0.14 -0.254,-0.15 -0.254,-0.15 -0.258,-0.15 -0.262,-0.15 -0.257,-0.15 -0.266,-0.16 -0.262,-0.15 -0.265,-0.15 -0.27,-0.15 -0.269,-0.15 -0.27,-0.16 -0.273,-0.15 -0.278,-0.16 -0.277,-0.15 -0.277,-0.15 -0.282,-0.15 -0.281,-0.16 -0.285,-0.15 -0.289,-0.15 -0.289,-0.15 -0.289,-0.15 -0.297,-0.15 -0.293,-0.15 -0.301,-0.15 -0.301,-0.14 -0.3,-0.15 -0.305,-0.14 -0.309,-0.15 -0.312,-0.14 -0.313,-0.14 -0.316,-0.13 -0.316,-0.14 -0.321,-0.13 -0.324,-0.13 -0.328,-0.13 -0.328,-0.12 -0.332,-0.13 -0.336,-0.12 -0.34,-0.11 -0.34,-0.11 -0.348,-0.11 -0.347,-0.11 -0.352,-0.1 -0.355,-0.1 -0.36,-0.09 -0.363,-0.09 -0.363,-0.09 -0.371,-0.07 -0.371,-0.08 -0.379,-0.07 -0.383,-0.06 -0.383,-0.06 -0.391,-0.05 -0.394,-0.04 -0.399,-0.04 -0.402,-0.03 -0.41,-0.03 -0.41,-0.02 -0.418,-0.01 -0.426,0 -0.426,0 -0.433,0.02 -0.438,0.02 -0.445,0.03 -0.449,0.05 -0.457,0.05 -0.465,0.06 -0.469,0.07 -0.476,0.08 -0.481,0.09 -0.492,0.1 -0.496,0.12 -0.504,0.12 -0.512,0.14 -0.523,0.15 -0.528,0.16 -0.539,0.18 -0.547,0.19 -0.558,0.2 -0.567,0.22 -0.582,0.23 -0.589,0.25 -0.598,0.26 -0.617,0.27 -0.625,0.3 -0.641,0.3 -0.656,0.33 -0.672,0.34 -0.688,0.36 -0.707,0.38 -0.726,0.39 -0.746,0.42 -0.77,0.43 -0.797,0.44 -0.82,0.47 -0.855,0.5 -0.887,0.5 -0.926,0.53 -0.973,0.55 -1.023,0.57 -1.082,0.6 -1.156,0.61 -1.246,0.64 -1.364,0.65 -1.519,0.68 -1.746,0.7 -2.137,0.73 -3.027,0.75 -11.266,0.77"
             style="fill:none;stroke:#0000ff;stroke-opacity:1;stroke-width:13.875;stroke-linecap:butt;stroke-linejoin:round;stroke-miterlimit:10;stroke-dasharray:none"
             id="path26" /></g></g><g
         id="g28"><g
           id="g30"
           clip-path="url(#clipPath32)"><path
             d="m 4904.56,1531.86 0,-36.08"
             style="fill:none;stroke:#000000;stroke-opacity:1;stroke-width:13.875;stroke-linecap:butt;stroke-linejoin:round;stroke-miterlimit:10;stroke-dasharray:none"
             id="path36" /><path
             d="m 3988.81,1531.86 0,-36.08"
             style="fill:none;stroke:#000000;stroke-opacity:1;stroke-width:13.875;stroke-linecap:butt;stroke-linejoin:round;stroke-miterlimit:10;stroke-dasharray:none"
             id="path38" /><path
             d="m 3073.05,1531.86 0,-36.08"
             style="fill:none;stroke:#000000;stroke-opacity:1;stroke-width:13.875;stroke-linecap:butt;stroke-linejoin:round;stroke-miterlimit:10;stroke-dasharray:none"
             id="path40" /><path
             d="m 2157.29,1531.86 0,-36.08"
             style="fill:none;stroke:#000000;stroke-opacity:1;stroke-width:13.875;stroke-linecap:butt;stroke-linejoin:round;stroke-miterlimit:10;stroke-dasharray:none"
             id="path42" /><path
             d="m 1241.54,1531.86 0,-36.08"
             style="fill:none;stroke:#000000;stroke-opacity:1;stroke-width:13.875;stroke-linecap:butt;stroke-linejoin:round;stroke-miterlimit:10;stroke-dasharray:none"
             id="path44" /><path
             d="m 735.375,1531.86 4627.075,0"
             style="fill:none;stroke:#000000;stroke-opacity:1;stroke-width:13.875;stroke-linecap:butt;stroke-linejoin:round;stroke-miterlimit:10;stroke-dasharray:none"
             id="path46" /></g></g><g
         id="g48"><g
           id="g50"
           clip-path="url(#clipPath52)"><path
             d="m 834.016,1054.29 c 0,-4.63 -0.289,-8.49 -0.868,-11.6 -0.578,-3.1 -1.515,-5.89 -2.816,-8.35 -2.023,-4.04 -4.41,-6.83 -7.156,-8.34 -2.746,-1.52 -5.348,-2.27 -7.805,-2.27 -3.324,0 -6.359,1.11 -9.105,3.35 -2.746,2.24 -4.914,4.87 -6.504,7.91 -0.578,1.31 -1.301,3.33 -2.168,6.08 -0.867,2.75 -1.699,5.81 -2.492,9.21 -0.793,3.4 -1.59,7.08 -2.383,11.06 -0.797,3.97 -1.52,7.87 -2.168,11.7 -0.653,3.83 -1.266,7.45 -1.844,10.85 -0.578,3.38 -1.012,6.31 -1.301,8.77 l -0.218,0 -30.786,-65.91 -16.691,0 41.625,89.76 c -0.867,4.77 -1.879,9.03 -3.035,12.79 -1.156,3.76 -2.387,7.01 -3.688,9.75 -1.301,2.46 -3,4.31 -5.093,5.54 -2.094,1.22 -4.227,1.83 -6.395,1.83 -2.023,0 -3.937,-0.43 -5.746,-1.29 -1.805,-0.87 -3.359,-1.95 -4.66,-3.26 -1.735,-1.73 -2.856,-3.72 -3.36,-5.95 -0.507,-2.25 -1.05,-4.37 -1.629,-6.4 l -3.468,0 c 0.867,9.53 2.64,17.01 5.312,22.44 2.676,5.42 6.684,8.13 12.031,8.13 4.047,0 7.625,-1.2 10.735,-3.58 3.105,-2.39 5.383,-5.02 6.828,-7.91 1.734,-3.47 3.434,-7.99 5.094,-13.56 1.664,-5.56 3.359,-11.52 5.093,-17.88 0.723,-3.04 1.59,-6.94 2.602,-11.71 1.012,-4.76 2.063,-9.83 3.145,-15.16 1.086,-5.36 2.168,-10.68 3.253,-15.95 1.083,-5.27 2.129,-9.93 3.141,-13.98 0.723,-3.03 1.664,-6.07 2.82,-9.11 1.157,-3.04 2.672,-5.56 4.551,-7.59 2.891,-2.74 6.071,-4.12 9.539,-4.12 1.879,0 3.723,0.51 5.532,1.53 1.804,1.01 3.285,2.75 4.441,5.2 0.578,1.02 1.051,2.39 1.41,4.12 0.363,1.74 0.688,3.03 0.977,3.9 l 3.25,0 0,0"
             style="fill:#000000;fill-opacity:1;fill-rule:nonzero;stroke:none"
             id="path56" /></g></g><g
         id="g58"><g
           id="g60"
           clip-path="url(#clipPath62)"><path
             d="m 783.656,1531.86 0,-72.15"
             style="fill:none;stroke:#000000;stroke-opacity:1;stroke-width:13.875;stroke-linecap:butt;stroke-linejoin:round;stroke-miterlimit:10;stroke-dasharray:none"
             id="path66" /><path
             d="m 1699.41,1531.86 0,-72.15"
             style="fill:none;stroke:#000000;stroke-opacity:1;stroke-width:13.875;stroke-linecap:butt;stroke-linejoin:round;stroke-miterlimit:10;stroke-dasharray:none"
             id="path68" /><path
             d="m 1602.12,1335.47 c 0,13.6 2.07,25.33 6.19,35.24 4.1,9.9 9.57,17.24 16.35,21.99 5.36,3.76 10.86,5.65 16.49,5.65 9.1,0 17.27,-4.64 24.49,-13.87 9.11,-11.58 13.66,-27.25 13.66,-47.05 0,-13.88 -1.98,-25.66 -5.96,-35.34 -3.97,-9.69 -9.07,-16.74 -15.28,-21.14 -6.21,-4.41 -12.14,-6.61 -17.79,-6.61 -11.41,0 -20.95,6.73 -28.61,20.16 -6.36,11.41 -9.54,25.08 -9.54,40.97 z m 17.34,-2.17 c 0,-16.46 2.03,-29.91 6.08,-40.32 3.32,-8.67 8.31,-13.01 14.96,-13.01 3.18,0 6.46,1.41 9.86,4.23 3.4,2.82 5.97,7.63 7.7,14.42 2.74,9.97 4.11,24.21 4.11,42.7 0,13.59 -1.44,24.94 -4.33,34.04 -2.02,6.8 -4.77,11.57 -8.24,14.32 -2.3,1.87 -5.21,2.82 -8.67,2.82 -3.9,0 -7.44,-1.74 -10.62,-5.21 -4.2,-4.91 -7.04,-12.61 -8.57,-23.09 -1.51,-10.47 -2.28,-20.78 -2.28,-30.9 z m 88.9,-39.66 c 2.73,0 5.05,-0.98 6.94,-2.93 1.87,-1.96 2.81,-4.23 2.81,-6.83 0,-2.75 -0.94,-5.06 -2.81,-6.93 -1.89,-1.89 -4.21,-2.82 -6.94,-2.82 -2.75,0 -5.06,0.93 -6.94,2.82 -1.88,1.87 -2.83,4.18 -2.83,6.93 0,2.75 0.95,5.05 2.83,6.94 1.88,1.87 4.19,2.82 6.94,2.82 z m 103.41,104.71 0,-3.26 c -7.81,-0.72 -14.16,-2.23 -19.08,-4.55 -4.91,-2.31 -9.75,-5.86 -14.53,-10.61 -4.77,-4.78 -8.71,-10.09 -11.82,-15.95 -3.11,-5.86 -5.74,-12.75 -7.91,-20.7 8.54,5.79 17.06,8.67 25.59,8.67 8.09,0 15.14,-3.29 21.13,-9.86 5.99,-6.58 9.01,-15.07 9.01,-25.48 0,-9.97 -3.04,-19.07 -9.12,-27.32 -7.23,-9.96 -16.83,-14.95 -28.83,-14.95 -8.25,0 -15.18,2.74 -20.82,8.24 -11.12,10.4 -16.69,23.99 -16.69,40.75 0,10.7 2.14,20.85 6.4,30.47 4.26,9.6 10.36,18.17 18.31,25.68 7.96,7.52 15.59,12.54 22.89,15.07 7.29,2.54 14.05,3.8 20.27,3.8 l 5.2,0 z m -54.85,-61.58 c -1.01,-7.95 -1.53,-14.37 -1.53,-19.28 0,-5.65 1.06,-11.76 3.16,-18.33 2.09,-6.58 5.16,-11.81 9.21,-15.72 3.04,-2.74 6.71,-4.11 11.06,-4.11 5.05,0 9.6,2.42 13.65,7.26 4.05,4.84 6.08,11.67 6.08,20.49 0,10.12 -2.03,18.81 -6.08,26.12 -4.05,7.29 -9.68,10.94 -16.92,10.94 -2.3,0 -4.73,-0.46 -7.25,-1.4 -2.53,-0.94 -6.33,-2.93 -11.38,-5.97"
             style="fill:#000000;fill-opacity:1;fill-rule:nonzero;stroke:none"
             id="path70" /><path
             d="m 2615.18,1531.86 0,-72.15"
             style="fill:none;stroke:#000000;stroke-opacity:1;stroke-width:13.875;stroke-linecap:butt;stroke-linejoin:round;stroke-miterlimit:10;stroke-dasharray:none"
             id="path72" /><path
             d="m 2517.87,1335.47 c 0,13.6 2.07,25.33 6.19,35.24 4.1,9.9 9.57,17.24 16.35,21.99 5.36,3.76 10.86,5.65 16.49,5.65 9.1,0 17.27,-4.64 24.49,-13.87 9.11,-11.58 13.66,-27.25 13.66,-47.05 0,-13.88 -1.98,-25.66 -5.96,-35.34 -3.97,-9.69 -9.07,-16.74 -15.28,-21.14 -6.21,-4.41 -12.14,-6.61 -17.79,-6.61 -11.41,0 -20.95,6.73 -28.61,20.16 -6.36,11.41 -9.54,25.08 -9.54,40.97 z m 17.34,-2.17 c 0,-16.46 2.03,-29.91 6.08,-40.32 3.32,-8.67 8.31,-13.01 14.96,-13.01 3.18,0 6.46,1.41 9.86,4.23 3.4,2.82 5.97,7.63 7.7,14.42 2.74,9.97 4.11,24.21 4.11,42.7 0,13.59 -1.44,24.94 -4.33,34.04 -2.02,6.8 -4.77,11.57 -8.24,14.32 -2.3,1.87 -5.21,2.82 -8.67,2.82 -3.9,0 -7.44,-1.74 -10.62,-5.21 -4.2,-4.91 -7.04,-12.61 -8.57,-23.09 -1.51,-10.47 -2.28,-20.78 -2.28,-30.9 z m 88.9,-39.66 c 2.73,0 5.05,-0.98 6.94,-2.93 1.87,-1.96 2.81,-4.23 2.81,-6.83 0,-2.75 -0.94,-5.06 -2.81,-6.93 -1.89,-1.89 -4.21,-2.82 -6.94,-2.82 -2.75,0 -5.06,0.93 -6.94,2.82 -1.88,1.87 -2.83,4.18 -2.83,6.93 0,2.75 0.95,5.05 2.83,6.94 1.88,1.87 4.19,2.82 6.94,2.82 z m 40.75,102.32 63.95,0 0,-3.46 -39.89,-118.37 -9.76,0 35.57,107.53 -32.75,0 c -6.64,0 -11.34,-0.8 -14.08,-2.39 -5.06,-2.75 -9.03,-6.93 -11.94,-12.58 l -2.59,0.87 11.49,28.4"
             style="fill:#000000;fill-opacity:1;fill-rule:nonzero;stroke:none"
             id="path74" /><path
             d="m 3530.93,1531.86 0,-72.15"
             style="fill:none;stroke:#000000;stroke-opacity:1;stroke-width:13.875;stroke-linecap:butt;stroke-linejoin:round;stroke-miterlimit:10;stroke-dasharray:none"
             id="path76" /><path
             d="m 3433.62,1335.47 c 0,13.6 2.07,25.33 6.19,35.24 4.1,9.9 9.57,17.24 16.35,21.99 5.36,3.76 10.86,5.65 16.49,5.65 9.1,0 17.27,-4.64 24.49,-13.87 9.11,-11.58 13.66,-27.25 13.66,-47.05 0,-13.88 -1.98,-25.66 -5.96,-35.34 -3.97,-9.69 -9.07,-16.74 -15.28,-21.14 -6.21,-4.41 -12.14,-6.61 -17.79,-6.61 -11.41,0 -20.95,6.73 -28.61,20.16 -6.36,11.41 -9.54,25.08 -9.54,40.97 z m 17.34,-2.17 c 0,-16.46 2.03,-29.91 6.08,-40.32 3.32,-8.67 8.31,-13.01 14.96,-13.01 3.18,0 6.46,1.41 9.86,4.23 3.4,2.82 5.97,7.63 7.7,14.42 2.74,9.97 4.11,24.21 4.11,42.7 0,13.59 -1.44,24.94 -4.33,34.04 -2.02,6.8 -4.77,11.57 -8.24,14.32 -2.3,1.87 -5.21,2.82 -8.67,2.82 -3.9,0 -7.44,-1.74 -10.62,-5.21 -4.2,-4.91 -7.04,-12.61 -8.57,-23.09 -1.51,-10.47 -2.28,-20.78 -2.28,-30.9 z m 88.9,-39.66 c 2.73,0 5.05,-0.98 6.94,-2.93 1.87,-1.96 2.81,-4.23 2.81,-6.83 0,-2.75 -0.94,-5.06 -2.81,-6.93 -1.89,-1.89 -4.21,-2.82 -6.94,-2.82 -2.75,0 -5.06,0.93 -6.94,2.82 -1.88,1.87 -2.83,4.18 -2.83,6.93 0,2.75 0.95,5.05 2.83,6.94 1.88,1.87 4.19,2.82 6.94,2.82 z m 57.23,42.93 c -9.54,7.79 -15.69,14.05 -18.44,18.74 -2.73,4.71 -4.1,9.57 -4.1,14.64 0,7.8 2.99,14.48 8.99,20.05 5.99,5.56 13.98,8.35 23.96,8.35 9.67,0 17.44,-2.61 23.3,-7.81 5.85,-5.2 8.78,-11.13 8.78,-17.77 0,-4.48 -1.6,-9.04 -4.78,-13.66 -3.17,-4.63 -9.75,-10.13 -19.73,-16.48 10.27,-7.95 17.07,-14.24 20.39,-18.86 4.48,-5.92 6.73,-12.22 6.73,-18.87 0,-8.38 -3.19,-15.56 -9.55,-21.56 -6.35,-6.01 -14.73,-9 -25.14,-9 -11.42,0 -20.31,3.54 -26.67,10.62 -5.06,5.77 -7.59,12.08 -7.59,18.86 0,5.2 1.81,10.41 5.41,15.61 3.63,5.2 9.77,10.92 18.44,17.14 z m 13.66,9.53 c 7.07,6.35 11.55,11.38 13.44,15.06 1.88,3.7 2.82,7.84 2.82,12.46 0,6.08 -1.74,10.88 -5.21,14.43 -3.46,3.54 -8.17,5.31 -14.09,5.31 -6.07,0 -10.98,-1.74 -14.74,-5.21 -3.76,-3.47 -5.65,-7.51 -5.65,-12.14 0,-3.02 0.81,-6.1 2.39,-9.21 1.6,-3.11 3.83,-6.04 6.73,-8.78 l 14.31,-11.92 z m -9.55,-12.8 c -4.91,-4.03 -8.52,-8.49 -10.84,-13.33 -2.3,-4.84 -3.47,-10.07 -3.47,-15.72 0,-7.66 2.07,-13.77 6.18,-18.32 4.12,-4.55 9.37,-6.82 15.72,-6.82 6.37,0 11.46,1.8 15.29,5.43 3.83,3.6 5.74,7.93 5.74,13 0,4.19 -1.15,8.01 -3.46,11.48 -4.06,6.22 -12.43,14.31 -25.16,24.28"
             style="fill:#000000;fill-opacity:1;fill-rule:nonzero;stroke:none"
             id="path78" /><path
             d="m 4446.69,1531.86 0,-72.15"
             style="fill:none;stroke:#000000;stroke-opacity:1;stroke-width:13.875;stroke-linecap:butt;stroke-linejoin:round;stroke-miterlimit:10;stroke-dasharray:none"
             id="path80" /><path
             d="m 4349.37,1335.47 c 0,13.6 2.07,25.33 6.19,35.24 4.1,9.9 9.57,17.24 16.35,21.99 5.36,3.76 10.86,5.65 16.49,5.65 9.1,0 17.27,-4.64 24.49,-13.87 9.11,-11.58 13.66,-27.25 13.66,-47.05 0,-13.88 -1.98,-25.66 -5.96,-35.34 -3.97,-9.69 -9.07,-16.74 -15.28,-21.14 -6.21,-4.41 -12.14,-6.61 -17.79,-6.61 -11.41,0 -20.95,6.73 -28.61,20.16 -6.36,11.41 -9.54,25.08 -9.54,40.97 z m 17.34,-2.17 c 0,-16.46 2.03,-29.91 6.08,-40.32 3.32,-8.67 8.31,-13.01 14.96,-13.01 3.18,0 6.46,1.41 9.86,4.23 3.4,2.82 5.97,7.63 7.7,14.42 2.74,9.97 4.11,24.21 4.11,42.7 0,13.59 -1.44,24.94 -4.33,34.04 -2.02,6.8 -4.77,11.57 -8.24,14.32 -2.3,1.87 -5.21,2.82 -8.67,2.82 -3.9,0 -7.44,-1.74 -10.62,-5.21 -4.2,-4.91 -7.04,-12.61 -8.57,-23.09 -1.51,-10.47 -2.28,-20.78 -2.28,-30.9 z m 88.9,-39.66 c 2.73,0 5.05,-0.98 6.94,-2.93 1.87,-1.96 2.81,-4.23 2.81,-6.83 0,-2.75 -0.94,-5.06 -2.81,-6.93 -1.89,-1.89 -4.21,-2.82 -6.94,-2.82 -2.75,0 -5.06,0.93 -6.94,2.82 -1.88,1.87 -2.83,4.18 -2.83,6.93 0,2.75 0.95,5.05 2.83,6.94 1.88,1.87 4.19,2.82 6.94,2.82 z m 32.08,-19.51 0,3.25 c 7.66,0 14.77,1.73 21.35,5.2 6.58,3.47 12.93,9.5 19.08,18.1 6.15,8.59 10.38,18.03 12.68,28.3 -9.24,-5.93 -17.55,-8.9 -24.93,-8.9 -8.38,0 -15.57,3.22 -21.56,9.65 -6.01,6.43 -9.01,15.06 -9.01,25.91 0,10.41 2.97,19.72 8.9,27.96 7.23,9.84 16.69,14.75 28.4,14.75 9.82,0 18.2,-4.05 25.14,-12.14 8.53,-9.98 12.79,-22.34 12.79,-37.07 0,-13.31 -3.24,-25.7 -9.75,-37.19 -6.51,-11.49 -15.54,-20.99 -27.1,-28.51 -9.55,-6.21 -19.87,-9.31 -31.01,-9.31 l -4.98,0 z m 54.64,61.34 c 1,7.67 1.51,13.74 1.51,18.22 0,5.78 -0.97,11.96 -2.93,18.53 -1.95,6.58 -4.7,11.63 -8.24,15.18 -3.54,3.54 -7.55,5.3 -12.03,5.3 -5.2,0 -9.79,-2.34 -13.76,-7.03 -3.99,-4.71 -5.97,-11.69 -5.97,-20.92 0,-12.44 2.61,-22.12 7.81,-29.06 3.9,-5.07 8.59,-7.59 14.08,-7.59 2.75,0 5.97,0.65 9.66,1.96 3.68,1.3 6.97,3.1 9.87,5.41"
             style="fill:#000000;fill-opacity:1;fill-rule:nonzero;stroke:none"
             id="path82" /><path
             d="m 5362.45,1531.86 0,-72.15"
             style="fill:none;stroke:#000000;stroke-opacity:1;stroke-width:13.875;stroke-linecap:butt;stroke-linejoin:round;stroke-miterlimit:10;stroke-dasharray:none"
             id="path84" /><path
             d="m 5279.87,1384.25 29.05,14.1 2.82,0 0,-100.81 c 0,-6.65 0.29,-10.81 0.86,-12.47 0.58,-1.66 1.73,-2.92 3.47,-3.8 1.73,-0.86 5.27,-1.37 10.63,-1.51 l 0,-3.26 -44.89,0 0,3.26 c 5.65,0.14 9.3,0.65 10.95,1.51 1.66,0.88 2.83,2.03 3.47,3.47 0.65,1.44 0.98,5.72 0.98,12.8 l 0,64.39 c 0,8.81 -0.29,14.44 -0.87,16.9 -0.43,1.88 -1.2,3.26 -2.28,4.12 -1.08,0.87 -2.41,1.3 -4.01,1.3 -2.16,0 -5.13,-0.94 -8.88,-2.81 l -1.3,2.81 z m 91.49,-90.61 c 2.73,0 5.05,-0.98 6.94,-2.93 1.87,-1.96 2.81,-4.23 2.81,-6.83 0,-2.75 -0.94,-5.06 -2.81,-6.93 -1.89,-1.89 -4.21,-2.82 -6.94,-2.82 -2.75,0 -5.06,0.93 -6.94,2.82 -1.88,1.87 -2.83,4.18 -2.83,6.93 0,2.75 0.95,5.05 2.83,6.94 1.88,1.87 4.19,2.82 6.94,2.82 z m 29.04,41.83 c 0,13.6 2.07,25.33 6.19,35.24 4.11,9.9 9.57,17.24 16.36,21.99 5.35,3.76 10.85,5.65 16.48,5.65 9.1,0 17.27,-4.64 24.49,-13.87 9.12,-11.58 13.67,-27.25 13.67,-47.05 0,-13.88 -1.99,-25.66 -5.97,-35.34 -3.97,-9.69 -9.07,-16.74 -15.28,-21.14 -6.21,-4.41 -12.14,-6.61 -17.79,-6.61 -11.41,0 -20.94,6.73 -28.6,20.16 -6.37,11.41 -9.55,25.08 -9.55,40.97 z m 17.34,-2.17 c 0,-16.46 2.03,-29.91 6.08,-40.32 3.32,-8.67 8.31,-13.01 14.96,-13.01 3.18,0 6.47,1.41 9.86,4.23 3.4,2.82 5.97,7.63 7.7,14.42 2.74,9.97 4.11,24.21 4.11,42.7 0,13.59 -1.44,24.94 -4.33,34.04 -2.02,6.8 -4.77,11.57 -8.24,14.32 -2.3,1.87 -5.2,2.82 -8.67,2.82 -3.9,0 -7.44,-1.74 -10.62,-5.21 -4.2,-4.91 -7.04,-12.61 -8.57,-23.09 -1.51,-10.47 -2.28,-20.78 -2.28,-30.9"
             style="fill:#000000;fill-opacity:1;fill-rule:nonzero;stroke:none"
             id="path86" /><path
             d="m 735.375,4226.92 -36.074,0"
             style="fill:none;stroke:#000000;stroke-opacity:1;stroke-width:13.875;stroke-linecap:butt;stroke-linejoin:round;stroke-miterlimit:10;stroke-dasharray:none"
             id="path88" /><path
             d="m 735.375,4825.82 -36.074,0"
             style="fill:none;stroke:#000000;stroke-opacity:1;stroke-width:13.875;stroke-linecap:butt;stroke-linejoin:round;stroke-miterlimit:10;stroke-dasharray:none"
             id="path90" /><path
             d="m 735.375,5424.72 -36.074,0"
             style="fill:none;stroke:#000000;stroke-opacity:1;stroke-width:13.875;stroke-linecap:butt;stroke-linejoin:round;stroke-miterlimit:10;stroke-dasharray:none"
             id="path92" /><path
             d="m 735.375,3029.12 -36.074,0"
             style="fill:none;stroke:#000000;stroke-opacity:1;stroke-width:13.875;stroke-linecap:butt;stroke-linejoin:round;stroke-miterlimit:10;stroke-dasharray:none"
             id="path94" /><path
             d="m 735.375,3628.02 -36.074,0"
             style="fill:none;stroke:#000000;stroke-opacity:1;stroke-width:13.875;stroke-linecap:butt;stroke-linejoin:round;stroke-miterlimit:10;stroke-dasharray:none"
             id="path96" /><path
             d="m 735.375,1831.3 -36.074,0"
             style="fill:none;stroke:#000000;stroke-opacity:1;stroke-width:13.875;stroke-linecap:butt;stroke-linejoin:round;stroke-miterlimit:10;stroke-dasharray:none"
             id="path98" /><path
             d="m 735.375,2430.22 -36.074,0"
             style="fill:none;stroke:#000000;stroke-opacity:1;stroke-width:13.875;stroke-linecap:butt;stroke-linejoin:round;stroke-miterlimit:10;stroke-dasharray:none"
             id="path100" /><path
             d="m 735.375,633.504 -36.074,0"
             style="fill:none;stroke:#000000;stroke-opacity:1;stroke-width:13.875;stroke-linecap:butt;stroke-linejoin:round;stroke-miterlimit:10;stroke-dasharray:none"
             id="path102" /><path
             d="m 735.375,1232.41 -36.074,0"
             style="fill:none;stroke:#000000;stroke-opacity:1;stroke-width:13.875;stroke-linecap:butt;stroke-linejoin:round;stroke-miterlimit:10;stroke-dasharray:none"
             id="path104" /><path
             d="m 735.375,124.875 0,5300.175"
             style="fill:none;stroke:#000000;stroke-opacity:1;stroke-width:13.875;stroke-linecap:butt;stroke-linejoin:round;stroke-miterlimit:10;stroke-dasharray:none"
             id="path106" /></g></g><g
         id="g108"><g
           id="g110"
           clip-path="url(#clipPath112)"><path
             d="m 169.969,2785.41 c 2.89,-3.03 5.058,-6.14 6.504,-9.31 1.156,-2.03 2.89,-7.53 5.203,-16.49 l 7.804,11.49 c 2.024,2.9 4.516,5.61 7.481,8.13 2.961,2.53 5.527,4.31 7.695,5.32 1.446,0.58 3.035,0.86 4.77,0.86 2.457,0 4.445,-0.68 5.961,-2.06 1.519,-1.37 2.277,-2.99 2.277,-4.88 0,-2.31 -0.434,-3.9 -1.301,-4.76 -1.59,-1.44 -3.468,-2.18 -5.636,-2.18 -1.301,0 -2.602,0.29 -3.903,0.88 -2.746,0.86 -4.625,1.3 -5.636,1.3 -1.446,0 -3.11,-0.8 -4.989,-2.39 -3.613,-3.03 -7.949,-8.96 -13.008,-17.77 l 7.157,-30.14 c 1.156,-4.63 2.093,-7.41 2.816,-8.35 0.723,-0.94 1.52,-1.4 2.387,-1.4 1.156,0 2.601,0.64 4.336,1.94 3.179,2.75 5.925,6.29 8.238,10.63 l 3.035,-1.53 c -3.758,-6.93 -8.457,-12.71 -14.094,-17.34 -3.179,-2.59 -5.925,-3.9 -8.238,-3.9 -3.324,0 -5.926,1.89 -7.805,5.63 -1.3,2.32 -3.828,12.14 -7.585,29.49 -9.25,-15.89 -16.622,-26.09 -22.114,-30.57 -3.613,-3.02 -7.082,-4.55 -10.406,-4.55 -2.313,0 -4.48,0.88 -6.504,2.61 -1.301,1.29 -1.953,3.02 -1.953,5.2 0,1.87 0.652,3.47 1.953,4.76 1.301,1.31 2.891,1.96 4.77,1.96 1.878,0 3.828,-0.95 5.851,-2.82 1.59,-1.3 2.82,-1.96 3.688,-1.96 0.578,0 1.445,0.45 2.601,1.31 2.746,2.32 6.504,7.16 11.274,14.53 4.769,7.36 7.875,12.72 9.32,16.04 -3.613,14.3 -5.563,21.82 -5.852,22.54 -1.3,3.9 -3.035,6.65 -5.203,8.25 -2.168,1.59 -5.422,2.38 -9.758,2.38 -1.3,0 -2.816,-0.07 -4.55,-0.22 l 0,3.26 23.414,4.11 z m 111.058,-79.79 -59.402,0 0,3.27 c 30.352,26.58 50.371,47.39 60.055,62.43 4.48,6.94 6.718,14.31 6.718,22.12 0,6.06 -1.875,11.02 -5.636,14.85 -3.758,3.83 -8.598,5.74 -14.524,5.74 -8.238,0 -15.031,-3.98 -20.379,-11.92 l -3.254,1.51 c 3.036,7.52 7.446,13.36 13.227,17.57 5.781,4.19 11.996,6.29 18.645,6.29 7.66,0 14.054,-2.61 19.187,-7.82 5.129,-5.2 7.695,-11.48 7.695,-18.85 0,-5.2 -0.941,-9.98 -2.82,-14.31 -2.742,-6.93 -7.875,-14.61 -15.391,-22.99 -11.562,-13.15 -26.957,-28.18 -46.179,-45.09 l 29.918,0 c 4.769,0 8.746,1.01 11.925,3.04 3.18,2.02 5.418,4.7 6.719,8.02 l 3.469,0 -9.973,-23.86"
             style="fill:#000000;fill-opacity:1;fill-rule:nonzero;stroke:none"
             id="path116" /></g></g><g
         id="g118"><g
           id="g120"
           clip-path="url(#clipPath122)"><path
             d="m 735.375,334.055 -72.148,0"
             style="fill:none;stroke:#000000;stroke-opacity:1;stroke-width:13.875;stroke-linecap:butt;stroke-linejoin:round;stroke-miterlimit:10;stroke-dasharray:none"
             id="path126" /></g></g><g
         id="g128"><g
           id="g130"
           clip-path="url(#clipPath132)"><path
             d="m 474.566,326.938 119.238,0 0,9.32422 -119.238,0 0,-9.32422 z"
             style="fill:#000000;fill-opacity:1;fill-rule:nonzero;stroke:none"
             id="path136" /></g></g><g
         id="g138"><g
           id="g140"
           clip-path="url(#clipPath142)"><path
             d="m 652.773,321.512 0,-12.571 -16.043,0 0,-31.441 -14.523,0 0,31.441 -50.516,0 0,11.282 55.5,79.129 9.539,0 0,-77.84 16.043,0 z m -30.566,0 0,59.414 -41.844,-59.414 41.844,0"
             style="fill:#000000;fill-opacity:1;fill-rule:nonzero;stroke:none"
             id="path146" /><path
             d="m 735.375,932.957 -72.148,0"
             style="fill:none;stroke:#000000;stroke-opacity:1;stroke-width:13.875;stroke-linecap:butt;stroke-linejoin:round;stroke-miterlimit:10;stroke-dasharray:none"
             id="path148" /></g></g><g
         id="g150"><g
           id="g152"
           clip-path="url(#clipPath154)"><path
             d="m 474.566,923.562 119.238,0 0,9.32422 -119.238,0 0,-9.32422 z"
             style="fill:#000000;fill-opacity:1;fill-rule:nonzero;stroke:none"
             id="path158" /></g></g><g
         id="g160"><g
           id="g162"
           clip-path="url(#clipPath164)"><path
             d="m 651.473,897.117 -8.239,-22.992 -70.457,0 0,3.262 c 20.668,18.925 35.231,34.394 43.684,46.398 8.457,11.988 12.684,22.906 12.684,32.731 0,7.66 -2.313,13.918 -6.938,18.757 -4.625,4.829 -10.191,7.258 -16.695,7.258 -5.782,0 -11.02,-1.691 -15.715,-5.093 -4.699,-3.399 -8.133,-8.422 -10.301,-15.067 l -3.25,0 c 1.445,10.836 5.203,19.149 11.274,24.934 6.07,5.769 13.656,8.672 22.761,8.672 9.684,0 17.778,-3.11 24.281,-9.325 6.504,-6.218 9.758,-13.515 9.758,-21.894 0,-6.078 -1.445,-12.141 -4.336,-18.219 -4.336,-9.531 -11.347,-19.578 -21.031,-30.137 -14.598,-16.039 -23.773,-25.722 -27.531,-29.039 l 31.219,0 c 6.359,0 10.804,0.25 13.332,0.746 2.531,0.516 4.843,1.489 6.937,2.93 2.094,1.441 3.867,3.469 5.313,6.078 l 3.25,0"
             style="fill:#000000;fill-opacity:1;fill-rule:nonzero;stroke:none"
             id="path168" /><path
             d="m 735.375,1531.86 -72.148,0"
             style="fill:none;stroke:#000000;stroke-opacity:1;stroke-width:13.875;stroke-linecap:butt;stroke-linejoin:round;stroke-miterlimit:10;stroke-dasharray:none"
             id="path170" /><path
             d="m 575.379,1529.72 c 0,13.6 2.059,25.33 6.18,35.24 4.117,9.9 9.574,17.24 16.367,21.99 5.347,3.76 10.84,5.65 16.476,5.65 9.106,0 17.27,-4.64 24.496,-13.87 9.106,-11.58 13.661,-27.25 13.661,-47.05 0,-13.88 -1.989,-25.66 -5.961,-35.34 -3.977,-9.69 -9.071,-16.74 -15.286,-21.14 -6.214,-4.41 -12.14,-6.61 -17.777,-6.61 -11.418,0 -20.957,6.73 -28.617,20.16 -6.359,11.41 -9.539,25.08 -9.539,40.97 z m 17.344,-2.17 c 0,-16.46 2.023,-29.91 6.07,-40.32 3.324,-8.67 8.309,-13.01 14.957,-13.01 3.18,0 6.469,1.41 9.867,4.23 3.395,2.82 5.961,7.63 7.695,14.42 2.747,9.97 4.118,24.21 4.118,42.7 0,13.59 -1.446,24.94 -4.336,34.04 -2.024,6.8 -4.77,11.57 -8.239,14.32 -2.312,1.87 -5.203,2.82 -8.671,2.82 -3.903,0 -7.442,-1.74 -10.622,-5.21 -4.191,-4.91 -7.046,-12.61 -8.562,-23.09 -1.52,-10.47 -2.277,-20.78 -2.277,-30.9"
             style="fill:#000000;fill-opacity:1;fill-rule:nonzero;stroke:none"
             id="path172" /><path
             d="m 735.375,2130.77 -72.148,0"
             style="fill:none;stroke:#000000;stroke-opacity:1;stroke-width:13.875;stroke-linecap:butt;stroke-linejoin:round;stroke-miterlimit:10;stroke-dasharray:none"
             id="path174" /><path
             d="m 651.473,2090.37 -8.239,-22.99 -70.457,0 0,3.26 c 20.668,18.92 35.231,34.39 43.684,46.4 8.457,11.98 12.684,22.9 12.684,32.73 0,7.66 -2.313,13.91 -6.938,18.75 -4.625,4.83 -10.191,7.26 -16.695,7.26 -5.782,0 -11.02,-1.69 -15.715,-5.09 -4.699,-3.4 -8.133,-8.42 -10.301,-15.07 l -3.25,0 c 1.445,10.84 5.203,19.15 11.274,24.93 6.07,5.77 13.656,8.68 22.761,8.68 9.684,0 17.778,-3.11 24.281,-9.33 6.504,-6.22 9.758,-13.51 9.758,-21.89 0,-6.08 -1.445,-12.14 -4.336,-18.22 -4.336,-9.53 -11.347,-19.58 -21.031,-30.14 -14.598,-16.04 -23.773,-25.72 -27.531,-29.04 l 31.219,0 c 6.359,0 10.804,0.25 13.332,0.75 2.531,0.52 4.843,1.49 6.937,2.93 2.094,1.44 3.867,3.47 5.313,6.08 l 3.25,0"
             style="fill:#000000;fill-opacity:1;fill-rule:nonzero;stroke:none"
             id="path176" /><path
             d="m 735.375,2729.67 -72.148,0"
             style="fill:none;stroke:#000000;stroke-opacity:1;stroke-width:13.875;stroke-linecap:butt;stroke-linejoin:round;stroke-miterlimit:10;stroke-dasharray:none"
             id="path178" /><path
             d="m 652.773,2708.01 0,-12.57 -16.043,0 0,-31.44 -14.523,0 0,31.44 -50.516,0 0,11.28 55.5,79.13 9.539,0 0,-77.84 16.043,0 z m -30.566,0 0,59.42 -41.844,-59.42 41.844,0"
             style="fill:#000000;fill-opacity:1;fill-rule:nonzero;stroke:none"
             id="path180" /><path
             d="m 735.375,3328.57 -72.148,0"
             style="fill:none;stroke:#000000;stroke-opacity:1;stroke-width:13.875;stroke-linecap:butt;stroke-linejoin:round;stroke-miterlimit:10;stroke-dasharray:none"
             id="path182" /><path
             d="m 649.738,3382.48 0,-3.27 c -7.804,-0.72 -14.164,-2.23 -19.078,-4.55 -4.914,-2.3 -9.754,-5.85 -14.523,-10.61 -4.77,-4.77 -8.707,-10.09 -11.817,-15.94 -3.105,-5.86 -5.746,-12.75 -7.914,-20.7 8.528,5.78 17.055,8.67 25.582,8.67 8.094,0 15.141,-3.29 21.141,-9.87 5.996,-6.57 8.996,-15.07 8.996,-25.47 0,-9.98 -3.035,-19.08 -9.105,-27.32 -7.227,-9.96 -16.84,-14.96 -28.836,-14.96 -8.239,0 -15.176,2.75 -20.813,8.24 -11.129,10.41 -16.691,23.99 -16.691,40.75 0,10.7 2.132,20.86 6.394,30.47 4.266,9.6 10.371,18.18 18.321,25.69 7.949,7.51 15.574,12.54 22.871,15.06 7.3,2.54 14.054,3.81 20.269,3.81 l 5.203,0 z m -54.847,-61.58 c -1.012,-7.95 -1.52,-14.38 -1.52,-19.29 0,-5.65 1.051,-11.75 3.145,-18.33 2.097,-6.57 5.168,-11.8 9.214,-15.72 3.036,-2.73 6.719,-4.1 11.055,-4.1 5.059,0 9.613,2.41 13.66,7.25 4.047,4.84 6.071,11.67 6.071,20.5 0,10.11 -2.024,18.81 -6.071,26.11 -4.047,7.3 -9.683,10.95 -16.91,10.95 -2.312,0 -4.734,-0.46 -7.262,-1.41 -2.531,-0.94 -6.324,-2.92 -11.382,-5.96"
             style="fill:#000000;fill-opacity:1;fill-rule:nonzero;stroke:none"
             id="path184" /><path
             d="m 735.375,3927.47 -72.148,0"
             style="fill:none;stroke:#000000;stroke-opacity:1;stroke-width:13.875;stroke-linecap:butt;stroke-linejoin:round;stroke-miterlimit:10;stroke-dasharray:none"
             id="path186" /><path
             d="m 603.562,3931.19 c -9.539,7.8 -15.683,14.06 -18.429,18.74 -2.746,4.71 -4.117,9.58 -4.117,14.64 0,7.8 3,14.49 8.996,20.05 6,5.57 13.984,8.36 23.957,8.36 9.683,0 17.453,-2.61 23.304,-7.82 5.856,-5.2 8.782,-11.12 8.782,-17.77 0,-4.48 -1.59,-9.03 -4.77,-13.65 -3.18,-4.64 -9.758,-10.13 -19.73,-16.49 10.261,-7.95 17.054,-14.23 20.379,-18.85 4.48,-5.93 6.722,-12.23 6.722,-18.87 0,-8.38 -3.179,-15.57 -9.539,-21.57 -6.359,-6 -14.742,-9 -25.148,-9 -11.418,0 -20.309,3.54 -26.668,10.63 -5.059,5.77 -7.586,12.07 -7.586,18.86 0,5.2 1.805,10.4 5.418,15.6 3.613,5.21 9.758,10.92 18.429,17.14 z m 13.657,9.53 c 7.082,6.36 11.562,11.38 13.441,15.07 1.879,3.69 2.82,7.84 2.82,12.46 0,6.08 -1.734,10.88 -5.203,14.43 -3.468,3.54 -8.168,5.3 -14.093,5.3 -6.071,0 -10.985,-1.73 -14.743,-5.2 -3.757,-3.47 -5.636,-7.51 -5.636,-12.14 0,-3.03 0.797,-6.11 2.386,-9.22 1.59,-3.1 3.829,-6.03 6.719,-8.78 l 14.309,-11.92 z m -9.539,-12.79 c -4.914,-4.04 -8.528,-8.49 -10.84,-13.34 -2.313,-4.84 -3.469,-10.07 -3.469,-15.71 0,-7.67 2.063,-13.77 6.18,-18.32 4.121,-4.55 9.359,-6.83 15.719,-6.83 6.359,0 11.453,1.81 15.285,5.43 3.828,3.61 5.742,7.93 5.742,13 0,4.19 -1.156,8.02 -3.469,11.49 -4.047,6.21 -12.43,14.3 -25.148,24.28"
             style="fill:#000000;fill-opacity:1;fill-rule:nonzero;stroke:none"
             id="path188" /><path
             d="m 735.375,4526.37 -72.148,0"
             style="fill:none;stroke:#000000;stroke-opacity:1;stroke-width:13.875;stroke-linecap:butt;stroke-linejoin:round;stroke-miterlimit:10;stroke-dasharray:none"
             id="path190" /><path
             d="m 506.871,4575.5 29.051,14.09 2.816,0 0,-100.81 c 0,-6.65 0.289,-10.8 0.867,-12.47 0.579,-1.66 1.735,-2.92 3.469,-3.79 1.735,-0.87 5.278,-1.37 10.625,-1.52 l 0,-3.25 -44.879,0 0,3.25 c 5.637,0.15 9.289,0.65 10.95,1.52 1.664,0.87 2.82,2.02 3.468,3.47 0.653,1.44 0.977,5.71 0.977,12.79 l 0,64.39 c 0,8.81 -0.289,14.45 -0.867,16.91 -0.434,1.88 -1.192,3.25 -2.278,4.12 -1.082,0.87 -2.422,1.3 -4.011,1.3 -2.168,0 -5.129,-0.94 -8.887,-2.82 l -1.301,2.82 z m 75.445,-48.78 c 0,13.58 2.059,25.33 6.18,35.23 4.117,9.9 9.574,17.23 16.367,22 5.348,3.76 10.84,5.64 16.477,5.64 9.105,0 17.269,-4.63 24.496,-13.88 9.105,-11.56 13.66,-27.24 13.66,-47.04 0,-13.87 -1.988,-25.65 -5.961,-35.34 -3.976,-9.68 -9.07,-16.72 -15.285,-21.13 -6.215,-4.41 -12.141,-6.62 -17.777,-6.62 -11.418,0 -20.957,6.72 -28.618,20.17 -6.359,11.41 -9.539,25.07 -9.539,40.97 z m 17.344,-2.17 c 0,-16.48 2.024,-29.92 6.07,-40.32 3.325,-8.68 8.309,-13.01 14.958,-13.01 3.179,0 6.468,1.41 9.867,4.23 3.394,2.82 5.961,7.62 7.695,14.41 2.746,9.98 4.117,24.21 4.117,42.71 0,13.59 -1.445,24.93 -4.336,34.04 -2.023,6.79 -4.769,11.56 -8.238,14.31 -2.313,1.88 -5.203,2.82 -8.672,2.82 -3.902,0 -7.441,-1.74 -10.621,-5.2 -4.191,-4.92 -7.047,-12.61 -8.562,-23.09 -1.52,-10.49 -2.278,-20.78 -2.278,-30.9"
             style="fill:#000000;fill-opacity:1;fill-rule:nonzero;stroke:none"
             id="path192" /><path
             d="m 735.375,5125.27 -72.148,0"
             style="fill:none;stroke:#000000;stroke-opacity:1;stroke-width:13.875;stroke-linecap:butt;stroke-linejoin:round;stroke-miterlimit:10;stroke-dasharray:none"
             id="path194" /><path
             d="m 506.871,5172.12 29.051,14.09 2.816,0 0,-100.8 c 0,-6.65 0.289,-10.81 0.867,-12.47 0.579,-1.66 1.735,-2.93 3.469,-3.8 1.735,-0.86 5.278,-1.37 10.625,-1.51 l 0,-3.25 -44.879,0 0,3.25 c 5.637,0.14 9.289,0.65 10.95,1.51 1.664,0.87 2.82,2.03 3.468,3.47 0.653,1.45 0.977,5.71 0.977,12.8 l 0,64.38 c 0,8.82 -0.289,14.46 -0.867,16.91 -0.434,1.88 -1.192,3.26 -2.278,4.12 -1.082,0.87 -2.422,1.3 -4.011,1.3 -2.168,0 -5.129,-0.94 -8.887,-2.82 l -1.301,2.82 z m 151.539,-84.76 -8.238,-22.98 -70.457,0 0,3.25 c 20.668,18.93 35.23,34.4 43.683,46.39 8.457,12 12.684,22.91 12.684,32.74 0,7.66 -2.312,13.91 -6.937,18.75 -4.625,4.85 -10.192,7.26 -16.696,7.26 -5.781,0 -11.019,-1.7 -15.715,-5.09 -4.699,-3.39 -8.132,-8.42 -10.3,-15.07 l -3.25,0 c 1.445,10.84 5.203,19.15 11.273,24.93 6.07,5.78 13.656,8.67 22.762,8.67 9.683,0 17.777,-3.1 24.281,-9.32 6.504,-6.21 9.758,-13.51 9.758,-21.89 0,-6.07 -1.446,-12.14 -4.336,-18.21 -4.336,-9.54 -11.348,-19.59 -21.031,-30.14 -14.598,-16.04 -23.774,-25.72 -27.532,-29.05 l 31.219,0 c 6.36,0 10.805,0.25 13.332,0.76 2.531,0.5 4.844,1.48 6.938,2.93 2.093,1.44 3.867,3.46 5.312,6.07 l 3.25,0"
             style="fill:#000000;fill-opacity:1;fill-rule:nonzero;stroke:none"
             id="path196" /></g></g></g><text
       xml:space="preserve"
       style="font-size:14.39999961999999911px;font-style:normal;font-variant:normal;font-weight:normal;font-stretch:normal;line-height:125%;letter-spacing:0px;word-spacing:0px;fill:#000000;fill-opacity:1;stroke:none;font-family:Arial;-inkscape-font-specification:Arial;filter:url(#filter3183)"
       x="55.199997"
       y="-550.40009"
       id="text3175"
       sodipodi:linespacing="125%"
       transform="scale(1,-1)"><tspan
         sodipodi:role="line"
         id="tspan3177"
         x="55.199997"
         y="-550.40009">=0.5</tspan></text>
<text
       xml:space="preserve"
       style="font-size:14.39999962px;font-style:normal;font-variant:normal;font-weight:normal;font-stretch:normal;line-height:125%;letter-spacing:0px;word-spacing:0px;fill:#000000;fill-opacity:1;stroke:none;font-family:Arial;-inkscape-font-specification:Arial"
       x="524.79993"
       y="-518.40002"
       id="text3179"
       sodipodi:linespacing="125%"
       transform="scale(1,-1)"><tspan
         sodipodi:role="line"
         id="tspan3181"
         x="524.79993"
         y="-518.40002">=1</tspan></text>
</g></svg>