<?xml version="1.0" encoding="UTF-8" standalone="no"?>
<!-- Created with Inkscape (http://www.inkscape.org/) -->

<svg
   xmlns:dc="http://purl.org/dc/elements/1.1/"
   xmlns:cc="http://creativecommons.org/ns#"
   xmlns:rdf="http://www.w3.org/1999/02/22-rdf-syntax-ns#"
   xmlns:svg="http://www.w3.org/2000/svg"
   xmlns="http://www.w3.org/2000/svg"
   xmlns:sodipodi="http://sodipodi.sourceforge.net/DTD/sodipodi-0.dtd"
   xmlns:inkscape="http://www.inkscape.org/namespaces/inkscape"
   id="svg3275"
   version="1.1"
   inkscape:version="0.48.1 r9760"
   width="693.75"
   height="710"
   xml:space="preserve"
   sodipodi:docname="POLINOM4LIMAx1.eps"><metadata
     id="metadata3281"><rdf:RDF><cc:Work
         rdf:about=""><dc:format>image/svg+xml</dc:format><dc:type
           rdf:resource="http://purl.org/dc/dcmitype/StillImage" /><dc:title></dc:title></cc:Work></rdf:RDF></metadata><defs
     id="defs3279"><clipPath
       clipPathUnits="userSpaceOnUse"
       id="clipPath3293"><path
         d="m 763.125,5452.8 4627.075,0 0,-5341.788 -4627.075,0 0,5341.788 z"
         id="path3295"
         inkscape:connector-curvature="0" /></clipPath><clipPath
       clipPathUnits="userSpaceOnUse"
       id="clipPath3305"><path
         d="m 69.375,5480.62 5411.245,0 0,-5411.245 -5411.245,0 0,5411.245 z"
         id="path3307"
         inkscape:connector-curvature="0" /></clipPath><clipPath
       clipPathUnits="userSpaceOnUse"
       id="clipPath3325"><path
         d="m 679.875,610.5 208.125,0 0,-235.875 -208.125,0 0,235.875 z"
         id="path3327"
         inkscape:connector-curvature="0" /></clipPath><clipPath
       clipPathUnits="userSpaceOnUse"
       id="clipPath3335"><path
         d="m 69.375,5480.62 5411.245,0 0,-5411.245 -5411.245,0 0,5411.245 z"
         id="path3337"
         inkscape:connector-curvature="0" /></clipPath><clipPath
       clipPathUnits="userSpaceOnUse"
       id="clipPath3383"><path
         d="m 83.25,2872.12 291.375,0 0,-208.12 -291.375,0 0,208.12 z"
         id="path3385"
         inkscape:connector-curvature="0" /></clipPath><clipPath
       clipPathUnits="userSpaceOnUse"
       id="clipPath3393"><path
         d="m 69.375,5480.62 5411.245,0 0,-5411.245 -5411.245,0 0,5411.245 z"
         id="path3395"
         inkscape:connector-curvature="0" /></clipPath><clipPath
       clipPathUnits="userSpaceOnUse"
       id="clipPath3403"><path
         d="m 444,319.125 97.125,0 0,-180.375 -97.125,0 0,180.375 z"
         id="path3405"
         inkscape:connector-curvature="0" /></clipPath><clipPath
       clipPathUnits="userSpaceOnUse"
       id="clipPath3413"><path
         d="m 69.375,5480.62 5411.245,0 0,-5411.245 -5411.245,0 0,5411.245 z"
         id="path3415"
         inkscape:connector-curvature="0" /></clipPath><filter
       id="filter3530"
       inkscape:label="filter1"><feBlend
         blend="normal"
         id="feBlend3532"
         in2="SourceGraphic" /></filter></defs><sodipodi:namedview
     pagecolor="#ffffff"
     bordercolor="#666666"
     borderopacity="1"
     objecttolerance="10"
     gridtolerance="10"
     guidetolerance="10"
     inkscape:pageopacity="0"
     inkscape:pageshadow="2"
     inkscape:window-width="1680"
     inkscape:window-height="921"
     id="namedview3277"
     showgrid="true"
     inkscape:zoom="1.0565766"
     inkscape:cx="109.31531"
     inkscape:cy="384.73312"
     inkscape:window-x="0"
     inkscape:window-y="0"
     inkscape:window-maximized="0"
     inkscape:current-layer="layer1"><inkscape:grid
       type="xygrid"
       id="grid3447"
       empspacing="1"
       dotted="true"
       visible="true"
       enabled="true"
       snapvisiblegridlinesonly="true" /><sodipodi:guide
       position="0,0"
       orientation="0,693.75"
       id="guide3522" /><sodipodi:guide
       position="693.75,0"
       orientation="-693.75,0"
       id="guide3524" /><sodipodi:guide
       position="693.75,693.75"
       orientation="0,-693.75"
       id="guide3526" /><sodipodi:guide
       position="0,693.75"
       orientation="693.75,0"
       id="guide3528" /></sodipodi:namedview><g
     id="g3283"
     inkscape:groupmode="layer"
     inkscape:label="ink_ext_XXXXXX"
     transform="matrix(1.25,0,0,-1.25,0,710)"
     style="display:inline"
     sodipodi:insensitive="true"><path
       inkscape:connector-curvature="0"
       id="path3287"
       style="fill:#ffffff;fill-opacity:1;fill-rule:nonzero;stroke:none"
       d="M 0,0 555,0 555,555 0,555 0,0 z" /><g
       id="g3289"
       transform="scale(0.1,0.1)"><g
         clip-path="url(#clipPath3293)"
         id="g3291"><path
           inkscape:connector-curvature="0"
           id="path3297"
           style="fill:none;stroke:#ff0000;stroke-width:13.875;stroke-linecap:butt;stroke-linejoin:round;stroke-miterlimit:10;stroke-opacity:1;stroke-dasharray:none"
           d="m 5362.45,925.547 0,4150.973" /><path
           inkscape:connector-curvature="0"
           id="path3299"
           style="fill:none;stroke:#0000ff;stroke-width:13.875;stroke-linecap:butt;stroke-linejoin:round;stroke-miterlimit:10;stroke-opacity:1;stroke-dasharray:none"
           d="m 948.492,124.875 0.867,4.23 0.875,4.235 0.879,4.219 0.883,4.23 0.891,4.219 0.898,4.23 0.903,4.231 0.91,4.234 0.914,4.231 0.922,4.234 0.929,4.23 0.934,4.231 0.937,4.234 0.95,4.231 0.953,4.23 0.961,4.235 0.964,4.23 0.973,4.246 0.985,4.231 0.984,4.234 0.992,4.246 1.004,4.231 1.008,4.246 1.015,4.23 1.02,4.246 1.031,4.235 1.035,4.242 1.047,4.246 1.047,4.234 1.059,4.246 1.07,4.246 1.074,4.243 1.078,4.246 1.09,4.246 1.098,4.246 1.105,4.246 1.114,4.246 1.121,4.246 1.129,4.246 1.136,4.246 1.145,4.246 1.156,4.247 1.16,4.257 1.172,4.246 1.18,4.247 1.187,4.257 1.196,4.246 1.207,4.262 1.215,4.246 1.225,4.258 1.23,4.246 1.24,4.258 1.25,4.246 1.26,4.262 1.27,4.258 1.28,4.246 1.29,4.261 1.3,4.258 1.3,4.262 1.32,4.258 1.33,4.262 1.34,4.257 1.35,4.258 1.35,4.262 1.38,4.258 1.37,4.261 1.39,4.258 1.4,4.262 1.41,4.258 1.43,4.261 1.43,4.258 1.44,4.274 1.46,4.261 1.47,4.258 1.47,4.274 1.5,4.261 1.5,4.258 1.51,4.274 1.52,4.261 1.54,4.274 1.55,4.258 1.56,4.273 1.58,4.273 1.58,4.262 1.6,4.274 1.61,4.273 1.62,4.258 1.65,4.273 1.64,4.274 1.67,4.273 1.68,4.258 1.69,4.277 1.7,4.274 1.72,4.273 1.74,4.274 1.74,4.273 1.76,4.274 1.78,4.273 1.79,4.273 1.8,4.274 1.82,4.273 1.84,4.274 1.85,4.285 1.87,4.273 1.88,4.274 1.89,4.273 1.92,4.274 1.93,4.289 1.94,4.273 1.96,4.274 1.98,4.285 2,4.277 2.01,4.285 2.03,4.274 2.04,4.289 2.07,4.273 2.08,4.285 2.1,4.274 2.11,4.289 2.14,4.273 2.16,4.285 2.17,4.289 2.19,4.274 2.22,4.289 2.22,4.285 2.25,4.274 2.28,4.289 2.28,4.285 2.31,4.289 2.34,4.285 2.35,4.273 2.37,4.289 2.4,4.29 2.41,4.285 2.44,4.289 2.45,4.285 2.49,4.289 2.5,4.285 2.53,4.289 2.54,4.289 2.58,4.285 2.6,4.29 2.62,4.285 2.64,4.3 2.67,4.289 2.69,4.29 2.72,4.285 2.74,4.289 2.77,4.301 2.79,4.285 2.82,4.289 2.85,4.289 2.88,4.301 2.9,4.285 2.92,4.301 2.96,4.289 2.99,4.285 3.01,4.304 3.04,4.286 3.07,4.3 3.1,4.289 3.13,4.301 3.16,4.285 3.19,4.305 3.23,4.285 3.25,4.301 3.29,4.289 3.31,4.301 3.35,4.301 3.39,4.289 3.41,4.301 3.45,4.3 3.49,4.289 3.52,4.301 3.56,4.301 3.58,4.301 3.63,4.285 3.66,4.301 3.7,4.304 3.74,4.301 3.78,4.301 3.81,4.301 3.85,4.289 3.9,4.3 3.93,4.301 3.97,4.301 4.02,4.301 4.05,4.301 4.1,4.3 4.14,4.301 4.19,4.305 4.23,4.301 4.27,4.3 4.32,4.301 4.36,4.301 4.41,4.301 4.46,4.301 4.5,4.3 4.56,4.301 4.6,4.317 4.65,4.3 4.7,4.301 4.75,4.301 4.81,4.305 4.86,4.298 4.91,4.31 4.96,4.31 5.02,4.3 5.07,4.3 5.13,4.31 5.19,4.31 5.24,4.3 5.31,4.3 5.36,4.31 5.42,4.31 5.49,4.3 5.55,4.31 5.59,4.3 5.68,4.32 5.74,4.3 5.8,4.3 5.87,4.32 5.94,4.3 6.01,4.31 6.08,4.3 6.14,4.3 6.22,4.32 6.3,4.3 6.35,4.32 6.44,4.3 6.52,4.31 6.59,4.3 6.68,4.32 6.75,4.3 6.83,4.32 6.91,4.3 7.01,4.31 7.07,4.3 7.16,4.32 7.26,4.3 7.34,4.31 7.44,4.3 7.52,4.32 7.61,4.32 7.72,4.3 7.8,4.31 7.89,4.3 8.01,4.32 8.1,4.3 8.2,4.31 8.3,4.32 8.41,4.3 8.52,4.32 8.61,4.3 8.73,4.31 8.84,4.32 8.96,4.3 9.06,4.31 9.19,4.31 9.31,4.31 9.42,4.31 9.54,4.31 9.67,4.31 9.8,4.32 9.92,4.3 10.06,4.32 10.18,4.3 10.33,4.31 10.45,4.3 10.59,4.32 10.73,4.31 10.88,4.3 11.03,4.32 11.17,4.3 11.32,4.31 11.46,4.31 11.63,4.31 11.78,4.3 11.95,4.32 12.09,4.3 12.28,4.31 12.43,4.31 12.61,4.31 12.77,4.3 12.96,4.31 13.13,4.31 13.3,4.31 13.5,4.3 13.68,4.31 13.87,4.31 14.07,4.3 14.25,4.3 14.45,4.32 14.66,4.3 14.86,4.3 15.06,4.3 15.28,4.3 15.48,4.32 15.71,4.3 15.93,4.3 16.15,4.3 16.37,4.3 16.6,4.31 16.84,4.3 17.07,4.3 17.31,4.3 17.55,4.3 17.81,4.29 18.05,4.3 18.3,4.3 18.55,4.3 18.83,4.29 19.08,4.3 19.34,4.28 19.62,4.31 19.88,4.28 20.16,4.31 20.44,4.28 20.73,4.29 21,4.3 21.3,4.29 21.59,4.29 21.88,4.28 22.19,4.29 22.48,4.29 22.78,4.29 23.09,4.28 23.39,4.28 23.71,4.28 24.02,4.28 24.32,4.29 24.66,4.27 24.96,4.29 25.28,4.27 25.62,4.27 25.93,4.28 26.25,4.27 26.57,4.27 26.9,4.28 27.22,4.26 27.55,4.27 27.87,4.27 28.19,4.26 28.52,4.26 28.84,4.28 29.16,4.26 29.47,4.26 29.79,4.26 30.09,4.26 30.4,4.24 30.72,4.26 31,4.26 31.3,4.24 31.59,4.25 31.87,4.26 32.14,4.25 32.41,4.24 32.68,4.25 32.92,4.24 33.16,4.25 33.4,4.23 33.62,4.25 33.81,4.25 34.02,4.23 34.2,4.24 34.39,4.23 34.52,4.25 34.66,4.23 34.78,4.23 34.88,4.23 34.98,4.25 35.04,4.23 140.39,16.94 35.03,4.24 34.97,4.23 34.86,4.24 34.76,4.23 34.59,4.24 34.41,4.24 34.2,4.25 33.95,4.23 33.68,4.25 33.38,4.24 33.04,4.26 32.66,4.25 32.26,4.24 31.82,4.26 31.34,4.26 30.82,4.26 30.28,4.26 29.7,4.28 29.08,4.27 28.43,4.27 27.74,4.28 27.01,4.27 26.26,4.29 25.48,4.28 24.66,4.29 23.8,4.3 22.94,4.3 22.02,4.3 21.09,4.31 20.15,4.31 19.16,4.32 18.16,4.31 17.16,4.32 16.14,4.33 15.11,4.32 14.06,4.33 13.01,4.33 11.97,4.33 10.92,4.35 9.87,4.34 8.84,4.34 7.8,4.34 6.78,4.35 5.79,4.35 4.8,4.35 3.82,4.35 2.88,4.36 1.97,4.34 1.06,4.36 0.2,4.36 -0.64,4.35 -1.45,4.36 -2.24,4.37 -2.97,4.36 -3.7,4.35 -4.39,4.36 -5.04,4.37 -5.64,4.36 -6.25,4.37 -6.79,4.35 -7.32,4.38 -7.79,4.35 -8.26,4.37 -8.7,4.37 -9.07,4.36 -9.46,4.37 -9.79,4.37 -10.1,4.37 -10.39,4.37 -10.64,4.39 -10.88,4.37 -11.09,4.38 -11.28,4.37 -11.44,4.39 -11.57,4.38 -11.72,4.39 -11.8,4.38 -11.91,4.39 -11.96,4.4 -12,4.39 -12.04,4.39 -12.06,4.39 -12.07,4.42 -12.07,4.39 -12.03,4.42 -12.02,4.41 -11.97,4.41 -11.91,4.43 -11.85,4.42 -11.78,4.43 -11.69,4.44 -11.62,4.44 -11.5,4.44 -11.41,4.45 -11.3,4.47 -11.17,4.45 -11.06,4.49 -10.94,4.48 -10.79,4.48 -10.65,4.51 -10.52,4.5 -10.37,4.52 -10.22,4.52 -10.08,4.54 -9.9,4.55 -9.76,4.57 -9.58,4.57 -9.44,4.59 -9.26,4.61 -9.1,4.64 -8.92,4.65 -8.74,4.66 -8.59,4.69 -8.39,4.7 -8.22,4.73 -8.04,4.77 -7.87,4.79 -7.67,4.83 -7.49,4.87 -7.31,4.9 -7.1,4.95 -6.92,5 -6.72,5.03 -6.52,5.11 -6.3,5.18 -6.09,5.23 -5.87,5.31 -5.63,5.4 -5.38,5.49 -5.13,5.58 -4.84,5.67 -4.53,5.8 -4.22,5.89 -3.86,5.99 -3.47,6.08 -3.05,6.15 -2.64,6.2 -2.16,6.23 -1.71,6.21 -1.25,6.19 -0.8,6.12 -0.39,6.05 0.01,5.96 0.38,5.88 0.73,5.78 1.04,5.7 1.35,5.62 1.61,5.54 1.87,5.48 2.13,5.4 2.35,5.35 2.58,5.32 2.78,5.26 3,5.21 3.19,5.19 3.37,5.16 3.57,5.14 3.74,5.1 3.92,5.08 4.09,5.06 4.27,5.06 4.43,5.03 4.59,5.04 4.74,5.01 4.92,5.01 5.06,5.01 5.23,4.99 5.37,4.98 5.53,5 5.66,4.98 5.81,4.98 5.96,4.98 6.1,4.98 6.24,5 6.38,4.98 6.51,4.98 6.64,4.99 6.79,4.98 6.91,5 7.04,4.99 7.16,5.01 7.28,5 7.41,5.02 7.52,5.01 7.64,5.02 7.76,5.03 7.87,5.02 7.96,5.03 8.09,5.05 8.17,5.06 8.29,5.05 8.38,5.06 8.46,5.06 8.56,5.08 8.64,5.08 8.73,5.1 8.81,5.08 8.88,5.11 8.97,5.12 9.02,5.12 9.08,5.12 9.15,5.14 9.2,5.14 9.24,5.15 9.29,5.16 9.33,5.16 9.36,5.18 47.15,26 9.45,5.22 9.45,5.23 9.45,5.24 9.41,5.25 9.39,5.26 9.36,5.27 9.33,5.27 9.27,5.29 9.22,5.3 9.16,5.3 9.1,5.3 9.02,5.33 8.93,5.33 8.84,5.34 8.75,5.34 8.64,5.35 8.52,5.36 8.39,5.38 8.27,5.39 8.13,5.38 7.98,5.4 7.83,5.41 7.64,5.43 7.49,5.42 7.3,5.44 7.12,5.44 6.92,5.45 6.72,5.47 6.49,5.48 6.28,5.48 6.05,5.49 5.81,5.5 5.58,5.51 5.31,5.52 5.07,5.52 4.78,5.54 4.52,5.55 4.25,5.55 3.97,5.56 3.67,5.58 3.38,5.57 3.08,5.6 2.79,5.59 2.47,5.6 2.15,5.62 1.84,5.64 1.53,5.63 1.21,5.63 0.88,5.66 0.57,5.65 0.24,5.68 -0.08,5.67 -0.42,5.69 -0.74,5.69 -1.06,5.7 -1.39,5.72 -1.71,5.72 -2.01,5.73 -2.35,5.73 -2.64,5.74 -2.98,5.74 -3.26,5.76 -3.56,5.78 -3.86,5.77 -4.16,5.78 -4.43,5.79 -4.72,5.8 -4.98,5.81 -5.24,5.82 -5.51,5.81 -5.76,5.83 -5.99,5.84 -6.23,5.84 -6.45,5.85 -6.68,5.86 -6.88,5.87 -7.08,5.88 -7.27,5.87 -7.45,5.9 -7.61,5.89 -7.78,5.9 -7.93,5.91 -8.08,5.92 -8.2,5.92 -8.32,5.94 -8.44,5.93 -8.55,5.94 -8.62,5.95 -8.72,5.97 -8.8,5.97 -8.85,5.96 -8.89,5.98 -8.95,6 -8.98,5.99 -9,6 -9.02,6.01 -9.02,6 -9.02,6.02 -9,6.03 -8.99,6.03 -8.95,6.04 -8.91,6.05 -8.87,6.04 -8.8,6.06 -8.73,6.06 -8.66,6.08 -8.59,6.07 -8.49,6.08 -8.4,6.09 -8.28,6.09 -8.17,6.1 -8.05,6.1 -7.92,6.1 -7.79,6.12 -7.64,6.12 -7.49,6.13 -7.34,6.12 -7.18,6.14 -7,6.14 -6.84,6.15 -6.65,6.15 -6.47,6.16 -6.26,6.16 -6.06,6.16 -5.87,6.16 -5.64,6.17 -5.44,6.18 -5.22,6.18 -4.98,6.18 -4.75,6.19 -4.52,6.19 -4.27,6.2 -4.03,6.2 -3.77,6.19 -3.51,6.21 -3.26,6.21 -2.99,6.2 -2.72,6.22 -2.44,6.21 -2.18,6.21 -1.88,6.22 -1.6,6.22 -1.3,6.21 -1.01,6.23 -0.73,6.23 -0.42,6.22 -0.1,6.23 0.19,6.21 0.51,6.23 0.82,6.24 1.14,6.23 1.46,6.21 1.77,6.23 2.11,6.23 2.43,6.22 2.76,6.23 3.09,6.21 3.43,6.22 3.76,6.23 4.1,6.22 4.42,6.2 4.78,6.21 5.1,6.21 5.44,6.2 5.78,6.2 6.12,6.2 6.46,6.19 6.78,6.19 7.13,6.18 7.45,6.18 7.79,6.18 8.1,6.17 8.43,6.16 8.75,6.15 9.06,6.16 9.36,6.13 9.67,6.15 9.95,6.12 10.24,6.11 10.52,6.12 10.79,6.11 11.04,6.09 11.28,6.09 11.5,6.08 11.72,6.06 11.93,6.07 12.11,6.04 12.26,6.04 12.42,6.02 12.53,6.02 12.62,6 12.71,5.99 12.77,5.98 12.77,5.97 25.49,11.89 12.66,5.94 12.54,5.91 12.39,5.9 12.2,5.88 11.97,5.87 11.71,5.85 11.38,5.84 11.03,5.83 10.6,5.81 10.16,5.79 9.63,5.77 9.06,5.76 8.45,5.74 7.75,5.72 7.05,5.71 6.26,5.68 5.42,5.66 4.53,5.64 3.59,5.62 2.6,5.6 1.55,5.57 0.46,5.56 -0.67,5.52 -1.82,5.5 -3.04,5.48 -4.27,5.45 -5.52,5.41 -6.8,5.4 -8.1,5.37 -9.4,5.32 -10.69,5.31 -12.01,5.27 -13.29,5.23 -14.56,5.19 -15.84,5.17 -17.05,5.13 -18.26,5.09 -19.42,5.06 -20.54,5.02 -21.62,4.98 -22.64,4.94 -23.63,4.9 -24.56,4.86 -25.42,4.82 -26.24,4.78 -26.98,4.74 -27.69,4.69 -28.33,4.66 -28.9,4.61 -29.42,4.57 -29.89,4.52 -30.3,4.48 -30.64,4.44 -30.94,4.39 -31.18,4.35 -31.05,4.26 -31.19,4.22 -31.29,4.16 -31.33,4.13 -31.33,4.08 -31.29,4.03 -31.22,3.99 -31.1,3.93 -30.96,3.9 -30.77,3.84 -30.57,3.79 -30.32,3.75 -30.04,3.69 -29.76,3.65 -29.43,3.6 -29.09,3.54 -28.74,3.49 -28.35,3.45 -27.94,3.38 -27.53,3.34 -27.11,3.28 -26.66,3.23 -26.2,3.17 -25.74,3.12 -25.27,3.05 -24.77,3.01 -24.29,2.95 -23.78,2.89 -23.28,2.83 -22.79,2.78 -22.25,2.72 -21.76,2.66 -21.23,2.59 -20.71,2.54 -20.19,2.48 -19.68,2.43 -19.15,2.35 -18.63,2.3 -18.12,2.24 -17.59,2.18 -17.1,2.11 -16.56,2.06 -16.07,1.99 -15.57,1.93 -15.05,1.87 -14.57,1.81 -14.07,1.74 -13.58,1.69 -13.1,1.62 -12.61,1.56 -12.16,1.5 -11.67,1.44 -11.21,1.38 -10.74,1.31 -10.29,1.26 -9.84,1.19 -9.41,1.14 -8.96,1.08 -8.52,1.01 -8.1,0.96 -7.67,0.9 -7.26,0.84 -6.86,0.78 -6.43,0.72 -6.04,0.66 -5.65,0.61 -5.26,0.55 -4.87,0.5 -4.48,0.45 -4.12,0.38 -3.75,0.33 -3.37,0.28 -3.02,0.22 -2.66,0.18 -2.32,0.12 -1.97,0.06 -1.62,0.02 -1.3,-0.03 -0.95,-0.08 -0.64,-0.14 -0.32,-0.18 0.01,-0.23 0.32,-0.27 0.64,-0.32 0.93,-0.38 1.25,-0.41 1.52,-0.46 1.85,-0.5 2.12,-0.55 2.4,-0.59 2.71,-0.63 2.97,-0.68 3.24,-0.71 3.53,-0.76 3.8,-0.8 4.05,-0.84 4.33,-0.87 4.58,-0.91 4.84,-0.95 5.1,-0.99 5.34,-1.03 5.59,-1.05 5.84,-1.1 6.08,-1.13 6.32,-1.16 6.55,-1.2 6.8,-1.23 7.02,-1.26 7.25,-1.29 7.47,-1.33 7.71,-1.35 7.92,-1.39 8.14,-1.41 8.35,-1.45 8.57,-1.47 8.78,-1.5 8.99,-1.53 9.18,-1.55 9.4,-1.58 9.6,-1.61 9.8,-1.63 9.98,-1.66 10.18,-1.68 10.37,-1.7 10.56,-1.74 10.74,-1.75 10.94,-1.77 11.1,-1.8 11.29,-1.82 11.46,-1.84 11.63,-1.86 11.79,-1.88 11.98,-1.9 12.12,-1.93 12.3,-1.94 12.44,-1.95 12.6,-1.98 12.77,-2 12.9,-2.01 13.04,-2.03 13.2,-2.04 13.33,-2.07 13.47,-2.07 13.6,-2.09 13.72,-2.11 13.86,-2.13 13.98,-2.13 14.1,-2.15 14.2,-2.17 14.32,-2.18 14.43,-2.18 14.53,-2.21 14.62,-2.21 14.74,-2.23 29.7,-4.48 45.19,-6.81 107.6,-16.18 31.13,-4.69 15.61,-2.36 15.62,-2.36 15.62,-2.36 15.65,-2.37 15.64,-2.38 15.64,-2.37 15.63,-2.38 15.61,-2.39 15.6,-2.39 15.57,-2.39 15.54,-2.39 15.5,-2.39 15.44,-2.4 15.4,-2.39 15.34,-2.4 15.3,-2.39 15.2,-2.4 15.15,-2.39 15.06,-2.39 14.97,-2.39 14.87,-2.39 14.79,-2.38 14.67,-2.38 14.57,-2.37 14.46,-2.37 14.32,-2.37 14.19,-2.36 14.07,-2.35 13.93,-2.35 13.78,-2.34 13.62,-2.33 13.48,-2.32 13.3,-2.31 13.14,-2.3 12.97,-2.29 12.8,-2.28 12.61,-2.27 12.42,-2.25 12.22,-2.24 12.03,-2.23 11.84,-2.21 11.62,-2.2 11.41,-2.17 11.21,-2.16 10.98,-2.14 10.76,-2.13 10.53,-2.1 10.3,-2.08 10.07,-2.06 9.84,-2.03 9.6,-2.01 9.35,-1.99 9.11,-1.95 8.86,-1.93 8.6,-1.91 8.37,-1.87 8.1,-1.84 7.84,-1.81 7.58,-1.76 7.32,-1.75 7.05,-1.71 6.79,-1.67 6.52,-1.62 6.25,-1.59 5.98,-1.54 5.71,-1.5 5.42,-1.47 5.15,-1.4 4.87,-1.38 4.58,-1.32 4.3,-1.26 4.03,-1.22 3.71,-1.15 3.45,-1.11 3.13,-1.06 2.85,-0.98 2.55,-0.93 2.25,-0.88 1.94,-0.8 1.62,-0.75 1.32,-0.68 1.01,-0.61 0.68,-0.54 0.36,-0.49 0.04,-0.4 -0.3,-0.33 -0.64,-0.25 -0.98,-0.2 -1.33,-0.09 -1.7,-0.04 -2.04,0.04 -2.41,0.12 -2.79,0.2 -3.17,0.27 -3.55,0.37 -3.95,0.43 -4.34,0.51 -4.76,0.6 -5.17,0.68 -5.59,0.75 -6.02,0.83 -6.46,0.91 -6.9,0.99 -7.35,1.07 -7.82,1.15 -8.27,1.22 -8.75,1.29 -9.21,1.37 -9.72,1.45 -10.19,1.52 -10.69,1.58 -11.18,1.67 -11.7,1.72 -12.19,1.8 -12.71,1.86 -13.21,1.93 -13.74,2 -14.25,2.05 -14.78,2.11 -15.27,2.18 -15.8,2.23 -16.32,2.3 -16.83,2.34 -17.35,2.4 -17.84,2.45 -18.34,2.51 -18.86,2.56 -19.34,2.6 -19.81,2.65 -20.31,2.7 -20.78,2.74 -21.24,2.78 -21.69,2.83 -22.13,2.87 -22.57,2.91 -22.99,2.94 -23.41,2.99 -23.8,3.02 -24.18,3.06 -24.56,3.09 -24.93,3.13 -25.27,3.16 -25.6,3.19 -25.93,3.22 -26.22,3.25 -26.52,3.28 -26.79,3.31 -27.04,3.34 -27.3,3.36 -27.52,3.4 -27.74,3.41 -27.93,3.45 -28.13,3.47 -28.27,3.48 -28.44,3.52 -28.57,3.54 -28.7,3.56 -28.8,3.58 -28.9,3.61 -28.98,3.62 -29.04,3.65 -29.08,3.67 -29.12,3.68 -29.14,3.71 -29.15,3.72 -29.15,3.74 -29.14,3.76 -29.09,3.78 -29.07,3.8 -29.02,3.82 -28.94,3.83 -28.87,3.85 -28.78,3.86 -28.69,3.88 -28.58,3.9 -28.48,3.92 -28.34,3.92 -28.21,3.95 -28.08,3.95 -27.92,3.98 -27.77,3.99 -27.61,4 -27.43,4.02 -27.26,4.03 -27.07,4.04 -26.88,4.06 -26.69,4.08 -26.49,4.08 -26.29,4.1 -26.07,4.11 -25.87,4.13 -25.65,4.13 -25.44,4.15 -25.19,4.17 -24.98,4.17 -24.75,4.19 -24.52,4.2 -24.28,4.21 -24.04,4.22 -23.83,4.24 -23.55,4.24 -23.34,4.26 -23.09,4.27 -22.86,4.28 -22.6,4.29 -22.36,4.3 -22.12,4.31 -21.88,4.33 -21.63,4.33 -21.4,4.35 -21.14,4.35 -20.91,4.37 -20.66,4.38 -20.39,4.38 -20.13,4.39 -19.91,4.39 -19.66,4.41 -19.44,4.42 -19.2,4.43 -18.97,4.44 -18.73,4.45 -18.51,4.46 -18.29,4.46 -18.05,4.48 -17.82,4.49 -17.61,4.5 -17.39,4.51 -17.16,4.52 -16.96,4.52 -16.74,4.54 -16.53,4.55 -16.32,4.55 -16.09,4.57 -15.92,4.57 -15.69,4.59 -15.5,4.59 -15.29,4.61 -15.11,4.61 -14.9,4.62 -14.71,4.63 -14.53,4.65 -14.33,4.65 -14.13,4.66 -13.98,4.67 -13.77,4.68 -13.6,4.69 -13.44,4.7 -13.25,4.71 -13.08,4.72 -12.9,4.73 -12.74,4.74 -12.57,4.74 -12.42,4.76 -12.25,4.77 -12.09,4.78 -11.93,4.79 -11.78,4.8 -11.63,4.8 -11.46,4.82 -11.33,4.83 -11.17,4.84 -11.03,4.85 -10.89,4.86 -10.76,4.87 -10.61,4.88 -10.48,4.9 -10.33,4.9 -10.2,4.91 -10.09,4.92 -9.93,4.94 -9.83,4.95 -9.69,4.96 -9.56,4.97 -9.45,4.98 -9.34,4.99 -9.2,5.01 -9.1,5.01 -8.97,5.03 -8.86,5.04 -8.76,5.06 -8.64,5.06 -8.54,5.08 -8.42,5.1 -8.32,5.1 -8.22,5.12 -8.11,5.13 -8.02,5.14 -7.91,5.16 -7.81,5.17 -7.73,5.18 -7.62,5.2 -7.53,5.22 -7.44,5.23 -7.35,5.24 -7.25,5.26 -7.17,5.28 -7.08,5.29 -7,5.3 -6.91,5.32 -6.83,5.34 -6.74,5.35 -6.67,5.37 -6.58,5.39 -6.51,5.4 -6.42,5.42 -6.36,5.45 -6.27,5.45 -6.2,5.48 -6.13,5.49 -6.05,5.52 -5.98,5.53 -5.91,5.55 -5.84,5.57 -5.78,5.59 -5.7,5.62 -5.64,5.63 -5.57,5.65 -5.5,5.68 -5.44,5.69 -5.38,5.72 -5.31,5.74 -5.25,5.76 -5.19,5.78 -5.12,5.81 -5.06,5.83 -5.01,5.85 -4.94,5.87 -4.89,5.9 -4.82,5.92 -4.77,5.95 -4.7,5.96 -4.65,5.99 -4.59,6.01 -4.53,6.04 -4.48,6.05 -4.41,6.08 -4.36,6.1 -4.3,6.11 -4.24,6.14 -4.18,6.15 -4.13,6.17 -4.06,6.19 -4,6.19 -3.94,6.21 -3.88,6.22 -3.82,6.22 -3.75,6.22 -3.69,6.23 -3.62,6.22 -3.55,6.21 -3.48,6.2 -3.41,6.18 -3.34,6.16 -3.26,6.13 -3.19,6.09 -3.11,6.06 -3.03,6.01 -2.95,5.96 -2.87,5.9 -2.79,5.83 -2.7,5.76 -2.62,5.68 -2.53,5.59 -2.45,5.51 -2.36,5.41 -2.27,5.31 -2.19,5.21 -2.11,5.09 -2.02,4.98 -1.94,4.88 -1.87,4.75 -1.78,4.64 -1.71,4.53 -1.63,4.4 -1.52,4.18 -1.47,4.07 -1.39,3.97 -1.34,3.86 -1.27,3.75 -1.22,3.65 -1.16,3.55 -1.11,3.45 -1.06,3.34 -1.01,3.26 -0.96,3.16 -0.92,3.07 -0.88,2.98 -0.83,2.9 -0.79,2.81 -0.76,2.73 -0.72,2.65 -0.69,2.57 -0.64,2.5 -0.62,2.42 -0.59,2.36 -0.56,2.29 -0.53,2.22 -0.5,2.15 -0.48,2.1 -0.45,2.03 -0.43,1.98 -0.4,1.92 -0.38,1.86 -0.36,1.81 -0.34,1.76 -0.32,1.71 -0.31,1.66 -0.28,1.62 -0.27,1.56 -0.25,1.53 -0.23,1.48 -0.22,1.43 -0.2,1.4 -0.19,1.36 -0.17,1.32 -0.16,1.28 -0.14,1.25 -0.14,1.21 -0.12,1.18 -0.11,1.14 -0.1,1.11 -0.09,1.08 -0.07,1.05 -0.07,1.02 -0.06,0.99 -0.04,0.97 -0.04,0.93 -0.03,0.91 -0.02,0.89 -0.01,0.86 -0.01,0.83 0.01,0.81 0.01,0.79 0.01,0.77 0.03,0.74 0.03,0.72 0.04,0.71 0.05,0.68 0.05,0.66 0.06,0.64 0.06,0.63 0.07,0.6 0.07,0.59 0.08,0.57 0.09,0.56 0.09,0.54 0.09,0.52 0.1,0.51 0.1,0.49 0.11,0.48 0.12,0.47 0.11,0.45 0.13,0.43 0.12,0.43 0.13,0.41 0.13,0.4 0.13,0.39 0.14,0.37 0.14,0.36 0.15,0.36 0.15,0.33 0.15,0.34 0.15,0.32 0.16,0.31 0.15,0.3 0.16,0.29 0.17,0.28 0.16,0.27 0.17,0.27 0.17,0.26 0.18,0.24 0.17,0.25 0.18,0.23 0.17,0.22 0.18,0.22 0.19,0.21 0.18,0.2 0.18,0.2 0.19,0.19 0.19,0.18 0.19,0.18 0.19,0.17 0.19,0.17 0.19,0.16 0.2,0.15 0.19,0.15 0.2,0.15 0.2,0.13 0.2,0.14 0.19,0.13 0.2,0.12 0.2,0.12 0.21,0.12 0.2,0.11 0.2,0.11 0.21,0.1 0.2,0.1 0.21,0.1 0.2,0.09 0.21,0.09 0.2,0.08 0.21,0.09 0.21,0.07 0.2,0.08 0.21,0.07 0.21,0.07 0.21,0.07 0.21,0.07 0.21,0.06 0.2,0.06 0.21,0.05 0.21,0.06 0.21,0.05 0.21,0.05 0.21,0.04 0.21,0.05 0.21,0.04 0.21,0.04 0.21,0.04 0.21,0.04 0.21,0.03 0.21,0.03 0.21,0.04 0.2,0.02 0.21,0.03 0.21,0.03 0.21,0.02 0.21,0.02 0.21,0.02 0.21,0.02 0.2,0.02 0.21,0.02 0.21,0.01 0.21,0.02 0.21,0.01 0.2,0.01 0.21,0.01 0.2,0.01 0.21,0.01 0.21,0 0.2,0 0.21,0.01 0.2,0 0.21,0 0.21,0 0.2,0 0.2,-0.01 0.2,0 0.21,0 0.2,-0.01 0.21,-0.01 0.2,-0.01 0.2,-0.01 0.2,-0.01 0.21,-0.01 0.2,-0.01 0.2,-0.02 0.2,-0.01 0.2,-0.02 0.2,-0.02 0.2,-0.02 0.2,-0.01 0.2,-0.03 0.2,-0.02 0.2,-0.03 0.2,-0.02 0.2,-0.03 0.2,-0.02 0.2,-0.03 0.2,-0.03 0.19,-0.03 0.2,-0.03 0.2,-0.04 0.2,-0.03 0.19,-0.03 0.2,-0.04 0.2,-0.04 0.19,-0.04 0.2,-0.03 0.2,-0.05 0.19,-0.04 0.2,-0.04 0.19,-0.05 0.2,-0.04 0.2,-0.05 0.19,-0.05 0.2,-0.05 0.19,-0.05 0.19,-0.05 0.2,-0.05 0.19,-0.06 0.2,-0.06 0.19,-0.06 0.2,-0.05 0.19,-0.06 0.19,-0.06 0.2,-0.06 0.19,-0.07 0.19,-0.06 0.2,-0.07 0.19,-0.07 0.19,-0.07 0.19,-0.07 0.2,-0.07 0.19,-0.07 0.2,-0.07 0.19,-0.08 0.19,-0.07 0.19,-0.08 0.19,-0.08 0.19,-0.08 0.19,-0.08 0.2,-0.08 0.19,-0.08 0.19,-0.09 0.19,-0.08 0.19,-0.09 0.19,-0.09 0.19,-0.09 0.19,-0.09 0.19,-0.09 0.19,-0.09 0.19,-0.09 0.19,-0.09 0.19,-0.1 0.19,-0.1 0.19,-0.09 0.19,-0.1 0.19,-0.1 0.19,-0.1 0.19,-0.1 0.19,-0.1 0.18,-0.1 0.19,-0.1 0.18,-0.1 0.19,-0.11 0.19,-0.11 0.19,-0.1 0.18,-0.11 0.18,-0.1 0.19,-0.11 0.18,-0.1 0.19,-0.11 0.18,-0.11 0.19,-0.11 0.17,-0.11 0.19,-0.1 0.18,-0.11 0.18,-0.11 0.18,-0.11 0.18,-0.11 0.18,-0.11 0.18,-0.11 0.18,-0.1 0.18,-0.11 0.52,-0.33 0.18,-0.11 0.51,-0.31 0.18,-0.11 0.16,-0.1 0.18,-0.11 0.16,-0.1 0.17,-0.1 0.17,-0.1 0.16,-0.1 0.17,-0.1 0.16,-0.1 0.16,-0.09 0.16,-0.1 0.16,-0.1 0.16,-0.09 0.16,-0.09 0.16,-0.09 0.15,-0.09 0.15,-0.08 0.15,-0.09 0.16,-0.08 0.14,-0.08 0.15,-0.08 0.15,-0.08 0.14,-0.07 0.15,-0.08 0.14,-0.07 0.14,-0.06 0.13,-0.07 0.14,-0.07 0.14,-0.05 0.13,-0.06 0.13,-0.06 0.13,-0.05 0.13,-0.05 0.12,-0.05 0.13,-0.05 0.12,-0.04 0.12,-0.03 0.12,-0.04 0.11,-0.03 0.12,-0.03 0.11,-0.03 0.11,-0.02 0.11,-0.02 0.1,-0.02 0.11,-0.01 0.1,-0.01 0.09,0 0.1,-0.01 0.1,0.01 0.09,0 0.09,0.01 0.09,0.02 0.08,0.01 0.08,0.02 0.08,0.03 0.08,0.03 0.07,0.03 0.08,0.04 0.07,0.04 0.06,0.05 0.07,0.05 0.06,0.05 0.06,0.06 0.06,0.06 0.06,0.06 0.05,0.07 0.05,0.08 0.05,0.08 0.04,0.08 0.05,0.08 0.04,0.09 0.04,0.1 0.03,0.1 0.03,0.11 0.03,0.1 0.03,0.11 0.02,0.12 0.03,0.12 0.02,0.12 0.02,0.13 0.01,0.13 0.02,0.13 0.01,0.14 0.01,0.15 0.01,0.14 0,0.15 0,0.31 0,0.16 -0.01,0.16 0,0.17 -0.01,0.17 -0.01,0.17 -0.01,0.18 -0.02,0.17 -0.01,0.18 -0.02,0.18 -0.02,0.19 -0.02,0.19 -0.03,0.19 -0.02,0.19 -0.03,0.19 -0.02,0.2 -0.03,0.19 -0.03,0.2 -0.03,0.2 -0.03,0.2 -0.04,0.2 -0.03,0.2 -0.03,0.21 -0.04,0.2 -0.03,0.2 -0.04,0.2 -0.04,0.21 -0.04,0.19 -0.03,0.21 -0.04,0.2 -0.04,0.19 -0.04,0.2 -0.03,0.2 -0.04,0.19 -0.04,0.19 -0.03,0.19 -0.04,0.18 -0.03,0.18 -0.04,0.18 -0.03,0.18 -0.03,0.17 -0.03,0.17 -0.03,0.16 -0.03,0.15 -0.02,0.15 -0.03,0.15 -0.02,0.14 -0.01,0.13 -0.02,0.13 -0.02,0.12 0,0.11 -0.01,0.1 -0.01,0.1 0,0.16 0.01,0.07 0.01,0.06 0.01,0.04 0.02,0.04 0.03,0.02 0.02,0.01 0.03,0 0.04,-0.01 0.05,-0.03 0.05,-0.04 0.05,-0.06 0.06,-0.08 0.07,-0.08 0.08,-0.11 0.08,-0.12 0.09,-0.14 0.1,-0.16 0.11,-0.18 0.11,-0.2 0.13,-0.22 0.13,-0.24 0.14,-0.27 0.16,-0.28 0.16,-0.32 0.18,-0.33 0.18,-0.36 0.2,-0.4 0.21,-0.41 0.22,-0.44 0.24,-0.48 0.25,-0.51 0.26,-0.54 0.28,-0.57 0.29,-0.6 0.31,-0.64 0.32,-0.68 0.35,-0.72 0.36,-0.75 0.38,-0.8 0.82,-1.72 3.58,-7.53 0.62,-1.29 0.64,-1.35 0.68,-1.41 0.7,-1.48 0.75,-1.55 0.77,-1.61 0.81,-1.68 0.85,-1.77 0.89,-1.83 0.93,-1.92 0.98,-1.99 1.01,-2.08 1.07,-2.18 1.11,-2.26 1.17,-2.35 1.22,-2.46 1.28,-2.55 1.33,-2.65 1.39,-2.77 1.46,-2.87 1.53,-2.98 1.59,-3.11 1.66,-3.22 1.74,-3.34 1.82,-3.46 1.89,-3.6 1.98,-3.72 2.06,-3.85 2.16,-3.99 2.24,-4.11 2.33,-4.26 2.44,-4.38 2.52,-4.52 2.56,-4.52 2.64,-4.64 2.74,-4.75 2.84,-4.88 2.93,-4.98 3.03,-5.1 3.12,-5.2 3.22,-5.3 3.32,-5.39 3.41,-5.49 3.51,-5.57 3.6,-5.64 3.69,-5.72 3.78,-5.79 3.87,-5.85 3.96,-5.9 4.04,-5.95 4.13,-6 4.22,-6.04 4.29,-6.07 4.38,-6.11 4.45,-6.13 4.54,-6.15 4.61,-6.17 4.69,-6.19 4.77,-6.2 4.84,-6.21 4.91,-6.22 4.99,-6.21 5.07,-6.23 5.14,-6.22 5.21,-6.22 5.29,-6.22 5.36,-6.22 5.43,-6.21 5.51,-6.2 5.59,-6.2 5.66,-6.18 5.73,-6.18 5.81,-6.17 5.89,-6.16 5.97,-6.15 6.05,-6.13 6.12,-6.13 6.2,-6.11 6.29,-6.1 6.37,-6.08 6.45,-6.08 6.53,-6.06 6.62,-6.05 6.71,-6.04 6.8,-6.02 6.88,-6.02 6.97,-5.99 7.07,-5.99 7.16,-5.97 7.25,-5.96 7.35,-5.95 7.45,-5.93 7.54,-5.92 7.65,-5.91 7.74,-5.9 7.86,-5.88 7.95,-5.87 8.08,-5.86 8.17,-5.85 8.29,-5.84 8.41,-5.82 8.5,-5.81 8.63,-5.8 8.76,-5.79 8.88,-5.78 8.99,-5.77 9.11,-5.76 9.26,-5.74 9.38,-5.74 9.5,-5.72 9.66,-5.72 9.78,-5.71 9.92,-5.69 10.06,-5.69 10.21,-5.67 10.35,-5.66 10.51,-5.66 10.65,-5.65 10.81,-5.63 10.98,-5.63 11.12,-5.62 11.3,-5.61 11.46,-5.6 11.62,-5.59 11.81,-5.59 11.98,-5.57 12.15,-5.57 12.34,-5.55 12.53,-5.56 12.71,-5.53 12.9,-5.54 13.1,-5.53 13.31,-5.52 13.5,-5.5 13.7,-5.51 13.92,-5.49 14.14,-5.49 14.34,-5.48 14.59,-5.48 14.79,-5.46 15.02,-5.47 15.27,-5.45 15.49,-5.44 15.75,-5.45 15.99,-5.43 16.25,-5.42 16.48,-5.42 16.76,-5.42 17.01,-5.4 17.29,-5.4 17.56,-5.4 17.83,-5.39 18.12,-5.38 18.42,-5.37 18.69,-5.37 18.99,-5.36 19.3,-5.36 19.61,-5.36 19.91,-5.34 20.21,-5.34 20.55,-5.34 20.88,-5.33 21.21,-5.32 21.53,-5.32 21.88,-5.31 22.23,-5.31 22.56,-5.3 22.93,-5.3 23.29,-5.29 23.64,-5.28 24.02,-5.29 24.38,-5.27 24.76,-5.27 25.14,-5.26 25.53,-5.27 25.91,-5.25 26.3,-5.25 26.72,-5.25 27.09,-5.23 27.5,-5.24 27.91,-5.23 28.3,-5.22 28.72,-5.22 29.14,-5.22 29.54,-5.21 29.96,-5.2 30.37,-5.21 30.79,-5.19 31.19,-5.19 31.62,-5.19 32.02,-5.18 32.44,-5.18 32.84,-5.18 33.26,-5.17 33.66,-5.16 34.05,-5.16 34.45,-5.16 34.84,-5.15 35.22,-5.15 35.59,-5.15 35.96,-5.14 36.32,-5.13 36.66,-5.14 37.01,-5.13 37.32,-5.13 37.64,-5.12 37.94,-5.12 38.21,-5.12 38.49,-5.12 38.72,-5.11 38.97,-5.11 39.17,-5.11 39.36,-5.11 39.53,-5.1 39.65,-5.1 39.78,-5.11 39.88,-5.1 159.77,-20.41 39.86,-5.11 39.77,-5.1 39.61,-5.11 39.45,-5.11 39.22,-5.11 38.98,-5.11 38.67,-5.13 38.32,-5.12 37.95,-5.12 37.5,-5.13 37.04,-5.13 36.5,-5.14 35.92,-5.15 35.31,-5.15 34.65,-5.16 33.92,-5.16 33.16,-5.18 32.36,-5.18 31.5,-5.18 30.58,-5.2 29.63,-5.21 28.66,-5.21 27.61,-5.22 26.54,-5.23 25.44,-5.23 24.29,-5.25 23.13,-5.25 21.92,-5.27 20.7,-5.27 19.47,-5.29 18.21,-5.29 16.94,-5.3 15.66,-5.31 14.4,-5.31 13.13,-5.33 11.86,-5.33 10.62,-5.34 9.36,-5.34 8.16,-5.36 6.95,-5.37 5.8,-5.36 4.66,-5.37 3.56,-5.39 2.48,-5.38 1.45,-5.4 0.49,-5.41 -0.49,-5.41 -1.37,-5.41 -2.23,-5.43 -3.04,-5.42 -3.82,-5.44 -4.53,-5.44 -5.22,-5.45 -5.84,-5.46 -6.44,-5.46 -6.98,-5.47 -7.48,-5.48 -7.93,-5.48 -8.36,-5.5 -8.72,-5.49 -9.09,-5.51 -9.38,-5.52 -9.66,-5.52 -9.88,-5.54 -10.08,-5.55 -10.27,-5.55 -10.41,-5.56 -10.52,-5.58 -10.6,-5.58 -10.66,-5.59 -10.72,-5.6 -10.71,-5.62 -10.72,-5.64 -10.69,-5.63 -10.64,-5.65 -10.57,-5.66 -10.49,-5.68 -10.39,-5.68 -10.29,-5.71 -10.15,-5.7 -10.02,-5.73 -9.85,-5.73 -9.7,-5.74 -9.52,-5.78 -9.34,-5.77 -9.14,-5.78 -8.94,-5.8 -8.72,-5.83 -8.49,-5.83 -8.29,-5.84 -8.05,-5.86 -7.79,-5.86 -7.57,-5.9 -7.29,-5.9 -7.05,-5.91 -6.8,-5.92 -6.52,-5.94 -6.26,-5.97 -5.99,-5.96 -5.72,-5.98 -5.44,-6 -5.14,-6.01 -4.89,-6.02 -4.59,-6.03 -4.32,-6.04 -4.02,-6.06 -3.75,-6.08 -3.44,-6.08 -3.16,-6.09 -2.89,-6.1 -2.58,-6.12 -2.3,-6.14 -2.01,-6.13 -1.72,-6.14 -1.45,-6.15 -1.15,-6.16 -0.87,-6.18 -0.6,-6.17 -0.3,-6.19 -0.03,-6.19 0.24,-6.2 0.52,-6.2 0.81,-6.2 1.05,-6.22 1.33,-6.21 1.58,-6.22 1.86,-6.22 2.1,-6.23 2.36,-6.21 2.61,-6.23 2.85,-6.23 3.1,-6.22 3.33,-6.23 3.55,-6.21 3.79,-6.23 4.01,-6.22 4.23,-6.22 4.44,-6.21 4.65,-6.22 4.85,-6.2 5.04,-6.2 5.25,-6.21 5.42,-6.2 5.6,-6.18 5.78,-6.18 5.95,-6.19 6.11,-6.17 6.26,-6.16 6.41,-6.16 6.57,-6.16 6.7,-6.15 6.83,-6.13 6.95,-6.15 7.08,-6.12 7.18,-6.12 7.29,-6.12 7.38,-6.1 7.48,-6.1 7.56,-6.1 7.63,-6.09 7.7,-6.08 7.77,-6.07 7.83,-6.08 7.86,-6.05 7.91,-6.06 7.94,-6.05 7.96,-6.04 7.99,-6.03 8,-6.04 23.95,-18.05 7.94,-6.01 7.93,-6 7.86,-6 7.84,-5.99 7.77,-6 7.72,-5.98 7.64,-5.98 7.57,-5.98 7.46,-5.97 7.37,-5.96 7.27,-5.97 7.16,-5.95 7.03,-5.95 6.9,-5.95 6.75,-5.96 6.63,-5.95 6.44,-5.94 6.31,-5.95 6.11,-5.94 5.96,-5.94 5.75,-5.92 5.57,-5.94 5.36,-5.94 5.14,-5.92 4.94,-5.93 4.7,-5.94 4.48,-5.92 4.24,-5.93 4.01,-5.92 3.74,-5.93 3.49,-5.92 3.23,-5.92 2.97,-5.93 2.69,-5.92 2.43,-5.93 2.13,-5.92 1.86,-5.93 1.57,-5.92 1.29,-5.93 0.99,-5.92 0.69,-5.93 0.39,-5.92 0.1,-5.92 -0.2,-5.94 -0.51,-5.93 -0.79,-5.92 -1.11,-5.94 -1.4,-5.94 -1.71,-5.94 -2,-5.92 -2.29,-5.94 -2.57,-5.95 -2.89,-5.94 -3.17,-5.94 -3.45,-5.96 -3.72,-5.94 -4.01,-5.96 -4.27,-5.95 -4.55,-5.95 -4.8,-5.96 -5.07,-5.96 -5.3,-5.95 -5.56,-5.97 -5.79,-5.97 -6.02,-5.97 -6.24,-5.97 -6.46,-5.98 -6.67,-5.98 -6.87,-5.99 -7.06,-5.98 -7.26,-5.99 -7.42,-5.99 -7.6,-5.98 -7.76,-6.01 -7.91,-5.99 -8.05,-6.01 -8.18,-6.01 -8.33,-6.01 -8.42,-6.02 -8.55,-6.01 -8.64,-6.02 -8.73,-6.03 -8.82,-6.03 -8.9,-6.03 -8.94,-6.04 -9.02,-6.05 -9.07,-6.03 -9.1,-6.05 -9.13,-6.05 -9.15,-6.06 -9.18,-6.07 -9.17,-6.06 -9.17,-6.06 -9.16,-6.08 -9.14,-6.08 -9.12,-6.08 -9.08,-6.09 -9.04,-6.09 -8.99,-6.09 -8.93,-6.1 -8.87,-6.11 -8.79,-6.11 -8.73,-6.1 -8.63,-6.12 -8.53,-6.12 -8.44,-6.12 -8.34,-6.13 -8.22,-6.13 -8.1,-6.13 -7.97,-6.15 -7.84,-6.15 -7.71,-6.15 -7.56,-6.14 -7.41,-6.16 -7.25,-6.16 -7.09,-6.16 -6.93,-6.18 -6.75,-6.17 -6.58,-6.17 -6.38,-6.18 -6.21,-6.19 -6.01,-6.19 -5.81,-6.19 -5.6,-6.18 -5.4,-6.21 -5.19,-6.18 -4.97,-6.2 -4.74,-6.21 -4.52,-6.22 -4.28,-6.2 -4.05,-6.21 -3.81,-6.22 -3.57,-6.21 -3.32,-6.22 -3.06,-6.22 -2.82,-6.23 -2.56,-6.21 -2.28,-6.23 -2.02,-6.22 -1.74,-6.23 -1.49,-6.23 -1.19,-6.21 -0.92,-6.23 -0.64,-6.23 -0.34,-6.23 -0.04,-6.22 0.23,-6.23 0.53,-6.22 0.83,-6.23 1.14,-6.21 1.44,-6.22 1.75,-6.21 2.04,-6.22 2.37,-6.2 2.67,-6.21 2.99,-6.19 3.31,-6.21 3.62,-6.18 3.92,-6.19 4.26,-6.19 4.57,-6.18 4.9,-6.17 5.2,-6.16 5.52,-6.15 5.86,-6.14 6.16,-6.15 6.46,-6.14 6.8,-6.11 7.09,-6.12 7.41,-6.09 7.72,-6.09 8.02,-6.09 8.31,-6.07 8.61,-6.05 8.9,-6.05 9.17,-6.02 9.46,-6.02 9.71,-6 9.99,-5.99 10.24,-5.96 10.48,-5.96 10.71,-5.92 10.95,-5.93 11.14,-5.89 11.35,-5.87 11.53,-5.86 11.7,-5.84 11.86,-5.81 11.99,-5.79 12.12,-5.77 12.23,-5.75 12.3,-5.71 12.37,-5.69 12.41,-5.66 12.44,-5.65 12.43,-5.6 12.42,-5.6 24.62,-11.07 12.19,-5.49 12.04,-5.46 11.89,-5.42 11.7,-5.4 11.49,-5.35 11.24,-5.33 10.96,-5.29 10.65,-5.26 10.33,-5.2 9.94,-5.18 9.56,-5.13 9.15,-5.1 8.69,-5.05 8.19,-5.01 7.69,-4.97 7.17,-4.93 6.61,-4.88 6.02,-4.83 5.42,-4.79 4.81,-4.74 4.16,-4.71 3.52,-4.63 2.85,-4.6 2.18,-4.54 1.48,-4.5 0.81,-4.44 0.12,-4.34 -0.55,-4.29 -1.24,-4.23 -1.89,-4.19 -2.55,-4.12 -3.2,-4.08 -3.84,-4.02 -4.45,-3.97 -5.06,-3.9 -5.67,-3.86 -6.21,-3.8 -6.77,-3.75 -7.28,-3.67 -7.79,-3.64 -8.25,-3.57 -8.72,-3.5 -9.13,-3.47 -9.52,-3.4 -9.88,-3.33 -10.21,-3.29 -10.53,-3.23 -10.81,-3.17 -11.06,-3.11 -11.28,-3.06 -11.47,-3 -11.64,-2.94 -11.78,-2.87 -11.91,-2.83 -12,-2.78 -12.06,-2.7 -12.11,-2.67 -12.12,-2.59 -12.13,-2.56 -12.1,-2.48 -12.07,-2.44 -12.01,-2.37 -11.92,-2.34 -11.83,-2.27 -11.72,-2.21 -11.59,-2.16 -11.46,-2.13 -11.29,-2.05 -11.13,-2 -10.95,-1.95 -10.75,-1.9 -10.55,-1.86 -10.35,-1.81 -10.13,-1.75 -9.89,-1.69 -9.65,-1.65 -9.43,-1.61 -9.17,-1.54 -8.9,-1.51 -8.66,-1.46 -8.4,-1.4 -8.13,-1.37 -7.85,-1.31 -7.59,-1.27 -7.3,-1.23 -7.03,-1.17 -6.75,-1.14 -6.46,-1.1 -6.18,-1.04 -5.9,-1 -5.61,-0.97 -5.33,-0.91 -5.04,-0.88 -4.76,-0.83 -4.48,-0.81 -4.19,-0.74 -3.91,-0.73 -3.64,-0.66 -3.34,-0.64 -3.08,-0.6 -2.79,-0.56 -2.53,-0.52 -2.25,-0.48 -1.98,-0.46 -1.7,-0.4 -1.46,-0.39 -1.18,-0.34 -0.92,-0.3 -0.66,-0.28 -0.42,-0.24 -0.15,-0.2 0.1,-0.17 0.33,-0.14 0.58,-0.11 0.84,-0.08 1.05,-0.04 1.29,-0.02 1.53,0.02 1.76,0.05 1.97,0.07 2.2,0.11 2.42,0.14 2.62,0.15 2.84,0.2 3.04,0.22 3.25,0.23 3.46,0.28 3.63,0.29 3.84,0.34 4.01,0.34 4.21,0.38 4.38,0.4 4.57,0.42 4.73,0.46 4.9,0.46 5.06,0.49 5.22,0.51 5.38,0.55 5.52,0.56 5.68,0.59 5.81,0.61 5.97,0.62 6.07,0.64 6.22,0.67 6.34,0.69 6.47,0.71 6.56,0.72 6.69,0.75 6.8,0.75 6.88,0.79 6.99,0.79 7.08,0.82 7.16,0.83 7.26,0.85 7.31,0.87 7.39,0.88 7.47,0.9 7.52,0.91 7.57,0.93 7.63,0.93 7.68,0.96 7.71,0.97 7.74,0.99 7.79,0.99 7.81,1.02 7.82,1.03 7.84,1.02 7.84,1.05 7.86,1.06 7.85,1.07 7.84,1.08 7.84,1.08 7.81,1.11 7.78,1.11 7.77,1.12 7.73,1.13 7.69,1.14 7.66,1.14 7.59,1.16 7.55,1.15 7.49,1.18 7.42,1.17 7.35,1.19 7.29,1.18 7.2,1.2 7.12,1.2 7.04,1.21 6.94,1.21 6.84,1.2 6.76,1.22 6.63,1.23 6.54,1.22 6.43,1.23 6.31,1.22 6.17,1.24 6.08,1.23 5.92,1.24 5.82,1.23 5.67,1.24 5.55,1.23 5.4,1.24 5.27,1.23 5.12,1.24 4.98,1.22 4.83,1.23 4.69,1.22 4.54,1.22 4.38,1.23 4.23,1.22 4.1,1.2 3.92,1.21 3.78,1.19 3.63,1.2 3.47,1.19 3.32,1.18 3.18,1.16 3.01,1.17 2.87,1.15 2.72,1.15 2.56,1.14 2.43,1.13 2.29,1.12 2.14,1.11 2,1.08 1.86,1.08 1.72,1.07 1.59,1.06 1.46,1.04 1.35,1.03 1.2,1.01 1.1,1 0.97,0.98 0.86,0.96 0.76,0.94 0.66,0.93 0.54,0.92 0.46,0.88 0.36,0.87 0.26,0.86 0.18,0.81 0.11,0.81 0.04,0.79 -0.04,0.76 -0.11,0.74 -0.15,0.71 -0.22,0.69 -0.28,0.65 -0.32,0.64 -0.35,0.61 -0.4,0.58 -0.43,0.56 -0.46,0.53 -0.47,0.48 -0.5,0.47 -0.5,0.43 -0.53,0.4 -0.51,0.38 -0.53,0.33 -0.51,0.32 -0.52,0.27 -0.5,0.23 -0.48,0.21 -0.46,0.17 -0.44,0.13 -0.42,0.1 -0.37,0.06 -0.36,0.03 -0.31,-0.02 -0.28,-0.05 -0.25,-0.09 -0.19,-0.14 -0.15,-0.16 -0.1,-0.21 -0.07,-0.25 -0.01,-0.28 0.04,-0.33 0.08,-0.37 0.14,-0.41 0.18,-0.45 0.22,-0.49 0.28,-0.54 0.32,-0.58 0.36,-0.62 0.4,-0.66 0.45,-0.7 0.47,-0.75 0.51,-0.79 0.54,-0.83 0.56,-0.86 0.58,-0.91 0.59,-0.96 0.59,-1 0.61,-1.04 0.58,-1.08 0.59,-1.11 0.55,-1.17 0.53,-1.21 0.48,-1.24 0.45,-1.28 0.38,-1.33 0.31,-1.36 0.24,-1.4 0.15,-1.45 0.03,-1.48 -0.07,-1.53 -0.21,-1.55 -0.35,-1.6 -0.5,-1.63 -0.68,-1.67 -0.86,-1.71 -1.06,-1.74 -1.3,-1.78 -1.51,-1.81 -1.76,-1.84 -2.04,-1.89 -2.31,-1.91 -2.63,-1.96 -2.94,-1.97 -3.29,-2.01 -3.63,-2.05 -4.01,-2.07 -4.4,-2.11 -4.82,-2.14 -5.23,-2.16 -5.69,-2.19 -6.14,-2.24 -6.62,-2.24 -7.12,-2.28 -7.65,-2.3 -8.15,-2.35 -8.7,-2.36 -9.26,-2.37 -9.82,-2.42 -10.42,-2.42 -11,-2.47 -11.6,-2.47 -12.22,-2.51 -12.86,-2.53 -13.47,-2.54 -14.11,-2.58 -14.75,-2.58 -15.38,-2.61 -16.04,-2.63 -16.7,-2.66 -17.34,-2.66 -17.98,-2.69 -18.62,-2.7 -19.26,-2.73 -19.88,-2.74 -20.52,-2.75 -21.14,-2.78 -21.74,-2.78 -22.34,-2.81 -22.92,-2.83 -23.49,-2.83 -24.04,-2.84 -24.6,-2.87 -25.12,-2.88 -25.64,-2.89 -26.11,-2.91 -26.61,-2.91 -27.06,-2.93 -27.49,-2.94 -27.91,-2.95 -28.31,-2.97 -28.69,-2.98 -29.06,-2.99 -29.37,-2.99 -29.7,-3.02 -30,-3.02 -30.27,-3.04 -30.52,-3.04 -30.76,-3.05 -30.97,-3.07 -31.15,-3.07 -31.33,-3.07 -31.48,-3.1 -31.62,-3.11 -31.72,-3.11 -31.82,-3.12 -31.9,-3.12 -31.93,-3.13 -32,-3.15 -32.01,-3.17 -32.01,-3.15 -32.01,-3.18 -31.97,-3.17 -31.93,-3.19 -31.88,-3.19 -31.8,-3.21 -31.72,-3.22 -31.61,-3.22 -31.5,-3.22 -31.39,-3.23 -31.25,-3.24 -31.09,-3.25 -30.94,-3.26 -30.79,-3.26 -30.6,-3.28 -30.41,-3.27 -30.22,-3.29 -30.03,-3.29 -29.8,-3.29 -29.59,-3.3 -29.38,-3.31 -29.14,-3.32 -28.9,-3.32 -28.66,-3.33 -28.42,-3.33 -28.16,-3.34 -27.92,-3.35 -27.65,-3.35 -27.41,-3.35 -27.12,-3.37 -26.87,-3.36 -26.59,-3.37 -26.32,-3.38 -26.05,-3.38 -25.78,-3.38 -25.5,-3.4 -25.22,-3.39 -24.95,-3.39 -24.66,-3.42 -24.39,-3.4 -24.11,-3.41 -23.83,-3.43 -23.56,-3.41 -23.28,-3.43 -23.01,-3.43 -22.72,-3.42 -22.45,-3.44 -22.17,-3.44 -21.91,-3.45 -21.65,-3.44 -21.36,-3.45 -21.11,-3.46 -20.84,-3.45 -20.57,-3.46 -20.32,-3.45 -20.05,-3.47 -19.8,-3.47 -19.55,-3.47 -19.28,-3.47 -19.04,-3.46 -18.8,-3.49 -18.55,-3.47 -18.3,-3.48 -18.08,-3.48 -17.83,-3.49 -17.6,-3.48 -17.35,-3.48 -17.14,-3.5 -16.91,-3.48 -16.68,-3.49 -16.47,-3.5 -16.25,-3.5 -16.02,-3.5 -15.8,-3.49 -15.61,-3.5 -15.41,-3.49 -15.19,-3.5 -14.99,-3.51 -14.79,-3.5 -14.58,-3.49 -14.4,-3.52 -14.21,-3.49 -14.01,-3.51 -13.83,-3.5 -13.64,-3.51 -13.46,-3.51 -13.29,-3.5 -13.12,-3.5 -12.93,-3.52 -12.76,-3.49 -12.59,-3.51 -12.43,-3.52 -12.26,-3.49 -12.11,-3.51 -11.94,-3.51 -11.78,-3.5 -11.63,-3.51 -11.47,-3.49 -11.34,-3.51 -11.17,-3.5 -11.04,-3.51 -10.88,-3.5 -10.75,-3.49 -10.61,-3.51 -10.47,-3.5 -10.34,-3.5 -10.19,-3.49 -10.08,-3.5 -9.93,-3.5 -9.83,-3.48 -9.68,-3.5 -9.56,-3.49 -9.44,-3.49 -9.32,-3.49 -9.2,-3.49 -9.09,-3.48 -8.97,-3.48 -8.86,-3.48 -8.75,-3.49 -8.63,-3.46 -8.53,-3.48 -8.43,-3.47 -8.31,-3.47 -8.21,-3.49 -8.12,-3.45 -8.02,-3.47 -7.91,-3.47 -7.81,-3.45 -7.73,-3.47 -7.62,-3.46 -7.53,-3.45 -7.44,-3.44 -7.35,-3.46 -7.27,-3.44 -7.17,-3.45 -7.08,-3.44 -7.01,-3.43 -6.92,-3.45 -6.83,-3.42 -6.76,-3.43 -6.67,-3.43 -6.59,-3.42 -6.52,-3.42 -6.44,-3.42 -6.37,-3.42 -6.28,-3.39 -6.22,-3.42 -6.14,-3.4 -6.07,-3.4 -6,-3.4 -5.93,-3.38 -5.87,-3.39 -5.79,-3.38 -5.74,-3.39 -5.66,-3.37 -5.6,-3.37 -5.54,-3.37 -5.47,-3.36 -5.41,-3.37 -5.36,-3.35 -5.29,-3.35 -5.23,-3.35 -5.17,-3.34 -5.12,-3.33 -5.06,-3.35 -5,-3.31 -4.94,-3.33 -4.9,-3.32 -4.84,-3.31 -4.78,-3.31 -4.74,-3.3 -4.68,-3.3 -4.63,-3.29 -4.58,-3.29 -4.53,-3.29 -4.49,-3.27 -4.43,-3.26 -4.39,-3.26 -4.34,-3.26 -4.3,-3.26 -4.25,-3.25 -4.19,-3.23 -4.16,-3.24 -4.12,-3.23 -4.08,-3.22 -4.02,-3.22 -3.99,-3.2 -3.95,-3.21 -3.9,-3.19 -3.87,-3.19 -3.83,-3.18 -3.78,-3.18 -3.75,-3.16 -3.71,-3.15 -3.67,-3.16 -3.63,-3.135 -3.6,-3.136 -3.56,-3.137 -3.52,-3.121 -3.49,-3.11 -3.46,-3.105 -3.41,-3.094 -3.39,-3.082 -3.35,-3.082 -3.32,-3.078 -3.29,-3.051 -3.25,-3.054 -3.22,-3.051 -3.19,-3.028 -3.16,-3.023 -3.13,-3.023 -3.1,-3.012 -3.07,-2.985 -3.03,-2.996 -3.01,-2.968 -2.98,-2.969 -2.95,-2.957 -2.93,-2.942 -2.89,-2.941 -2.87,-2.914 -2.84,-2.914 -2.82,-2.899 -2.78,-2.902 -2.76,-2.871 -2.74,-2.871 -2.71,-2.844 -2.69,-2.844 -2.65,-2.832 -2.64,-2.816 -2.61,-2.805 -2.59,-2.789 -2.56,-2.773 -2.54,-2.762 -2.52,-2.762 -2.49,-2.73 -2.47,-2.723 -2.45,-2.703 -2.43,-2.691 -2.4,-2.68 -2.38,-2.664 -2.36,-2.649 -2.35,-2.624 -2.31,-2.622 -2.3,-2.593 -2.29,-2.582 -2.25,-2.567 -2.24,-2.539 -2.22,-2.523 -2.2,-2.512 -2.18,-2.5 -2.16,-2.469 -2.14,-2.457 -2.13,-2.441 -2.1,-2.414 -2.09,-2.387 -2.07,-2.371 -2.06,-2.359 -2.03,-2.332 -2.02,-2.301 -2,-2.289 -1.98,-2.262 -1.97,-2.25 -1.94,-2.219 -1.94,-2.191 -1.92,-2.164 -1.9,-2.153 -1.88,-2.109 -1.87,-2.094 -1.85,-2.07 -1.84,-2.023 -1.82,-2.012 -1.81,-1.985 -1.8,-1.941 -1.77,-1.93 -1.77,-1.886 -1.74,-1.86 -1.74,-1.816 -1.72,-1.793 -1.7,-1.762 -1.7,-1.719 -1.68,-1.695 -1.66,-1.648 -1.65,-1.61 -1.64,-1.582 -1.62,-1.539 -1.61,-1.5 -1.6,-1.457 -1.587,-1.414 -1.571,-1.359 -1.558,-1.332 -1.547,-1.293 -1.535,-1.235 -1.52,-1.179 -1.507,-1.137 -1.497,-1.098 -1.484,-1.039 -1.469,-0.984 -1.457,-0.93 -1.449,-0.875 -1.434,-0.82 -1.421,-0.762 -1.411,-0.695 -1.394,-0.637 -1.387,-0.57 -1.375,-0.512 -1.359,-0.445 -1.352,-0.375 -1.336,-0.305 -1.324,-0.223 -1.316,-0.164 -1.297,-0.086 -1.289,0 -1.278,0.086 -1.265,0.153 -1.25,0.25 -1.239,0.332 -1.226,0.418 -1.215,0.496 -1.203,0.613 -1.188,0.691 -1.175,0.793 -1.16,0.887 -1.149,1 -1.137,1.082 -1.121,1.207 -1.105,1.305 -1.094,1.414 -1.078,1.527 -1.063,1.637 -1.05,1.75 -1.036,1.859 -1.019,1.981 -1.004,2.098 -0.988,2.207 -0.973,2.328 -0.957,2.457 -0.941,2.566 -0.926,2.692 -0.906,2.804 -0.891,2.926 -0.875,3.039 -0.859,3.164 -0.84,3.274 -0.821,3.386 -0.808,3.496 -0.789,3.61 -0.77,3.715 -0.754,3.832 -0.738,3.925 -0.723,4.024 -0.703,4.137 -0.683,4.23 -0.672,4.316 -0.652,4.411 -0.625,4.398 -0.61,4.496 -0.597,4.578 -0.579,4.649 -0.566,4.718 -0.551,4.801 -0.535,4.856 -0.523,4.925 -0.508,4.997 -0.492,5.05 -0.485,5.106 -0.469,5.176 -0.457,5.203 -0.445,5.269 -0.43,5.317 -0.421,5.355 -0.411,5.41 -0.398,5.442 -0.391,5.48 -0.379,5.52 -0.363,5.55 -0.359,5.594 -0.348,5.633 -0.34,5.645 -0.328,5.675 -0.32,5.719 -0.313,5.727 -0.304,5.761 -0.297,5.786 -0.289,5.815 -0.278,5.83 -0.273,5.83 -0.266,5.88 -0.261,5.88 -0.25,5.91 -0.247,5.91 -0.238,5.94 -0.234,5.95 -0.227,5.97 -0.222,5.98 -0.215,5.98 -0.211,6 -0.203,6.01 -0.2,6.02 -0.195,6.04 -0.187,6.05 -0.188,6.05 -0.18,6.06 -0.175,6.08 -0.172,6.08 -0.168,6.07 -0.16,6.11 -0.16,6.09 -0.157,6.11 -0.152,6.11 -0.148,6.12 -0.141,6.12 -0.141,6.13 -0.14,6.14 -0.133,6.14 -0.133,6.15 -0.125,6.15 -0.125,6.15 -0.125,6.16 -0.117,6.16 -0.117,6.16 -0.114,6.17 -0.109,6.17 -0.109,6.16 -0.106,6.19 -0.105,6.18 -0.102,6.17 -0.098,6.19 -0.097,6.19 -0.094,6.19 -0.094,6.18 -0.09,6.21 -0.089,6.18 -0.086,6.21 -0.086,6.18 -0.082,6.21 -0.082,6.2 -0.078,6.2 -0.079,6.2 -0.078,6.21 -0.074,6.21 -0.074,6.2 -0.07,6.22 -0.071,6.2 -0.066,6.22 -0.07,6.22 -0.067,6.2 -0.062,6.21 -0.063,6.22 -0.062,6.21 -0.063,6.22 -0.062,6.22 -0.059,6.21 -0.059,6.22 -0.054,6.23 -0.055,6.22 -0.055,6.21 -0.054,6.22 -0.055,6.23 -0.051,6.21 -0.051,6.22 -0.05,6.23 -0.051,6.22 -0.047,6.23 -0.051,6.21 -0.047,6.23 -0.043,6.22 -0.047,6.23 -0.046,6.21 -0.043,6.23 -0.047,6.22 -0.043,6.23 -0.043,6.23 -0.043,6.21 -0.039,6.23 -0.043,6.22 -0.039,6.23 -0.039,6.23 -0.043,6.21 -0.039,6.23 -0.039,6.23 -0.039,6.22 -0.039,6.23 -0.036,6.23 -0.039,6.23 -0.035,6.22 -0.039,6.23 -0.035,6.23 -0.035,6.21 -0.039,6.23 -0.035,6.23 -0.036,6.23 -0.035,6.22 -0.035,6.23 -0.035,6.23 -0.035,6.23 -0.035,6.21 -0.036,6.23 -0.035,6.23 -0.031,6.23 -0.035,6.22 -0.035,6.23 -0.035,6.23 -0.036,6.23 -0.031,6.22 -0.035,6.22 -0.035,6.23 -0.031,6.23 -0.036,6.22 -0.035,6.23 -0.031,6.23 -0.035,6.23 -0.035,6.21 -0.032,6.24 -0.035,6.23 -0.035,6.23 -0.035,6.21 -0.031,6.23 -0.035,6.23 -0.036,6.23 -0.035,6.22 -0.035,6.23 -0.035,6.23 -0.031,6.23 -0.035,6.21 -0.039,6.23 -0.032,6.23 -0.035,6.23 -0.039,6.22 -0.035,6.23 -0.035,6.23 -0.035,6.23 -0.036,6.21 -0.039,6.23 -0.035,6.23 -0.039,6.23 -0.035,6.22 -0.035,6.23 -0.039,6.23 -0.039,6.23 -0.035,6.21 -0.04,6.24 -0.039,6.23 -0.039,6.23 -0.039,6.21 -0.035,6.23 -0.043,6.23 -0.039,6.23 -0.039,6.22 -0.039,6.23 -0.043,6.23 -0.039,6.22 -0.039,6.22 -0.043,6.23 -0.043,6.23 -0.039,6.23 -0.043,6.22 -0.043,6.23 -0.043,6.23 -0.043,6.23 -0.043,6.21 -0.043,6.23 -0.043,6.23 -0.043,6.23 -0.043,6.22 -0.047,6.23 -0.043,6.23 -0.047,6.23 -0.043,6.21 -0.046,6.23 -0.047,6.24 -0.047,6.23 -0.047,6.21 -0.047,6.23 -0.047,6.23 -0.047,6.23 -0.05,6.22 -0.047,6.23 -0.051,6.22 -0.047,6.23 -0.047,6.22 -0.051,6.23 -0.05,6.23 -0.051,6.23 -0.051,6.22 -0.051,6.23 -0.051,6.23 -0.05,6.23 -0.055,6.21 -0.051,6.23 -0.054,6.23 -0.051,6.23 -0.055,6.22 -0.051,6.23 -0.054,6.23 -0.055,6.23 -0.055,6.21 -0.054,6.23 -0.055,6.24 -0.059,6.22 -0.054,6.22 -0.055,6.23 -0.059,6.23 -0.054,6.23 -0.059,6.22 -0.059,6.22 -0.058,6.23 -0.055,6.23 -0.058,6.22 -0.059,6.23 -0.063,6.23 -0.058,6.23 -0.059,6.22 -0.058,6.23 -0.063,6.23 -0.062,6.23 -0.059,6.21 -0.062,6.23 -0.063,6.23 -0.062,6.23 -0.059,6.23 -0.063,6.22 -0.066,6.23 -0.062,6.23 -0.063,6.23 -0.062,6.21 -0.067,6.23 -0.066,6.23 -0.063,6.23 -0.066,6.22 -0.067,6.23 -0.066,6.23 -0.062,6.23 -0.067,6.21 -0.066,6.23 -0.071,6.23 -0.066,6.23 -0.066,6.22 -0.071,6.23 -0.066,6.23 -0.07,6.23 -0.067,6.22 -0.07,6.23 -0.07,6.23 -0.071,6.23 -0.07,6.21 -0.07,6.23 -0.071,6.23 -0.07,6.23 -0.07,6.22 -0.075,6.23 -0.07,6.23 -0.074,6.23 -0.07,6.21 -0.075,6.23 -0.074,6.23 -0.07,6.23 -0.074,6.22 -0.075,6.23 -0.074,6.23 -0.074,6.23 -0.074,6.21 -0.074,6.23 -0.079,6.23 -0.074,6.23 -0.078,6.22 -0.074,6.23 -0.078,6.23 -0.078,6.23 -0.079,6.22 -0.074,6.23 -0.078,6.23 -0.078,6.22 -0.078,6.22 -0.078,6.23 -0.082,6.23 -0.078,6.23 -0.079,6.22 -0.082,6.22 -0.078,6.23 -0.082,6.24 -0.082,6.21 -0.078,6.23 -0.082,6.23 -0.082,6.23 -0.082,6.22 -0.082,6.23 -0.082,6.23 -0.082,6.23 -0.082,6.21 -0.086,6.23 -0.082,6.23 -0.082,6.23 -0.086,6.22 -0.082,6.23 -0.086,6.23 -0.086,6.23 -0.086,6.22 -0.086,6.23 -0.086,6.22 -0.086,6.23 -0.086,6.22 -0.086,6.23 -0.085,6.23 -0.09,6.23 -0.086,6.21 -0.09,6.23 -0.086,6.23 -0.09,6.24 -0.09,6.21 -0.086,6.23 -0.09,6.23 -0.089,6.23 -0.09,6.22 -0.09,6.23 -0.09,6.23 -0.094,6.23 -0.089,6.21 -0.094,6.23 -0.09,6.23 -0.094,6.23 -0.09,6.23 -0.093,6.22 -0.094,6.23 -0.094,6.23 -0.094,6.23 -0.093,6.21 -0.094,6.23 -0.094,6.23 -0.094,6.23 -0.097,6.22 -0.094,6.23 -0.098,6.23 -0.093,6.23 -0.098,6.21 -0.098,6.23 -0.097,6.24 -0.098,6.23 -0.098,6.21 -0.097,6.23 -0.098,6.23 -0.098,6.23 -0.101,6.22 -0.098,6.23 -0.102,6.23 -0.097,6.22 -0.102,6.22 -0.101,6.23 -0.102,6.23 -0.101,6.23 -0.102,6.22 -0.098,6.23 -0.105,6.23 -0.102,6.23 -0.105,6.21 -0.102,6.23 -0.105,6.23 -0.102,6.23 -0.105,6.22 -0.106,6.23 -0.105,6.23 -0.106,6.23 -0.105,6.21 -0.106,6.23 -0.105,6.24 -0.109,6.23 -0.106,6.21 -0.109,6.23 -0.106,6.23 -0.109,6.23 -0.109,6.22 -0.11,6.23 -0.109,6.22 -0.11,6.23 -0.109,6.22 -0.113,6.23 -0.11,6.23 -0.113,6.23 -0.109,6.22 -0.114,6.23 -0.113,6.23 -0.113,6.23 -0.113,6.21 -0.114,6.23 -0.113,6.23 -0.113,6.23 -0.117,6.22 -0.114,6.23 -0.117,6.23 -0.113,6.23 -0.117,6.21 -0.118,6.23 -0.117,6.23 -0.121,6.23 -0.117,6.23 -0.117,6.22 -0.117,6.23 -0.122,6.23 -0.121,6.23 -0.117,6.21 -0.121,6.23 -0.121,6.23 -0.121,6.23 -0.121,6.22 -0.125,6.23 -0.121,6.23 -0.125,6.23 -0.121,6.22 -0.125,6.23 -0.125,6.23 -0.125,6.23 -0.125,6.21 -0.125,6.23 -0.125,6.23 -0.129,6.23 -0.125,6.22 -0.129,6.23 -0.125,6.23 -0.129,6.23 -0.129,6.21 -0.129,6.23 -0.129,6.23 -0.133,6.23 -0.129,6.22 -0.132,6.23 -0.129,6.23 -0.133,6.23 -0.133,6.21 -0.133,6.23 -0.132,6.23 -0.133,6.23 -0.137,6.22 -0.133,6.23 -0.137,6.23 -0.136,6.23 -0.133,6.22 -0.137,6.23 -0.136,6.23 -0.141,6.23 -0.137,6.21 -0.137,6.23 -0.14,6.23 -0.141,6.23 -0.14,6.22 -0.137,6.23 -0.145,6.22 -0.14,6.24 -0.141,6.21 -0.141,6.23 -0.144,6.23 -0.145,6.23 -0.14,6.22 -0.149,6.23 -0.144,6.23 -0.145,6.23 -0.144,6.21 -0.149,6.23 -0.144,6.23 -0.149,6.23 -0.148,6.22 -0.149,6.23 -0.148,6.23 -0.148,6.23 -0.153,6.22 -0.148,6.23 -0.153,6.23 -0.152,6.22 -0.152,6.23 -0.153,6.22 -0.152,6.23 -0.152,6.23 -0.157,6.23 -0.156,6.21 -0.152,6.23 -0.156,6.24 -0.157,6.23 -0.16,6.21 -0.156,6.23 -0.156,6.23 -0.16,6.23 -0.157,6.22 -0.164,6.23 -0.16,6.22 -0.16,6.23 -0.16,6.22 -0.16,6.23 -0.164,6.23 -0.164,6.22 -0.165,6.23 -0.164,6.22 -0.164,6.23 -0.168,6.22 -0.164,6.23 -0.168,6.23 -0.168,6.22 -0.168,6.23 -0.168,6.23 -0.168,6.22 -0.171,6.23 -0.168,6.23 -0.172,6.22 -0.172,6.23 -0.172,6.23 -0.172,6.22 -0.172,6.23 -0.176,6.23 -0.175,6.22 -0.176,6.23 -0.172,6.22 -0.18,6.23 -0.175,6.23 -0.18,6.22 -0.18,6.23 -0.18,6.23 -0.179,6.22 -0.18,6.23 -0.18,6.23 -0.183,6.22 -0.18,6.23 -0.187,6.22 -0.184,6.23 -0.184,6.22 -0.183,6.23 -0.188,6.23 -0.187,6.22 -0.188,6.23 -0.187,6.23 -0.192,6.22 -0.191,6.23 -0.187,6.22 -0.192,6.23 -0.195,6.23 -0.192,6.22 -0.191,6.22 -0.195,6.23 -0.2,6.23 -0.195,6.22 -0.195,6.23 -0.199,6.23 -0.2,6.22 -0.199,6.23 -0.199,6.22 -0.199,6.23 -0.203,6.23 -0.204,6.22 -0.203,6.23 -0.207,6.22 -0.207,6.23 -0.203,6.22 -0.207,6.23 -0.211,6.22 -0.207,6.23 -0.211,6.22 -0.211,6.23 -0.215,6.22 -0.21,6.23 -0.215,6.23 -0.215,6.22 -0.215,6.23 -0.219,6.22 -0.218,6.22 -0.219,6.23 -0.223,6.23 -0.219,6.22 -0.222,6.23 -0.223,6.22 -0.227,6.23 -0.226,6.22 -0.227,6.23 -0.23,6.22 -0.227,6.22 -0.234,6.23 -0.231,6.22 -0.234,6.23 -0.234,6.22 -0.235,6.23 -0.238,6.22 -0.238,6.23 -0.239,6.22 -0.242,6.22 -0.242,6.23 -0.242,6.22 -0.246,6.23 -0.246,6.22 -0.25,6.23 -0.25,6.22 -0.25,6.22 -0.254,6.23 -0.254,6.22 -0.254,6.23 -0.258,6.22 -0.262,6.23 -0.257,6.22 -0.266,6.22 -0.262,6.23 -0.265,6.22 -0.27,6.23 -0.269,6.22 -0.27,6.22 -0.273,6.23 -0.278,6.22 -0.277,6.22 -0.277,6.23 -0.282,6.22 -0.281,6.23 -0.285,6.22 -0.289,6.23 -0.289,6.22 -0.289,6.22 -0.297,6.23 -0.293,6.22 -0.301,6.23 -0.301,6.22 -0.3,6.22 -0.305,6.23 -0.309,6.22 -0.312,6.23 -0.313,6.22 -0.316,6.23 -0.316,6.22 -0.321,6.23 -0.324,6.22 -0.328,6.22 -0.328,6.23 -0.332,6.22 -0.336,6.23 -0.34,6.22 -0.34,6.23 -0.348,6.22 -0.347,6.23 -0.352,6.22 -0.355,6.23 -0.36,6.23 -0.363,6.22 -0.363,6.23 -0.371,6.22 -0.371,6.23 -0.379,6.22 -0.383,6.23 -0.383,6.22 -0.391,6.23 -0.394,6.23 -0.399,6.22 -0.402,6.23 -0.41,6.23 -0.41,6.22 -0.418,6.23 -0.426,6.23 -0.426,6.22 -0.433,6.23 -0.438,6.23 -0.445,6.22 -0.449,6.23 -0.457,6.22 -0.465,6.23 -0.469,6.22 -0.476,6.23 -0.481,6.23 -0.492,6.22 -0.496,6.23 -0.504,6.22 -0.512,6.23 -0.523,6.22 -0.528,6.23 -0.539,6.22 -0.547,6.22 -0.558,6.22 -0.567,6.23 -0.582,6.22 -0.589,6.22 -0.598,6.22 -0.617,6.21 -0.625,6.22 -0.641,6.22 -0.656,6.22 -0.672,6.21 -0.688,6.21 -0.707,6.21 -0.726,6.21 -0.746,6.22 -0.77,6.2 -0.797,6.21 -0.82,6.2 -0.855,6.2 -0.887,6.2 -0.926,6.2 -0.973,6.2 -1.023,6.19 -1.082,6.18 -1.156,6.2 -1.246,6.18 -1.364,6.18 -1.519,6.18 -1.746,6.17 -2.137,6.17 -3.027,6.17 -11.266,6.16" /></g></g><g
       id="g3301"
       transform="scale(0.1,0.1)"><g
         clip-path="url(#clipPath3305)"
         id="g3303"><path
           inkscape:connector-curvature="0"
           id="path3309"
           style="fill:none;stroke:#000000;stroke-width:13.875;stroke-linecap:butt;stroke-linejoin:round;stroke-miterlimit:10;stroke-opacity:1;stroke-dasharray:none"
           d="m 4904.56,925.547 0,-36.074" /><path
           inkscape:connector-curvature="0"
           id="path3311"
           style="fill:none;stroke:#000000;stroke-width:13.875;stroke-linecap:butt;stroke-linejoin:round;stroke-miterlimit:10;stroke-opacity:1;stroke-dasharray:none"
           d="m 3988.81,925.547 0,-36.074" /><path
           inkscape:connector-curvature="0"
           id="path3313"
           style="fill:none;stroke:#000000;stroke-width:13.875;stroke-linecap:butt;stroke-linejoin:round;stroke-miterlimit:10;stroke-opacity:1;stroke-dasharray:none"
           d="m 3073.05,925.547 0,-36.074" /><path
           inkscape:connector-curvature="0"
           id="path3315"
           style="fill:none;stroke:#000000;stroke-width:13.875;stroke-linecap:butt;stroke-linejoin:round;stroke-miterlimit:10;stroke-opacity:1;stroke-dasharray:none"
           d="m 2157.29,925.547 0,-36.074" /><path
           inkscape:connector-curvature="0"
           id="path3317"
           style="fill:none;stroke:#000000;stroke-width:13.875;stroke-linecap:butt;stroke-linejoin:round;stroke-miterlimit:10;stroke-opacity:1;stroke-dasharray:none"
           d="m 1241.54,925.547 0,-36.074" /><path
           inkscape:connector-curvature="0"
           id="path3319"
           style="fill:none;stroke:#000000;stroke-width:13.875;stroke-linecap:butt;stroke-linejoin:round;stroke-miterlimit:10;stroke-opacity:1;stroke-dasharray:none"
           d="m 735.375,925.547 4627.075,0" /></g></g><g
       id="g3321"
       transform="scale(0.1,0.1)"><g
         clip-path="url(#clipPath3325)"
         id="g3323"><path
           inkscape:connector-curvature="0"
           id="path3329"
           style="fill:#000000;fill-opacity:1;fill-rule:nonzero;stroke:none"
           d="m 834.016,443.793 c 0,-4.637 -0.289,-8.492 -0.868,-11.602 -0.578,-3.105 -1.515,-5.894 -2.816,-8.351 -2.023,-4.039 -4.41,-6.828 -7.156,-8.34 -2.746,-1.523 -5.348,-2.273 -7.805,-2.273 -3.324,0 -6.359,1.109 -9.105,3.355 -2.746,2.234 -4.914,4.871 -6.504,7.91 -0.578,1.305 -1.301,3.328 -2.168,6.078 -0.867,2.746 -1.699,5.813 -2.492,9.211 -0.793,3.403 -1.59,7.078 -2.383,11.059 -0.797,3.969 -1.52,7.867 -2.168,11.699 -0.653,3.828 -1.266,7.449 -1.844,10.848 -0.578,3.386 -1.012,6.312 -1.301,8.769 l -0.218,0 -30.786,-65.906 -16.691,0 41.625,89.758 c -0.867,4.773 -1.879,9.031 -3.035,12.793 -1.156,3.758 -2.387,7.008 -3.688,9.754 -1.301,2.457 -3,4.3 -5.093,5.535 -2.094,1.222 -4.227,1.832 -6.395,1.832 -2.023,0 -3.937,-0.43 -5.746,-1.289 -1.805,-0.875 -3.359,-1.957 -4.66,-3.262 -1.735,-1.734 -2.856,-3.719 -3.36,-5.953 -0.507,-2.246 -1.05,-4.371 -1.629,-6.395 l -3.468,0 c 0.867,9.532 2.64,17.008 5.312,22.434 2.676,5.426 6.684,8.133 12.031,8.133 4.047,0 7.625,-1.195 10.735,-3.582 3.105,-2.387 5.383,-5.02 6.828,-7.906 1.734,-3.469 3.434,-7.993 5.094,-13.559 1.664,-5.563 3.359,-11.527 5.093,-17.883 0.723,-3.039 1.59,-6.937 2.602,-11.711 1.012,-4.758 2.063,-9.824 3.145,-15.164 1.086,-5.355 2.168,-10.672 3.253,-15.945 1.083,-5.27 2.129,-9.934 3.141,-13.985 0.723,-3.023 1.664,-6.062 2.82,-9.101 1.157,-3.039 2.672,-5.563 4.551,-7.59 2.891,-2.746 6.071,-4.121 9.539,-4.121 1.879,0 3.723,0.512 5.532,1.527 1.804,1.012 3.285,2.746 4.441,5.203 0.578,1.012 1.051,2.387 1.41,4.122 0.363,1.734 0.688,3.023 0.977,3.898 l 3.25,0 0,0" /></g></g><g
       id="g3331"
       transform="scale(0.1,0.1)"><g
         clip-path="url(#clipPath3335)"
         id="g3333"><path
           inkscape:connector-curvature="0"
           id="path3339"
           style="fill:none;stroke:#000000;stroke-width:13.875;stroke-linecap:butt;stroke-linejoin:round;stroke-miterlimit:10;stroke-opacity:1;stroke-dasharray:none"
           d="m 783.656,925.547 0,-72.152" /><path
           inkscape:connector-curvature="0"
           id="path3341"
           style="fill:none;stroke:#000000;stroke-width:13.875;stroke-linecap:butt;stroke-linejoin:round;stroke-miterlimit:10;stroke-opacity:1;stroke-dasharray:none"
           d="m 1699.41,925.547 0,-72.152" /><path
           inkscape:connector-curvature="0"
           id="path3343"
           style="fill:#000000;fill-opacity:1;fill-rule:nonzero;stroke:none"
           d="m 1602.12,724.969 c 0,13.597 2.07,25.336 6.19,35.242 4.1,9.894 9.57,17.234 16.35,21.992 5.36,3.762 10.86,5.649 16.49,5.649 9.1,0 17.27,-4.637 24.49,-13.875 9.11,-11.575 13.66,-27.25 13.66,-47.051 0,-13.875 -1.98,-25.656 -5.96,-35.34 -3.97,-9.684 -9.07,-16.734 -15.28,-21.133 -6.21,-4.41 -12.14,-6.617 -17.79,-6.617 -11.41,0 -20.95,6.73 -28.61,20.16 -6.36,11.418 -9.54,25.086 -9.54,40.973 z m 17.34,-2.164 c 0,-16.469 2.03,-29.914 6.08,-40.321 3.32,-8.672 8.31,-13.015 14.96,-13.015 3.18,0 6.46,1.414 9.86,4.23 3.4,2.817 5.97,7.633 7.7,14.418 2.74,9.977 4.11,24.211 4.11,42.707 0,13.582 -1.44,24.934 -4.33,34.035 -2.02,6.801 -4.77,11.571 -8.24,14.321 -2.3,1.871 -5.21,2.816 -8.67,2.816 -3.9,0 -7.44,-1.734 -10.62,-5.203 -4.2,-4.914 -7.04,-12.613 -8.57,-23.09 -1.51,-10.473 -2.28,-20.785 -2.28,-30.898 z m 88.9,-39.668 c 2.73,0 5.05,-0.973 6.94,-2.93 1.87,-1.957 2.81,-4.23 2.81,-6.824 0,-2.75 -0.94,-5.067 -2.81,-6.938 -1.89,-1.886 -4.21,-2.816 -6.94,-2.816 -2.75,0 -5.06,0.93 -6.94,2.816 -1.88,1.871 -2.83,4.188 -2.83,6.938 0,2.746 0.95,5.051 2.83,6.937 1.88,1.871 4.19,2.817 6.94,2.817 z m 103.41,104.715 0,-3.262 c -7.81,-0.723 -14.16,-2.235 -19.08,-4.551 -4.91,-2.305 -9.75,-5.855 -14.53,-10.613 -4.77,-4.774 -8.71,-10.09 -11.82,-15.946 -3.11,-5.855 -5.74,-12.75 -7.91,-20.699 8.54,5.785 17.06,8.672 25.59,8.672 8.09,0 15.14,-3.289 21.13,-9.867 5.99,-6.574 9.01,-15.066 9.01,-25.473 0,-9.976 -3.04,-19.078 -9.12,-27.32 -7.23,-9.961 -16.83,-14.957 -28.83,-14.957 -8.25,0 -15.18,2.746 -20.82,8.242 -11.12,10.406 -16.69,23.988 -16.69,40.75 0,10.699 2.14,20.856 6.4,30.469 4.26,9.601 10.36,18.176 18.31,25.683 7.96,7.52 15.59,12.543 22.89,15.067 7.29,2.543 14.05,3.805 20.27,3.805 l 5.2,0 z m -54.85,-61.579 c -1.01,-7.949 -1.53,-14.375 -1.53,-19.285 0,-5.648 1.06,-11.754 3.16,-18.332 2.09,-6.574 5.16,-11.804 9.21,-15.718 3.04,-2.735 6.71,-4.106 11.06,-4.106 5.05,0 9.6,2.414 13.65,7.254 4.05,4.844 6.08,11.672 6.08,20.496 0,10.113 -2.03,18.813 -6.08,26.113 -4.05,7.297 -9.68,10.946 -16.92,10.946 -2.3,0 -4.73,-0.457 -7.25,-1.403 -2.53,-0.941 -6.33,-2.926 -11.38,-5.965" /><path
           inkscape:connector-curvature="0"
           id="path3345"
           style="fill:none;stroke:#000000;stroke-width:13.875;stroke-linecap:butt;stroke-linejoin:round;stroke-miterlimit:10;stroke-opacity:1;stroke-dasharray:none"
           d="m 2615.18,925.547 0,-72.152" /><path
           inkscape:connector-curvature="0"
           id="path3347"
           style="fill:#000000;fill-opacity:1;fill-rule:nonzero;stroke:none"
           d="m 2517.87,724.969 c 0,13.597 2.07,25.336 6.19,35.242 4.1,9.894 9.57,17.234 16.35,21.992 5.36,3.762 10.86,5.649 16.49,5.649 9.1,0 17.27,-4.637 24.49,-13.875 9.11,-11.575 13.66,-27.25 13.66,-47.051 0,-13.875 -1.98,-25.656 -5.96,-35.34 -3.97,-9.684 -9.07,-16.734 -15.28,-21.133 -6.21,-4.41 -12.14,-6.617 -17.79,-6.617 -11.41,0 -20.95,6.73 -28.61,20.16 -6.36,11.418 -9.54,25.086 -9.54,40.973 z m 17.34,-2.164 c 0,-16.469 2.03,-29.914 6.08,-40.321 3.32,-8.672 8.31,-13.015 14.96,-13.015 3.18,0 6.46,1.414 9.86,4.23 3.4,2.817 5.97,7.633 7.7,14.418 2.74,9.977 4.11,24.211 4.11,42.707 0,13.582 -1.44,24.934 -4.33,34.035 -2.02,6.801 -4.77,11.571 -8.24,14.321 -2.3,1.871 -5.21,2.816 -8.67,2.816 -3.9,0 -7.44,-1.734 -10.62,-5.203 -4.2,-4.914 -7.04,-12.613 -8.57,-23.09 -1.51,-10.473 -2.28,-20.785 -2.28,-30.898 z m 88.9,-39.668 c 2.73,0 5.05,-0.973 6.94,-2.93 1.87,-1.957 2.81,-4.23 2.81,-6.824 0,-2.75 -0.94,-5.067 -2.81,-6.938 -1.89,-1.886 -4.21,-2.816 -6.94,-2.816 -2.75,0 -5.06,0.93 -6.94,2.816 -1.88,1.871 -2.83,4.188 -2.83,6.938 0,2.746 0.95,5.051 2.83,6.937 1.88,1.871 4.19,2.817 6.94,2.817 z m 40.75,102.328 63.95,0 0,-3.469 -39.89,-118.367 -9.76,0 35.57,107.531 -32.75,0 c -6.64,0 -11.34,-0.805 -14.08,-2.387 -5.06,-2.75 -9.03,-6.937 -11.94,-12.585 l -2.59,0.874 11.49,28.403" /><path
           inkscape:connector-curvature="0"
           id="path3349"
           style="fill:none;stroke:#000000;stroke-width:13.875;stroke-linecap:butt;stroke-linejoin:round;stroke-miterlimit:10;stroke-opacity:1;stroke-dasharray:none"
           d="m 3530.93,925.547 0,-72.152" /><path
           inkscape:connector-curvature="0"
           id="path3351"
           style="fill:#000000;fill-opacity:1;fill-rule:nonzero;stroke:none"
           d="m 3433.62,724.969 c 0,13.597 2.07,25.336 6.19,35.242 4.1,9.894 9.57,17.234 16.35,21.992 5.36,3.762 10.86,5.649 16.49,5.649 9.1,0 17.27,-4.637 24.49,-13.875 9.11,-11.575 13.66,-27.25 13.66,-47.051 0,-13.875 -1.98,-25.656 -5.96,-35.34 -3.97,-9.684 -9.07,-16.734 -15.28,-21.133 -6.21,-4.41 -12.14,-6.617 -17.79,-6.617 -11.41,0 -20.95,6.73 -28.61,20.16 -6.36,11.418 -9.54,25.086 -9.54,40.973 z m 17.34,-2.164 c 0,-16.469 2.03,-29.914 6.08,-40.321 3.32,-8.672 8.31,-13.015 14.96,-13.015 3.18,0 6.46,1.414 9.86,4.23 3.4,2.817 5.97,7.633 7.7,14.418 2.74,9.977 4.11,24.211 4.11,42.707 0,13.582 -1.44,24.934 -4.33,34.035 -2.02,6.801 -4.77,11.571 -8.24,14.321 -2.3,1.871 -5.21,2.816 -8.67,2.816 -3.9,0 -7.44,-1.734 -10.62,-5.203 -4.2,-4.914 -7.04,-12.613 -8.57,-23.09 -1.51,-10.473 -2.28,-20.785 -2.28,-30.898 z m 88.9,-39.668 c 2.73,0 5.05,-0.973 6.94,-2.93 1.87,-1.957 2.81,-4.23 2.81,-6.824 0,-2.75 -0.94,-5.067 -2.81,-6.938 -1.89,-1.886 -4.21,-2.816 -6.94,-2.816 -2.75,0 -5.06,0.93 -6.94,2.816 -1.88,1.871 -2.83,4.188 -2.83,6.938 0,2.746 0.95,5.051 2.83,6.937 1.88,1.871 4.19,2.817 6.94,2.817 z m 57.23,42.929 c -9.54,7.797 -15.69,14.055 -18.44,18.743 -2.73,4.707 -4.1,9.574 -4.1,14.64 0,7.797 2.99,14.485 8.99,20.047 5.99,5.566 13.98,8.356 23.96,8.356 9.67,0 17.44,-2.61 23.3,-7.813 5.85,-5.203 8.78,-11.129 8.78,-17.773 0,-4.481 -1.6,-9.036 -4.78,-13.653 -3.17,-4.636 -9.75,-10.129 -19.73,-16.484 10.27,-7.949 17.07,-14.234 20.39,-18.856 4.48,-5.925 6.73,-12.226 6.73,-18.871 0,-8.379 -3.19,-15.566 -9.55,-21.562 -6.35,-6.008 -14.73,-9.004 -25.14,-9.004 -11.42,0 -20.31,3.539 -26.67,10.629 -5.06,5.769 -7.59,12.07 -7.59,18.855 0,5.203 1.81,10.407 5.41,15.61 3.63,5.203 9.77,10.918 18.44,17.136 z m 13.66,9.532 c 7.07,6.355 11.55,11.379 13.44,15.066 1.88,3.691 2.82,7.84 2.82,12.461 0,6.078 -1.74,10.879 -5.21,14.43 -3.46,3.539 -8.17,5.3 -14.09,5.3 -6.07,0 -10.98,-1.734 -14.74,-5.203 -3.76,-3.468 -5.65,-7.507 -5.65,-12.14 0,-3.024 0.81,-6.106 2.39,-9.215 1.6,-3.106 3.83,-6.035 6.73,-8.781 l 14.31,-11.918 z m -9.55,-12.793 c -4.91,-4.039 -8.52,-8.493 -10.84,-13.336 -2.3,-4.84 -3.47,-10.071 -3.47,-15.719 0,-7.66 2.07,-13.766 6.18,-18.316 4.12,-4.551 9.37,-6.825 15.72,-6.825 6.37,0 11.46,1.805 15.29,5.426 3.83,3.606 5.74,7.934 5.74,13 0,4.192 -1.15,8.02 -3.46,11.488 -4.06,6.215 -12.43,14.305 -25.16,24.282" /><path
           inkscape:connector-curvature="0"
           id="path3353"
           style="fill:none;stroke:#000000;stroke-width:13.875;stroke-linecap:butt;stroke-linejoin:round;stroke-miterlimit:10;stroke-opacity:1;stroke-dasharray:none"
           d="m 4446.69,925.547 0,-72.152" /><path
           inkscape:connector-curvature="0"
           id="path3355"
           style="fill:#000000;fill-opacity:1;fill-rule:nonzero;stroke:none"
           d="m 4349.37,724.969 c 0,13.597 2.07,25.336 6.19,35.242 4.1,9.894 9.57,17.234 16.35,21.992 5.36,3.762 10.86,5.649 16.49,5.649 9.1,0 17.27,-4.637 24.49,-13.875 9.11,-11.575 13.66,-27.25 13.66,-47.051 0,-13.875 -1.98,-25.656 -5.96,-35.34 -3.97,-9.684 -9.07,-16.734 -15.28,-21.133 -6.21,-4.41 -12.14,-6.617 -17.79,-6.617 -11.41,0 -20.95,6.73 -28.61,20.16 -6.36,11.418 -9.54,25.086 -9.54,40.973 z m 17.34,-2.164 c 0,-16.469 2.03,-29.914 6.08,-40.321 3.32,-8.672 8.31,-13.015 14.96,-13.015 3.18,0 6.46,1.414 9.86,4.23 3.4,2.817 5.97,7.633 7.7,14.418 2.74,9.977 4.11,24.211 4.11,42.707 0,13.582 -1.44,24.934 -4.33,34.035 -2.02,6.801 -4.77,11.571 -8.24,14.321 -2.3,1.871 -5.21,2.816 -8.67,2.816 -3.9,0 -7.44,-1.734 -10.62,-5.203 -4.2,-4.914 -7.04,-12.613 -8.57,-23.09 -1.51,-10.473 -2.28,-20.785 -2.28,-30.898 z m 88.9,-39.668 c 2.73,0 5.05,-0.973 6.94,-2.93 1.87,-1.957 2.81,-4.23 2.81,-6.824 0,-2.75 -0.94,-5.067 -2.81,-6.938 -1.89,-1.886 -4.21,-2.816 -6.94,-2.816 -2.75,0 -5.06,0.93 -6.94,2.816 -1.88,1.871 -2.83,4.188 -2.83,6.938 0,2.746 0.95,5.051 2.83,6.937 1.88,1.871 4.19,2.817 6.94,2.817 z m 32.08,-19.508 0,3.246 c 7.66,0 14.77,1.734 21.35,5.203 6.58,3.469 12.93,9.504 19.08,18.106 6.15,8.589 10.38,18.023 12.68,28.293 -9.24,-5.926 -17.55,-8.895 -24.93,-8.895 -8.38,0 -15.57,3.219 -21.56,9.645 -6.01,6.437 -9.01,15.066 -9.01,25.918 0,10.406 2.97,19.714 8.9,27.957 7.23,9.836 16.69,14.75 28.4,14.75 9.82,0 18.2,-4.051 25.14,-12.141 8.53,-9.977 12.79,-22.34 12.79,-37.074 0,-13.309 -3.24,-25.699 -9.75,-37.188 -6.51,-11.488 -15.54,-20.992 -27.1,-28.511 -9.55,-6.204 -19.87,-9.309 -31.01,-9.309 l -4.98,0 z m 54.64,61.34 c 1,7.672 1.51,13.738 1.51,18.219 0,5.785 -0.97,11.96 -2.93,18.535 -1.95,6.578 -4.7,11.629 -8.24,15.179 -3.54,3.539 -7.55,5.301 -12.03,5.301 -5.2,0 -9.79,-2.344 -13.76,-7.035 -3.99,-4.703 -5.97,-11.684 -5.97,-20.922 0,-12.434 2.61,-22.117 7.81,-29.055 3.9,-5.066 8.59,-7.589 14.08,-7.589 2.75,0 5.97,0.652 9.66,1.957 3.68,1.304 6.97,3.105 9.87,5.41" /><path
           inkscape:connector-curvature="0"
           id="path3357"
           style="fill:none;stroke:#000000;stroke-width:13.875;stroke-linecap:butt;stroke-linejoin:round;stroke-miterlimit:10;stroke-opacity:1;stroke-dasharray:none"
           d="m 5362.45,925.547 0,-72.152" /><path
           inkscape:connector-curvature="0"
           id="path3359"
           style="fill:#000000;fill-opacity:1;fill-rule:nonzero;stroke:none"
           d="m 5279.87,773.754 29.05,14.098 2.82,0 0,-100.817 c 0,-6.648 0.29,-10.808 0.86,-12.461 0.58,-1.664 1.73,-2.926 3.47,-3.801 1.73,-0.859 5.27,-1.375 10.63,-1.511 l 0,-3.262 -44.89,0 0,3.262 c 5.65,0.136 9.3,0.652 10.95,1.511 1.66,0.875 2.83,2.028 3.47,3.469 0.65,1.442 0.98,5.715 0.98,12.793 l 0,64.395 c 0,8.808 -0.29,14.441 -0.87,16.898 -0.43,1.887 -1.2,3.262 -2.28,4.121 -1.08,0.875 -2.41,1.305 -4.01,1.305 -2.16,0 -5.13,-0.945 -8.88,-2.816 l -1.3,2.816 z m 91.49,-90.617 c 2.73,0 5.05,-0.973 6.94,-2.93 1.87,-1.957 2.81,-4.23 2.81,-6.824 0,-2.75 -0.94,-5.067 -2.81,-6.938 -1.89,-1.886 -4.21,-2.816 -6.94,-2.816 -2.75,0 -5.06,0.93 -6.94,2.816 -1.88,1.871 -2.83,4.188 -2.83,6.938 0,2.746 0.95,5.051 2.83,6.937 1.88,1.871 4.19,2.817 6.94,2.817 z m 29.04,41.832 c 0,13.597 2.07,25.336 6.19,35.242 4.11,9.894 9.57,17.234 16.36,21.992 5.35,3.762 10.85,5.649 16.48,5.649 9.1,0 17.27,-4.637 24.49,-13.875 9.12,-11.575 13.67,-27.25 13.67,-47.051 0,-13.875 -1.99,-25.656 -5.97,-35.34 -3.97,-9.684 -9.07,-16.734 -15.28,-21.133 -6.21,-4.41 -12.14,-6.617 -17.79,-6.617 -11.41,0 -20.94,6.73 -28.6,20.16 -6.37,11.418 -9.55,25.086 -9.55,40.973 z m 17.34,-2.164 c 0,-16.469 2.03,-29.914 6.08,-40.321 3.32,-8.672 8.31,-13.015 14.96,-13.015 3.18,0 6.47,1.414 9.86,4.23 3.4,2.817 5.97,7.633 7.7,14.418 2.74,9.977 4.11,24.211 4.11,42.707 0,13.582 -1.44,24.934 -4.33,34.035 -2.02,6.801 -4.77,11.571 -8.24,14.321 -2.3,1.871 -5.2,2.816 -8.67,2.816 -3.9,0 -7.44,-1.734 -10.62,-5.203 -4.2,-4.914 -7.04,-12.613 -8.57,-23.09 -1.51,-10.473 -2.28,-20.785 -2.28,-30.898" /><path
           inkscape:connector-curvature="0"
           id="path3361"
           style="fill:none;stroke:#000000;stroke-width:13.875;stroke-linecap:butt;stroke-linejoin:round;stroke-miterlimit:10;stroke-opacity:1;stroke-dasharray:none"
           d="m 735.375,4730.61 -36.074,0" /><path
           inkscape:connector-curvature="0"
           id="path3363"
           style="fill:none;stroke:#000000;stroke-width:13.875;stroke-linecap:butt;stroke-linejoin:round;stroke-miterlimit:10;stroke-opacity:1;stroke-dasharray:none"
           d="m 735.375,5422.43 -36.074,0" /><path
           inkscape:connector-curvature="0"
           id="path3365"
           style="fill:none;stroke:#000000;stroke-width:13.875;stroke-linecap:butt;stroke-linejoin:round;stroke-miterlimit:10;stroke-opacity:1;stroke-dasharray:none"
           d="m 735.375,3346.96 -36.074,0" /><path
           inkscape:connector-curvature="0"
           id="path3367"
           style="fill:none;stroke:#000000;stroke-width:13.875;stroke-linecap:butt;stroke-linejoin:round;stroke-miterlimit:10;stroke-opacity:1;stroke-dasharray:none"
           d="m 735.375,4038.78 -36.074,0" /><path
           inkscape:connector-curvature="0"
           id="path3369"
           style="fill:none;stroke:#000000;stroke-width:13.875;stroke-linecap:butt;stroke-linejoin:round;stroke-miterlimit:10;stroke-opacity:1;stroke-dasharray:none"
           d="m 735.375,1963.3 -36.074,0" /><path
           inkscape:connector-curvature="0"
           id="path3371"
           style="fill:none;stroke:#000000;stroke-width:13.875;stroke-linecap:butt;stroke-linejoin:round;stroke-miterlimit:10;stroke-opacity:1;stroke-dasharray:none"
           d="m 735.375,2655.12 -36.074,0" /><path
           inkscape:connector-curvature="0"
           id="path3373"
           style="fill:none;stroke:#000000;stroke-width:13.875;stroke-linecap:butt;stroke-linejoin:round;stroke-miterlimit:10;stroke-opacity:1;stroke-dasharray:none"
           d="m 735.375,579.641 -36.074,0" /><path
           inkscape:connector-curvature="0"
           id="path3375"
           style="fill:none;stroke:#000000;stroke-width:13.875;stroke-linecap:butt;stroke-linejoin:round;stroke-miterlimit:10;stroke-opacity:1;stroke-dasharray:none"
           d="m 735.375,1271.46 -36.074,0" /><path
           inkscape:connector-curvature="0"
           id="path3377"
           style="fill:none;stroke:#000000;stroke-width:13.875;stroke-linecap:butt;stroke-linejoin:round;stroke-miterlimit:10;stroke-opacity:1;stroke-dasharray:none"
           d="m 735.375,124.875 0,5300.175" /></g></g><g
       id="g3379"
       transform="scale(0.1,0.1)"><g
         clip-path="url(#clipPath3383)"
         id="g3381"><path
           inkscape:connector-curvature="0"
           id="path3387"
           style="fill:#000000;fill-opacity:1;fill-rule:nonzero;stroke:none"
           d="m 169.969,2785.41 c 2.89,-3.03 5.058,-6.14 6.504,-9.31 1.156,-2.03 2.89,-7.53 5.203,-16.49 l 7.804,11.49 c 2.024,2.9 4.516,5.61 7.481,8.13 2.961,2.53 5.527,4.31 7.695,5.32 1.446,0.58 3.035,0.86 4.77,0.86 2.457,0 4.445,-0.68 5.961,-2.06 1.519,-1.37 2.277,-2.99 2.277,-4.88 0,-2.31 -0.434,-3.9 -1.301,-4.76 -1.59,-1.44 -3.468,-2.18 -5.636,-2.18 -1.301,0 -2.602,0.29 -3.903,0.88 -2.746,0.86 -4.625,1.3 -5.636,1.3 -1.446,0 -3.11,-0.8 -4.989,-2.39 -3.613,-3.03 -7.949,-8.96 -13.008,-17.77 l 7.157,-30.14 c 1.156,-4.63 2.093,-7.41 2.816,-8.35 0.723,-0.94 1.52,-1.4 2.387,-1.4 1.156,0 2.601,0.64 4.336,1.94 3.179,2.75 5.925,6.29 8.238,10.63 l 3.035,-1.53 c -3.758,-6.93 -8.457,-12.71 -14.094,-17.34 -3.179,-2.59 -5.925,-3.9 -8.238,-3.9 -3.324,0 -5.926,1.89 -7.805,5.63 -1.3,2.32 -3.828,12.14 -7.585,29.49 -9.25,-15.89 -16.622,-26.09 -22.114,-30.57 -3.613,-3.02 -7.082,-4.55 -10.406,-4.55 -2.313,0 -4.48,0.88 -6.504,2.61 -1.301,1.29 -1.953,3.02 -1.953,5.2 0,1.87 0.652,3.47 1.953,4.76 1.301,1.31 2.891,1.96 4.77,1.96 1.878,0 3.828,-0.95 5.851,-2.82 1.59,-1.3 2.82,-1.96 3.688,-1.96 0.578,0 1.445,0.45 2.601,1.31 2.746,2.32 6.504,7.16 11.274,14.53 4.769,7.36 7.875,12.72 9.32,16.04 -3.613,14.3 -5.563,21.82 -5.852,22.54 -1.3,3.9 -3.035,6.65 -5.203,8.25 -2.168,1.59 -5.422,2.38 -9.758,2.38 -1.3,0 -2.816,-0.07 -4.55,-0.22 l 0,3.26 23.414,4.11 z m 124.066,42.07 -28.183,-98.66 c -1.735,-5.77 -2.602,-9.96 -2.602,-12.57 0,-2.16 0.762,-3.82 2.277,-4.98 1.52,-1.16 5.024,-1.95 10.516,-2.38 l -0.867,-3.27 -45.313,0 1.086,3.27 c 4.914,0.13 8.094,0.5 9.539,1.08 2.457,1.15 4.336,2.59 5.637,4.33 1.879,2.74 3.832,7.59 5.852,14.52 l 20.378,70.91 c 1.301,4.32 2.028,6.78 2.168,7.36 0.145,1.16 0.219,2.32 0.219,3.47 0,2.03 -0.543,3.61 -1.625,4.78 -1.086,1.15 -2.64,1.73 -4.664,1.73 -1.445,0 -3.828,-0.36 -7.152,-1.08 l -1.086,3.24 29.703,8.25 4.117,0" /></g></g><g
       id="g3389"
       transform="scale(0.1,0.1)"><g
         clip-path="url(#clipPath3393)"
         id="g3391"><path
           inkscape:connector-curvature="0"
           id="path3397"
           style="fill:none;stroke:#000000;stroke-width:13.875;stroke-linecap:butt;stroke-linejoin:round;stroke-miterlimit:10;stroke-opacity:1;stroke-dasharray:none"
           d="m 735.375,233.727 -72.148,0" /></g></g><g
       id="g3399"
       transform="scale(0.1,0.1)"><g
         clip-path="url(#clipPath3403)"
         id="g3401"><path
           inkscape:connector-curvature="0"
           id="path3407"
           style="fill:#000000;fill-opacity:1;fill-rule:nonzero;stroke:none"
           d="m 474.566,215.938 119.238,0 0,9.32422 -119.238,0 0,-9.32422 z" /></g></g><g
       id="g3409"
       transform="scale(0.1,0.1)"><g
         clip-path="url(#clipPath3413)"
         id="g3411"><path
           inkscape:connector-curvature="0"
           id="path3417"
           style="fill:#000000;fill-opacity:1;fill-rule:nonzero;stroke:none"
           d="m 651.473,189.492 -8.239,-22.992 -70.457,0 0,3.262 c 20.668,18.926 35.231,34.394 43.684,46.398 8.457,11.988 12.684,22.906 12.684,32.731 0,7.66 -2.313,13.918 -6.938,18.757 -4.625,4.829 -10.191,7.258 -16.695,7.258 -5.782,0 -11.02,-1.691 -15.715,-5.094 -4.699,-3.398 -8.133,-8.421 -10.301,-15.066 l -3.25,0 c 1.445,10.836 5.203,19.149 11.274,24.934 6.07,5.769 13.656,8.672 22.761,8.672 9.684,0 17.778,-3.11 24.281,-9.325 6.504,-6.218 9.758,-13.515 9.758,-21.894 0,-6.078 -1.445,-12.141 -4.336,-18.219 -4.336,-9.531 -11.347,-19.578 -21.031,-30.137 -14.598,-16.039 -23.773,-25.722 -27.531,-29.039 l 31.219,0 c 6.359,0 10.804,0.25 13.332,0.746 2.531,0.516 4.843,1.489 6.937,2.93 2.094,1.441 3.867,3.469 5.313,6.078 l 3.25,0" /><path
           inkscape:connector-curvature="0"
           id="path3419"
           style="fill:none;stroke:#000000;stroke-width:13.875;stroke-linecap:butt;stroke-linejoin:round;stroke-miterlimit:10;stroke-opacity:1;stroke-dasharray:none"
           d="m 735.375,925.547 -72.148,0" /><path
           inkscape:connector-curvature="0"
           id="path3421"
           style="fill:#000000;fill-opacity:1;fill-rule:nonzero;stroke:none"
           d="m 575.379,919.219 c 0,13.597 2.059,25.336 6.18,35.242 4.117,9.894 9.574,17.234 16.367,21.992 5.347,3.762 10.84,5.649 16.476,5.649 9.106,0 17.27,-4.637 24.496,-13.875 9.106,-11.575 13.661,-27.25 13.661,-47.051 0,-13.875 -1.989,-25.656 -5.961,-35.34 -3.977,-9.684 -9.071,-16.734 -15.286,-21.133 -6.214,-4.41 -12.14,-6.617 -17.777,-6.617 -11.418,0 -20.957,6.73 -28.617,20.16 -6.359,11.418 -9.539,25.086 -9.539,40.973 z m 17.344,-2.164 c 0,-16.469 2.023,-29.914 6.07,-40.321 3.324,-8.672 8.309,-13.015 14.957,-13.015 3.18,0 6.469,1.414 9.867,4.23 3.395,2.817 5.961,7.633 7.695,14.418 2.747,9.977 4.118,24.211 4.118,42.707 0,13.582 -1.446,24.934 -4.336,34.035 -2.024,6.801 -4.77,11.571 -8.239,14.321 -2.312,1.871 -5.203,2.816 -8.671,2.816 -3.903,0 -7.442,-1.734 -10.622,-5.203 -4.191,-4.914 -7.046,-12.613 -8.562,-23.09 -1.52,-10.473 -2.277,-20.785 -2.277,-30.898" /><path
           inkscape:connector-curvature="0"
           id="path3423"
           style="fill:none;stroke:#000000;stroke-width:13.875;stroke-linecap:butt;stroke-linejoin:round;stroke-miterlimit:10;stroke-opacity:1;stroke-dasharray:none"
           d="m 735.375,1617.38 -72.148,0" /><path
           inkscape:connector-curvature="0"
           id="path3425"
           style="fill:#000000;fill-opacity:1;fill-rule:nonzero;stroke:none"
           d="m 651.473,1576.99 -8.239,-22.99 -70.457,0 0,3.26 c 20.668,18.93 35.231,34.4 43.684,46.4 8.457,11.99 12.684,22.91 12.684,32.73 0,7.66 -2.313,13.91 -6.938,18.76 -4.625,4.83 -10.191,7.26 -16.695,7.26 -5.782,0 -11.02,-1.7 -15.715,-5.1 -4.699,-3.4 -8.133,-8.42 -10.301,-15.06 l -3.25,0 c 1.445,10.83 5.203,19.14 11.274,24.93 6.07,5.77 13.656,8.67 22.761,8.67 9.684,0 17.778,-3.11 24.281,-9.32 6.504,-6.22 9.758,-13.52 9.758,-21.9 0,-6.08 -1.445,-12.14 -4.336,-18.22 -4.336,-9.53 -11.347,-19.57 -21.031,-30.13 -14.598,-16.04 -23.773,-25.73 -27.531,-29.04 l 31.219,0 c 6.359,0 10.804,0.25 13.332,0.74 2.531,0.52 4.843,1.49 6.937,2.93 2.094,1.45 3.867,3.47 5.313,6.08 l 3.25,0" /><path
           inkscape:connector-curvature="0"
           id="path3427"
           style="fill:none;stroke:#000000;stroke-width:13.875;stroke-linecap:butt;stroke-linejoin:round;stroke-miterlimit:10;stroke-opacity:1;stroke-dasharray:none"
           d="m 735.375,2309.21 -72.148,0" /><path
           inkscape:connector-curvature="0"
           id="path3429"
           style="fill:#000000;fill-opacity:1;fill-rule:nonzero;stroke:none"
           d="m 652.773,2291.76 0,-12.57 -16.043,0 0,-31.44 -14.523,0 0,31.44 -50.516,0 0,11.28 55.5,79.13 9.539,0 0,-77.84 16.043,0 z m -30.566,0 0,59.42 -41.844,-59.42 41.844,0" /><path
           inkscape:connector-curvature="0"
           id="path3431"
           style="fill:none;stroke:#000000;stroke-width:13.875;stroke-linecap:butt;stroke-linejoin:round;stroke-miterlimit:10;stroke-opacity:1;stroke-dasharray:none"
           d="m 735.375,3001.04 -72.148,0" /><path
           inkscape:connector-curvature="0"
           id="path3433"
           style="fill:#000000;fill-opacity:1;fill-rule:nonzero;stroke:none"
           d="m 649.738,3063.35 0,-3.26 c -7.804,-0.72 -14.164,-2.23 -19.078,-4.55 -4.914,-2.31 -9.754,-5.86 -14.523,-10.61 -4.77,-4.78 -8.707,-10.09 -11.817,-15.95 -3.105,-5.86 -5.746,-12.75 -7.914,-20.7 8.528,5.79 17.055,8.67 25.582,8.67 8.094,0 15.141,-3.29 21.141,-9.86 5.996,-6.58 8.996,-15.07 8.996,-25.48 0,-9.97 -3.035,-19.07 -9.105,-27.32 -7.227,-9.96 -16.84,-14.95 -28.836,-14.95 -8.239,0 -15.176,2.74 -20.813,8.24 -11.129,10.4 -16.691,23.99 -16.691,40.75 0,10.7 2.132,20.85 6.394,30.47 4.266,9.6 10.371,18.17 18.321,25.68 7.949,7.52 15.574,12.54 22.871,15.07 7.3,2.54 14.054,3.8 20.269,3.8 l 5.203,0 z m -54.847,-61.58 c -1.012,-7.95 -1.52,-14.37 -1.52,-19.28 0,-5.65 1.051,-11.76 3.145,-18.33 2.097,-6.58 5.168,-11.81 9.214,-15.72 3.036,-2.74 6.719,-4.11 11.055,-4.11 5.059,0 9.613,2.42 13.66,7.26 4.047,4.84 6.071,11.67 6.071,20.49 0,10.12 -2.024,18.81 -6.071,26.11 -4.047,7.3 -9.683,10.95 -16.91,10.95 -2.312,0 -4.734,-0.46 -7.262,-1.4 -2.531,-0.94 -6.324,-2.93 -11.382,-5.97" /><path
           inkscape:connector-curvature="0"
           id="path3435"
           style="fill:none;stroke:#000000;stroke-width:13.875;stroke-linecap:butt;stroke-linejoin:round;stroke-miterlimit:10;stroke-opacity:1;stroke-dasharray:none"
           d="m 735.375,3692.88 -72.148,0" /><path
           inkscape:connector-curvature="0"
           id="path3437"
           style="fill:#000000;fill-opacity:1;fill-rule:nonzero;stroke:none"
           d="m 603.562,3695.32 c -9.539,7.79 -15.683,14.05 -18.429,18.74 -2.746,4.71 -4.117,9.57 -4.117,14.64 0,7.8 3,14.48 8.996,20.05 6,5.56 13.984,8.35 23.957,8.35 9.683,0 17.453,-2.61 23.304,-7.81 5.856,-5.2 8.782,-11.13 8.782,-17.77 0,-4.48 -1.59,-9.04 -4.77,-13.66 -3.18,-4.63 -9.758,-10.13 -19.73,-16.48 10.261,-7.95 17.054,-14.24 20.379,-18.86 4.48,-5.92 6.722,-12.22 6.722,-18.87 0,-8.38 -3.179,-15.56 -9.539,-21.56 -6.359,-6.01 -14.742,-9 -25.148,-9 -11.418,0 -20.309,3.53 -26.668,10.62 -5.059,5.77 -7.586,12.08 -7.586,18.86 0,5.2 1.805,10.41 5.418,15.61 3.613,5.2 9.758,10.92 18.429,17.14 z m 13.657,9.53 c 7.082,6.35 11.562,11.38 13.441,15.06 1.879,3.7 2.82,7.84 2.82,12.47 0,6.07 -1.734,10.87 -5.203,14.42 -3.468,3.54 -8.168,5.31 -14.093,5.31 -6.071,0 -10.985,-1.74 -14.743,-5.21 -3.757,-3.47 -5.636,-7.51 -5.636,-12.14 0,-3.02 0.797,-6.1 2.386,-9.21 1.59,-3.11 3.829,-6.04 6.719,-8.78 l 14.309,-11.92 z m -9.539,-12.8 c -4.914,-4.03 -8.528,-8.49 -10.84,-13.33 -2.313,-4.84 -3.469,-10.07 -3.469,-15.72 0,-7.66 2.063,-13.77 6.18,-18.32 4.121,-4.55 9.359,-6.82 15.719,-6.82 6.359,0 11.453,1.8 15.285,5.43 3.828,3.6 5.742,7.93 5.742,13 0,4.19 -1.156,8.01 -3.469,11.48 -4.047,6.22 -12.43,14.31 -25.148,24.28" /><path
           inkscape:connector-curvature="0"
           id="path3439"
           style="fill:none;stroke:#000000;stroke-width:13.875;stroke-linecap:butt;stroke-linejoin:round;stroke-miterlimit:10;stroke-opacity:1;stroke-dasharray:none"
           d="m 735.375,4384.69 -72.148,0" /><path
           inkscape:connector-curvature="0"
           id="path3441"
           style="fill:#000000;fill-opacity:1;fill-rule:nonzero;stroke:none"
           d="m 506.871,4436.75 29.051,14.09 2.816,0 0,-100.81 c 0,-6.65 0.289,-10.8 0.867,-12.47 0.579,-1.66 1.735,-2.92 3.469,-3.79 1.735,-0.87 5.278,-1.37 10.625,-1.52 l 0,-3.25 -44.879,0 0,3.25 c 5.637,0.15 9.289,0.65 10.95,1.52 1.664,0.87 2.82,2.02 3.468,3.47 0.653,1.44 0.977,5.71 0.977,12.79 l 0,64.39 c 0,8.81 -0.289,14.45 -0.867,16.91 -0.434,1.88 -1.192,3.25 -2.278,4.12 -1.082,0.87 -2.422,1.3 -4.011,1.3 -2.168,0 -5.129,-0.94 -8.887,-2.82 l -1.301,2.82 z m 75.445,-48.78 c 0,13.58 2.059,25.33 6.18,35.23 4.117,9.9 9.574,17.23 16.367,22 5.348,3.76 10.84,5.64 16.477,5.64 9.105,0 17.269,-4.63 24.496,-13.88 9.105,-11.56 13.66,-27.24 13.66,-47.04 0,-13.87 -1.988,-25.65 -5.961,-35.34 -3.976,-9.68 -9.07,-16.72 -15.285,-21.13 -6.215,-4.41 -12.141,-6.62 -17.777,-6.62 -11.418,0 -20.957,6.72 -28.618,20.17 -6.359,11.41 -9.539,25.07 -9.539,40.97 z m 17.344,-2.17 c 0,-16.48 2.024,-29.92 6.07,-40.32 3.325,-8.68 8.309,-13.01 14.958,-13.01 3.179,0 6.468,1.41 9.867,4.23 3.394,2.82 5.961,7.62 7.695,14.41 2.746,9.98 4.117,24.21 4.117,42.71 0,13.59 -1.445,24.93 -4.336,34.04 -2.023,6.79 -4.769,11.56 -8.238,14.31 -2.313,1.88 -5.203,2.82 -8.672,2.82 -3.902,0 -7.441,-1.74 -10.621,-5.2 -4.191,-4.92 -7.047,-12.61 -8.562,-23.09 -1.52,-10.49 -2.278,-20.78 -2.278,-30.9" /><path
           inkscape:connector-curvature="0"
           id="path3443"
           style="fill:none;stroke:#000000;stroke-width:13.875;stroke-linecap:butt;stroke-linejoin:round;stroke-miterlimit:10;stroke-opacity:1;stroke-dasharray:none"
           d="m 735.375,5076.52 -72.148,0" /><path
           inkscape:connector-curvature="0"
           id="path3445"
           style="fill:#000000;fill-opacity:1;fill-rule:nonzero;stroke:none"
           d="m 506.871,5116.62 29.051,14.09 2.816,0 0,-100.8 c 0,-6.65 0.289,-10.81 0.867,-12.47 0.579,-1.66 1.735,-2.93 3.469,-3.8 1.735,-0.86 5.278,-1.37 10.625,-1.51 l 0,-3.25 -44.879,0 0,3.25 c 5.637,0.14 9.289,0.65 10.95,1.51 1.664,0.87 2.82,2.03 3.468,3.47 0.653,1.45 0.977,5.71 0.977,12.8 l 0,64.38 c 0,8.82 -0.289,14.46 -0.867,16.91 -0.434,1.88 -1.192,3.26 -2.278,4.12 -1.082,0.87 -2.422,1.3 -4.011,1.3 -2.168,0 -5.129,-0.94 -8.887,-2.82 l -1.301,2.82 z m 151.539,-84.76 -8.238,-22.98 -70.457,0 0,3.25 c 20.668,18.93 35.23,34.4 43.683,46.39 8.457,12 12.684,22.91 12.684,32.74 0,7.66 -2.312,13.91 -6.937,18.75 -4.625,4.85 -10.192,7.26 -16.696,7.26 -5.781,0 -11.019,-1.7 -15.715,-5.09 -4.699,-3.39 -8.132,-8.42 -10.3,-15.07 l -3.25,0 c 1.445,10.84 5.203,19.15 11.273,24.93 6.07,5.78 13.656,8.67 22.762,8.67 9.683,0 17.777,-3.1 24.281,-9.32 6.504,-6.21 9.758,-13.51 9.758,-21.89 0,-6.07 -1.446,-12.14 -4.336,-18.21 -4.336,-9.54 -11.348,-19.59 -21.031,-30.14 -14.598,-16.04 -23.774,-25.72 -27.532,-29.05 l 31.219,0 c 6.36,0 10.805,0.25 13.332,0.76 2.531,0.5 4.844,1.48 6.938,2.93 2.093,1.44 3.867,3.46 5.312,6.07 l 3.25,0" /></g></g></g><g
     inkscape:groupmode="layer"
     id="layer1"
     inkscape:label="Layer 2"
     transform="translate(0,16.25)"><text
       xml:space="preserve"
       style="font-size:18px;font-style:normal;font-variant:normal;font-weight:normal;font-stretch:normal;line-height:125%;letter-spacing:0px;word-spacing:0px;fill:#000000;fill-opacity:1;stroke:none;font-family:Arial;-inkscape-font-specification:Arial;filter:url(#filter3530)"
       x="80"
       y="2.75"
       id="text3514"
       sodipodi:linespacing="125%"><tspan
         sodipodi:role="line"
         id="tspan3516"
         x="80"
         y="2.75">=0.5</tspan></text>
<text
       sodipodi:linespacing="125%"
       id="text3518"
       y="45.75"
       x="657"
       style="font-size:18px;font-style:normal;font-variant:normal;font-weight:normal;font-stretch:normal;line-height:125%;letter-spacing:0px;word-spacing:0px;fill:#000000;fill-opacity:1;stroke:none;font-family:Arial;-inkscape-font-specification:Arial"
       xml:space="preserve"><tspan
         y="45.75"
         x="657"
         id="tspan3520"
         sodipodi:role="line">=1</tspan></text>
</g></svg>