<?xml version="1.0" encoding="UTF-8" standalone="no"?>
<!-- Created with Inkscape (http://www.inkscape.org/) -->

<svg
   xmlns:dc="http://purl.org/dc/elements/1.1/"
   xmlns:cc="http://creativecommons.org/ns#"
   xmlns:rdf="http://www.w3.org/1999/02/22-rdf-syntax-ns#"
   xmlns:svg="http://www.w3.org/2000/svg"
   xmlns="http://www.w3.org/2000/svg"
   xmlns:sodipodi="http://sodipodi.sourceforge.net/DTD/sodipodi-0.dtd"
   xmlns:inkscape="http://www.inkscape.org/namespaces/inkscape"
   id="svg2"
   version="1.1"
   inkscape:version="0.48.1 r9760"
   width="693.75"
   height="693.75"
   xml:space="preserve"
   sodipodi:docname="YAMAMURAV8.eps"><metadata
     id="metadata8"><rdf:RDF><cc:Work
         rdf:about=""><dc:format>image/svg+xml</dc:format><dc:type
           rdf:resource="http://purl.org/dc/dcmitype/StillImage" /><dc:title></dc:title></cc:Work></rdf:RDF></metadata><defs
     id="defs6"><clipPath
       clipPathUnits="userSpaceOnUse"
       id="clipPath20"><path
         d="m 666,5452.8 4655.79,0 0,-5341.788 -4655.79,0 0,5341.788 z"
         id="path22" /></clipPath><clipPath
       clipPathUnits="userSpaceOnUse"
       id="clipPath32"><path
         d="m 69.375,5480.62 5411.245,0 0,-5411.245 -5411.245,0 0,5411.245 z"
         id="path34" /></clipPath><clipPath
       clipPathUnits="userSpaceOnUse"
       id="clipPath124"><path
         d="m 263.625,943.5 97.125,0 0,-180.375 -97.125,0 0,180.375 z"
         id="path126" /></clipPath><clipPath
       clipPathUnits="userSpaceOnUse"
       id="clipPath134"><path
         d="m 69.375,5480.62 5411.245,0 0,-5411.245 -5411.245,0 0,5411.245 z"
         id="path136" /></clipPath><clipPath
       clipPathUnits="userSpaceOnUse"
       id="clipPath146"><path
         d="m 346.875,2136.75 97.125,0 0,-180.37 -97.125,0 0,180.37 z"
         id="path148" /></clipPath><clipPath
       clipPathUnits="userSpaceOnUse"
       id="clipPath156"><path
         d="m 69.375,5480.62 5411.245,0 0,-5411.245 -5411.245,0 0,5411.245 z"
         id="path158" /></clipPath><filter
       id="filter3925"
       inkscape:label="filter1"><feBlend
         blend="normal"
         id="feBlend3927"
         in2="SourceGraphic" /></filter></defs><sodipodi:namedview
     pagecolor="#ffffff"
     bordercolor="#666666"
     borderopacity="1"
     objecttolerance="10"
     gridtolerance="10"
     guidetolerance="10"
     inkscape:pageopacity="0"
     inkscape:pageshadow="2"
     inkscape:window-width="1680"
     inkscape:window-height="921"
     id="namedview4"
     showgrid="true"
     showguides="true"
     inkscape:guide-bbox="true"
     inkscape:zoom="1.0393477"
     inkscape:cx="316.20003"
     inkscape:cy="352.62502"
     inkscape:window-x="0"
     inkscape:window-y="0"
     inkscape:window-maximized="0"
     inkscape:current-layer="g10"><inkscape:grid
       type="xygrid"
       id="grid3145" /><sodipodi:guide
       orientation="1,0"
       position="664,448"
       id="guide3147" /><sodipodi:guide
       orientation="0,1"
       position="464,680"
       id="guide3919" /></sodipodi:namedview><g
     id="g10"
     inkscape:groupmode="layer"
     inkscape:label="ink_ext_XXXXXX"
     transform="matrix(1.25,0,0,-1.25,0,693.75)"><g
       id="g12"
       transform="matrix(0.1,0,0,0.1,2.4,0)"
       style="filter:url(#filter3925)"><path
         d="m 0,0 5550,0 0,5550 L 0,5550 0,0 z"
         style="fill:#ffffff;fill-opacity:1;fill-rule:nonzero;stroke:none"
         id="path14"
         inkscape:connector-curvature="0" /><g
         id="g16"><g
           id="g18"
           clip-path="url(#clipPath20)"><path
             d="m 622.91,816.363 56.965,4.981 56.965,5.011 56.965,5.036 0,5.05 56.965,5.079 56.964,5.105 0,10.281 56.965,5.188 0,5.203 56.961,5.234 56.97,5.258 0,5.285 56.96,5.328 56.97,5.344 0,5.383 56.96,5.41 0,5.453 56.97,5.481 56.96,5.535 0,5.566 56.97,5.606 0,11.363 56.96,5.769 0,5.817 56.96,5.883 0,5.953 56.97,6.035 56.96,6.117 0,6.188 56.97,6.3 0,6.395 56.97,6.5 56.95,6.59 0,6.7 56.98,6.75 0,6.82 56.95,6.81 0,13.35 56.97,6.39 0,11.09 56.98,5.18 0,4.91 56.95,4.64 0,8.57 56.97,3.95 0,10.78 56.96,3.27 0,11.91 56.97,2.74 0,12.47 56.96,2.31 0,12.82 56.97,1.99 0,13.11 56.97,1.76 0,28.84 56.96,6.89 0,7.9 56.96,7.96 0,7.99 56.96,8.04 0,8.06 56.97,8.11 0,16.34 56.97,8.24 0,8.28 56.96,8.33 0,8.36 56.97,8.41 0,8.46 56.96,8.51 0,17.14 56.97,8.64 0,35.06 56.96,8.91 0,9.1 56.97,10.66 0,20.95 56.97,0.89 0,24.35 56.95,0.84 0,24.2 56.98,0.89 0,26.03 56.95,19.46 113.95,38.99 0,19.51 56.95,19.5 0,39.13 56.97,19.66 0,19.74 56.96,19.76 0,19.87 56.97,19.88 0,19.98 56.95,20.02 0,20.1 56.98,20.15 0,20.23 56.97,20.27 0,20.36 56.95,20.39 0,20.48 56.98,20.51 0,20.61 56.95,20.63 0,83.11 56.97,20.89 0,41.98 56.97,21.03 0,21.12 56.96,21.13 0,42.46 56.97,21.25 0,42.71 56.96,21.4 0,64.43 56.97,21.54 0,43.22 56.96,21.64 0,65.17 56.96,21.77 0,43.67 56.98,21.86 0,175.97 56.95,22.1 0,88.66 56.97,22.21 0,89.08 56.96,22.31 0,89.45 56.97,22.41 0,112.25 56.97,22.49 0,44.97 56.96,20.34 0,6.63 56.97,2.43 0,2.14 56.96,1.93 0,3.47 56.97,1.59 0,7.15 56.95,1.3 0,3.81 56.98,1.23 0,3.58 56.97,1.17 0,5.67 56.95,1.11 0,7.56 56.98,1.07 0,6.95 0,-2.48 0,229.55 -56.98,10.97 0,98.55 -56.95,10.98 0,54.7 -56.97,10.94 0,54.48 -56.98,10.87 0,32.33 -56.95,10.72 0,65.39 -56.97,-22.38 0,-134.69 -56.96,-22.39 0,-156.7 -56.97,-22.32 0,-133.75 -56.96,-22.22 0,-110.97 -56.97,-22.13 0,-110.42 -56.97,-22.01 0,-109.8 -56.96,-21.89 0,-87.31 -56.97,-21.77 0,-65.11 -56.95,-21.66 0,-172.02 -56.98,-21.35 0,-63.82 -56.96,-21.21 0,-63.33 -56.96,-21.04 0,-41.91 -56.97,-20.91 0,-62.37 -56.96,-20.72 0,-41.23 -56.97,-20.56 0,-40.9 -56.96,-20.4 0,-40.56 -56.97,-20.21 0,-20.11 -56.97,-20.07 0,-99.28 -56.95,-19.69 0,-19.58 -56.98,-19.52 0,-19.41 -56.95,-19.37 0,-38.43 -56.97,-19.16 0,-19.03 -56.98,-18.98 0,-18.85 -56.95,-18.82 0,-18.68 -56.97,-18.64 0,-18.5 -56.96,-18.46 0,-18.35 -56.97,-18.28 0,-36.21 -56.95,-18 0,-17.89 -56.98,-17.87 -56.97,-17.74 0,-17.67 -56.95,-17.69 0,-17.62 -56.98,-17.74 -56.95,-17.8 0,-17.06 0,20.02 0,-17.79 0,22.12 56.95,0.9 0,24.78 56.98,0.85 0,25.63 56.95,1.91 56.97,29.78 0,19.93 113.93,39.57 0,59.47 56.97,19.89 56.96,19.96 0,20.04 56.97,20.06 0,20.15 56.95,20.19 0,20.25 56.98,20.3 0,20.39 56.97,20.41 0,20.49 56.95,20.52 0,20.62 56.98,20.64 0,41.48 56.95,20.78 0,62.73 56.97,21.01 0,42.16 56.97,21.14 0,42.44 56.96,21.26 0,42.67 56.97,21.38 0,42.92 56.96,21.49 0,43.14 56.97,21.62 0,43.34 56.96,21.72 0,65.35 56.96,21.83 0,65.71 56.98,21.93 0,154.4 56.95,22.15 0,88.83 56.97,22.25 0,89.22 56.96,22.35 0,89.56 56.97,22.44 0,112.39 56.97,22.53 0,112.78 56.96,22.6 0,135.78 56.97,22.69 0,158.88 56.96,22.77 0,159.28 56.97,22.81 0,433.42 56.95,22.91 0,228.15 56.98,22.92 0,273.01 56.97,22.88 0,172.85 56.95,8.44 0,53.41 56.98,7.16 0,46.58 0,-1900.23 -56.98,-0.58 0,-7.61 -56.95,-0.15 0,-2.33 -56.97,-0.11 0,-1.44 -56.98,-0.09 0,-0.76 0,0.03 -227.85,4.84 -1082.33,13.86 -1310.19,10.71 -1595.02,10.69 -1993.77,10.65"
             style="fill:none;stroke:#ff0000;stroke-width:13.875;stroke-linecap:butt;stroke-linejoin:round;stroke-miterlimit:10;stroke-opacity:1;stroke-dasharray:none"
             id="path24"
             inkscape:connector-curvature="0" /><path
             d="m -345.492,3464.98 1822.872,-10.62 1481.09,-10.61 1082.33,-10.57 797.51,-10.34 170.9,-0.35 56.95,-3.77 0,-0.47 0,0.75 56.98,0.08 0,1.36 56.97,0.11 0,2.32 56.95,0.13 0,8 56.98,0.62 0,1931.3 0,-2.76 -56.98,-0.66 0,-11.34 -56.95,-8.02 0,-285.96 -56.97,-22.47 0,-273.57 -56.98,-22.68 0,-251.35 -56.95,-22.76 0,-411.15 -56.97,-22.77 0,-182.35 -56.96,-22.71 0,-136.43 -56.97,-22.69 0,-136.06 -56.96,-22.62 0,-113.05 -56.97,-22.54 0,-112.67 -56.97,-22.48 0,-89.81 -56.96,-22.4 0,-89.46 -56.97,-22.32 0,-89.1 -56.95,-22.21 0,-176.95 -56.98,-22.02 0,-43.94 -56.96,-21.92 0,-65.62 -56.96,-21.81 0,-43.52 -56.97,-21.73 0,-64.94 -56.96,-21.59 0,-43.05 -56.97,-21.48 0,-21.42 -56.96,-21.4 0,-42.64 -56.97,-21.27 0,-42.39 -56.97,-21.14 0,-84.04 -56.95,-20.91 0,-20.84 -56.98,-20.8 0,-20.72 -56.95,-20.68 0,-20.61 -56.97,-20.57 0,-20.48 -56.98,-20.46 0,-20.36 -56.95,-20.33 0,-20.24 -56.97,-20.21 0,-20.1 -56.96,-20.08 -56.97,-19.98 0,-59.49 -56.95,-19.72 -56.98,-19.62 0,-19.52 -56.97,-19.48 -56.95,-19.39 0,-19.3 -56.98,-19.24 -56.95,-19.14 -56.97,-19.05 0,-18.95 -56.97,-18.91 -56.96,-18.8 0,-18.72 -56.97,-18.62 -56.96,-18.52 -56.97,-18.44 0,-18.36 -56.96,-18.34 -56.97,-18.29 -56.97,-18.24 -56.96,-18.26 -113.92,-18.35 0,-30.27 -56.97,-1.84 0,-13.79 -56.97,-2.1 0,-13.67 -56.96,-2.48 0,-10.74 -56.97,-2.93 0,-13.04 -56.96,-3.69 0,-8.12 -56.97,-4.51 0,-10.31 -56.95,-6.03 0,-6.89 -56.98,-8.07 -56.97,-9.88 0,-12.95 -56.95,-18.91 -113.93,-15.73 -56.97,-13.17 -56.97,-12.46 -56.96,-11.71 -56.97,-11.09 -56.96,-10.6 -56.96,-10.22 0,-9.922 -56.97,-9.672 -56.96,-9.488 -56.97,-9.324 -56.96,-9.172 -56.97,-9.074 -56.96,-8.95 -113.931,-8.883 -56.965,-8.781 0,-8.715 -56.964,-8.644 -56.965,-8.586 -56.965,-8.52 -56.965,-8.449 -56.965,-8.41"
             style="fill:none;stroke:#ff0000;stroke-width:13.875;stroke-linecap:butt;stroke-linejoin:round;stroke-miterlimit:10;stroke-opacity:1;stroke-dasharray:none"
             id="path26"
             inkscape:connector-curvature="0" /></g></g><g
         id="g28"><g
           id="g30"
           clip-path="url(#clipPath32)"><path
             d="m 5066.16,3256.81 0,-36.08"
             style="fill:none;stroke:#000000;stroke-width:13.875;stroke-linecap:butt;stroke-linejoin:round;stroke-miterlimit:10;stroke-opacity:1;stroke-dasharray:none"
             id="path36"
             inkscape:connector-curvature="0" /><path
             d="m 4553.48,3256.81 0,-36.08"
             style="fill:none;stroke:#000000;stroke-width:13.875;stroke-linecap:butt;stroke-linejoin:round;stroke-miterlimit:10;stroke-opacity:1;stroke-dasharray:none"
             id="path38"
             inkscape:connector-curvature="0" /><path
             d="m 4040.8,3256.81 0,-36.08"
             style="fill:none;stroke:#000000;stroke-width:13.875;stroke-linecap:butt;stroke-linejoin:round;stroke-miterlimit:10;stroke-opacity:1;stroke-dasharray:none"
             id="path40"
             inkscape:connector-curvature="0" /><path
             d="m 3528.12,3256.81 0,-36.08"
             style="fill:none;stroke:#000000;stroke-width:13.875;stroke-linecap:butt;stroke-linejoin:round;stroke-miterlimit:10;stroke-opacity:1;stroke-dasharray:none"
             id="path42"
             inkscape:connector-curvature="0" /><path
             d="m 3015.43,3256.81 0,-36.08"
             style="fill:none;stroke:#000000;stroke-width:13.875;stroke-linecap:butt;stroke-linejoin:round;stroke-miterlimit:10;stroke-opacity:1;stroke-dasharray:none"
             id="path44"
             inkscape:connector-curvature="0" /><path
             d="m 2502.75,3256.81 0,-36.08"
             style="fill:none;stroke:#000000;stroke-width:13.875;stroke-linecap:butt;stroke-linejoin:round;stroke-miterlimit:10;stroke-opacity:1;stroke-dasharray:none"
             id="path46"
             inkscape:connector-curvature="0" /><path
             d="m 1990.06,3256.81 0,-36.08"
             style="fill:none;stroke:#000000;stroke-width:13.875;stroke-linecap:butt;stroke-linejoin:round;stroke-miterlimit:10;stroke-opacity:1;stroke-dasharray:none"
             id="path48"
             inkscape:connector-curvature="0" /><path
             d="m 1477.38,3256.81 0,-36.08"
             style="fill:none;stroke:#000000;stroke-width:13.875;stroke-linecap:butt;stroke-linejoin:round;stroke-miterlimit:10;stroke-opacity:1;stroke-dasharray:none"
             id="path50"
             inkscape:connector-curvature="0" /><path
             d="m 907.734,3256.81 0,-36.08"
             style="fill:none;stroke:#000000;stroke-width:13.875;stroke-linecap:butt;stroke-linejoin:round;stroke-miterlimit:10;stroke-opacity:1;stroke-dasharray:none"
             id="path52"
             inkscape:connector-curvature="0" /><path
             d="m 638.25,3256.81 4655.79,0"
             style="fill:none;stroke:#000000;stroke-width:13.875;stroke-linecap:butt;stroke-linejoin:round;stroke-miterlimit:10;stroke-opacity:1;stroke-dasharray:none"
             id="path54"
             inkscape:connector-curvature="0" /><path
             d="m 1192.56,3256.81 0,-72.15"
             style="fill:none;stroke:#000000;stroke-width:13.875;stroke-linecap:butt;stroke-linejoin:round;stroke-miterlimit:10;stroke-opacity:1;stroke-dasharray:none"
             id="path56"
             inkscape:connector-curvature="0" /><path
             d="m 1705.24,3256.81 0,-72.15"
             style="fill:none;stroke:#000000;stroke-width:13.875;stroke-linecap:butt;stroke-linejoin:round;stroke-miterlimit:10;stroke-opacity:1;stroke-dasharray:none"
             id="path58"
             inkscape:connector-curvature="0" /><path
             d="m 1019.38,3055.97 c 0,13.6 2.06,25.33 6.18,35.24 4.12,9.9 9.57,17.24 16.37,21.99 5.34,3.76 10.84,5.65 16.47,5.65 9.11,0 17.27,-4.64 24.5,-13.87 9.1,-11.58 13.66,-27.25 13.66,-47.05 0,-13.88 -1.99,-25.66 -5.96,-35.34 -3.98,-9.69 -9.07,-16.74 -15.29,-21.14 -6.21,-4.41 -12.14,-6.61 -17.77,-6.61 -11.42,0 -20.96,6.73 -28.62,20.16 -6.36,11.41 -9.54,25.08 -9.54,40.97 z m 17.34,-2.17 c 0,-16.46 2.03,-29.91 6.07,-40.32 3.33,-8.67 8.31,-13.01 14.96,-13.01 3.18,0 6.47,1.41 9.87,4.23 3.39,2.82 5.96,7.63 7.69,14.42 2.75,9.97 4.12,24.21 4.12,42.7 0,13.59 -1.45,24.94 -4.34,34.04 -2.02,6.8 -4.77,11.57 -8.23,14.32 -2.32,1.87 -5.21,2.82 -8.68,2.82 -3.9,0 -7.44,-1.74 -10.62,-5.21 -4.19,-4.91 -7.04,-12.61 -8.56,-23.09 -1.52,-10.47 -2.28,-20.78 -2.28,-30.9 z m 88.89,-39.66 c 2.75,0 5.06,-0.98 6.94,-2.93 1.88,-1.96 2.81,-4.23 2.81,-6.83 0,-2.75 -0.93,-5.06 -2.81,-6.93 -1.88,-1.89 -4.19,-2.82 -6.94,-2.82 -2.75,0 -5.06,0.93 -6.94,2.82 -1.88,1.87 -2.82,4.18 -2.82,6.93 0,2.75 0.94,5.05 2.82,6.94 1.88,1.87 4.19,2.82 6.94,2.82 z m 32.09,-19.51 0,3.25 c 7.66,0 14.77,1.73 21.35,5.2 6.57,3.47 12.93,9.5 19.08,18.1 6.14,8.59 10.37,18.03 12.68,28.3 -9.25,-5.93 -17.56,-8.9 -24.93,-8.9 -8.38,0 -15.58,3.22 -21.57,9.64 -6,6.44 -9,15.07 -9,25.92 0,10.41 2.96,19.72 8.89,27.96 7.23,9.84 16.69,14.75 28.4,14.75 9.83,0 18.21,-4.05 25.15,-12.14 8.52,-9.98 12.79,-22.34 12.79,-37.07 0,-13.31 -3.25,-25.7 -9.76,-37.19 -6.5,-11.49 -15.53,-20.99 -27.1,-28.51 -9.54,-6.21 -19.87,-9.31 -31,-9.31 l -4.98,0 z m 54.63,61.34 c 1.01,7.67 1.51,13.74 1.51,18.22 0,5.78 -0.97,11.96 -2.92,18.53 -1.95,6.58 -4.7,11.63 -8.24,15.18 -3.54,3.54 -7.55,5.3 -12.03,5.3 -5.2,0 -9.79,-2.34 -13.77,-7.03 -3.97,-4.71 -5.96,-11.69 -5.96,-20.92 0,-12.44 2.6,-22.12 7.8,-29.06 3.9,-5.07 8.6,-7.59 14.1,-7.59 2.74,0 5.96,0.65 9.64,1.96 3.69,1.3 6.98,3.1 9.87,5.41 z m 35.55,-61.34 0,3.25 c 7.66,0 14.78,1.73 21.36,5.2 6.57,3.47 12.93,9.5 19.08,18.1 6.14,8.59 10.36,18.03 12.68,28.3 -9.25,-5.93 -17.56,-8.9 -24.93,-8.9 -8.39,0 -15.58,3.22 -21.57,9.64 -6,6.44 -9,15.07 -9,25.92 0,10.41 2.96,19.72 8.89,27.96 7.22,9.84 16.69,14.75 28.4,14.75 9.82,0 18.21,-4.05 25.14,-12.14 8.53,-9.98 12.8,-22.34 12.8,-37.07 0,-13.31 -3.26,-25.7 -9.76,-37.19 -6.51,-11.49 -15.54,-20.99 -27.1,-28.51 -9.54,-6.21 -19.87,-9.31 -31,-9.31 l -4.99,0 z m 54.64,61.34 c 1.01,7.67 1.51,13.74 1.51,18.22 0,5.78 -0.97,11.96 -2.92,18.53 -1.95,6.58 -4.7,11.63 -8.24,15.18 -3.55,3.54 -7.55,5.3 -12.03,5.3 -5.21,0 -9.8,-2.34 -13.77,-7.03 -3.98,-4.71 -5.96,-11.69 -5.96,-20.92 0,-12.44 2.6,-22.12 7.8,-29.06 3.9,-5.07 8.6,-7.59 14.09,-7.59 2.75,0 5.96,0.65 9.65,1.96 3.69,1.3 6.97,3.1 9.87,5.41 z m 35.55,-61.34 0,3.25 c 7.66,0 14.78,1.73 21.36,5.2 6.57,3.47 12.93,9.5 19.07,18.1 6.14,8.59 10.38,18.03 12.68,28.3 -9.25,-5.93 -17.56,-8.9 -24.93,-8.9 -8.38,0 -15.57,3.22 -21.57,9.64 -6,6.44 -9,15.07 -9,25.92 0,10.41 2.97,19.72 8.89,27.96 7.23,9.84 16.7,14.75 28.4,14.75 9.83,0 18.21,-4.05 25.14,-12.14 8.54,-9.98 12.8,-22.34 12.8,-37.07 0,-13.31 -3.25,-25.7 -9.76,-37.19 -6.51,-11.49 -15.53,-20.99 -27.09,-28.51 -9.54,-6.21 -19.88,-9.31 -31.01,-9.31 l -4.98,0 z m 54.63,61.34 c 1,7.67 1.51,13.74 1.51,18.22 0,5.78 -0.96,11.96 -2.92,18.53 -1.96,6.58 -4.69,11.63 -8.24,15.18 -3.54,3.54 -7.55,5.3 -12.03,5.3 -5.2,0 -9.79,-2.34 -13.76,-7.03 -3.98,-4.71 -5.97,-11.69 -5.97,-20.92 0,-12.44 2.6,-22.12 7.81,-29.06 3.9,-5.07 8.6,-7.59 14.09,-7.59 2.75,0 5.96,0.65 9.65,1.96 3.68,1.3 6.96,3.1 9.86,5.41 z m 35.55,-61.34 0,3.25 c 7.66,0 14.78,1.73 21.36,5.2 6.57,3.47 12.93,9.5 19.07,18.1 6.15,8.59 10.38,18.03 12.68,28.3 -9.24,-5.93 -17.55,-8.9 -24.93,-8.9 -8.38,0 -15.57,3.22 -21.56,9.64 -6.01,6.44 -9.01,15.07 -9.01,25.92 0,10.41 2.97,19.72 8.9,27.96 7.23,9.84 16.69,14.75 28.4,14.75 9.82,0 18.2,-4.05 25.14,-12.14 8.54,-9.98 12.79,-22.34 12.79,-37.07 0,-13.31 -3.24,-25.7 -9.75,-37.19 -6.51,-11.49 -15.54,-20.99 -27.1,-28.51 -9.54,-6.21 -19.86,-9.31 -31.01,-9.31 l -4.98,0 z m 54.64,61.34 c 1,7.67 1.51,13.74 1.51,18.22 0,5.78 -0.97,11.96 -2.92,18.53 -1.96,6.58 -4.71,11.63 -8.25,15.18 -3.53,3.54 -7.54,5.3 -12.03,5.3 -5.2,0 -9.79,-2.34 -13.76,-7.03 -3.98,-4.71 -5.97,-11.69 -5.97,-20.92 0,-12.44 2.61,-22.12 7.82,-29.06 3.89,-5.07 8.59,-7.59 14.08,-7.59 2.75,0 5.97,0.65 9.66,1.96 3.67,1.3 6.96,3.1 9.86,5.41 z m 35.55,-61.34 0,3.25 c 7.66,0 14.77,1.73 21.35,5.2 6.58,3.47 12.93,9.5 19.08,18.1 6.15,8.59 10.38,18.03 12.68,28.3 -9.24,-5.93 -17.55,-8.9 -24.93,-8.9 -8.38,0 -15.57,3.22 -21.56,9.64 -6.01,6.44 -9.01,15.07 -9.01,25.92 0,10.41 2.97,19.72 8.9,27.96 7.23,9.84 16.69,14.75 28.4,14.75 9.82,0 18.2,-4.05 25.14,-12.14 8.53,-9.98 12.79,-22.34 12.79,-37.07 0,-13.31 -3.24,-25.7 -9.75,-37.19 -6.51,-11.49 -15.54,-20.99 -27.1,-28.51 -9.55,-6.21 -19.87,-9.31 -31.01,-9.31 l -4.98,0 z m 54.64,61.34 c 1,7.67 1.51,13.74 1.51,18.22 0,5.78 -0.97,11.96 -2.93,18.53 -1.95,6.58 -4.7,11.63 -8.24,15.18 -3.54,3.54 -7.54,5.3 -12.03,5.3 -5.2,0 -9.79,-2.34 -13.76,-7.03 -3.99,-4.71 -5.97,-11.69 -5.97,-20.92 0,-12.44 2.61,-22.12 7.81,-29.06 3.9,-5.07 8.59,-7.59 14.08,-7.59 2.75,0 5.97,0.65 9.66,1.96 3.68,1.3 6.97,3.1 9.87,5.41 z m 35.54,-61.34 0,3.25 c 7.67,0 14.78,1.73 21.36,5.2 6.57,3.47 12.93,9.5 19.08,18.1 6.14,8.59 10.38,18.03 12.68,28.3 -9.24,-5.93 -17.55,-8.9 -24.94,-8.9 -8.37,0 -15.56,3.22 -21.55,9.64 -6.01,6.44 -9.01,15.07 -9.01,25.92 0,10.41 2.97,19.72 8.89,27.96 7.23,9.84 16.69,14.75 28.41,14.75 9.82,0 18.2,-4.05 25.14,-12.14 8.53,-9.98 12.79,-22.34 12.79,-37.07 0,-13.31 -3.25,-25.7 -9.76,-37.19 -6.5,-11.49 -15.53,-20.99 -27.09,-28.51 -9.55,-6.21 -19.87,-9.31 -31.01,-9.31 l -4.99,0 z m 54.65,61.34 c 1,7.67 1.51,13.74 1.51,18.22 0,5.78 -0.97,11.96 -2.93,18.53 -1.96,6.58 -4.7,11.63 -8.24,15.18 -3.54,3.54 -7.55,5.3 -12.03,5.3 -5.2,0 -9.79,-2.34 -13.76,-7.03 -3.99,-4.71 -5.97,-11.69 -5.97,-20.92 0,-12.44 2.61,-22.12 7.81,-29.06 3.9,-5.07 8.59,-7.59 14.08,-7.59 2.75,0 5.97,0.65 9.66,1.96 3.68,1.3 6.97,3.1 9.87,5.41 z m 35.54,-61.34 0,3.25 c 7.66,0 14.78,1.73 21.36,5.2 6.57,3.47 12.93,9.5 19.08,18.1 6.14,8.59 10.37,18.03 12.68,28.3 -9.24,-5.93 -17.55,-8.9 -24.94,-8.9 -8.38,0 -15.56,3.22 -21.56,9.64 -6,6.44 -9,15.07 -9,25.92 0,10.41 2.96,19.72 8.89,27.96 7.23,9.84 16.69,14.75 28.4,14.75 9.83,0 18.21,-4.05 25.14,-12.14 8.54,-9.98 12.8,-22.34 12.8,-37.07 0,-13.31 -3.25,-25.7 -9.76,-37.19 -6.51,-11.49 -15.54,-20.99 -27.1,-28.51 -9.54,-6.21 -19.86,-9.31 -31.01,-9.31 l -4.98,0 z m 54.64,61.34 c 1,7.67 1.51,13.74 1.51,18.22 0,5.78 -0.96,11.96 -2.92,18.53 -1.96,6.58 -4.7,11.63 -8.24,15.18 -3.54,3.54 -7.55,5.3 -12.03,5.3 -5.21,0 -9.8,-2.34 -13.77,-7.03 -3.98,-4.71 -5.96,-11.69 -5.96,-20.92 0,-12.44 2.6,-22.12 7.81,-29.06 3.9,-5.07 8.59,-7.59 14.08,-7.59 2.75,0 5.97,0.65 9.66,1.96 3.68,1.3 6.96,3.1 9.86,5.41 z m 35.55,-61.34 0,3.25 c 7.66,0 14.78,1.73 21.36,5.2 6.57,3.47 12.93,9.5 19.07,18.1 6.15,8.59 10.38,18.03 12.68,28.3 -9.23,-5.93 -17.55,-8.9 -24.93,-8.9 -8.38,0 -15.57,3.22 -21.56,9.64 -6.01,6.44 -9.01,15.07 -9.01,25.92 0,10.41 2.97,19.72 8.9,27.96 7.23,9.84 16.69,14.75 28.4,14.75 9.82,0 18.2,-4.05 25.14,-12.14 8.54,-9.98 12.79,-22.34 12.79,-37.07 0,-13.31 -3.24,-25.7 -9.75,-37.19 -6.51,-11.49 -15.54,-20.99 -27.1,-28.51 -9.54,-6.21 -19.87,-9.31 -31.01,-9.31 l -4.98,0 z m 54.64,61.34 c 1,7.67 1.51,13.74 1.51,18.22 0,5.78 -0.97,11.96 -2.92,18.53 -1.96,6.58 -4.71,11.63 -8.25,15.18 -3.53,3.54 -7.54,5.3 -12.03,5.3 -5.2,0 -9.79,-2.34 -13.76,-7.03 -3.98,-4.71 -5.97,-11.69 -5.97,-20.92 0,-12.44 2.61,-22.12 7.82,-29.06 3.89,-5.07 8.58,-7.59 14.08,-7.59 2.75,0 5.97,0.65 9.66,1.96 3.67,1.3 6.96,3.1 9.86,5.41 z m 35.55,-61.34 0,3.25 c 7.66,0 14.77,1.73 21.35,5.2 6.58,3.47 12.93,9.5 19.08,18.1 6.15,8.59 10.38,18.03 12.68,28.3 -9.24,-5.93 -17.55,-8.9 -24.93,-8.9 -8.38,0 -15.57,3.22 -21.56,9.64 -6.01,6.44 -9.01,15.07 -9.01,25.92 0,10.41 2.97,19.72 8.9,27.96 7.23,9.84 16.69,14.75 28.4,14.75 9.82,0 18.2,-4.05 25.14,-12.14 8.53,-9.98 12.79,-22.34 12.79,-37.07 0,-13.31 -3.24,-25.7 -9.75,-37.19 -6.51,-11.49 -15.54,-20.99 -27.1,-28.51 -9.55,-6.21 -19.87,-9.31 -31.01,-9.31 l -4.98,0 z m 54.64,61.34 c 1,7.67 1.51,13.74 1.51,18.22 0,5.78 -0.97,11.96 -2.93,18.53 -1.95,6.58 -4.7,11.63 -8.24,15.18 -3.54,3.54 -7.55,5.3 -12.03,5.3 -5.2,0 -9.79,-2.34 -13.76,-7.03 -3.99,-4.71 -5.97,-11.69 -5.97,-20.92 0,-12.44 2.61,-22.12 7.81,-29.06 3.9,-5.07 8.59,-7.59 14.08,-7.59 2.75,0 5.97,0.65 9.66,1.96 3.68,1.3 6.97,3.1 9.87,5.41 z m 35.55,-61.34 0,3.25 c 7.66,0 14.77,1.73 21.35,5.2 6.57,3.47 12.93,9.5 19.08,18.1 6.14,8.59 10.38,18.03 12.68,28.3 -9.24,-5.93 -17.55,-8.9 -24.94,-8.9 -8.37,0 -15.56,3.22 -21.55,9.64 -6.01,6.44 -9.01,15.07 -9.01,25.92 0,10.41 2.97,19.72 8.89,27.96 7.23,9.84 16.69,14.75 28.41,14.75 9.82,0 18.2,-4.05 25.14,-12.14 8.53,-9.98 12.79,-22.34 12.79,-37.07 0,-13.31 -3.25,-25.7 -9.76,-37.19 -6.5,-11.49 -15.53,-20.99 -27.09,-28.51 -9.55,-6.21 -19.87,-9.31 -31.01,-9.31 l -4.98,0 z m 54.64,61.34 c 1,7.67 1.51,13.74 1.51,18.22 0,5.78 -0.97,11.96 -2.93,18.53 -1.96,6.58 -4.7,11.63 -8.24,15.18 -3.54,3.54 -7.55,5.3 -12.03,5.3 -5.21,0 -9.79,-2.34 -13.76,-7.03 -3.99,-4.71 -5.97,-11.69 -5.97,-20.92 0,-12.44 2.61,-22.12 7.81,-29.06 3.9,-5.07 8.59,-7.59 14.08,-7.59 2.75,0 5.97,0.65 9.66,1.96 3.68,1.3 6.97,3.1 9.87,5.41 z m 35.54,-61.34 0,3.25 c 7.66,0 14.78,1.73 21.36,5.2 6.57,3.47 12.93,9.5 19.08,18.1 6.14,8.59 10.38,18.03 12.68,28.3 -9.24,-5.93 -17.56,-8.9 -24.94,-8.9 -8.38,0 -15.56,3.22 -21.56,9.64 -6,6.44 -9,15.07 -9,25.92 0,10.41 2.96,19.72 8.89,27.96 7.23,9.84 16.69,14.75 28.4,14.75 9.83,0 18.21,-4.05 25.14,-12.14 8.54,-9.98 12.8,-22.34 12.8,-37.07 0,-13.31 -3.25,-25.7 -9.76,-37.19 -6.51,-11.49 -15.54,-20.99 -27.1,-28.51 -9.54,-6.21 -19.86,-9.31 -31.01,-9.31 l -4.98,0 z m 54.64,61.34 c 1,7.67 1.51,13.74 1.51,18.22 0,5.78 -0.96,11.96 -2.92,18.53 -1.96,6.58 -4.7,11.63 -8.24,15.18 -3.54,3.54 -7.55,5.3 -12.03,5.3 -5.21,0 -9.8,-2.34 -13.77,-7.03 -3.98,-4.71 -5.96,-11.69 -5.96,-20.92 0,-12.44 2.6,-22.12 7.81,-29.06 3.9,-5.07 8.59,-7.59 14.08,-7.59 2.75,0 5.97,0.65 9.66,1.96 3.68,1.3 6.96,3.1 9.86,5.41 z m 35.55,-61.34 0,3.25 c 7.66,0 14.78,1.73 21.36,5.2 6.57,3.47 12.93,9.5 19.07,18.1 6.15,8.59 10.38,18.03 12.68,28.3 -9.24,-5.93 -17.55,-8.9 -24.93,-8.9 -8.38,0 -15.57,3.22 -21.56,9.64 -6.01,6.44 -9.01,15.07 -9.01,25.92 0,10.41 2.97,19.72 8.9,27.96 7.23,9.84 16.69,14.75 28.4,14.75 9.82,0 18.2,-4.05 25.14,-12.14 8.54,-9.98 12.79,-22.34 12.79,-37.07 0,-13.31 -3.24,-25.7 -9.75,-37.19 -6.51,-11.49 -15.54,-20.99 -27.1,-28.51 -9.54,-6.21 -19.86,-9.31 -31.01,-9.31 l -4.98,0 z m 54.64,61.34 c 1,7.67 1.51,13.74 1.51,18.22 0,5.78 -0.97,11.96 -2.92,18.53 -1.96,6.58 -4.71,11.63 -8.25,15.18 -3.53,3.54 -7.54,5.3 -12.03,5.3 -5.2,0 -9.79,-2.34 -13.76,-7.03 -3.98,-4.71 -5.97,-11.69 -5.97,-20.92 0,-12.44 2.61,-22.12 7.82,-29.06 3.89,-5.07 8.59,-7.59 14.08,-7.59 2.75,0 5.97,0.65 9.66,1.96 3.67,1.3 6.96,3.1 9.86,5.41 z m 35.55,-61.34 0,3.25 c 7.66,0 14.77,1.73 21.35,5.2 6.58,3.47 12.93,9.5 19.08,18.1 6.15,8.59 10.38,18.03 12.68,28.3 -9.24,-5.93 -17.55,-8.9 -24.93,-8.9 -8.38,0 -15.57,3.22 -21.56,9.64 -6.01,6.44 -9.01,15.07 -9.01,25.92 0,10.41 2.97,19.72 8.9,27.96 7.23,9.84 16.69,14.75 28.4,14.75 9.82,0 18.2,-4.05 25.14,-12.14 8.53,-9.98 12.79,-22.34 12.79,-37.07 0,-13.31 -3.24,-25.7 -9.75,-37.19 -6.51,-11.49 -15.54,-20.99 -27.1,-28.51 -9.55,-6.21 -19.87,-9.31 -31.01,-9.31 l -4.98,0 z m 54.64,61.34 c 1,7.67 1.51,13.74 1.51,18.22 0,5.78 -0.97,11.96 -2.93,18.53 -1.95,6.58 -4.7,11.63 -8.24,15.18 -3.54,3.54 -7.54,5.3 -12.03,5.3 -5.2,0 -9.79,-2.34 -13.76,-7.03 -3.99,-4.71 -5.97,-11.69 -5.97,-20.92 0,-12.44 2.61,-22.12 7.81,-29.06 3.9,-5.07 8.59,-7.59 14.08,-7.59 2.75,0 5.97,0.65 9.66,1.96 3.68,1.3 6.97,3.1 9.87,5.41 z m 35.54,-61.34 0,3.25 c 7.67,0 14.78,1.73 21.36,5.2 6.57,3.47 12.93,9.5 19.08,18.1 6.14,8.59 10.38,18.03 12.68,28.3 -9.24,-5.93 -17.55,-8.9 -24.94,-8.9 -8.37,0 -15.56,3.22 -21.55,9.64 -6.01,6.44 -9.01,15.07 -9.01,25.92 0,10.41 2.97,19.72 8.89,27.96 7.23,9.84 16.69,14.75 28.41,14.75 9.82,0 18.2,-4.05 25.14,-12.14 8.53,-9.98 12.79,-22.34 12.79,-37.07 0,-13.31 -3.25,-25.7 -9.76,-37.19 -6.5,-11.49 -15.53,-20.99 -27.09,-28.51 -9.55,-6.21 -19.87,-9.31 -31.01,-9.31 l -4.99,0 z m 54.65,61.34 c 1,7.67 1.51,13.74 1.51,18.22 0,5.78 -0.97,11.96 -2.93,18.53 -1.96,6.58 -4.7,11.63 -8.24,15.18 -3.54,3.54 -7.55,5.3 -12.03,5.3 -5.2,0 -9.79,-2.34 -13.76,-7.03 -3.99,-4.71 -5.97,-11.69 -5.97,-20.92 0,-12.44 2.61,-22.12 7.81,-29.06 3.9,-5.07 8.59,-7.59 14.08,-7.59 2.75,0 5.97,0.65 9.66,1.96 3.68,1.3 6.97,3.1 9.87,5.41 z m 35.11,37.73 c 3.47,8.1 7.8,14.3 13,18.64 5.21,4.33 11.65,6.51 19.3,6.51 9.69,0 17.06,-3.11 22.12,-9.32 3.9,-4.64 5.86,-9.55 5.86,-14.75 0,-8.82 -5.5,-17.85 -16.49,-27.1 7.37,-2.89 12.94,-7.01 16.69,-12.35 3.76,-5.35 5.64,-11.64 5.64,-18.87 0,-10.25 -3.32,-19.15 -9.96,-26.67 -8.54,-9.96 -20.9,-14.95 -37.08,-14.95 -8.1,0 -13.58,1.01 -16.48,3.04 -2.89,2.02 -4.33,4.19 -4.33,6.5 0,1.74 0.68,3.21 2.05,4.44 1.37,1.23 3,1.85 4.89,1.85 1.44,0 2.95,-0.22 4.55,-0.65 1.01,-0.3 3.29,-1.34 6.82,-3.16 3.54,-1.8 5.97,-2.92 7.27,-3.35 2.17,-0.57 4.47,-0.86 6.94,-0.86 5.93,0 11.13,2.3 15.61,6.94 4.47,4.62 6.72,10.11 6.72,16.46 0,4.64 -1.02,9.11 -3.04,13.45 -1.58,3.33 -3.32,5.86 -5.21,7.59 -2.45,2.3 -5.88,4.41 -10.29,6.29 -4.41,1.87 -8.92,2.81 -13.56,2.81 l -2.81,0 0,2.82 c 4.63,0.58 9.29,2.24 13.98,4.99 4.71,2.73 8.09,6.02 10.19,9.87 2.11,3.83 3.15,8.11 3.15,12.89 0,5.92 -1.87,10.76 -5.64,14.53 -3.75,3.75 -8.46,5.63 -14.09,5.63 -9.11,0 -16.7,-4.85 -22.76,-14.53 l -3.04,1.31"
             style="fill:#000000;fill-opacity:1;fill-rule:nonzero;stroke:none"
             id="path60"
             inkscape:connector-curvature="0" /><path
             d="m 2217.92,3256.81 0,-72.15"
             style="fill:none;stroke:#000000;stroke-width:13.875;stroke-linecap:butt;stroke-linejoin:round;stroke-miterlimit:10;stroke-opacity:1;stroke-dasharray:none"
             id="path62"
             inkscape:connector-curvature="0" /><path
             d="m 2730.61,3256.81 0,-72.15"
             style="fill:none;stroke:#000000;stroke-width:13.875;stroke-linecap:butt;stroke-linejoin:round;stroke-miterlimit:10;stroke-opacity:1;stroke-dasharray:none"
             id="path64"
             inkscape:connector-curvature="0" /><path
             d="m 3243.3,3256.81 0,-72.15"
             style="fill:none;stroke:#000000;stroke-width:13.875;stroke-linecap:butt;stroke-linejoin:round;stroke-miterlimit:10;stroke-opacity:1;stroke-dasharray:none"
             id="path66"
             inkscape:connector-curvature="0" /><path
             d="m 2559.49,3055.97 c 0,13.6 2.07,25.33 6.19,35.24 4.11,9.9 9.57,17.24 16.36,21.99 5.35,3.76 10.85,5.65 16.48,5.65 9.1,0 17.28,-4.64 24.49,-13.87 9.12,-11.58 13.67,-27.25 13.67,-47.05 0,-13.88 -1.98,-25.66 -5.97,-35.34 -3.96,-9.69 -9.07,-16.74 -15.27,-21.14 -6.22,-4.41 -12.14,-6.61 -17.79,-6.61 -11.42,0 -20.95,6.73 -28.61,20.16 -6.37,11.41 -9.55,25.08 -9.55,40.97 z m 17.35,-2.17 c 0,-16.46 2.02,-29.91 6.07,-40.32 3.32,-8.67 8.32,-13.01 14.96,-13.01 3.18,0 6.47,1.41 9.87,4.23 3.4,2.82 5.96,7.63 7.7,14.42 2.73,9.97 4.1,24.21 4.1,42.7 0,13.59 -1.44,24.94 -4.33,34.04 -2.02,6.8 -4.77,11.57 -8.24,14.32 -2.3,1.87 -5.2,2.82 -8.67,2.82 -3.9,0 -7.44,-1.74 -10.61,-5.21 -4.21,-4.91 -7.05,-12.61 -8.58,-23.09 -1.51,-10.47 -2.27,-20.78 -2.27,-30.9 z m 88.89,-39.66 c 2.74,0 5.06,-0.98 6.94,-2.93 1.88,-1.96 2.82,-4.23 2.82,-6.83 0,-2.75 -0.94,-5.06 -2.82,-6.93 -1.88,-1.89 -4.2,-2.82 -6.94,-2.82 -2.74,0 -5.06,0.93 -6.93,2.82 -1.89,1.87 -2.84,4.18 -2.84,6.93 0,2.75 0.95,5.05 2.84,6.94 1.87,1.87 4.19,2.82 6.93,2.82 z m 32.08,-19.51 0,3.25 c 7.66,0 14.78,1.73 21.36,5.2 6.57,3.47 12.93,9.5 19.08,18.1 6.14,8.59 10.37,18.03 12.68,28.3 -9.24,-5.93 -17.55,-8.9 -24.94,-8.9 -8.38,0 -15.56,3.22 -21.56,9.64 -6,6.44 -9,15.07 -9,25.92 0,10.41 2.96,19.72 8.89,27.96 7.23,9.84 16.69,14.75 28.4,14.75 9.83,0 18.21,-4.05 25.14,-12.14 8.54,-9.98 12.8,-22.34 12.8,-37.07 0,-13.31 -3.25,-25.7 -9.76,-37.19 -6.51,-11.49 -15.54,-20.99 -27.1,-28.51 -9.54,-6.21 -19.86,-9.31 -31.01,-9.31 l -4.98,0 z m 54.64,61.34 c 1,7.67 1.51,13.74 1.51,18.22 0,5.78 -0.96,11.96 -2.92,18.53 -1.96,6.58 -4.7,11.63 -8.24,15.18 -3.54,3.54 -7.55,5.3 -12.03,5.3 -5.21,0 -9.8,-2.34 -13.77,-7.03 -3.98,-4.71 -5.96,-11.69 -5.96,-20.92 0,-12.44 2.6,-22.12 7.81,-29.06 3.9,-5.07 8.59,-7.59 14.08,-7.59 2.75,0 5.97,0.65 9.66,1.96 3.68,1.3 6.96,3.1 9.86,5.41 z m 35.55,-61.34 0,3.25 c 7.66,0 14.78,1.73 21.36,5.2 6.57,3.47 12.93,9.5 19.07,18.1 6.15,8.59 10.38,18.03 12.68,28.3 -9.23,-5.93 -17.55,-8.9 -24.93,-8.9 -8.38,0 -15.57,3.22 -21.56,9.64 -6.01,6.44 -9.01,15.07 -9.01,25.92 0,10.41 2.97,19.72 8.9,27.96 7.23,9.84 16.69,14.75 28.4,14.75 9.82,0 18.2,-4.05 25.14,-12.14 8.54,-9.98 12.79,-22.34 12.79,-37.07 0,-13.31 -3.24,-25.7 -9.75,-37.19 -6.51,-11.49 -15.54,-20.99 -27.1,-28.51 -9.54,-6.21 -19.87,-9.31 -31.01,-9.31 l -4.98,0 z m 54.64,61.34 c 1,7.67 1.51,13.74 1.51,18.22 0,5.78 -0.97,11.96 -2.92,18.53 -1.96,6.58 -4.71,11.63 -8.25,15.18 -3.53,3.54 -7.54,5.3 -12.03,5.3 -5.2,0 -9.79,-2.34 -13.76,-7.03 -3.98,-4.71 -5.97,-11.69 -5.97,-20.92 0,-12.44 2.61,-22.12 7.82,-29.06 3.89,-5.07 8.58,-7.59 14.08,-7.59 2.75,0 5.97,0.65 9.66,1.96 3.67,1.3 6.96,3.1 9.86,5.41 z m 35.55,-61.34 0,3.25 c 7.66,0 14.77,1.73 21.35,5.2 6.58,3.47 12.93,9.5 19.08,18.1 6.15,8.59 10.38,18.03 12.68,28.3 -9.24,-5.93 -17.55,-8.9 -24.93,-8.9 -8.38,0 -15.57,3.22 -21.56,9.64 -6.01,6.44 -9.01,15.07 -9.01,25.92 0,10.41 2.97,19.72 8.9,27.96 7.23,9.84 16.69,14.75 28.4,14.75 9.82,0 18.2,-4.05 25.14,-12.14 8.53,-9.98 12.79,-22.34 12.79,-37.07 0,-13.31 -3.24,-25.7 -9.75,-37.19 -6.51,-11.49 -15.54,-20.99 -27.1,-28.51 -9.55,-6.21 -19.87,-9.31 -31.01,-9.31 l -4.98,0 z m 54.64,61.34 c 1,7.67 1.51,13.74 1.51,18.22 0,5.78 -0.97,11.96 -2.93,18.53 -1.95,6.58 -4.7,11.63 -8.24,15.18 -3.54,3.54 -7.55,5.3 -12.03,5.3 -5.2,0 -9.79,-2.34 -13.76,-7.03 -3.99,-4.71 -5.97,-11.69 -5.97,-20.92 0,-12.44 2.61,-22.12 7.81,-29.06 3.9,-5.07 8.59,-7.59 14.08,-7.59 2.75,0 5.97,0.65 9.66,1.96 3.68,1.3 6.97,3.1 9.87,5.41 z m 35.55,-61.34 0,3.25 c 7.66,0 14.77,1.73 21.35,5.2 6.57,3.47 12.93,9.5 19.08,18.1 6.14,8.59 10.38,18.03 12.68,28.3 -9.24,-5.93 -17.55,-8.9 -24.94,-8.9 -8.37,0 -15.56,3.22 -21.55,9.64 -6.01,6.44 -9.01,15.07 -9.01,25.92 0,10.41 2.97,19.72 8.89,27.96 7.23,9.84 16.69,14.75 28.41,14.75 9.82,0 18.2,-4.05 25.14,-12.14 8.53,-9.98 12.79,-22.34 12.79,-37.07 0,-13.31 -3.25,-25.7 -9.76,-37.19 -6.5,-11.49 -15.53,-20.99 -27.09,-28.51 -9.55,-6.21 -19.87,-9.31 -31.01,-9.31 l -4.98,0 z m 54.64,61.34 c 1,7.67 1.51,13.74 1.51,18.22 0,5.78 -0.97,11.96 -2.93,18.53 -1.96,6.58 -4.7,11.63 -8.24,15.18 -3.54,3.54 -7.55,5.3 -12.03,5.3 -5.21,0 -9.79,-2.34 -13.76,-7.03 -3.99,-4.71 -5.97,-11.69 -5.97,-20.92 0,-12.44 2.61,-22.12 7.81,-29.06 3.9,-5.07 8.59,-7.59 14.08,-7.59 2.75,0 5.97,0.65 9.66,1.96 3.68,1.3 6.97,3.1 9.87,5.41 z m 35.54,-61.34 0,3.25 c 7.66,0 14.78,1.73 21.36,5.2 6.57,3.47 12.93,9.5 19.08,18.1 6.14,8.59 10.38,18.03 12.68,28.3 -9.24,-5.93 -17.56,-8.9 -24.94,-8.9 -8.38,0 -15.56,3.22 -21.56,9.64 -6,6.44 -9,15.07 -9,25.92 0,10.41 2.96,19.72 8.89,27.96 7.23,9.84 16.69,14.75 28.4,14.75 9.83,0 18.21,-4.05 25.14,-12.14 8.54,-9.98 12.8,-22.34 12.8,-37.07 0,-13.31 -3.25,-25.7 -9.76,-37.19 -6.51,-11.49 -15.54,-20.99 -27.1,-28.51 -9.54,-6.21 -19.86,-9.31 -31.01,-9.31 l -4.98,0 z m 54.64,61.34 c 1,7.67 1.51,13.74 1.51,18.22 0,5.78 -0.96,11.96 -2.92,18.53 -1.96,6.58 -4.7,11.63 -8.24,15.18 -3.54,3.54 -7.55,5.3 -12.03,5.3 -5.21,0 -9.8,-2.34 -13.77,-7.03 -3.98,-4.71 -5.96,-11.69 -5.96,-20.92 0,-12.44 2.6,-22.12 7.81,-29.06 3.9,-5.07 8.59,-7.59 14.08,-7.59 2.75,0 5.97,0.65 9.66,1.96 3.68,1.3 6.96,3.1 9.86,5.41 z m 35.55,-61.34 0,3.25 c 7.66,0 14.78,1.73 21.36,5.2 6.57,3.47 12.93,9.5 19.07,18.1 6.15,8.59 10.38,18.03 12.68,28.3 -9.24,-5.93 -17.55,-8.9 -24.93,-8.9 -8.38,0 -15.57,3.22 -21.56,9.64 -6.01,6.44 -9.01,15.07 -9.01,25.92 0,10.41 2.97,19.72 8.9,27.96 7.23,9.84 16.69,14.75 28.4,14.75 9.82,0 18.2,-4.05 25.14,-12.14 8.54,-9.98 12.79,-22.34 12.79,-37.07 0,-13.31 -3.24,-25.7 -9.75,-37.19 -6.51,-11.49 -15.54,-20.99 -27.1,-28.51 -9.54,-6.21 -19.86,-9.31 -31.01,-9.31 l -4.98,0 z m 54.64,61.34 c 1,7.67 1.51,13.74 1.51,18.22 0,5.78 -0.97,11.96 -2.92,18.53 -1.96,6.58 -4.71,11.63 -8.25,15.18 -3.53,3.54 -7.54,5.3 -12.03,5.3 -5.2,0 -9.79,-2.34 -13.76,-7.03 -3.98,-4.71 -5.97,-11.69 -5.97,-20.92 0,-12.44 2.61,-22.12 7.82,-29.06 3.89,-5.07 8.59,-7.59 14.08,-7.59 2.75,0 5.97,0.65 9.66,1.96 3.67,1.3 6.96,3.1 9.86,5.41 z m 35.55,-61.34 0,3.25 c 7.66,0 14.77,1.73 21.35,5.2 6.58,3.47 12.93,9.5 19.08,18.1 6.15,8.59 10.38,18.03 12.68,28.3 -9.24,-5.93 -17.55,-8.9 -24.93,-8.9 -8.38,0 -15.57,3.22 -21.56,9.64 -6.01,6.44 -9.01,15.07 -9.01,25.92 0,10.41 2.97,19.72 8.9,27.96 7.23,9.84 16.69,14.75 28.4,14.75 9.82,0 18.2,-4.05 25.14,-12.14 8.53,-9.98 12.79,-22.34 12.79,-37.07 0,-13.31 -3.24,-25.7 -9.75,-37.19 -6.51,-11.49 -15.54,-20.99 -27.1,-28.51 -9.55,-6.21 -19.87,-9.31 -31.01,-9.31 l -4.98,0 z m 54.64,61.34 c 1,7.67 1.51,13.74 1.51,18.22 0,5.78 -0.97,11.96 -2.93,18.53 -1.95,6.58 -4.7,11.63 -8.24,15.18 -3.54,3.54 -7.54,5.3 -12.03,5.3 -5.2,0 -9.79,-2.34 -13.76,-7.03 -3.99,-4.71 -5.97,-11.69 -5.97,-20.92 0,-12.44 2.61,-22.12 7.81,-29.06 3.9,-5.07 8.59,-7.59 14.08,-7.59 2.75,0 5.97,0.65 9.66,1.96 3.68,1.3 6.97,3.1 9.87,5.41 z m 35.54,-61.34 0,3.25 c 7.67,0 14.78,1.73 21.36,5.2 6.57,3.47 12.93,9.5 19.08,18.1 6.14,8.59 10.38,18.03 12.68,28.3 -9.24,-5.93 -17.55,-8.9 -24.94,-8.9 -8.37,0 -15.56,3.22 -21.55,9.64 -6.01,6.44 -9.01,15.07 -9.01,25.92 0,10.41 2.97,19.72 8.89,27.96 7.23,9.84 16.69,14.75 28.41,14.75 9.82,0 18.2,-4.05 25.14,-12.14 8.53,-9.98 12.79,-22.34 12.79,-37.07 0,-13.31 -3.25,-25.7 -9.76,-37.19 -6.5,-11.49 -15.53,-20.99 -27.09,-28.51 -9.55,-6.21 -19.87,-9.31 -31.01,-9.31 l -4.99,0 z m 54.65,61.34 c 1,7.67 1.51,13.74 1.51,18.22 0,5.78 -0.97,11.96 -2.93,18.53 -1.96,6.58 -4.7,11.63 -8.24,15.18 -3.54,3.54 -7.55,5.3 -12.03,5.3 -5.2,0 -9.79,-2.34 -13.76,-7.03 -3.99,-4.71 -5.97,-11.69 -5.97,-20.92 0,-12.44 2.61,-22.12 7.81,-29.06 3.9,-5.07 8.59,-7.59 14.08,-7.59 2.75,0 5.97,0.65 9.66,1.96 3.68,1.3 6.97,3.1 9.87,5.41 z m 35.54,-61.34 0,3.25 c 7.66,0 14.78,1.73 21.36,5.2 6.57,3.47 12.93,9.5 19.08,18.1 6.14,8.59 10.37,18.03 12.68,28.3 -9.24,-5.93 -17.55,-8.9 -24.94,-8.9 -8.38,0 -15.56,3.22 -21.56,9.64 -6,6.44 -9,15.07 -9,25.92 0,10.41 2.96,19.72 8.89,27.96 7.23,9.84 16.69,14.75 28.4,14.75 9.83,0 18.21,-4.05 25.14,-12.14 8.54,-9.98 12.8,-22.34 12.8,-37.07 0,-13.31 -3.25,-25.7 -9.76,-37.19 -6.51,-11.49 -15.54,-20.99 -27.1,-28.51 -9.54,-6.21 -19.86,-9.31 -31.01,-9.31 l -4.98,0 z m 54.64,61.34 c 1,7.67 1.51,13.74 1.51,18.22 0,5.78 -0.96,11.96 -2.92,18.53 -1.96,6.58 -4.7,11.63 -8.24,15.18 -3.54,3.54 -7.55,5.3 -12.03,5.3 -5.21,0 -9.8,-2.34 -13.77,-7.03 -3.98,-4.71 -5.96,-11.69 -5.96,-20.92 0,-12.44 2.6,-22.12 7.81,-29.06 3.9,-5.07 8.59,-7.59 14.08,-7.59 2.75,0 5.97,0.65 9.66,1.96 3.68,1.3 6.96,3.1 9.86,5.41 z m 35.55,-61.34 0,3.25 c 7.66,0 14.78,1.73 21.36,5.2 6.57,3.47 12.93,9.5 19.07,18.1 6.15,8.59 10.38,18.03 12.68,28.3 -9.23,-5.93 -17.55,-8.9 -24.93,-8.9 -8.38,0 -15.57,3.22 -21.56,9.64 -6.01,6.44 -9.01,15.07 -9.01,25.92 0,10.41 2.97,19.72 8.9,27.96 7.23,9.84 16.69,14.75 28.4,14.75 9.82,0 18.2,-4.05 25.14,-12.14 8.54,-9.98 12.79,-22.34 12.79,-37.07 0,-13.31 -3.24,-25.7 -9.75,-37.19 -6.51,-11.49 -15.54,-20.99 -27.1,-28.51 -9.54,-6.21 -19.87,-9.31 -31.01,-9.31 l -4.98,0 z m 54.64,61.34 c 1,7.67 1.51,13.74 1.51,18.22 0,5.78 -0.97,11.96 -2.92,18.53 -1.96,6.58 -4.71,11.63 -8.25,15.18 -3.53,3.54 -7.54,5.3 -12.03,5.3 -5.2,0 -9.79,-2.34 -13.76,-7.03 -3.98,-4.71 -5.97,-11.69 -5.97,-20.92 0,-12.44 2.61,-22.12 7.82,-29.06 3.89,-5.07 8.58,-7.59 14.08,-7.59 2.75,0 5.97,0.65 9.66,1.96 3.67,1.3 6.96,3.1 9.86,5.41 z m 35.55,-61.34 0,3.25 c 7.66,0 14.77,1.73 21.35,5.2 6.58,3.47 12.93,9.5 19.08,18.1 6.15,8.59 10.38,18.03 12.68,28.3 -9.24,-5.93 -17.55,-8.9 -24.93,-8.9 -8.38,0 -15.57,3.22 -21.56,9.64 -6.01,6.44 -9.01,15.07 -9.01,25.92 0,10.41 2.97,19.72 8.9,27.96 7.23,9.84 16.69,14.75 28.4,14.75 9.82,0 18.2,-4.05 25.14,-12.14 8.53,-9.98 12.79,-22.34 12.79,-37.07 0,-13.31 -3.24,-25.7 -9.75,-37.19 -6.51,-11.49 -15.54,-20.99 -27.1,-28.51 -9.55,-6.21 -19.87,-9.31 -31.01,-9.31 l -4.98,0 z m 54.64,61.34 c 1,7.67 1.51,13.74 1.51,18.22 0,5.78 -0.97,11.96 -2.93,18.53 -1.95,6.58 -4.7,11.63 -8.24,15.18 -3.54,3.54 -7.55,5.3 -12.03,5.3 -5.2,0 -9.8,-2.34 -13.76,-7.03 -3.99,-4.71 -5.97,-11.69 -5.97,-20.92 0,-12.44 2.61,-22.12 7.81,-29.06 3.9,-5.07 8.59,-7.59 14.08,-7.59 2.75,0 5.97,0.65 9.66,1.96 3.68,1.3 6.97,3.1 9.87,5.41 z m 35.55,-61.34 0,3.25 c 7.66,0 14.77,1.73 21.35,5.2 6.57,3.47 12.93,9.5 19.08,18.1 6.14,8.59 10.38,18.03 12.68,28.3 -9.24,-5.93 -17.55,-8.9 -24.94,-8.9 -8.37,0 -15.56,3.22 -21.55,9.64 -6.02,6.44 -9.01,15.07 -9.01,25.92 0,10.41 2.97,19.72 8.89,27.96 7.23,9.84 16.69,14.75 28.41,14.75 9.82,0 18.2,-4.05 25.14,-12.14 8.53,-9.98 12.79,-22.34 12.79,-37.07 0,-13.31 -3.25,-25.7 -9.76,-37.19 -6.5,-11.49 -15.53,-20.99 -27.09,-28.51 -9.55,-6.21 -19.87,-9.31 -31.01,-9.31 l -4.98,0 z m 54.64,61.34 c 1,7.67 1.51,13.74 1.51,18.22 0,5.78 -0.97,11.96 -2.93,18.53 -1.96,6.58 -4.7,11.63 -8.24,15.18 -3.54,3.54 -7.55,5.3 -12.03,5.3 -5.21,0 -9.8,-2.34 -13.76,-7.03 -3.99,-4.71 -5.97,-11.69 -5.97,-20.92 0,-12.44 2.61,-22.12 7.81,-29.06 3.9,-5.07 8.59,-7.59 14.08,-7.59 2.75,0 5.97,0.65 9.66,1.96 3.68,1.3 6.97,3.1 9.87,5.41 z m 35.54,-61.34 0,3.25 c 7.66,0 14.78,1.73 21.36,5.2 6.57,3.47 12.93,9.5 19.08,18.1 6.14,8.59 10.38,18.03 12.68,28.3 -9.24,-5.93 -17.56,-8.9 -24.94,-8.9 -8.38,0 -15.56,3.22 -21.56,9.64 -6.01,6.44 -9,15.07 -9,25.92 0,10.41 2.96,19.72 8.89,27.96 7.23,9.84 16.69,14.75 28.4,14.75 9.83,0 18.21,-4.05 25.14,-12.14 8.54,-9.98 12.8,-22.34 12.8,-37.07 0,-13.31 -3.25,-25.7 -9.76,-37.19 -6.51,-11.49 -15.54,-20.99 -27.1,-28.51 -9.54,-6.21 -19.86,-9.31 -31.01,-9.31 l -4.98,0 z m 54.64,61.34 c 1,7.67 1.51,13.74 1.51,18.22 0,5.78 -0.96,11.96 -2.92,18.53 -1.96,6.58 -4.7,11.63 -8.24,15.18 -3.54,3.54 -7.55,5.3 -12.03,5.3 -5.21,0 -9.8,-2.34 -13.77,-7.03 -3.98,-4.71 -5.96,-11.69 -5.96,-20.92 0,-12.44 2.6,-22.12 7.81,-29.06 3.9,-5.07 8.59,-7.59 14.08,-7.59 2.75,0 5.97,0.65 9.66,1.96 3.68,1.3 6.96,3.1 9.86,5.41 z m 35.55,-61.34 0,3.25 c 7.66,0 14.78,1.73 21.36,5.2 6.57,3.47 12.93,9.5 19.07,18.1 6.15,8.59 10.38,18.03 12.68,28.3 -9.24,-5.93 -17.55,-8.9 -24.93,-8.9 -8.38,0 -15.57,3.22 -21.56,9.64 -6.01,6.44 -9.01,15.07 -9.01,25.92 0,10.41 2.97,19.72 8.9,27.96 7.23,9.84 16.69,14.75 28.4,14.75 9.82,0 18.2,-4.05 25.14,-12.14 8.54,-9.98 12.79,-22.34 12.79,-37.07 0,-13.31 -3.24,-25.7 -9.75,-37.19 -6.51,-11.49 -15.54,-20.99 -27.1,-28.51 -9.54,-6.21 -19.86,-9.31 -31.01,-9.31 l -4.98,0 z m 54.64,61.34 c 1,7.67 1.51,13.74 1.51,18.22 0,5.78 -0.97,11.96 -2.92,18.53 -1.96,6.58 -4.71,11.63 -8.25,15.18 -3.53,3.54 -7.54,5.3 -12.03,5.3 -5.2,0 -9.79,-2.34 -13.76,-7.03 -3.98,-4.71 -5.97,-11.69 -5.97,-20.92 0,-12.44 2.61,-22.12 7.82,-29.06 3.89,-5.07 8.59,-7.59 14.08,-7.59 2.75,0 5.97,0.65 9.66,1.96 3.67,1.3 6.96,3.1 9.86,5.41 z m 106.88,62.88 0,-3.26 c -7.81,-0.72 -14.16,-2.23 -19.08,-4.55 -4.91,-2.31 -9.75,-5.86 -14.53,-10.61 -4.77,-4.78 -8.71,-10.09 -11.82,-15.95 -3.11,-5.86 -5.74,-12.75 -7.91,-20.7 8.54,5.79 17.06,8.67 25.59,8.67 8.09,0 15.14,-3.29 21.13,-9.86 5.99,-6.58 9.01,-15.07 9.01,-25.48 0,-9.97 -3.04,-19.07 -9.12,-27.32 -7.23,-9.96 -16.83,-14.95 -28.83,-14.95 -8.25,0 -15.18,2.74 -20.82,8.24 -11.12,10.4 -16.69,23.99 -16.69,40.75 0,10.7 2.14,20.85 6.4,30.47 4.26,9.6 10.36,18.17 18.31,25.68 7.96,7.52 15.59,12.54 22.89,15.07 7.29,2.54 14.05,3.8 20.27,3.8 l 5.2,0 z m -54.85,-61.58 c -1.01,-7.95 -1.53,-14.37 -1.53,-19.28 0,-5.65 1.06,-11.76 3.16,-18.33 2.09,-6.58 5.16,-11.81 9.21,-15.72 3.04,-2.74 6.71,-4.11 11.06,-4.11 5.05,0 9.6,2.42 13.65,7.26 4.05,4.84 6.08,11.67 6.08,20.49 0,10.12 -2.03,18.81 -6.08,26.11 -4.05,7.3 -9.68,10.95 -16.92,10.95 -2.3,0 -4.73,-0.46 -7.25,-1.4 -2.53,-0.94 -6.33,-2.93 -11.38,-5.97"
             style="fill:#000000;fill-opacity:1;fill-rule:nonzero;stroke:none"
             id="path68"
             inkscape:connector-curvature="0" /><path
             d="m 3755.98,3256.81 0,-72.15"
             style="fill:none;stroke:#000000;stroke-width:13.875;stroke-linecap:butt;stroke-linejoin:round;stroke-miterlimit:10;stroke-opacity:1;stroke-dasharray:none"
             id="path70"
             inkscape:connector-curvature="0" /><path
             d="m 4268.66,3256.81 0,-72.15"
             style="fill:none;stroke:#000000;stroke-width:13.875;stroke-linecap:butt;stroke-linejoin:round;stroke-miterlimit:10;stroke-opacity:1;stroke-dasharray:none"
             id="path72"
             inkscape:connector-curvature="0" /><path
             d="m 4781.35,3256.81 0,-72.15"
             style="fill:none;stroke:#000000;stroke-width:13.875;stroke-linecap:butt;stroke-linejoin:round;stroke-miterlimit:10;stroke-opacity:1;stroke-dasharray:none"
             id="path74"
             inkscape:connector-curvature="0" /><path
             d="m 4099.62,3055.97 c 0,13.6 2.07,25.33 6.19,35.24 4.1,9.9 9.57,17.24 16.35,21.99 5.36,3.76 10.86,5.65 16.49,5.65 9.1,0 17.27,-4.64 24.49,-13.87 9.11,-11.58 13.66,-27.25 13.66,-47.05 0,-13.88 -1.98,-25.66 -5.96,-35.34 -3.97,-9.69 -9.07,-16.74 -15.28,-21.14 -6.21,-4.41 -12.14,-6.61 -17.79,-6.61 -11.41,0 -20.95,6.73 -28.61,20.16 -6.36,11.41 -9.54,25.08 -9.54,40.97 z m 17.34,-2.17 c 0,-16.46 2.03,-29.91 6.08,-40.32 3.32,-8.67 8.31,-13.01 14.96,-13.01 3.18,0 6.46,1.41 9.86,4.23 3.4,2.82 5.97,7.63 7.7,14.42 2.74,9.97 4.11,24.21 4.11,42.7 0,13.59 -1.44,24.94 -4.33,34.04 -2.02,6.8 -4.77,11.57 -8.24,14.32 -2.3,1.87 -5.21,2.82 -8.67,2.82 -3.9,0 -7.44,-1.74 -10.62,-5.21 -4.2,-4.91 -7.04,-12.61 -8.57,-23.09 -1.51,-10.47 -2.28,-20.78 -2.28,-30.9 z m 88.9,-39.66 c 2.73,0 5.05,-0.98 6.94,-2.93 1.87,-1.96 2.81,-4.23 2.81,-6.83 0,-2.75 -0.94,-5.06 -2.81,-6.93 -1.89,-1.89 -4.21,-2.82 -6.94,-2.82 -2.75,0 -5.06,0.93 -6.94,2.82 -1.88,1.87 -2.83,4.18 -2.83,6.93 0,2.75 0.95,5.05 2.83,6.94 1.88,1.87 4.19,2.82 6.94,2.82 z m 32.08,-19.51 0,3.25 c 7.66,0 14.77,1.73 21.35,5.2 6.58,3.47 12.93,9.5 19.08,18.1 6.15,8.59 10.38,18.03 12.68,28.3 -9.24,-5.93 -17.55,-8.9 -24.93,-8.9 -8.38,0 -15.57,3.22 -21.56,9.64 -6.01,6.44 -9.01,15.07 -9.01,25.92 0,10.41 2.97,19.72 8.9,27.96 7.23,9.84 16.69,14.75 28.4,14.75 9.82,0 18.2,-4.05 25.14,-12.14 8.53,-9.98 12.79,-22.34 12.79,-37.07 0,-13.31 -3.24,-25.7 -9.75,-37.19 -6.51,-11.49 -15.54,-20.99 -27.1,-28.51 -9.55,-6.21 -19.87,-9.31 -31.01,-9.31 l -4.98,0 z m 54.64,61.34 c 1,7.67 1.51,13.74 1.51,18.22 0,5.78 -0.97,11.96 -2.93,18.53 -1.95,6.58 -4.7,11.63 -8.24,15.18 -3.54,3.54 -7.54,5.3 -12.03,5.3 -5.2,0 -9.79,-2.34 -13.76,-7.03 -3.99,-4.71 -5.97,-11.69 -5.97,-20.92 0,-12.44 2.61,-22.12 7.81,-29.06 3.9,-5.07 8.59,-7.59 14.08,-7.59 2.75,0 5.97,0.65 9.66,1.96 3.68,1.3 6.97,3.1 9.87,5.41 z m 35.54,-61.34 0,3.25 c 7.67,0 14.78,1.73 21.36,5.2 6.58,3.47 12.93,9.5 19.08,18.1 6.14,8.59 10.38,18.03 12.68,28.3 -9.24,-5.93 -17.55,-8.9 -24.94,-8.9 -8.37,0 -15.56,3.22 -21.55,9.64 -6.01,6.44 -9.01,15.07 -9.01,25.92 0,10.41 2.97,19.72 8.89,27.96 7.23,9.84 16.69,14.75 28.41,14.75 9.82,0 18.2,-4.05 25.14,-12.14 8.53,-9.98 12.79,-22.34 12.79,-37.07 0,-13.31 -3.25,-25.7 -9.76,-37.19 -6.5,-11.49 -15.53,-20.99 -27.09,-28.51 -9.55,-6.21 -19.87,-9.31 -31.01,-9.31 l -4.99,0 z m 54.65,61.34 c 1,7.67 1.51,13.74 1.51,18.22 0,5.78 -0.97,11.96 -2.93,18.53 -1.96,6.58 -4.7,11.63 -8.24,15.18 -3.54,3.54 -7.55,5.3 -12.03,5.3 -5.2,0 -9.79,-2.34 -13.76,-7.03 -3.99,-4.71 -5.97,-11.69 -5.97,-20.92 0,-12.44 2.61,-22.12 7.81,-29.06 3.9,-5.07 8.59,-7.59 14.08,-7.59 2.75,0 5.97,0.65 9.66,1.96 3.68,1.3 6.97,3.1 9.87,5.41 z m 35.54,-61.34 0,3.25 c 7.66,0 14.78,1.73 21.36,5.2 6.58,3.47 12.93,9.5 19.08,18.1 6.14,8.59 10.37,18.03 12.68,28.3 -9.24,-5.93 -17.55,-8.9 -24.94,-8.9 -8.38,0 -15.56,3.22 -21.56,9.64 -6,6.44 -9,15.07 -9,25.92 0,10.41 2.96,19.72 8.89,27.96 7.23,9.84 16.69,14.75 28.4,14.75 9.83,0 18.21,-4.05 25.14,-12.14 8.54,-9.98 12.8,-22.34 12.8,-37.07 0,-13.31 -3.25,-25.7 -9.76,-37.19 -6.51,-11.49 -15.54,-20.99 -27.1,-28.51 -9.54,-6.21 -19.86,-9.31 -31.01,-9.31 l -4.98,0 z m 54.64,61.34 c 1,7.67 1.51,13.74 1.51,18.22 0,5.78 -0.96,11.96 -2.92,18.53 -1.96,6.58 -4.7,11.63 -8.24,15.18 -3.54,3.54 -7.55,5.3 -12.03,5.3 -5.21,0 -9.8,-2.34 -13.77,-7.03 -3.98,-4.71 -5.96,-11.69 -5.96,-20.92 0,-12.44 2.6,-22.12 7.81,-29.06 3.9,-5.07 8.59,-7.59 14.08,-7.59 2.75,0 5.97,0.65 9.66,1.96 3.68,1.3 6.96,3.1 9.86,5.41 z m 35.55,-61.34 0,3.25 c 7.66,0 14.78,1.73 21.36,5.2 6.57,3.47 12.93,9.5 19.07,18.1 6.15,8.59 10.38,18.03 12.68,28.3 -9.23,-5.93 -17.55,-8.9 -24.93,-8.9 -8.38,0 -15.57,3.22 -21.56,9.64 -6.01,6.44 -9.01,15.07 -9.01,25.92 0,10.41 2.97,19.72 8.9,27.96 7.23,9.84 16.69,14.75 28.4,14.75 9.82,0 18.2,-4.05 25.14,-12.14 8.54,-9.98 12.79,-22.34 12.79,-37.07 0,-13.31 -3.24,-25.7 -9.75,-37.19 -6.51,-11.49 -15.54,-20.99 -27.1,-28.51 -9.54,-6.21 -19.87,-9.31 -31.01,-9.31 l -4.98,0 z m 54.64,61.34 c 1,7.67 1.51,13.74 1.51,18.22 0,5.78 -0.97,11.96 -2.92,18.53 -1.96,6.58 -4.71,11.63 -8.25,15.18 -3.53,3.54 -7.54,5.3 -12.03,5.3 -5.2,0 -9.79,-2.34 -13.76,-7.03 -3.98,-4.71 -5.97,-11.69 -5.97,-20.92 0,-12.44 2.61,-22.12 7.82,-29.06 3.89,-5.07 8.58,-7.59 14.08,-7.59 2.75,0 5.97,0.65 9.66,1.96 3.67,1.3 6.96,3.1 9.86,5.41 z m 35.55,-61.34 0,3.25 c 7.66,0 14.77,1.73 21.35,5.2 6.58,3.47 12.93,9.5 19.08,18.1 6.15,8.59 10.38,18.03 12.68,28.3 -9.24,-5.93 -17.55,-8.9 -24.93,-8.9 -8.38,0 -15.57,3.22 -21.56,9.64 -6.01,6.44 -9.01,15.07 -9.01,25.92 0,10.41 2.97,19.72 8.9,27.96 7.23,9.84 16.69,14.75 28.4,14.75 9.82,0 18.2,-4.05 25.14,-12.14 8.53,-9.98 12.79,-22.34 12.79,-37.07 0,-13.31 -3.24,-25.7 -9.75,-37.19 -6.51,-11.49 -15.54,-20.99 -27.1,-28.51 -9.55,-6.21 -19.87,-9.31 -31.01,-9.31 l -4.98,0 z m 54.64,61.34 c 1,7.67 1.51,13.74 1.51,18.22 0,5.78 -0.97,11.96 -2.93,18.53 -1.95,6.58 -4.7,11.63 -8.24,15.18 -3.54,3.54 -7.55,5.3 -12.03,5.3 -5.2,0 -9.79,-2.34 -13.76,-7.03 -3.99,-4.71 -5.97,-11.69 -5.97,-20.92 0,-12.44 2.61,-22.12 7.81,-29.06 3.9,-5.07 8.59,-7.59 14.08,-7.59 2.75,0 5.97,0.65 9.66,1.96 3.68,1.3 6.97,3.1 9.87,5.41 z m 35.55,-61.34 0,3.25 c 7.66,0 14.77,1.73 21.35,5.2 6.58,3.47 12.93,9.5 19.08,18.1 6.14,8.59 10.38,18.03 12.68,28.3 -9.24,-5.93 -17.55,-8.9 -24.94,-8.9 -8.37,0 -15.56,3.22 -21.55,9.64 -6.01,6.44 -9.01,15.07 -9.01,25.92 0,10.41 2.97,19.72 8.89,27.96 7.23,9.84 16.69,14.75 28.41,14.75 9.82,0 18.2,-4.05 25.14,-12.14 8.53,-9.98 12.79,-22.34 12.79,-37.07 0,-13.31 -3.25,-25.7 -9.76,-37.19 -6.5,-11.49 -15.53,-20.99 -27.09,-28.51 -9.55,-6.21 -19.87,-9.31 -31.01,-9.31 l -4.98,0 z m 54.64,61.34 c 1,7.67 1.51,13.74 1.51,18.22 0,5.78 -0.97,11.96 -2.93,18.53 -1.96,6.58 -4.7,11.63 -8.24,15.18 -3.54,3.54 -7.55,5.3 -12.03,5.3 -5.21,0 -9.79,-2.34 -13.76,-7.03 -3.99,-4.71 -5.97,-11.69 -5.97,-20.92 0,-12.44 2.61,-22.12 7.81,-29.06 3.9,-5.07 8.59,-7.59 14.08,-7.59 2.75,0 5.97,0.65 9.66,1.96 3.68,1.3 6.97,3.1 9.87,5.41 z m 35.54,-61.34 0,3.25 c 7.66,0 14.78,1.73 21.36,5.2 6.58,3.47 12.93,9.5 19.08,18.1 6.14,8.59 10.38,18.03 12.68,28.3 -9.24,-5.93 -17.56,-8.9 -24.94,-8.9 -8.38,0 -15.56,3.22 -21.56,9.64 -6,6.44 -9,15.07 -9,25.92 0,10.41 2.96,19.72 8.89,27.96 7.23,9.84 16.69,14.75 28.4,14.75 9.83,0 18.21,-4.05 25.14,-12.14 8.54,-9.98 12.8,-22.34 12.8,-37.07 0,-13.31 -3.25,-25.7 -9.76,-37.19 -6.51,-11.49 -15.54,-20.99 -27.1,-28.51 -9.54,-6.21 -19.86,-9.31 -31.01,-9.31 l -4.98,0 z m 54.64,61.34 c 1,7.67 1.51,13.74 1.51,18.22 0,5.78 -0.96,11.96 -2.92,18.53 -1.96,6.58 -4.7,11.63 -8.24,15.18 -3.54,3.54 -7.55,5.3 -12.03,5.3 -5.21,0 -9.8,-2.34 -13.77,-7.03 -3.98,-4.71 -5.96,-11.69 -5.96,-20.92 0,-12.44 2.6,-22.12 7.81,-29.06 3.9,-5.07 8.59,-7.59 14.08,-7.59 2.75,0 5.97,0.65 9.66,1.96 3.68,1.3 6.96,3.1 9.86,5.41 z m 35.55,-61.34 0,3.25 c 7.66,0 14.78,1.73 21.36,5.2 6.57,3.47 12.93,9.5 19.07,18.1 6.15,8.59 10.38,18.03 12.68,28.3 -9.24,-5.93 -17.55,-8.9 -24.93,-8.9 -8.38,0 -15.57,3.22 -21.56,9.64 -6.01,6.44 -9.01,15.07 -9.01,25.92 0,10.41 2.97,19.72 8.9,27.96 7.23,9.84 16.69,14.75 28.4,14.75 9.82,0 18.2,-4.05 25.14,-12.14 8.54,-9.98 12.79,-22.34 12.79,-37.07 0,-13.31 -3.24,-25.7 -9.75,-37.19 -6.51,-11.49 -15.54,-20.99 -27.1,-28.51 -9.54,-6.21 -19.86,-9.31 -31.01,-9.31 l -4.98,0 z m 54.64,61.34 c 1,7.67 1.51,13.74 1.51,18.22 0,5.78 -0.97,11.96 -2.92,18.53 -1.96,6.58 -4.71,11.63 -8.25,15.18 -3.53,3.54 -7.54,5.3 -12.03,5.3 -5.2,0 -9.79,-2.34 -13.76,-7.03 -3.98,-4.71 -5.97,-11.69 -5.97,-20.92 0,-12.44 2.61,-22.12 7.82,-29.06 3.89,-5.07 8.59,-7.59 14.08,-7.59 2.75,0 5.97,0.65 9.66,1.96 3.67,1.3 6.96,3.1 9.86,5.41 z m 35.55,-61.34 0,3.25 c 7.66,0 14.77,1.73 21.35,5.2 6.58,3.47 12.93,9.5 19.08,18.1 6.15,8.59 10.38,18.03 12.68,28.3 -9.24,-5.93 -17.55,-8.9 -24.93,-8.9 -8.38,0 -15.57,3.22 -21.56,9.64 -6.01,6.44 -9.01,15.07 -9.01,25.92 0,10.41 2.97,19.72 8.9,27.96 7.23,9.84 16.69,14.75 28.4,14.75 9.82,0 18.2,-4.05 25.14,-12.14 8.53,-9.98 12.79,-22.34 12.79,-37.07 0,-13.31 -3.24,-25.7 -9.75,-37.19 -6.51,-11.49 -15.54,-20.99 -27.1,-28.51 -9.55,-6.21 -19.87,-9.31 -31.01,-9.31 l -4.98,0 z m 54.64,61.34 c 1,7.67 1.51,13.74 1.51,18.22 0,5.78 -0.97,11.96 -2.93,18.53 -1.95,6.58 -4.7,11.63 -8.24,15.18 -3.54,3.54 -7.54,5.3 -12.03,5.3 -5.2,0 -9.79,-2.34 -13.76,-7.03 -3.99,-4.71 -5.97,-11.69 -5.97,-20.92 0,-12.44 2.61,-22.12 7.81,-29.06 3.9,-5.07 8.59,-7.59 14.08,-7.59 2.75,0 5.97,0.65 9.66,1.96 3.68,1.3 6.97,3.1 9.87,5.41 z m 35.54,-61.34 0,3.25 c 7.67,0 14.78,1.73 21.36,5.2 6.58,3.47 12.93,9.5 19.08,18.1 6.14,8.59 10.38,18.03 12.68,28.3 -9.24,-5.93 -17.55,-8.9 -24.94,-8.9 -8.37,0 -15.56,3.22 -21.55,9.64 -6.01,6.44 -9.01,15.07 -9.01,25.92 0,10.41 2.97,19.72 8.89,27.96 7.23,9.84 16.69,14.75 28.41,14.75 9.82,0 18.2,-4.05 25.14,-12.14 8.53,-9.98 12.79,-22.34 12.79,-37.07 0,-13.31 -3.25,-25.7 -9.76,-37.19 -6.5,-11.49 -15.53,-20.99 -27.09,-28.51 -9.55,-6.21 -19.87,-9.31 -31.01,-9.31 l -4.99,0 z m 54.65,61.34 c 1,7.67 1.51,13.74 1.51,18.22 0,5.78 -0.97,11.96 -2.93,18.53 -1.96,6.58 -4.7,11.63 -8.24,15.18 -3.54,3.54 -7.55,5.3 -12.03,5.3 -5.2,0 -9.79,-2.34 -13.76,-7.03 -3.99,-4.71 -5.97,-11.69 -5.97,-20.92 0,-12.44 2.61,-22.12 7.81,-29.06 3.9,-5.07 8.59,-7.59 14.08,-7.59 2.75,0 5.97,0.65 9.66,1.96 3.68,1.3 6.97,3.1 9.87,5.41 z m 35.54,-61.34 0,3.25 c 7.66,0 14.78,1.73 21.36,5.2 6.58,3.47 12.93,9.5 19.08,18.1 6.14,8.59 10.37,18.03 12.68,28.3 -9.24,-5.93 -17.55,-8.9 -24.94,-8.9 -8.38,0 -15.56,3.22 -21.56,9.64 -6,6.44 -9,15.07 -9,25.92 0,10.41 2.96,19.72 8.89,27.96 7.23,9.84 16.69,14.75 28.4,14.75 9.83,0 18.21,-4.05 25.14,-12.14 8.54,-9.98 12.8,-22.34 12.8,-37.07 0,-13.31 -3.25,-25.7 -9.76,-37.19 -6.51,-11.49 -15.54,-20.99 -27.1,-28.51 -9.54,-6.21 -19.86,-9.31 -31.01,-9.31 l -4.98,0 z m 54.64,61.34 c 1,7.67 1.51,13.74 1.51,18.22 0,5.78 -0.96,11.96 -2.92,18.53 -1.96,6.58 -4.7,11.63 -8.24,15.18 -3.54,3.54 -7.55,5.3 -12.03,5.3 -5.21,0 -9.8,-2.34 -13.77,-7.03 -3.98,-4.71 -5.96,-11.69 -5.96,-20.92 0,-12.44 2.6,-22.12 7.81,-29.06 3.9,-5.07 8.59,-7.59 14.08,-7.59 2.75,0 5.97,0.65 9.66,1.96 3.68,1.3 6.96,3.1 9.86,5.41 z m 35.55,-61.34 0,3.25 c 7.66,0 14.78,1.73 21.36,5.2 6.57,3.47 12.93,9.5 19.07,18.1 6.15,8.59 10.38,18.03 12.68,28.3 -9.23,-5.93 -17.55,-8.9 -24.93,-8.9 -8.38,0 -15.57,3.22 -21.56,9.64 -6.01,6.44 -9.01,15.07 -9.01,25.92 0,10.41 2.97,19.72 8.9,27.96 7.23,9.84 16.69,14.75 28.4,14.75 9.82,0 18.2,-4.05 25.14,-12.14 8.54,-9.98 12.79,-22.34 12.79,-37.07 0,-13.31 -3.24,-25.7 -9.75,-37.19 -6.51,-11.49 -15.54,-20.99 -27.1,-28.51 -9.54,-6.21 -19.87,-9.31 -31.01,-9.31 l -4.98,0 z m 54.64,61.34 c 1,7.67 1.51,13.74 1.51,18.22 0,5.78 -0.97,11.96 -2.92,18.53 -1.96,6.58 -4.71,11.63 -8.25,15.18 -3.53,3.54 -7.54,5.3 -12.03,5.3 -5.2,0 -9.79,-2.34 -13.76,-7.03 -3.98,-4.71 -5.97,-11.69 -5.97,-20.92 0,-12.44 2.61,-22.12 7.82,-29.06 3.89,-5.07 8.58,-7.59 14.08,-7.59 2.75,0 5.97,0.65 9.66,1.96 3.67,1.3 6.96,3.1 9.86,5.41 z m 35.55,-61.34 0,3.25 c 7.66,0 14.77,1.73 21.35,5.2 6.58,3.47 12.93,9.5 19.08,18.1 6.15,8.59 10.38,18.03 12.68,28.3 -9.24,-5.93 -17.55,-8.9 -24.93,-8.9 -8.38,0 -15.57,3.22 -21.56,9.64 -6.01,6.44 -9.01,15.07 -9.01,25.92 0,10.41 2.97,19.72 8.9,27.96 7.23,9.84 16.69,14.75 28.4,14.75 9.82,0 18.2,-4.05 25.14,-12.14 8.53,-9.98 12.79,-22.34 12.79,-37.07 0,-13.31 -3.24,-25.7 -9.75,-37.19 -6.51,-11.49 -15.54,-20.99 -27.1,-28.51 -9.55,-6.21 -19.87,-9.31 -31.01,-9.31 l -4.98,0 z m 54.64,61.34 c 1,7.67 1.51,13.74 1.51,18.22 0,5.78 -0.97,11.96 -2.93,18.53 -1.95,6.58 -4.7,11.63 -8.24,15.18 -3.54,3.54 -7.55,5.3 -12.03,5.3 -5.2,0 -9.79,-2.34 -13.76,-7.03 -3.99,-4.71 -5.97,-11.69 -5.97,-20.92 0,-12.44 2.61,-22.12 7.81,-29.06 3.9,-5.07 8.59,-7.59 14.08,-7.59 2.75,0 5.97,0.65 9.66,1.96 3.68,1.3 6.97,3.1 9.87,5.41 z m 35.55,-61.34 0,3.25 c 7.66,0 14.77,1.73 21.35,5.2 6.58,3.47 12.93,9.5 19.08,18.1 6.14,8.59 10.38,18.03 12.68,28.3 -9.24,-5.93 -17.55,-8.9 -24.94,-8.9 -8.37,0 -15.56,3.22 -21.55,9.64 -6.01,6.44 -9.01,15.07 -9.01,25.92 0,10.41 2.97,19.72 8.89,27.96 7.23,9.84 16.69,14.75 28.41,14.75 9.82,0 18.2,-4.05 25.14,-12.14 8.53,-9.98 12.79,-22.34 12.79,-37.07 0,-13.31 -3.25,-25.7 -9.76,-37.19 -6.5,-11.49 -15.53,-20.99 -27.09,-28.51 -9.55,-6.21 -19.87,-9.31 -31.01,-9.31 l -4.98,0 z m 54.64,61.34 c 1,7.67 1.51,13.74 1.51,18.22 0,5.78 -0.97,11.96 -2.93,18.53 -1.96,6.58 -4.7,11.63 -8.24,15.18 -3.54,3.54 -7.55,5.3 -12.03,5.3 -5.21,0 -9.79,-2.34 -13.76,-7.03 -3.99,-4.71 -5.97,-11.69 -5.97,-20.92 0,-12.44 2.61,-22.12 7.81,-29.06 3.9,-5.07 8.59,-7.59 14.08,-7.59 2.75,0 5.97,0.65 9.66,1.96 3.68,1.3 6.97,3.1 9.87,5.41 z m 35.54,-61.34 0,3.25 c 7.66,0 14.78,1.73 21.36,5.2 6.58,3.47 12.93,9.5 19.08,18.1 6.14,8.59 10.38,18.03 12.68,28.3 -9.24,-5.93 -17.56,-8.9 -24.94,-8.9 -8.38,0 -15.56,3.22 -21.56,9.64 -6,6.44 -9,15.07 -9,25.92 0,10.41 2.96,19.72 8.89,27.96 7.23,9.84 16.69,14.75 28.4,14.75 9.83,0 18.21,-4.05 25.14,-12.14 8.54,-9.98 12.8,-22.34 12.8,-37.07 0,-13.31 -3.25,-25.7 -9.76,-37.19 -6.51,-11.49 -15.54,-20.99 -27.1,-28.51 -9.54,-6.21 -19.86,-9.31 -31.01,-9.31 l -4.98,0 z m 54.64,61.34 c 1,7.67 1.51,13.74 1.51,18.22 0,5.78 -0.96,11.96 -2.92,18.53 -1.96,6.58 -4.7,11.63 -8.24,15.18 -3.54,3.54 -7.55,5.3 -12.03,5.3 -5.21,0 -9.8,-2.34 -13.77,-7.03 -3.98,-4.71 -5.96,-11.69 -5.96,-20.92 0,-12.44 2.6,-22.12 7.81,-29.06 3.9,-5.07 8.59,-7.59 14.08,-7.59 2.75,0 5.97,0.65 9.66,1.96 3.68,1.3 6.96,3.1 9.86,5.41"
             style="fill:#000000;fill-opacity:1;fill-rule:nonzero;stroke:none"
             id="path76"
             inkscape:connector-curvature="0" /><path
             d="m 638.25,5425.05 -36.074,0"
             style="fill:none;stroke:#000000;stroke-width:13.875;stroke-linecap:butt;stroke-linejoin:round;stroke-miterlimit:10;stroke-opacity:1;stroke-dasharray:none"
             id="path78"
             inkscape:connector-curvature="0" /><path
             d="m 638.25,5184.14 -36.074,0"
             style="fill:none;stroke:#000000;stroke-width:13.875;stroke-linecap:butt;stroke-linejoin:round;stroke-miterlimit:10;stroke-opacity:1;stroke-dasharray:none"
             id="path80"
             inkscape:connector-curvature="0" /><path
             d="m 638.25,4943.22 -36.074,0"
             style="fill:none;stroke:#000000;stroke-width:13.875;stroke-linecap:butt;stroke-linejoin:round;stroke-miterlimit:10;stroke-opacity:1;stroke-dasharray:none"
             id="path82"
             inkscape:connector-curvature="0" /><path
             d="m 638.25,4702.3 -36.074,0"
             style="fill:none;stroke:#000000;stroke-width:13.875;stroke-linecap:butt;stroke-linejoin:round;stroke-miterlimit:10;stroke-opacity:1;stroke-dasharray:none"
             id="path84"
             inkscape:connector-curvature="0" /><path
             d="m 638.25,4220.47 -36.074,0"
             style="fill:none;stroke:#000000;stroke-width:13.875;stroke-linecap:butt;stroke-linejoin:round;stroke-miterlimit:10;stroke-opacity:1;stroke-dasharray:none"
             id="path86"
             inkscape:connector-curvature="0" /><path
             d="m 638.25,3979.56 -36.074,0"
             style="fill:none;stroke:#000000;stroke-width:13.875;stroke-linecap:butt;stroke-linejoin:round;stroke-miterlimit:10;stroke-opacity:1;stroke-dasharray:none"
             id="path88"
             inkscape:connector-curvature="0" /><path
             d="m 638.25,3738.63 -36.074,0"
             style="fill:none;stroke:#000000;stroke-width:13.875;stroke-linecap:butt;stroke-linejoin:round;stroke-miterlimit:10;stroke-opacity:1;stroke-dasharray:none"
             id="path90"
             inkscape:connector-curvature="0" /><path
             d="m 638.25,3497.72 -36.074,0"
             style="fill:none;stroke:#000000;stroke-width:13.875;stroke-linecap:butt;stroke-linejoin:round;stroke-miterlimit:10;stroke-opacity:1;stroke-dasharray:none"
             id="path92"
             inkscape:connector-curvature="0" /><path
             d="m 638.25,3015.88 -36.074,0"
             style="fill:none;stroke:#000000;stroke-width:13.875;stroke-linecap:butt;stroke-linejoin:round;stroke-miterlimit:10;stroke-opacity:1;stroke-dasharray:none"
             id="path94"
             inkscape:connector-curvature="0" /><path
             d="m 638.25,2774.97 -36.074,0"
             style="fill:none;stroke:#000000;stroke-width:13.875;stroke-linecap:butt;stroke-linejoin:round;stroke-miterlimit:10;stroke-opacity:1;stroke-dasharray:none"
             id="path96"
             inkscape:connector-curvature="0" /><path
             d="m 638.25,2534.05 -36.074,0"
             style="fill:none;stroke:#000000;stroke-width:13.875;stroke-linecap:butt;stroke-linejoin:round;stroke-miterlimit:10;stroke-opacity:1;stroke-dasharray:none"
             id="path98"
             inkscape:connector-curvature="0" /><path
             d="m 638.25,2293.14 -36.074,0"
             style="fill:none;stroke:#000000;stroke-width:13.875;stroke-linecap:butt;stroke-linejoin:round;stroke-miterlimit:10;stroke-opacity:1;stroke-dasharray:none"
             id="path100"
             inkscape:connector-curvature="0" /><path
             d="m 638.25,1811.3 -36.074,0"
             style="fill:none;stroke:#000000;stroke-width:13.875;stroke-linecap:butt;stroke-linejoin:round;stroke-miterlimit:10;stroke-opacity:1;stroke-dasharray:none"
             id="path102"
             inkscape:connector-curvature="0" /><path
             d="m 638.25,1570.39 -36.074,0"
             style="fill:none;stroke:#000000;stroke-width:13.875;stroke-linecap:butt;stroke-linejoin:round;stroke-miterlimit:10;stroke-opacity:1;stroke-dasharray:none"
             id="path104"
             inkscape:connector-curvature="0" /><path
             d="m 638.25,1329.46 -36.074,0"
             style="fill:none;stroke:#000000;stroke-width:13.875;stroke-linecap:butt;stroke-linejoin:round;stroke-miterlimit:10;stroke-opacity:1;stroke-dasharray:none"
             id="path106"
             inkscape:connector-curvature="0" /><path
             d="m 638.25,1088.55 -36.074,0"
             style="fill:none;stroke:#000000;stroke-width:13.875;stroke-linecap:butt;stroke-linejoin:round;stroke-miterlimit:10;stroke-opacity:1;stroke-dasharray:none"
             id="path108"
             inkscape:connector-curvature="0" /><path
             d="m 638.25,606.711 -36.074,0"
             style="fill:none;stroke:#000000;stroke-width:13.875;stroke-linecap:butt;stroke-linejoin:round;stroke-miterlimit:10;stroke-opacity:1;stroke-dasharray:none"
             id="path110"
             inkscape:connector-curvature="0" /><path
             d="m 638.25,365.801 -36.074,0"
             style="fill:none;stroke:#000000;stroke-width:13.875;stroke-linecap:butt;stroke-linejoin:round;stroke-miterlimit:10;stroke-opacity:1;stroke-dasharray:none"
             id="path112"
             inkscape:connector-curvature="0" /><path
             d="m 638.25,124.875 -36.074,0"
             style="fill:none;stroke:#000000;stroke-width:13.875;stroke-linecap:butt;stroke-linejoin:round;stroke-miterlimit:10;stroke-opacity:1;stroke-dasharray:none"
             id="path114"
             inkscape:connector-curvature="0" /><path
             d="m 638.25,124.875 0,5300.175"
             style="fill:none;stroke:#000000;stroke-width:13.875;stroke-linecap:butt;stroke-linejoin:round;stroke-miterlimit:10;stroke-opacity:1;stroke-dasharray:none"
             id="path116"
             inkscape:connector-curvature="0" /><path
             d="m 638.25,847.637 -72.148,0"
             style="fill:none;stroke:#000000;stroke-width:13.875;stroke-linecap:butt;stroke-linejoin:round;stroke-miterlimit:10;stroke-opacity:1;stroke-dasharray:none"
             id="path118"
             inkscape:connector-curvature="0" /></g></g><g
         id="g120"><g
           id="g122"
           clip-path="url(#clipPath124)"><path
             d="m 294.191,840.312 119.238,0 0,9.32422 -119.238,0 0,-9.32422 z"
             style="fill:#000000;fill-opacity:1;fill-rule:nonzero;stroke:none"
             id="path128"
             inkscape:connector-curvature="0" /></g></g><g
         id="g130"><g
           id="g132"
           clip-path="url(#clipPath134)"><path
             d="m 409.746,898.629 29.051,14.098 2.816,0 0,-100.817 c 0,-6.648 0.289,-10.808 0.867,-12.461 0.579,-1.664 1.735,-2.926 3.469,-3.801 1.735,-0.859 5.278,-1.375 10.625,-1.511 l 0,-3.262 -44.879,0 0,3.262 c 5.637,0.136 9.289,0.652 10.95,1.511 1.664,0.875 2.82,2.028 3.468,3.469 0.653,1.442 0.977,5.715 0.977,12.793 l 0,64.395 c 0,8.808 -0.289,14.441 -0.867,16.898 -0.434,1.887 -1.192,3.262 -2.278,4.121 -1.082,0.875 -2.422,1.305 -4.011,1.305 -2.168,0 -5.129,-0.945 -8.887,-2.817 l -1.301,2.817 z m 75.445,-48.785 c 0,13.597 2.059,25.336 6.18,35.242 4.117,9.894 9.574,17.234 16.367,21.992 5.348,3.762 10.84,5.649 16.477,5.649 9.105,0 17.269,-4.637 24.496,-13.875 9.105,-11.575 13.66,-27.25 13.66,-47.051 0,-13.875 -1.988,-25.656 -5.961,-35.34 -3.976,-9.684 -9.07,-16.734 -15.285,-21.133 -6.215,-4.41 -12.141,-6.617 -17.777,-6.617 -11.418,0 -20.957,6.73 -28.618,20.16 -6.359,11.418 -9.539,25.086 -9.539,40.973 z m 17.344,-2.164 c 0,-16.469 2.024,-29.914 6.07,-40.321 3.325,-8.671 8.309,-13.015 14.957,-13.015 3.18,0 6.469,1.414 9.868,4.23 3.394,2.817 5.961,7.633 7.695,14.418 2.746,9.977 4.117,24.211 4.117,42.707 0,13.582 -1.445,24.934 -4.336,34.035 -2.023,6.801 -4.769,11.571 -8.238,14.321 -2.313,1.871 -5.203,2.816 -8.672,2.816 -3.902,0 -7.441,-1.734 -10.621,-5.203 -4.191,-4.914 -7.047,-12.613 -8.563,-23.09 -1.519,-10.473 -2.277,-20.785 -2.277,-30.898"
             style="fill:#000000;fill-opacity:1;fill-rule:nonzero;stroke:none"
             id="path138"
             inkscape:connector-curvature="0" /><path
             d="m 638.25,2052.22 -72.148,0"
             style="fill:none;stroke:#000000;stroke-width:13.875;stroke-linecap:butt;stroke-linejoin:round;stroke-miterlimit:10;stroke-opacity:1;stroke-dasharray:none"
             id="path140"
             inkscape:connector-curvature="0" /></g></g><g
         id="g142"><g
           id="g144"
           clip-path="url(#clipPath146)"><path
             d="m 377.441,2033.56 119.238,0 0,9.3242 -119.238,0 0,-9.3242 z"
             style="fill:#000000;fill-opacity:1;fill-rule:nonzero;stroke:none"
             id="path150"
             inkscape:connector-curvature="0" /></g></g><g
         id="g152"><g
           id="g154"
           clip-path="url(#clipPath156)"><path
             d="m 550.012,2103.59 -6.938,-14.96 -35.769,0 -7.805,-16.05 c 15.465,-2.31 27.75,-8.09 36.855,-17.35 7.805,-7.93 11.707,-17.34 11.707,-28.18 0,-6.35 -1.265,-12.21 -3.792,-17.55 -2.532,-5.35 -5.747,-9.9 -9.649,-13.66 -3.902,-3.77 -8.238,-6.72 -13.008,-8.88 -6.648,-3.34 -13.586,-5 -20.812,-5 -7.082,0 -12.25,1.24 -15.5,3.69 -3.254,2.46 -4.879,5.14 -4.879,8.02 0,1.74 0.683,3.22 2.058,4.44 1.375,1.24 3.071,1.85 5.094,1.85 1.446,0 2.746,-0.23 3.903,-0.66 1.156,-0.42 3.109,-1.66 5.855,-3.67 4.48,-3.04 8.961,-4.57 13.441,-4.57 6.938,0 12.973,2.61 18.102,7.82 5.129,5.2 7.695,11.55 7.695,19.07 0,7.23 -2.312,13.95 -6.937,20.16 -4.625,6.22 -10.985,11.06 -19.078,14.53 -6.504,2.59 -15.246,4.12 -26.231,4.55 l 22.981,46.4 42.707,0"
             style="fill:#000000;fill-opacity:1;fill-rule:nonzero;stroke:none"
             id="path160"
             inkscape:connector-curvature="0" /><path
             d="m 638.25,3256.81 -72.148,0"
             style="fill:none;stroke:#000000;stroke-width:13.875;stroke-linecap:butt;stroke-linejoin:round;stroke-miterlimit:10;stroke-opacity:1;stroke-dasharray:none"
             id="path162"
             inkscape:connector-curvature="0" /><path
             d="m 478.254,3250.22 c 0,13.6 2.058,25.33 6.18,35.24 4.117,9.9 9.574,17.24 16.367,21.99 5.347,3.76 10.84,5.65 16.476,5.65 9.106,0 17.27,-4.64 24.496,-13.87 9.106,-11.58 13.661,-27.25 13.661,-47.05 0,-13.88 -1.989,-25.66 -5.961,-35.34 -3.977,-9.69 -9.071,-16.74 -15.285,-21.14 -6.215,-4.41 -12.141,-6.61 -17.778,-6.61 -11.418,0 -20.957,6.73 -28.617,20.16 -6.359,11.41 -9.539,25.08 -9.539,40.97 z m 17.344,-2.17 c 0,-16.46 2.023,-29.91 6.07,-40.32 3.324,-8.67 8.309,-13.01 14.957,-13.01 3.18,0 6.469,1.41 9.867,4.23 3.395,2.82 5.961,7.63 7.696,14.42 2.746,9.97 4.117,24.21 4.117,42.7 0,13.59 -1.446,24.94 -4.336,34.04 -2.024,6.8 -4.77,11.57 -8.239,14.32 -2.312,1.87 -5.203,2.82 -8.671,2.82 -3.903,0 -7.442,-1.74 -10.621,-5.21 -4.192,-4.91 -7.047,-12.61 -8.563,-23.09 -1.52,-10.47 -2.277,-20.78 -2.277,-30.9"
             style="fill:#000000;fill-opacity:1;fill-rule:nonzero;stroke:none"
             id="path164"
             inkscape:connector-curvature="0" /><path
             d="m 638.25,4461.38 -72.148,0"
             style="fill:none;stroke:#000000;stroke-width:13.875;stroke-linecap:butt;stroke-linejoin:round;stroke-miterlimit:10;stroke-opacity:1;stroke-dasharray:none"
             id="path166"
             inkscape:connector-curvature="0" /><path
             d="m 550.012,4517.83 -6.938,-14.96 -35.769,0 -7.805,-16.04 c 15.465,-2.31 27.75,-8.1 36.855,-17.35 7.805,-7.94 11.707,-17.34 11.707,-28.18 0,-6.36 -1.265,-12.21 -3.792,-17.56 -2.532,-5.35 -5.747,-9.9 -9.649,-13.66 -3.902,-3.76 -8.238,-6.72 -13.008,-8.88 -6.648,-3.33 -13.586,-4.99 -20.812,-4.99 -7.082,0 -12.25,1.23 -15.5,3.68 -3.254,2.46 -4.879,5.13 -4.879,8.02 0,1.74 0.683,3.22 2.058,4.45 1.375,1.23 3.071,1.84 5.094,1.84 1.446,0 2.746,-0.22 3.903,-0.65 1.156,-0.43 3.109,-1.66 5.855,-3.68 4.48,-3.04 8.961,-4.56 13.441,-4.56 6.938,0 12.973,2.6 18.102,7.81 5.129,5.2 7.695,11.56 7.695,19.08 0,7.22 -2.312,13.94 -6.937,20.16 -4.625,6.21 -10.985,11.05 -19.078,14.52 -6.504,2.6 -15.246,4.12 -26.231,4.56 l 22.981,46.39 42.707,0"
             style="fill:#000000;fill-opacity:1;fill-rule:nonzero;stroke:none"
             id="path168"
             inkscape:connector-curvature="0" /></g></g></g><path
       style="fill:none;stroke:#2d1a84;stroke-width:3.5;stroke-linecap:butt;stroke-linejoin:miter;stroke-opacity:1;stroke-miterlimit:4;stroke-dasharray:none"
       d="m 664,13.75 0,664"
       id="path3149"
       inkscape:connector-curvature="0"
       transform="matrix(0.8,0,0,-0.8,0,555)" /><text
       xml:space="preserve"
       style="font-size:14.39999961999999911px;font-style:normal;font-variant:normal;font-weight:normal;font-stretch:normal;line-height:125%;letter-spacing:0px;word-spacing:0px;fill:#000000;fill-opacity:1;stroke:none;font-family:Arial;-inkscape-font-specification:Arial;filter:url(#filter3925)"
       x="516.79993"
       y="-550.40002"
       id="text3921"
       sodipodi:linespacing="125%"
       transform="scale(1,-1)"><tspan
         sodipodi:role="line"
         id="tspan3923"
         x="516.79993"
         y="-550.40002"
         style="font-size:19.20000076px">=1</tspan></text>
</g></svg>