<?xml version="1.0" encoding="UTF-8" standalone="no"?>
<!-- Created with Inkscape (http://www.inkscape.org/) -->

<svg
   xmlns:dc="http://purl.org/dc/elements/1.1/"
   xmlns:cc="http://creativecommons.org/ns#"
   xmlns:rdf="http://www.w3.org/1999/02/22-rdf-syntax-ns#"
   xmlns:svg="http://www.w3.org/2000/svg"
   xmlns="http://www.w3.org/2000/svg"
   xmlns:sodipodi="http://sodipodi.sourceforge.net/DTD/sodipodi-0.dtd"
   xmlns:inkscape="http://www.inkscape.org/namespaces/inkscape"
   id="svg2"
   version="1.1"
   inkscape:version="0.48.1 r9760"
   width="693.75"
   height="693.75"
   xml:space="preserve"
   sodipodi:docname="YAMAMURAV8A.eps"><metadata
     id="metadata8"><rdf:RDF><cc:Work
         rdf:about=""><dc:format>image/svg+xml</dc:format><dc:type
           rdf:resource="http://purl.org/dc/dcmitype/StillImage" /><dc:title></dc:title></cc:Work></rdf:RDF></metadata><defs
     id="defs6"><clipPath
       clipPathUnits="userSpaceOnUse"
       id="clipPath20"><path
         d="m 666,5452.8 4724.2,0 0,-5341.788 -4724.2,0 0,5341.788 z"
         id="path22" /></clipPath><clipPath
       clipPathUnits="userSpaceOnUse"
       id="clipPath30"><path
         d="m 69.375,5480.62 5411.245,0 0,-5411.245 -5411.245,0 0,5411.245 z"
         id="path32" /></clipPath><clipPath
       clipPathUnits="userSpaceOnUse"
       id="clipPath118"><path
         d="m 263.625,832.5 97.125,0 0,-180.375 -97.125,0 0,180.375 z"
         id="path120" /></clipPath><clipPath
       clipPathUnits="userSpaceOnUse"
       id="clipPath128"><path
         d="m 69.375,5480.62 5411.245,0 0,-5411.245 -5411.245,0 0,5411.245 z"
         id="path130" /></clipPath><clipPath
       clipPathUnits="userSpaceOnUse"
       id="clipPath140"><path
         d="m 346.875,1845.38 97.125,0 0,-180.38 -97.125,0 0,180.38 z"
         id="path142" /></clipPath><clipPath
       clipPathUnits="userSpaceOnUse"
       id="clipPath150"><path
         d="m 69.375,5480.62 5411.245,0 0,-5411.245 -5411.245,0 0,5411.245 z"
         id="path152" /></clipPath><filter
       id="filter3927"
       inkscape:label="filter1"><feBlend
         blend="normal"
         id="feBlend3929"
         in2="SourceGraphic" /></filter></defs><sodipodi:namedview
     pagecolor="#ffffff"
     bordercolor="#666666"
     borderopacity="1"
     objecttolerance="10"
     gridtolerance="10"
     guidetolerance="10"
     inkscape:pageopacity="0"
     inkscape:pageshadow="2"
     inkscape:window-width="1680"
     inkscape:window-height="921"
     id="namedview4"
     showgrid="true"
     inkscape:snap-grids="true"
     inkscape:snap-to-guides="true"
     showguides="true"
     inkscape:guide-bbox="true"
     inkscape:zoom="1.0393474"
     inkscape:cx="274.71433"
     inkscape:cy="525.81073"
     inkscape:window-x="0"
     inkscape:window-y="0"
     inkscape:window-maximized="0"
     inkscape:current-layer="layer1"><inkscape:grid
       type="xygrid"
       id="grid3143" /><sodipodi:guide
       orientation="0,1"
       position="72,680"
       id="guide3932" /><sodipodi:guide
       orientation="1,0"
       position="672,584"
       id="guide3934" /><sodipodi:guide
       orientation="0,1"
       position="472,16"
       id="guide3936" /><sodipodi:guide
       orientation="1,0"
       position="88,624"
       id="guide3938" /></sodipodi:namedview><g
     id="g10"
     inkscape:groupmode="layer"
     inkscape:label="ink_ext_XXXXXX"
     transform="matrix(1.25,0,0,-1.25,0,693.75)"
     style="display:inline"><g
       id="g12"
       transform="scale(0.1,0.1)"
       style="filter:url(#filter3927)"><path
         d="m 0,0 5550,0 0,5550 L 0,5550 0,0 z"
         style="fill:#ffffff;fill-opacity:1;fill-rule:nonzero;stroke:none"
         id="path14"
         inkscape:connector-curvature="0" /><g
         id="g16"><g
           id="g18"
           clip-path="url(#clipPath20)"><path
             d="m 1517.12,124.875 3845.33,0 0,2793.625 0,-2.31 0,1659.25 0,-272.12 0,1121.73 -4682.575,0"
             style="fill:none;stroke:#ff0000;stroke-width:13.875;stroke-linecap:butt;stroke-linejoin:round;stroke-miterlimit:10;stroke-opacity:1;stroke-dasharray:none"
             id="path24"
             inkscape:connector-curvature="0" /></g></g><g
         id="g26"><g
           id="g28"
           clip-path="url(#clipPath30)"><path
             d="m 4881.78,2774.97 0,-36.07"
             style="fill:none;stroke:#000000;stroke-width:13.875;stroke-linecap:butt;stroke-linejoin:round;stroke-miterlimit:10;stroke-opacity:1;stroke-dasharray:none"
             id="path34"
             inkscape:connector-curvature="0" /><path
             d="m 3920.45,2774.97 0,-36.07"
             style="fill:none;stroke:#000000;stroke-width:13.875;stroke-linecap:butt;stroke-linejoin:round;stroke-miterlimit:10;stroke-opacity:1;stroke-dasharray:none"
             id="path36"
             inkscape:connector-curvature="0" /><path
             d="m 2959.12,2774.97 0,-36.07"
             style="fill:none;stroke:#000000;stroke-width:13.875;stroke-linecap:butt;stroke-linejoin:round;stroke-miterlimit:10;stroke-opacity:1;stroke-dasharray:none"
             id="path38"
             inkscape:connector-curvature="0" /><path
             d="m 1997.79,2774.97 0,-36.07"
             style="fill:none;stroke:#000000;stroke-width:13.875;stroke-linecap:butt;stroke-linejoin:round;stroke-miterlimit:10;stroke-opacity:1;stroke-dasharray:none"
             id="path40"
             inkscape:connector-curvature="0" /><path
             d="m 1036.46,2774.97 0,-36.07"
             style="fill:none;stroke:#000000;stroke-width:13.875;stroke-linecap:butt;stroke-linejoin:round;stroke-miterlimit:10;stroke-opacity:1;stroke-dasharray:none"
             id="path42"
             inkscape:connector-curvature="0" /><path
             d="m 638.25,2774.97 4724.2,0"
             style="fill:none;stroke:#000000;stroke-width:13.875;stroke-linecap:butt;stroke-linejoin:round;stroke-miterlimit:10;stroke-opacity:1;stroke-dasharray:none"
             id="path44"
             inkscape:connector-curvature="0" /><path
             d="m 1517.12,2774.97 0,-72.15"
             style="fill:none;stroke:#000000;stroke-width:13.875;stroke-linecap:butt;stroke-linejoin:round;stroke-miterlimit:10;stroke-opacity:1;stroke-dasharray:none"
             id="path46"
             inkscape:connector-curvature="0" /><path
             d="m 1421.74,2570.34 c 0,13.6 2.07,25.34 6.19,35.25 4.11,9.89 9.57,17.23 16.36,21.99 5.35,3.76 10.85,5.65 16.48,5.65 9.11,0 17.28,-4.64 24.49,-13.88 9.12,-11.57 13.67,-27.25 13.67,-47.05 0,-13.87 -1.98,-25.66 -5.97,-35.34 -3.96,-9.68 -9.07,-16.73 -15.27,-21.13 -6.22,-4.41 -12.14,-6.62 -17.79,-6.62 -11.42,0 -20.95,6.73 -28.61,20.16 -6.37,11.42 -9.55,25.09 -9.55,40.97 z m 17.35,-2.16 c 0,-16.47 2.02,-29.91 6.07,-40.32 3.32,-8.67 8.32,-13.02 14.96,-13.02 3.18,0 6.47,1.42 9.87,4.23 3.4,2.82 5.96,7.64 7.7,14.42 2.73,9.98 4.1,24.21 4.1,42.71 0,13.58 -1.44,24.93 -4.33,34.03 -2.02,6.81 -4.77,11.57 -8.24,14.32 -2.3,1.88 -5.2,2.82 -8.67,2.82 -3.9,0 -7.44,-1.73 -10.61,-5.2 -4.21,-4.92 -7.05,-12.62 -8.58,-23.09 -1.51,-10.48 -2.27,-20.79 -2.27,-30.9 z m 88.89,-39.67 c 2.74,0 5.06,-0.97 6.94,-2.93 1.88,-1.96 2.82,-4.23 2.82,-6.82 0,-2.75 -0.94,-5.07 -2.82,-6.94 -1.88,-1.89 -4.2,-2.82 -6.94,-2.82 -2.74,0 -5.06,0.93 -6.93,2.82 -1.89,1.87 -2.84,4.19 -2.84,6.94 0,2.74 0.95,5.05 2.84,6.94 1.87,1.87 4.19,2.81 6.93,2.81 z m 103.41,104.72 0,-3.27 c -7.81,-0.72 -14.16,-2.23 -19.07,-4.55 -4.91,-2.3 -9.76,-5.85 -14.53,-10.61 -4.77,-4.77 -8.72,-10.09 -11.82,-15.94 -3.11,-5.86 -5.75,-12.75 -7.91,-20.7 8.53,5.78 17.05,8.67 25.58,8.67 8.09,0 15.14,-3.29 21.14,-9.87 5.99,-6.57 9,-15.07 9,-25.47 0,-9.98 -3.04,-19.08 -9.12,-27.32 -7.22,-9.96 -16.82,-14.96 -28.83,-14.96 -8.24,0 -15.18,2.75 -20.81,8.24 -11.13,10.41 -16.69,23.99 -16.69,40.75 0,10.7 2.13,20.86 6.4,30.47 4.25,9.6 10.36,18.18 18.31,25.69 7.95,7.52 15.58,12.54 22.88,15.06 7.3,2.54 14.06,3.81 20.27,3.81 l 5.2,0 z m -54.84,-61.58 c -1.01,-7.95 -1.53,-14.38 -1.53,-19.29 0,-5.65 1.05,-11.75 3.15,-18.33 2.1,-6.57 5.16,-11.8 9.21,-15.72 3.04,-2.73 6.72,-4.1 11.06,-4.1 5.05,0 9.6,2.41 13.65,7.25 4.05,4.84 6.08,11.67 6.08,20.5 0,10.11 -2.03,18.81 -6.08,26.11 -4.05,7.3 -9.68,10.95 -16.91,10.95 -2.3,0 -4.73,-0.46 -7.25,-1.41 -2.53,-0.94 -6.33,-2.92 -11.38,-5.96"
             style="fill:#000000;fill-opacity:1;fill-rule:nonzero;stroke:none"
             id="path48"
             inkscape:connector-curvature="0" /><path
             d="m 2478.45,2774.97 0,-72.15"
             style="fill:none;stroke:#000000;stroke-width:13.875;stroke-linecap:butt;stroke-linejoin:round;stroke-miterlimit:10;stroke-opacity:1;stroke-dasharray:none"
             id="path50"
             inkscape:connector-curvature="0" /><path
             d="m 2379.12,2570.34 c 0,13.6 2.07,25.34 6.19,35.25 4.1,9.89 9.57,17.23 16.35,21.99 5.36,3.76 10.86,5.65 16.49,5.65 9.1,0 17.27,-4.64 24.49,-13.88 9.11,-11.57 13.66,-27.25 13.66,-47.05 0,-13.87 -1.98,-25.66 -5.96,-35.34 -3.97,-9.68 -9.07,-16.73 -15.28,-21.13 -6.21,-4.41 -12.14,-6.62 -17.79,-6.62 -11.41,0 -20.95,6.73 -28.61,20.16 -6.36,11.42 -9.54,25.09 -9.54,40.97 z m 17.34,-2.16 c 0,-16.47 2.03,-29.91 6.08,-40.32 3.32,-8.67 8.31,-13.02 14.96,-13.02 3.18,0 6.46,1.42 9.86,4.23 3.4,2.82 5.97,7.64 7.7,14.42 2.74,9.98 4.11,24.21 4.11,42.71 0,13.58 -1.44,24.93 -4.33,34.03 -2.02,6.81 -4.77,11.57 -8.24,14.32 -2.3,1.88 -5.21,2.82 -8.67,2.82 -3.9,0 -7.44,-1.73 -10.62,-5.2 -4.2,-4.92 -7.04,-12.62 -8.57,-23.09 -1.51,-10.48 -2.28,-20.79 -2.28,-30.9 z m 88.9,-39.67 c 2.73,0 5.05,-0.97 6.94,-2.93 1.87,-1.96 2.81,-4.23 2.81,-6.82 0,-2.75 -0.94,-5.07 -2.81,-6.94 -1.89,-1.89 -4.21,-2.82 -6.94,-2.82 -2.75,0 -5.06,0.93 -6.94,2.82 -1.88,1.87 -2.83,4.19 -2.83,6.94 0,2.74 0.95,5.05 2.83,6.94 1.88,1.87 4.19,2.81 6.94,2.81 z m 40.75,102.33 63.95,0 0,-3.47 -39.89,-118.37 -9.76,0 35.57,107.54 -32.75,0 c -6.64,0 -11.34,-0.81 -14.08,-2.39 -5.06,-2.75 -9.03,-6.94 -11.94,-12.59 l -2.59,0.88 11.49,28.4"
             style="fill:#000000;fill-opacity:1;fill-rule:nonzero;stroke:none"
             id="path52"
             inkscape:connector-curvature="0" /><path
             d="m 3439.79,2774.97 0,-72.15"
             style="fill:none;stroke:#000000;stroke-width:13.875;stroke-linecap:butt;stroke-linejoin:round;stroke-miterlimit:10;stroke-opacity:1;stroke-dasharray:none"
             id="path54"
             inkscape:connector-curvature="0" /><path
             d="m 3336.49,2570.34 c 0,13.6 2.07,25.34 6.19,35.25 4.11,9.89 9.57,17.23 16.36,21.99 5.35,3.76 10.85,5.65 16.48,5.65 9.1,0 17.28,-4.64 24.49,-13.88 9.12,-11.57 13.67,-27.25 13.67,-47.05 0,-13.87 -1.98,-25.66 -5.97,-35.34 -3.96,-9.68 -9.07,-16.73 -15.27,-21.13 -6.22,-4.41 -12.14,-6.62 -17.79,-6.62 -11.42,0 -20.95,6.73 -28.61,20.16 -6.37,11.42 -9.55,25.09 -9.55,40.97 z m 17.35,-2.16 c 0,-16.47 2.02,-29.91 6.07,-40.32 3.32,-8.67 8.32,-13.02 14.96,-13.02 3.18,0 6.47,1.42 9.87,4.23 3.4,2.82 5.96,7.64 7.7,14.42 2.73,9.98 4.1,24.21 4.1,42.71 0,13.58 -1.44,24.93 -4.33,34.03 -2.02,6.81 -4.77,11.57 -8.24,14.32 -2.3,1.88 -5.2,2.82 -8.67,2.82 -3.9,0 -7.44,-1.73 -10.61,-5.2 -4.21,-4.92 -7.05,-12.62 -8.58,-23.09 -1.51,-10.48 -2.27,-20.79 -2.27,-30.9 z m 88.89,-39.67 c 2.74,0 5.06,-0.97 6.94,-2.93 1.88,-1.96 2.82,-4.23 2.82,-6.82 0,-2.75 -0.94,-5.07 -2.82,-6.94 -1.88,-1.89 -4.2,-2.82 -6.94,-2.82 -2.74,0 -5.06,0.93 -6.93,2.82 -1.89,1.87 -2.84,4.19 -2.84,6.94 0,2.74 0.95,5.05 2.84,6.94 1.87,1.87 4.19,2.81 6.93,2.81 z m 57.24,42.93 c -9.55,7.8 -15.69,14.06 -18.44,18.74 -2.73,4.71 -4.11,9.58 -4.11,14.64 0,7.8 3,14.49 8.99,20.05 6,5.57 13.99,8.36 23.97,8.36 9.67,0 17.44,-2.61 23.29,-7.82 5.86,-5.2 8.78,-11.12 8.78,-17.77 0,-4.48 -1.59,-9.03 -4.77,-13.65 -3.18,-4.64 -9.75,-10.13 -19.73,-16.49 10.27,-7.95 17.07,-14.23 20.38,-18.85 4.49,-5.93 6.73,-12.23 6.73,-18.87 0,-8.38 -3.19,-15.57 -9.54,-21.57 -6.36,-6 -14.74,-9 -25.14,-9 -11.42,0 -20.32,3.54 -26.67,10.63 -5.07,5.77 -7.59,12.07 -7.59,18.86 0,5.2 1.8,10.4 5.41,15.6 3.62,5.21 9.77,10.92 18.44,17.14 z m 13.65,9.53 c 7.08,6.36 11.56,11.38 13.45,15.07 1.87,3.69 2.81,7.84 2.81,12.46 0,6.08 -1.73,10.88 -5.2,14.43 -3.47,3.54 -8.17,5.3 -14.1,5.3 -6.06,0 -10.97,-1.73 -14.73,-5.2 -3.76,-3.47 -5.65,-7.51 -5.65,-12.14 0,-3.03 0.8,-6.11 2.39,-9.22 1.59,-3.1 3.83,-6.03 6.73,-8.78 l 14.3,-11.92 z m -9.55,-12.79 c -4.91,-4.04 -8.51,-8.49 -10.83,-13.34 -2.3,-4.84 -3.47,-10.07 -3.47,-15.72 0,-7.66 2.07,-13.76 6.18,-18.31 4.12,-4.55 9.36,-6.83 15.71,-6.83 6.38,0 11.46,1.81 15.3,5.43 3.83,3.61 5.74,7.93 5.74,13 0,4.19 -1.15,8.02 -3.47,11.49 -4.05,6.21 -12.43,14.3 -25.16,24.28"
             style="fill:#000000;fill-opacity:1;fill-rule:nonzero;stroke:none"
             id="path56"
             inkscape:connector-curvature="0" /><path
             d="m 4401.12,2774.97 0,-72.15"
             style="fill:none;stroke:#000000;stroke-width:13.875;stroke-linecap:butt;stroke-linejoin:round;stroke-miterlimit:10;stroke-opacity:1;stroke-dasharray:none"
             id="path58"
             inkscape:connector-curvature="0" /><path
             d="m 4307.74,2570.34 c 0,13.6 2.07,25.34 6.19,35.25 4.11,9.89 9.57,17.23 16.36,21.99 5.35,3.76 10.85,5.65 16.48,5.65 9.11,0 17.28,-4.64 24.49,-13.88 9.12,-11.57 13.67,-27.25 13.67,-47.05 0,-13.87 -1.98,-25.66 -5.97,-35.34 -3.96,-9.68 -9.07,-16.73 -15.27,-21.13 -6.22,-4.41 -12.14,-6.62 -17.79,-6.62 -11.42,0 -20.95,6.73 -28.61,20.16 -6.37,11.42 -9.55,25.09 -9.55,40.97 z m 17.35,-2.16 c 0,-16.47 2.02,-29.91 6.07,-40.32 3.32,-8.67 8.32,-13.02 14.96,-13.02 3.18,0 6.47,1.42 9.87,4.23 3.4,2.82 5.96,7.64 7.7,14.42 2.73,9.98 4.1,24.21 4.1,42.71 0,13.58 -1.44,24.93 -4.33,34.03 -2.02,6.81 -4.77,11.57 -8.24,14.32 -2.3,1.88 -5.2,2.82 -8.67,2.82 -3.9,0 -7.44,-1.73 -10.61,-5.2 -4.21,-4.92 -7.05,-12.62 -8.58,-23.09 -1.51,-10.48 -2.27,-20.79 -2.27,-30.9 z m 88.89,-39.67 c 2.74,0 5.06,-0.97 6.94,-2.93 1.88,-1.96 2.82,-4.23 2.82,-6.82 0,-2.75 -0.94,-5.07 -2.82,-6.94 -1.88,-1.89 -4.2,-2.82 -6.94,-2.82 -2.74,0 -5.06,0.93 -6.93,2.82 -1.89,1.87 -2.84,4.19 -2.84,6.94 0,2.74 0.95,5.05 2.84,6.94 1.87,1.87 4.19,2.81 6.93,2.81 z m 32.08,-19.51 0,3.25 c 7.66,0 14.78,1.73 21.36,5.2 6.58,3.47 12.93,9.51 19.08,18.11 6.14,8.59 10.38,18.02 12.68,28.29 -9.24,-5.92 -17.56,-8.89 -24.94,-8.89 -8.38,0 -15.56,3.22 -21.56,9.64 -6,6.44 -9,15.07 -9,25.92 0,10.41 2.96,19.71 8.89,27.96 7.23,9.83 16.69,14.75 28.4,14.75 9.83,0 18.21,-4.05 25.14,-12.14 8.54,-9.98 12.8,-22.34 12.8,-37.08 0,-13.31 -3.25,-25.7 -9.76,-37.19 -6.51,-11.48 -15.54,-20.99 -27.1,-28.51 -9.54,-6.2 -19.86,-9.31 -31.01,-9.31 l -4.98,0 z m 54.64,61.34 c 1,7.68 1.51,13.74 1.51,18.22 0,5.79 -0.96,11.96 -2.92,18.54 -1.96,6.58 -4.7,11.63 -8.24,15.18 -3.54,3.54 -7.55,5.3 -12.03,5.3 -5.21,0 -9.8,-2.35 -13.77,-7.04 -3.98,-4.7 -5.96,-11.68 -5.96,-20.92 0,-12.43 2.6,-22.12 7.81,-29.05 3.9,-5.07 8.59,-7.59 14.08,-7.59 2.75,0 5.97,0.65 9.66,1.95 3.68,1.31 6.96,3.11 9.86,5.41"
             style="fill:#000000;fill-opacity:1;fill-rule:nonzero;stroke:none"
             id="path60"
             inkscape:connector-curvature="0" /><path
             d="m 5362.45,2774.97 0,-72.15"
             style="fill:none;stroke:#000000;stroke-width:13.875;stroke-linecap:butt;stroke-linejoin:round;stroke-miterlimit:10;stroke-opacity:1;stroke-dasharray:none"
             id="path62"
             inkscape:connector-curvature="0" /><path
             d="m 5279.87,2619.13 29.05,14.1 2.82,0 0,-100.82 c 0,-6.65 0.29,-10.81 0.86,-12.46 0.58,-1.66 1.73,-2.93 3.47,-3.8 1.73,-0.86 5.27,-1.38 10.63,-1.51 l 0,-3.26 -44.89,0 0,3.26 c 5.65,0.13 9.3,0.65 10.95,1.51 1.66,0.87 2.83,2.03 3.47,3.47 0.65,1.44 0.98,5.71 0.98,12.79 l 0,64.39 c 0,8.81 -0.29,14.45 -0.87,16.9 -0.43,1.89 -1.2,3.26 -2.28,4.12 -1.08,0.88 -2.41,1.31 -4.01,1.31 -2.16,0 -5.13,-0.95 -8.88,-2.82 l -1.3,2.82 z m 91.49,-90.62 c 2.73,0 5.05,-0.97 6.94,-2.93 1.87,-1.96 2.81,-4.23 2.81,-6.82 0,-2.75 -0.94,-5.07 -2.81,-6.94 -1.89,-1.89 -4.21,-2.82 -6.94,-2.82 -2.75,0 -5.06,0.93 -6.94,2.82 -1.88,1.87 -2.83,4.19 -2.83,6.94 0,2.74 0.95,5.05 2.83,6.94 1.88,1.87 4.19,2.81 6.94,2.81 z m 29.04,41.83 c 0,13.6 2.07,25.34 6.19,35.25 4.11,9.89 9.57,17.23 16.36,21.99 5.35,3.76 10.85,5.65 16.48,5.65 9.1,0 17.27,-4.64 24.49,-13.88 9.12,-11.57 13.67,-27.25 13.67,-47.05 0,-13.87 -1.99,-25.66 -5.97,-35.34 -3.97,-9.68 -9.07,-16.73 -15.28,-21.13 -6.21,-4.41 -12.14,-6.62 -17.79,-6.62 -11.41,0 -20.94,6.73 -28.6,20.16 -6.37,11.42 -9.55,25.09 -9.55,40.97 z m 17.34,-2.16 c 0,-16.47 2.03,-29.91 6.08,-40.32 3.32,-8.67 8.31,-13.02 14.96,-13.02 3.18,0 6.47,1.42 9.86,4.23 3.4,2.82 5.97,7.64 7.7,14.42 2.74,9.98 4.11,24.21 4.11,42.71 0,13.58 -1.44,24.93 -4.33,34.03 -2.02,6.81 -4.77,11.57 -8.24,14.32 -2.3,1.88 -5.2,2.82 -8.67,2.82 -3.9,0 -7.44,-1.73 -10.62,-5.2 -4.2,-4.92 -7.04,-12.62 -8.57,-23.09 -1.51,-10.48 -2.28,-20.79 -2.28,-30.9"
             style="fill:#000000;fill-opacity:1;fill-rule:nonzero;stroke:none"
             id="path64"
             inkscape:connector-curvature="0" /><path
             d="m 638.25,5425.05 -36.074,0"
             style="fill:none;stroke:#000000;stroke-width:13.875;stroke-linecap:butt;stroke-linejoin:round;stroke-miterlimit:10;stroke-opacity:1;stroke-dasharray:none"
             id="path66"
             inkscape:connector-curvature="0" /><path
             d="m 638.25,5221.2 -36.074,0"
             style="fill:none;stroke:#000000;stroke-width:13.875;stroke-linecap:butt;stroke-linejoin:round;stroke-miterlimit:10;stroke-opacity:1;stroke-dasharray:none"
             id="path68"
             inkscape:connector-curvature="0" /><path
             d="m 638.25,5017.35 -36.074,0"
             style="fill:none;stroke:#000000;stroke-width:13.875;stroke-linecap:butt;stroke-linejoin:round;stroke-miterlimit:10;stroke-opacity:1;stroke-dasharray:none"
             id="path70"
             inkscape:connector-curvature="0" /><path
             d="m 638.25,4609.64 -36.074,0"
             style="fill:none;stroke:#000000;stroke-width:13.875;stroke-linecap:butt;stroke-linejoin:round;stroke-miterlimit:10;stroke-opacity:1;stroke-dasharray:none"
             id="path72"
             inkscape:connector-curvature="0" /><path
             d="m 638.25,4405.79 -36.074,0"
             style="fill:none;stroke:#000000;stroke-width:13.875;stroke-linecap:butt;stroke-linejoin:round;stroke-miterlimit:10;stroke-opacity:1;stroke-dasharray:none"
             id="path74"
             inkscape:connector-curvature="0" /><path
             d="m 638.25,4201.94 -36.074,0"
             style="fill:none;stroke:#000000;stroke-width:13.875;stroke-linecap:butt;stroke-linejoin:round;stroke-miterlimit:10;stroke-opacity:1;stroke-dasharray:none"
             id="path76"
             inkscape:connector-curvature="0" /><path
             d="m 638.25,3998.09 -36.074,0"
             style="fill:none;stroke:#000000;stroke-width:13.875;stroke-linecap:butt;stroke-linejoin:round;stroke-miterlimit:10;stroke-opacity:1;stroke-dasharray:none"
             id="path78"
             inkscape:connector-curvature="0" /><path
             d="m 638.25,3590.38 -36.074,0"
             style="fill:none;stroke:#000000;stroke-width:13.875;stroke-linecap:butt;stroke-linejoin:round;stroke-miterlimit:10;stroke-opacity:1;stroke-dasharray:none"
             id="path80"
             inkscape:connector-curvature="0" /><path
             d="m 638.25,3386.53 -36.074,0"
             style="fill:none;stroke:#000000;stroke-width:13.875;stroke-linecap:butt;stroke-linejoin:round;stroke-miterlimit:10;stroke-opacity:1;stroke-dasharray:none"
             id="path82"
             inkscape:connector-curvature="0" /><path
             d="m 638.25,3182.68 -36.074,0"
             style="fill:none;stroke:#000000;stroke-width:13.875;stroke-linecap:butt;stroke-linejoin:round;stroke-miterlimit:10;stroke-opacity:1;stroke-dasharray:none"
             id="path84"
             inkscape:connector-curvature="0" /><path
             d="m 638.25,2978.82 -36.074,0"
             style="fill:none;stroke:#000000;stroke-width:13.875;stroke-linecap:butt;stroke-linejoin:round;stroke-miterlimit:10;stroke-opacity:1;stroke-dasharray:none"
             id="path86"
             inkscape:connector-curvature="0" /><path
             d="m 638.25,2571.12 -36.074,0"
             style="fill:none;stroke:#000000;stroke-width:13.875;stroke-linecap:butt;stroke-linejoin:round;stroke-miterlimit:10;stroke-opacity:1;stroke-dasharray:none"
             id="path88"
             inkscape:connector-curvature="0" /><path
             d="m 638.25,2367.27 -36.074,0"
             style="fill:none;stroke:#000000;stroke-width:13.875;stroke-linecap:butt;stroke-linejoin:round;stroke-miterlimit:10;stroke-opacity:1;stroke-dasharray:none"
             id="path90"
             inkscape:connector-curvature="0" /><path
             d="m 638.25,2163.42 -36.074,0"
             style="fill:none;stroke:#000000;stroke-width:13.875;stroke-linecap:butt;stroke-linejoin:round;stroke-miterlimit:10;stroke-opacity:1;stroke-dasharray:none"
             id="path92"
             inkscape:connector-curvature="0" /><path
             d="m 638.25,1959.55 -36.074,0"
             style="fill:none;stroke:#000000;stroke-width:13.875;stroke-linecap:butt;stroke-linejoin:round;stroke-miterlimit:10;stroke-opacity:1;stroke-dasharray:none"
             id="path94"
             inkscape:connector-curvature="0" /><path
             d="m 638.25,1551.85 -36.074,0"
             style="fill:none;stroke:#000000;stroke-width:13.875;stroke-linecap:butt;stroke-linejoin:round;stroke-miterlimit:10;stroke-opacity:1;stroke-dasharray:none"
             id="path96"
             inkscape:connector-curvature="0" /><path
             d="m 638.25,1348 -36.074,0"
             style="fill:none;stroke:#000000;stroke-width:13.875;stroke-linecap:butt;stroke-linejoin:round;stroke-miterlimit:10;stroke-opacity:1;stroke-dasharray:none"
             id="path98"
             inkscape:connector-curvature="0" /><path
             d="m 638.25,1144.15 -36.074,0"
             style="fill:none;stroke:#000000;stroke-width:13.875;stroke-linecap:butt;stroke-linejoin:round;stroke-miterlimit:10;stroke-opacity:1;stroke-dasharray:none"
             id="path100"
             inkscape:connector-curvature="0" /><path
             d="m 638.25,940.297 -36.074,0"
             style="fill:none;stroke:#000000;stroke-width:13.875;stroke-linecap:butt;stroke-linejoin:round;stroke-miterlimit:10;stroke-opacity:1;stroke-dasharray:none"
             id="path102"
             inkscape:connector-curvature="0" /><path
             d="m 638.25,532.594 -36.074,0"
             style="fill:none;stroke:#000000;stroke-width:13.875;stroke-linecap:butt;stroke-linejoin:round;stroke-miterlimit:10;stroke-opacity:1;stroke-dasharray:none"
             id="path104"
             inkscape:connector-curvature="0" /><path
             d="m 638.25,328.742 -36.074,0"
             style="fill:none;stroke:#000000;stroke-width:13.875;stroke-linecap:butt;stroke-linejoin:round;stroke-miterlimit:10;stroke-opacity:1;stroke-dasharray:none"
             id="path106"
             inkscape:connector-curvature="0" /><path
             d="m 638.25,124.875 -36.074,0"
             style="fill:none;stroke:#000000;stroke-width:13.875;stroke-linecap:butt;stroke-linejoin:round;stroke-miterlimit:10;stroke-opacity:1;stroke-dasharray:none"
             id="path108"
             inkscape:connector-curvature="0" /><path
             d="m 638.25,124.875 0,5300.175"
             style="fill:none;stroke:#000000;stroke-width:13.875;stroke-linecap:butt;stroke-linejoin:round;stroke-miterlimit:10;stroke-opacity:1;stroke-dasharray:none"
             id="path110"
             inkscape:connector-curvature="0" /><path
             d="m 638.25,736.445 -72.148,0"
             style="fill:none;stroke:#000000;stroke-width:13.875;stroke-linecap:butt;stroke-linejoin:round;stroke-miterlimit:10;stroke-opacity:1;stroke-dasharray:none"
             id="path112"
             inkscape:connector-curvature="0" /></g></g><g
         id="g114"><g
           id="g116"
           clip-path="url(#clipPath118)"><path
             d="m 294.191,729.312 119.238,0 0,9.32422 -119.238,0 0,-9.32422 z"
             style="fill:#000000;fill-opacity:1;fill-rule:nonzero;stroke:none"
             id="path122"
             inkscape:connector-curvature="0" /></g></g><g
         id="g124"><g
           id="g126"
           clip-path="url(#clipPath128)"><path
             d="m 409.746,787.629 29.051,14.098 2.816,0 0,-100.817 c 0,-6.648 0.289,-10.808 0.867,-12.461 0.579,-1.664 1.735,-2.926 3.469,-3.801 1.735,-0.859 5.278,-1.375 10.625,-1.511 l 0,-3.262 -44.879,0 0,3.262 c 5.637,0.136 9.289,0.652 10.95,1.511 1.664,0.875 2.82,2.028 3.468,3.469 0.653,1.442 0.977,5.715 0.977,12.793 l 0,64.395 c 0,8.808 -0.289,14.441 -0.867,16.898 -0.434,1.887 -1.192,3.262 -2.278,4.121 -1.082,0.875 -2.422,1.305 -4.011,1.305 -2.168,0 -5.129,-0.945 -8.887,-2.817 l -1.301,2.817 z m 75.445,-48.785 c 0,13.597 2.059,25.336 6.18,35.242 4.117,9.894 9.574,17.234 16.367,21.992 5.348,3.762 10.84,5.649 16.477,5.649 9.105,0 17.269,-4.637 24.496,-13.875 9.105,-11.575 13.66,-27.25 13.66,-47.051 0,-13.875 -1.988,-25.656 -5.961,-35.34 -3.976,-9.684 -9.07,-16.734 -15.285,-21.133 -6.215,-4.41 -12.141,-6.617 -17.777,-6.617 -11.418,0 -20.957,6.73 -28.618,20.16 -6.359,11.418 -9.539,25.086 -9.539,40.973 z m 17.344,-2.164 c 0,-16.469 2.024,-29.914 6.07,-40.321 3.325,-8.671 8.309,-13.015 14.957,-13.015 3.18,0 6.469,1.414 9.868,4.23 3.394,2.817 5.961,7.633 7.695,14.418 2.746,9.977 4.117,24.211 4.117,42.707 0,13.582 -1.445,24.934 -4.336,34.035 -2.023,6.801 -4.769,11.571 -8.238,14.321 -2.313,1.871 -5.203,2.816 -8.672,2.816 -3.902,0 -7.441,-1.734 -10.621,-5.203 -4.191,-4.914 -7.047,-12.613 -8.563,-23.09 -1.519,-10.473 -2.277,-20.785 -2.277,-30.898"
             style="fill:#000000;fill-opacity:1;fill-rule:nonzero;stroke:none"
             id="path132"
             inkscape:connector-curvature="0" /><path
             d="m 638.25,1755.7 -72.148,0"
             style="fill:none;stroke:#000000;stroke-width:13.875;stroke-linecap:butt;stroke-linejoin:round;stroke-miterlimit:10;stroke-opacity:1;stroke-dasharray:none"
             id="path134"
             inkscape:connector-curvature="0" /></g></g><g
         id="g136"><g
           id="g138"
           clip-path="url(#clipPath140)"><path
             d="m 377.441,1742.19 119.238,0 0,9.3242 -119.238,0 0,-9.3242 z"
             style="fill:#000000;fill-opacity:1;fill-rule:nonzero;stroke:none"
             id="path144"
             inkscape:connector-curvature="0" /></g></g><g
         id="g146"><g
           id="g148"
           clip-path="url(#clipPath150)"><path
             d="m 550.012,1812.21 -6.938,-14.95 -35.769,0 -7.805,-16.06 c 15.465,-2.3 27.75,-8.09 36.855,-17.34 7.805,-7.94 11.707,-17.34 11.707,-28.18 0,-6.36 -1.265,-12.21 -3.792,-17.55 -2.532,-5.36 -5.747,-9.91 -9.649,-13.67 -3.902,-3.76 -8.238,-6.71 -13.008,-8.88 -6.648,-3.33 -13.586,-4.99 -20.812,-4.99 -7.082,0 -12.25,1.23 -15.5,3.69 -3.254,2.45 -4.879,5.13 -4.879,8.02 0,1.73 0.683,3.22 2.058,4.43 1.375,1.24 3.071,1.85 5.094,1.85 1.446,0 2.746,-0.22 3.903,-0.65 1.156,-0.43 3.109,-1.66 5.855,-3.68 4.48,-3.04 8.961,-4.56 13.441,-4.56 6.938,0 12.973,2.61 18.102,7.81 5.129,5.2 7.695,11.56 7.695,19.08 0,7.22 -2.312,13.94 -6.937,20.16 -4.625,6.21 -10.985,11.06 -19.078,14.53 -6.504,2.59 -15.246,4.12 -26.231,4.55 l 22.981,46.39 42.707,0"
             style="fill:#000000;fill-opacity:1;fill-rule:nonzero;stroke:none"
             id="path154"
             inkscape:connector-curvature="0" /><path
             d="m 638.25,2774.97 -72.148,0"
             style="fill:none;stroke:#000000;stroke-width:13.875;stroke-linecap:butt;stroke-linejoin:round;stroke-miterlimit:10;stroke-opacity:1;stroke-dasharray:none"
             id="path156"
             inkscape:connector-curvature="0" /><path
             d="m 478.254,2764.59 c 0,13.6 2.058,25.34 6.18,35.25 4.117,9.89 9.574,17.23 16.367,21.99 5.347,3.76 10.84,5.65 16.476,5.65 9.106,0 17.27,-4.64 24.496,-13.88 9.106,-11.57 13.661,-27.25 13.661,-47.05 0,-13.87 -1.989,-25.66 -5.961,-35.34 -3.977,-9.68 -9.071,-16.73 -15.285,-21.13 -6.215,-4.41 -12.141,-6.62 -17.778,-6.62 -11.418,0 -20.957,6.73 -28.617,20.16 -6.359,11.42 -9.539,25.09 -9.539,40.97 z m 17.344,-2.16 c 0,-16.47 2.023,-29.91 6.07,-40.32 3.324,-8.67 8.309,-13.02 14.957,-13.02 3.18,0 6.469,1.42 9.867,4.23 3.395,2.82 5.961,7.64 7.696,14.42 2.746,9.98 4.117,24.21 4.117,42.71 0,13.58 -1.446,24.93 -4.336,34.03 -2.024,6.81 -4.77,11.57 -8.239,14.32 -2.312,1.88 -5.203,2.82 -8.671,2.82 -3.903,0 -7.442,-1.73 -10.621,-5.2 -4.192,-4.92 -7.047,-12.62 -8.563,-23.09 -1.52,-10.48 -2.277,-20.79 -2.277,-30.9"
             style="fill:#000000;fill-opacity:1;fill-rule:nonzero;stroke:none"
             id="path158"
             inkscape:connector-curvature="0" /><path
             d="m 638.25,3794.23 -72.148,0"
             style="fill:none;stroke:#000000;stroke-width:13.875;stroke-linecap:butt;stroke-linejoin:round;stroke-miterlimit:10;stroke-opacity:1;stroke-dasharray:none"
             id="path160"
             inkscape:connector-curvature="0" /><path
             d="m 550.012,3851.84 -6.938,-14.96 -35.769,0 -7.805,-16.05 c 15.465,-2.31 27.75,-8.09 36.855,-17.35 7.805,-7.93 11.707,-17.34 11.707,-28.18 0,-6.35 -1.265,-12.21 -3.792,-17.55 -2.532,-5.35 -5.747,-9.9 -9.649,-13.66 -3.902,-3.77 -8.238,-6.72 -13.008,-8.88 -6.648,-3.33 -13.586,-5 -20.812,-5 -7.082,0 -12.25,1.24 -15.5,3.69 -3.254,2.46 -4.879,5.14 -4.879,8.02 0,1.74 0.683,3.22 2.058,4.44 1.375,1.24 3.071,1.85 5.094,1.85 1.446,0 2.746,-0.23 3.903,-0.66 1.156,-0.43 3.109,-1.66 5.855,-3.67 4.48,-3.04 8.961,-4.57 13.441,-4.57 6.938,0 12.973,2.61 18.102,7.81 5.129,5.21 7.695,11.56 7.695,19.08 0,7.23 -2.312,13.95 -6.937,20.16 -4.625,6.22 -10.985,11.06 -19.078,14.53 -6.504,2.59 -15.246,4.12 -26.231,4.55 l 22.981,46.4 42.707,0"
             style="fill:#000000;fill-opacity:1;fill-rule:nonzero;stroke:none"
             id="path162"
             inkscape:connector-curvature="0" /><path
             d="m 638.25,4813.5 -72.148,0"
             style="fill:none;stroke:#000000;stroke-width:13.875;stroke-linecap:butt;stroke-linejoin:round;stroke-miterlimit:10;stroke-opacity:1;stroke-dasharray:none"
             id="path164"
             inkscape:connector-curvature="0" /><path
             d="m 409.746,4853 29.051,14.09 2.816,0 0,-100.81 c 0,-6.65 0.289,-10.8 0.867,-12.47 0.579,-1.66 1.735,-2.92 3.469,-3.79 1.735,-0.87 5.278,-1.37 10.625,-1.52 l 0,-3.25 -44.879,0 0,3.25 c 5.637,0.15 9.289,0.65 10.95,1.52 1.664,0.87 2.82,2.02 3.468,3.47 0.653,1.44 0.977,5.71 0.977,12.79 l 0,64.39 c 0,8.81 -0.289,14.45 -0.867,16.91 -0.434,1.88 -1.192,3.25 -2.278,4.12 -1.082,0.87 -2.422,1.3 -4.011,1.3 -2.168,0 -5.129,-0.94 -8.887,-2.82 l -1.301,2.82 z m 75.445,-48.78 c 0,13.58 2.059,25.33 6.18,35.23 4.117,9.9 9.574,17.23 16.367,22 5.348,3.76 10.84,5.64 16.477,5.64 9.105,0 17.269,-4.63 24.496,-13.88 9.105,-11.56 13.66,-27.24 13.66,-47.04 0,-13.87 -1.988,-25.65 -5.961,-35.34 -3.976,-9.68 -9.07,-16.72 -15.285,-21.13 -6.215,-4.41 -12.141,-6.62 -17.777,-6.62 -11.418,0 -20.957,6.72 -28.618,20.17 -6.359,11.41 -9.539,25.07 -9.539,40.97 z m 17.344,-2.17 c 0,-16.48 2.024,-29.92 6.07,-40.32 3.325,-8.68 8.309,-13.01 14.957,-13.01 3.18,0 6.469,1.41 9.868,4.23 3.394,2.82 5.961,7.62 7.695,14.41 2.746,9.98 4.117,24.21 4.117,42.71 0,13.59 -1.445,24.93 -4.336,34.04 -2.023,6.79 -4.769,11.56 -8.238,14.31 -2.313,1.88 -5.203,2.82 -8.672,2.82 -3.902,0 -7.441,-1.74 -10.621,-5.2 -4.191,-4.92 -7.047,-12.61 -8.563,-23.09 -1.519,-10.49 -2.277,-20.78 -2.277,-30.9"
             style="fill:#000000;fill-opacity:1;fill-rule:nonzero;stroke:none"
             id="path166"
             inkscape:connector-curvature="0" /></g></g></g><text
       xml:space="preserve"
       style="font-size:19.20000076px;font-style:normal;font-variant:normal;font-weight:normal;font-stretch:normal;line-height:125%;letter-spacing:0px;word-spacing:0px;fill:#000000;fill-opacity:1;stroke:none;filter:url(#filter3927);font-family:Arial;-inkscape-font-specification:Arial"
       x="40.799999"
       y="-550.40002"
       id="text3915"
       sodipodi:linespacing="125%"
       transform="scale(1,-1)"><tspan
         sodipodi:role="line"
         id="tspan3917"
         x="40.799999"
         y="-550.40002">λ=0.5</tspan></text>
<text
       xml:space="preserve"
       style="font-size:19.20000076px;font-style:normal;font-variant:normal;font-weight:normal;font-stretch:normal;line-height:125%;letter-spacing:0px;word-spacing:0px;fill:#000000;fill-opacity:1;stroke:none;filter:url(#filter3927);font-family:Arial;-inkscape-font-specification:Arial"
       x="522.39996"
       y="-550.40021"
       id="text3919"
       sodipodi:linespacing="125%"
       transform="scale(1,-1)"><tspan
         sodipodi:role="line"
         id="tspan3921"
         x="522.39996"
         y="-550.40021">λ=1</tspan></text>
</g><g
     inkscape:groupmode="layer"
     id="layer1"
     inkscape:label="Layer 2"><path
       style="fill:none;stroke:#ff0000;stroke-width:3;stroke-linecap:butt;stroke-linejoin:miter;stroke-opacity:1;stroke-miterlimit:4;stroke-dasharray:none;filter:url(#filter3927)"
       d="m 88,13.75 584,0 0,664 -584,0"
       id="path3940"
       inkscape:connector-curvature="0" /></g></svg>