<?xml version="1.0" encoding="UTF-8" standalone="no"?>
<!-- Created with Inkscape (http://www.inkscape.org/) -->

<svg
   xmlns:dc="http://purl.org/dc/elements/1.1/"
   xmlns:cc="http://creativecommons.org/ns#"
   xmlns:rdf="http://www.w3.org/1999/02/22-rdf-syntax-ns#"
   xmlns:svg="http://www.w3.org/2000/svg"
   xmlns="http://www.w3.org/2000/svg"
   xmlns:sodipodi="http://sodipodi.sourceforge.net/DTD/sodipodi-0.dtd"
   xmlns:inkscape="http://www.inkscape.org/namespaces/inkscape"
   id="svg2989"
   version="1.1"
   inkscape:version="0.48.1 r9760"
   width="693.75"
   height="693.75"
   xml:space="preserve"
   sodipodi:docname="5sols.svg"><metadata
     id="metadata2995"><rdf:RDF><cc:Work
         rdf:about=""><dc:format>image/svg+xml</dc:format><dc:type
           rdf:resource="http://purl.org/dc/dcmitype/StillImage" /><dc:title /></cc:Work></rdf:RDF></metadata><defs
     id="defs2993"><clipPath
       clipPathUnits="userSpaceOnUse"
       id="clipPath3007"><path
         d="m 173.438,5480.52 5307.082,0 0,-5397.2661 -5307.082,0 0,5397.2661 z"
         id="path3009" /></clipPath><clipPath
       clipPathUnits="userSpaceOnUse"
       id="clipPath3019"><path
         d="m 201.188,5452.77 5251.582,0 0,-5341.766 -5251.582,0 0,5341.766 z"
         id="path3021" /></clipPath><clipPath
       clipPathUnits="userSpaceOnUse"
       id="clipPath3029"><path
         d="m 69.375,5480.62 5411.245,0 0,-5411.245 -5411.245,0 0,5411.245 z"
         id="path3031" /></clipPath><clipPath
       clipPathUnits="userSpaceOnUse"
       id="clipPath3077"><path
         d="m 3801.75,2344.88 291.37,0 0,-208.13 -291.37,0 0,208.13 z"
         id="path3079" /></clipPath><clipPath
       clipPathUnits="userSpaceOnUse"
       id="clipPath3087"><path
         d="m 69.375,5480.62 5411.245,0 0,-5411.245 -5411.245,0 0,5411.245 z"
         id="path3089" /></clipPath><clipPath
       clipPathUnits="userSpaceOnUse"
       id="clipPath3097"><path
         d="m 83.25,2553 97.125,0 0,-180.38 -97.125,0 0,180.38 z"
         id="path3099" /></clipPath><clipPath
       clipPathUnits="userSpaceOnUse"
       id="clipPath3107"><path
         d="m 69.375,5480.62 5411.245,0 0,-5411.245 -5411.245,0 0,5411.245 z"
         id="path3109" /></clipPath><clipPath
       clipPathUnits="userSpaceOnUse"
       id="clipPath3119"><path
         d="m 1248.75,2553 97.13,0 0,-180.38 -97.13,0 0,180.38 z"
         id="path3121" /></clipPath><clipPath
       clipPathUnits="userSpaceOnUse"
       id="clipPath3129"><path
         d="m 69.375,5480.62 5411.245,0 0,-5411.245 -5411.245,0 0,5411.245 z"
         id="path3131" /></clipPath><clipPath
       clipPathUnits="userSpaceOnUse"
       id="clipPath3191"><path
         d="m 1706.62,4134.75 291.38,0 0,-208.13 -291.38,0 0,208.13 z"
         id="path3193" /></clipPath><clipPath
       clipPathUnits="userSpaceOnUse"
       id="clipPath3201"><path
         d="m 69.375,5480.62 5411.245,0 0,-5411.245 -5411.245,0 0,5411.245 z"
         id="path3203" /></clipPath><clipPath
       clipPathUnits="userSpaceOnUse"
       id="clipPath3211"><path
         d="m 2053.5,457.875 97.12,0 0,-180.375 -97.12,0 0,180.375 z"
         id="path3213" /></clipPath><clipPath
       clipPathUnits="userSpaceOnUse"
       id="clipPath3221"><path
         d="m 69.375,5480.62 5411.245,0 0,-5411.245 -5411.245,0 0,5411.245 z"
         id="path3223" /></clipPath><clipPath
       clipPathUnits="userSpaceOnUse"
       id="clipPath3233"><path
         d="m 2136.75,1609.5 97.13,0 0,-180.38 -97.13,0 0,180.38 z"
         id="path3235" /></clipPath><clipPath
       clipPathUnits="userSpaceOnUse"
       id="clipPath3243"><path
         d="m 69.375,5480.62 5411.245,0 0,-5411.245 -5411.245,0 0,5411.245 z"
         id="path3245" /></clipPath></defs><sodipodi:namedview
     pagecolor="#ffffff"
     bordercolor="#666666"
     borderopacity="1"
     objecttolerance="10"
     gridtolerance="10"
     guidetolerance="10"
     inkscape:pageopacity="0"
     inkscape:pageshadow="2"
     inkscape:window-width="1680"
     inkscape:window-height="921"
     id="namedview2991"
     showgrid="true"
     inkscape:zoom="0.74711246"
     inkscape:cx="179.35284"
     inkscape:cy="356.06093"
     inkscape:window-x="0"
     inkscape:window-y="0"
     inkscape:window-maximized="1"
     inkscape:current-layer="g2997"><inkscape:grid
       type="xygrid"
       id="grid5041" /></sodipodi:namedview><g
     id="g2997"
     inkscape:groupmode="layer"
     inkscape:label="ink_ext_XXXXXX"
     transform="matrix(1.25,0,0,-1.25,0,693.75)"><g
   id="g2999"
   transform="scale(0.1,0.1)"><path
     d="m 0,0 5550,0 0,5550 L 0,5550 0,0 z"
     style="fill:#ffffff;fill-opacity:1;fill-rule:nonzero;stroke:none"
     id="path3001" /><g
     id="g3003"><g
       id="g3005"
       clip-path="url(#clipPath3007)"><path
         d="m 3040.66,5411.14 18.79,-525.43 0.18,-5.12 3.51,-98.12 0.04,-1.36 1.18,-33.05 0,-0.11 0.11,-2.97 1.21,-30.19 0.06,-1.29 1.27,-31.87 0.11,-2.69 1.22,-30.47 0.17,-4.1 26.32,-656.81 0.09,-2.29 1.3,-32.28 0.03,-0.86 0.82,-20.47 0.58,-12.7 0.03,-0.62 28.34,-625.72 3.64,-80.17 1.19,-23 0.07,-1.28 3.37,-65.05 0.25,-4.96 25.39,-490.05 0.12,-2.38 1.69,-32.63 0.03,-0.53 0.48,-9.35 31.18,-519.76 0.08,-1.44 1.33,-22.24 0.78,-10.92 0.06,-0.85 30.26,-428.69 0.1,-1.53 1.4,-19.83 1.13,-13.33 0.1,-1.26 30.78,-362.92 0.05,-0.58 0.53,-6.25 32.59,-311.03 32.59,-241.883 32.59,-176.906 32.6,-116.078 32.59,-59.442 32.59,-6.937 32.6,41.39 32.59,85.567 32.59,125.554 0.47,2.333 0.1,0.484 32.02,158.578 1.04,6.16 31.55,186.91 31.34,212.07 0.16,1.12 1.1,7.41 32.59,243.94 1.41,11.37 0.18,1.43 28.75,232.13 0.25,2.03 2,16.16 32.59,278.14 0.23,1.88 0.01,0.23 32.36,286.9 1.15,10.37 0.12,1.15 31.32,284.19 32.59,298.23 1.43,13.01 0.17,1.46 29.15,265.28 0.18,1.69 1.67,15.18 1.63,14.61 0.19,1.66 29.74,265.29 0.1,0.95 0.93,8.31 32.59,280.85 0.9,7.4 0.13,0.93 31.56,258.42 31.36,238.96 0.14,1.12 1.09,8.38 32.11,222.62 0.07,0.43 0.42,2.96 31.96,195.57 0.1,0.55 0.53,3.29 32.59,168.64 32.59,133.7 31.61,91.74 0.26,0.74 0.72,2.13 32.6,51.35 32.59,3.92 32.59,-47.67 32.59,-103.42 32.6,-163.32 32.59,-227.41 1.51,-13.72 0.2,-1.73 30.88,-280.19 32.6,-368.04 0.96,-13.23 0.09,-1.07 28.89,-394.14 0.2,-2.71 2.43,-33.13 0,-0.03 0.02,-0.31 28.52,-459.79 0.27,-4.13 3.8,-61.42 0.26,-4.9 0.02,-0.28 1.76,-32.88 0.11,-2.18 28.1,-525.97 1.87,-35.08 0.03,-0.49 0.44,-8.46 1.15,-24.7 0.07,-1.22 3.03,-65.09 0.21,-4.54 2.88,-61.78 0.36,-7.84 24.34,-522.14 0.03,-0.57 0.52,-11.41 0.9,-21.75 0.05,-0.96 2.69,-65.37 0.15,-3.84 19.93,-484.515 0.37,-9.031 5.31,-129.399 0.14,-3.246 2.71,-65.961 0.03,-0.363 0.32,-8.074 2.13,-58.234 0.09,-2.262 1.13,-30.899 0.13,-3.539 2.3,-62.785 0.22,-6.101 2.21,-60.219 0.32,-8.672 14.25,-389.25"
         style="fill:none;stroke:#ff0000;stroke-opacity:1;stroke-width:55.5;stroke-linecap:butt;stroke-linejoin:round;stroke-miterlimit:10;stroke-dasharray:312.188,156.094,62.4375,156.094;stroke-dashoffset:0"
         id="path3011" /><path
         d="m 228.938,4187.55 30.757,-1.45 1.836,-0.08 32.336,-1.53 0.254,-0.01 5.266,-0.25 59.922,-3.19 3.316,-0.18 515.965,-27.55 2.195,-0.12 32.203,-1.72 0.391,-0.02 7.066,-0.38 25.528,-1.56 1.636,-0.1 30.953,-1.9 3.727,-0.23 416.191,-25.51 3.79,-0.24 58.99,-3.62 6.19,-0.44 0.46,-0.03 420.62,-30 2.62,-0.2 32.42,-2.31 2.36,-0.17 392.64,-33.16 321.93,-32.89 0.27,-0.02 2.46,-0.25 257.92,-32.79 0.36,-0.06 2.5,-0.32 201.02,-33.14 145.33,-33.17 93.72,-33.16 46.24,-33.16 0.08,-0.95 2.74,-32.21 -1.45,-1.32 -1.29,-1.16 -15.93,-14.47 -16.67,-15.15 -0.53,-0.5 -0.63,-0.56 -21.6,-9.99 -9.83,-4.54 -12.58,-5.83 -20.01,-9.23 -2.4,-1.11 -5.3,-2.46 -18.9,-6.09 -5.99,-1.93 -18.76,-6.05 -13.83,-4.45 -10.92,-3.53 -21.68,-6.99 -3.08,-0.99 -9.69,-3.13 -15.85,-4.04 -3.97,-1.01 -22.07,-5.63 -10.52,-2.7 -15.54,-3.96 -17.05,-4.35 -9.01,-2.3 -23.59,-6.02 -2.47,-0.63 -9.83,-2.52 -16.72,-3.63 -3.57,-0.77 -23.29,-5.05 -9.3,-2.01 -17.57,-3.82 -15.02,-3.26 -11.85,-2.57 -20.74,-4.49 -6.13,-1.33 -26.47,-5.75 -0.39,-0.08 -1.82,-0.39 -25.54,-4.94 -4.84,-0.93 -22.54,-4.36 -10.05,-1.94 -17.35,-3.34 -15.25,-2.96 -12.14,-2.34 -20.45,-3.94 -6.95,-1.35 -25.64,-4.95 -1.75,-0.34 -9.2,-1.77 -18.42,-3.28 -3.22,-0.58 -24.52,-4.35 -8.07,-1.43 -19.68,-3.51 -12.92,-2.29 -14.82,-2.64 -17.77,-3.16 -9.98,-1.78 -22.61,-4.01 -5.14,-0.91 -27.45,-4.89 -0.28,-0.06 -1.6,-0.27 -26.36,-4.44 -4.36,-0.74 -23.61,-3.97 -8.98,-1.51 -18.98,-3.19 -13.61,-2.29 -14.36,-2.41 -18.24,-3.07 -9.73,-1.64 -22.85,-3.84 -5.13,-0.86 -27.47,-4.62 -0.48,-0.08 -2.99,-0.5 -25.11,-4.1 -4.01,-0.65 -24.09,-3.91 -8.5,-1.39 -19.6,-3.19 -13,-2.11 -15.09,-2.45 -17.5,-2.86 -10.6,-1.73 -21.99,-3.57 -6.1,-1 -26.49,-4.3 -1.61,-0.27 -10.05,-1.63 -18.08,-2.92 -2.85,-0.46 -25.28,-4.06 -7.32,-1.17 -20.84,-3.35 -11.75,-1.89 -16.39,-2.64 -16.2,-2.61 -11.95,-1.91 -20.64,-3.33 -7.5,-1.19 -25.1,-4.04 -3.05,-0.5 -19.27,-3.1 -8.85,-1.43 -1.42,-0.23 -26.71,-4.33 -5.88,-0.96 -22.23,-3.59 -10.37,-1.68 -17.74,-2.87 -14.85,-2.41 -13.26,-2.16 -19.33,-3.13 -8.8,-1.42 -23.79,-3.85 -4.32,-0.71 -27.07,-4.39 -1.04,-0.17 -0.16,-0.02 -27.84,-4.65 -4.76,-0.79 -23.25,-3.87 -9.34,-1.56 -18.66,-3.12 -13.93,-2.31 -14.07,-2.35 -18.52,-3.08 -9.49,-1.58 -23.1,-3.86 -4.9,-0.82 -27.7,-4.62 -0.3,-0.04 -1.86,-0.32 -25.96,-4.55 -4.47,-0.78 -23.34,-4.09 -9.25,-1.62 -18.54,-3.25 -14.05,-2.47 -13.75,-2.4 -18.84,-3.32 -8.96,-1.56 -23.64,-4.14 -4.17,-0.74 -24.18,-4.24 -3.57,-0.67 -0.67,-0.12 -26.82,-5.08 -5.77,-1.1 -21.71,-4.1 -10.89,-2.06 -16.59,-3.13 -16,-3.04 -11.48,-2.17 -21.11,-3.99 -6.37,-1.21 -26.22,-4.95 -1.26,-0.25 -6.81,-1.28 -20.31,-4.29 -4.21,-0.88 -22.79,-4.8 -9.81,-2.07 -17.19,-3.64 -15.4,-3.23 -11.6,-2.45 -20.99,-4.43 -6.01,-1.26 -26.58,-5.61 -0.42,-0.08 -1.99,-0.42 -24.324,-5.97 -5.864,-1.44 -20.398,-4.99 -12.191,-3 -14.071,-3.44 -18.523,-4.55 -7.742,-1.9 -24.852,-6.09 -1.41,-0.35 -5.859,-1.43 -19.496,-5.93 -5.825,-1.77 -19.269,-5.85 -13.324,-4.06 -11.77,-3.58 -20.824,-6.32 -4.274,-1.31 -14.3,-4.34 -9.918,-4.18 -4.098,-1.72 -18.961,-7.98 -13.633,-5.73 -9.429,-3.96 -22.801,-9.59 -0.207,-0.16 -0.157,-0.11 -18.66,-13.9 -13.933,-10.39 -4.883,-3.64 -6.664,-4.96 -3.305,-18.04 -2.769,-15.12 36.445,-33.17 83.059,-33.16 133.761,-33.14 187.959,-33.07 0.1,-0.01 0.5,-0.09 247.45,-33.16 310.42,-33.16 377.5,-33.16 9.31,-0.69 0.72,-0.05 386.61,-28.58 3.77,-0.28 31.38,-2.31 1.22,-0.08 15.66,-1.17 16.93,-1.07 1.12,-0.07 31.47,-1.99 3.29,-0.22 471.11,-29.81 601.04,-33.04 0.11,0 2.12,-0.12 30.47,-1.48 1.53,-0.07 63.66,-3.07 4.77,-0.23 513.25,-24.78 3.46,-0.16 64.97,-3.15 0.21,0 4.39,-0.21 93.39,-4.01 4.11,-0.17 28.48,-1.22 5.54,-0.23 27.06,-1.17 6.97,-0.31 608.69,-26.05 3.6,-0.14 0.14,-0.01 65.05,-2.49 2.67,-0.11 290.66,-11.13"
         style="fill:none;stroke:#00ff00;stroke-opacity:1;stroke-width:55.5;stroke-linecap:butt;stroke-linejoin:round;stroke-miterlimit:10;stroke-dasharray:468.281,156.094;stroke-dashoffset:0"
         id="path3013" /></g></g><g
     id="g3015"><g
       id="g3017"
       clip-path="url(#clipPath3019)"><path
         d="m 2995.64,2687.07 0.29,0.31 26.43,27.85 24.12,25.46 20.9,22.1 18.98,20.1 19.34,20.53 16.72,17.78 13.98,14.91 13.99,14.93 13.97,14.92 11.17,11.97 11.13,11.96 8.34,8.96 11.1,11.94 8.31,8.97 8.28,8.96 8.28,8.96 5.51,5.98 5.5,5.98 5.49,6 5.49,5.98 2.75,3 5.49,6 5.46,6 2.73,3.01 2.74,2.99 2.73,3.02 2.73,3.01 2.72,3.01 2.74,3.01 2.72,3.01 2.71,3.01 2.73,3.02 2.7,3.03 2.72,3.03 2.71,3.02 2.7,3.04 2.71,3.02 2.7,3.04 2.69,3.04 2.7,3.05 2.69,3.06 2.68,3.05 2.67,3.05 2.68,3.07 2.67,3.06 2.66,3.09 2.66,3.07 2.65,3.09 2.64,3.09 2.64,3.1 2.62,3.11 2.61,3.13 2.61,3.13 2.58,3.15 2.56,3.15 2.56,3.16 2.53,3.19 2.52,3.21 2.5,3.22 2.45,3.25 2.43,3.27 2.37,3.29 2.35,3.33 2.27,3.37 2.22,3.42 2.13,3.45 2.03,3.52 1.92,3.58 1.75,3.65 1.58,3.75 1.34,3.83 1.06,3.94 0.73,4.01 0.35,4.08 -0.04,4.12 -0.46,4.12 -0.82,4.08 -1.13,3.99 -1.4,3.93 -1.61,3.83 -1.78,3.76 -1.9,3.68 -2,3.62 -2.08,3.58 -2.15,3.52 -2.2,3.49 -2.23,3.47 -2.27,3.42 -2.29,3.42 -2.32,3.39 -2.33,3.38 -2.36,3.37 -2.36,3.36 -2.36,3.34 -2.38,3.34 -2.38,3.33 -2.38,3.35 -2.39,3.33 -2.39,3.33 -2.38,3.31 -2.39,3.33 -2.39,3.33 -2.37,3.33 -2.39,3.32 -2.37,3.33 -2.37,3.34 -2.37,3.33 -2.36,3.33 -2.37,3.35 -2.35,3.34 -2.36,3.34 -2.33,3.35 -2.34,3.36 -2.33,3.36 -2.34,3.35 -2.31,3.37 -2.31,3.36 -2.3,3.38 -2.3,3.38 -2.29,3.38 -2.29,3.39 -2.28,3.4 -2.26,3.38 -2.26,3.42 -2.25,3.4 -2.24,3.41 -2.24,3.42 -2.23,3.42 -2.22,3.43 -2.21,3.44 -2.2,3.44 -2.2,3.44 -2.19,3.45 -2.18,3.46 -2.16,3.45 -2.17,3.47 -2.15,3.47 -2.13,3.49 -2.14,3.48 -2.12,3.49 -2.13,3.5 -2.09,3.5 -2.1,3.51 -2.09,3.51 -2.08,3.52 -2.07,3.53 -2.06,3.52 -2.05,3.54 -2.02,3.55 -2.04,3.54 -2.01,3.56 -2.02,3.56 -2,3.58 -1.98,3.56 -1.98,3.58 -1.97,3.59 -1.96,3.6 -1.94,3.59 -1.94,3.61 -1.93,3.61 -1.92,3.62 -1.9,3.62 -1.89,3.64 -1.88,3.63 -1.88,3.64 -1.85,3.64 -1.85,3.67 -1.85,3.65 -1.82,3.68 -1.81,3.67 -1.81,3.68 -1.79,3.67 -1.78,3.71 -1.77,3.69 -1.76,3.71 -1.75,3.71 -1.72,3.72 -1.72,3.72 -1.71,3.73 -1.7,3.74 -1.68,3.74 -1.67,3.75 -1.66,3.76 -1.64,3.76 -1.63,3.76 -1.63,3.77 -1.59,3.79 -1.6,3.79 -1.58,3.79 -1.57,3.8 -1.55,3.8 -1.54,3.8 -1.52,3.83 -1.51,3.82 -1.5,3.83 -1.48,3.83 -1.47,3.84 -1.46,3.84 -1.43,3.86 -1.43,3.86 -1.4,3.86 -1.4,3.87 -1.37,3.88 -1.38,3.87 -1.34,3.9 -1.34,3.89 -1.31,3.89 -1.29,3.9 -1.3,3.92 -1.26,3.91 -1.26,3.93 -1.23,3.92 -1.23,3.93 -1.19,3.94 -1.19,3.94 -1.17,3.95 -1.15,3.96 -1.14,3.95 -1.1,3.97 -1.1,3.97 -1.08,3.97 -1.07,3.98 -1.04,3.98 -1.03,4 -1.01,3.99 -0.99,4 -0.97,4 -0.94,4.01 -0.93,4.02 -0.92,4.01 -0.89,4.02 -0.87,4.04 -0.85,4.02 -0.83,4.04 -0.81,4.04 -0.78,4.05 -0.77,4.05 -0.75,4.05 -0.72,4.06 -0.71,4.06 -0.68,4.06 -0.66,4.09 -0.63,4.06 -0.62,4.08 -0.59,4.08 -0.56,4.08 -0.54,4.09 -0.53,4.09 -0.49,4.1 -0.47,4.09 -0.44,4.11 -0.43,4.09 -0.39,4.11 -0.38,4.11 -0.34,4.1 -0.32,4.12 -0.29,4.11 -0.27,4.12 -0.25,4.12 -0.21,4.12 -0.18,4.12 -0.16,4.12 -0.13,4.12 -0.1,4.13 -0.06,4.13 -0.05,4.12 -0.01,4.12 0.01,4.14 0.06,4.12 0.07,4.12 0.11,4.13 0.14,4.12 0.18,4.13 0.21,4.12 0.23,4.12 0.27,4.12 0.3,4.12 0.34,4.1 0.37,4.11 0.4,4.11 0.45,4.11 0.47,4.1 0.51,4.1 0.54,4.09 0.59,4.08 0.6,4.08 0.67,4.08 0.7,4.06 0.72,4.07 0.77,4.05 0.81,4.05 0.85,4.04 0.88,4.04 0.93,4.02 0.96,4.01 1.02,4 1.05,3.99 1.08,3.99 1.14,3.96 1.16,3.96 1.23,3.94 1.24,3.94 1.31,3.91 1.34,3.9 1.39,3.89 1.43,3.87 1.47,3.84 1.53,3.83 1.57,3.82 1.61,3.8 1.64,3.77 1.7,3.75 1.75,3.73 1.79,3.7 1.83,3.7 1.88,3.64 1.93,3.64 1.97,3.61 2.01,3.58 2.06,3.55 2.11,3.52 2.15,3.5 2.19,3.46 2.25,3.42 2.28,3.4 2.33,3.36 2.37,3.32 2.41,3.3 2.46,3.25 2.5,3.22 2.53,3.18 2.59,3.14 2.62,3.1 2.66,3.07 2.71,3.02 2.74,2.98 2.78,2.94 2.81,2.89 2.82,2.82 2.86,2.76 2.89,2.73 2.91,2.69 2.95,2.64 2.99,2.59 3.03,2.55 3.05,2.51 3.08,2.46 3.1,2.42 3.14,2.37 3.17,2.32 3.2,2.28 3.22,2.23 3.24,2.19 3.28,2.14 3.3,2.09 3.33,2.05 3.36,2 3.37,1.96 3.39,1.91 3.42,1.86 3.44,1.82 3.46,1.77 3.48,1.73 3.5,1.68 3.52,1.64 3.54,1.59 3.55,1.55 3.58,1.5 3.58,1.46 3.63,1.41 3.62,1.37 3.63,1.33 3.66,1.28 3.67,1.24 3.69,1.2 3.7,1.15 3.71,1.12 3.73,1.07 3.75,1.03 3.74,0.98 3.78,0.95 3.77,0.9 3.8,0.87 3.8,0.82 3.82,0.79 3.83,0.74 3.84,0.7 3.86,0.66 3.87,0.63 3.87,0.59 3.9,0.55 3.9,0.5 3.91,0.47 3.93,0.44 3.93,0.39 3.95,0.36 3.95,0.32 3.97,0.28 3.98,0.24 4,0.21 3.99,0.17 4.02,0.13 4.02,0.09 4.02,0.06 4.04,0.02 4.04,-0.01 4.04,-0.06 4.05,-0.08 4.05,-0.13 4.05,-0.15 4.05,-0.2 4.05,-0.23 4.05,-0.26 4.04,-0.3 4.04,-0.33 4.02,-0.36 4.03,-0.39 4.01,-0.43 4.01,-0.46 4,-0.49 3.98,-0.52 3.96,-0.55 3.97,-0.58 3.96,-0.61 3.95,-0.64 3.93,-0.67 3.93,-0.69 3.91,-0.73 3.91,-0.75 3.9,-0.78 3.88,-0.81 3.89,-0.83 3.87,-0.86 3.86,-0.89 3.85,-0.91 3.86,-0.94 3.83,-0.97 3.84,-0.99 3.82,-1.02 3.82,-1.04 3.81,-1.07 3.8,-1.1 3.79,-1.12 3.79,-1.14 3.77,-1.17 3.78,-1.2 3.76,-1.22 3.76,-1.24 3.75,-1.27 3.74,-1.29 3.73,-1.32 3.72,-1.34 3.72,-1.37 3.72,-1.39 3.7,-1.41 3.69,-1.44 3.69,-1.46 3.68,-1.49 3.66,-1.51 3.67,-1.54 3.66,-1.55 3.63,-1.59 3.65,-1.6 3.62,-1.63 3.63,-1.65 3.62,-1.68 3.59,-1.7 3.59,-1.72 3.6,-1.75 3.56,-1.77 3.57,-1.79 3.57,-1.82 3.54,-1.84 3.53,-1.86 3.53,-1.89 3.52,-1.91 3.5,-1.94 3.49,-1.96 3.49,-1.98 3.48,-2.01 3.46,-2.03 3.45,-2.05 3.44,-2.08 3.43,-2.11 3.41,-2.12 3.4,-2.15 3.39,-2.18 3.37,-2.19 3.37,-2.22 3.34,-2.25 3.35,-2.27 3.31,-2.3 3.31,-2.32 3.3,-2.35 3.27,-2.37 3.26,-2.4 3.25,-2.42 3.22,-2.44 3.22,-2.48 3.19,-2.49 3.18,-2.52 3.16,-2.55 3.15,-2.58 3.12,-2.6 3.09,-2.62 3.1,-2.66 3.06,-2.68 3.04,-2.71 3.03,-2.74 3,-2.76 2.98,-2.79 2.94,-2.82 2.94,-2.84 2.9,-2.88 2.89,-2.91 2.83,-2.9 2.79,-2.93 2.77,-2.97 2.75,-2.98 2.72,-3.02 2.69,-3.04 2.65,-3.09 2.62,-3.1 2.6,-3.14 2.56,-3.16 2.52,-3.19 2.5,-3.22 2.45,-3.25 2.41,-3.29 2.38,-3.3 2.33,-3.35 2.3,-3.37 2.25,-3.41 2.2,-3.43 2.17,-3.45 2.12,-3.5 2.07,-3.52 2.03,-3.55 1.97,-3.58 1.91,-3.62 1.87,-3.64 1.81,-3.68 1.76,-3.69 1.69,-3.73 1.65,-3.75 1.58,-3.78 1.52,-3.81 1.46,-3.84 1.39,-3.86 1.34,-3.88 1.26,-3.9 1.19,-3.94 1.13,-3.94 1.05,-3.98 1,-3.98 0.92,-4.02 0.84,-4.03 0.77,-4.04 0.7,-4.05 0.63,-4.08 0.55,-4.08 0.49,-4.09 0.4,-4.1 0.34,-4.1 0.26,-4.13 0.19,-4.11 0.11,-4.12 0.04,-4.13 -0.02,-4.13 -0.1,-4.12 -0.17,-4.12 -0.22,-4.13 -0.31,-4.12 -0.36,-4.1 -0.42,-4.11 -0.5,-4.11 -0.56,-4.09 -0.62,-4.08 -0.67,-4.08 -0.74,-4.05 -0.79,-4.06 -0.84,-4.04 -0.91,-4.03 -0.95,-4.02 -1,-4.01 -1.04,-3.98 -1.11,-3.98 -1.14,-3.97 -1.19,-3.96 -1.24,-3.92 -1.28,-3.93 -1.3,-3.91 -1.36,-3.9 -1.4,-3.89 -1.43,-3.87 -1.47,-3.84 -1.5,-3.84 -1.54,-3.83 -1.57,-3.82 -1.59,-3.8 -1.64,-3.78 -1.65,-3.77 -1.69,-3.76 -1.72,-3.74 -1.74,-3.74 -1.77,-3.72 -1.79,-3.7 -1.82,-3.71 -1.85,-3.67 -1.87,-3.68 -1.88,-3.65 -1.91,-3.65 -1.93,-3.63 -1.95,-3.62 -1.97,-3.62 -1.99,-3.6 -2.01,-3.59 -2.01,-3.58 -2.06,-3.57 -2.05,-3.56 -2.08,-3.56 -2.08,-3.53 -2.11,-3.53 -2.12,-3.52 -2.14,-3.52 -2.13,-3.5 -2.17,-3.5 -2.18,-3.48 -2.19,-3.47 -2.19,-3.47 -2.22,-3.47 -2.22,-3.44 -2.24,-3.45 -2.24,-3.43 -2.27,-3.43 -2.27,-3.43 -2.27,-3.41 -2.3,-3.4 -2.3,-3.4 -2.3,-3.4 -2.32,-3.38 -2.33,-3.38 -2.33,-3.37 -2.35,-3.37 -2.34,-3.35 -2.36,-3.36 -2.37,-3.35 -2.38,-3.34 -2.38,-3.33 -2.39,-3.33 -2.4,-3.33 -2.4,-3.32 -2.42,-3.31 -2.41,-3.31 -2.42,-3.3 -2.43,-3.3 -2.45,-3.29 -2.44,-3.29 -2.44,-3.29 -2.46,-3.27 -2.45,-3.27 -2.47,-3.28 -2.47,-3.26 -2.48,-3.26 -2.47,-3.26 -2.5,-3.25 -2.49,-3.24 -2.49,-3.25 -2.5,-3.25 -2.51,-3.23 -2.5,-3.23 -2.53,-3.22 -2.51,-3.24 -2.52,-3.22 -2.53,-3.21 -2.52,-3.21 -2.54,-3.22 -2.54,-3.2 -2.54,-3.21 -2.54,-3.2 -2.55,-3.2 -2.56,-3.19 -2.55,-3.19 -2.55,-3.19 -2.57,-3.19 -2.57,-3.18 -2.56,-3.17 -2.57,-3.18 -2.58,-3.18 -2.58,-3.18 -2.58,-3.16 -2.58,-3.16 -2.58,-3.17 -2.6,-3.16 -2.58,-3.16 -2.59,-3.17 -2.6,-3.15 -2.61,-3.14 -2.59,-3.16 -2.61,-3.15 -2.61,-3.14 -2.6,-3.16 -2.61,-3.13 -2.61,-3.15 -2.61,-3.13 -2.62,-3.14 -2.63,-3.14 -2.6,-3.13 -2.63,-3.14 -2.62,-3.13 -2.63,-3.13 -2.63,-3.13 -2.64,-3.12 -2.62,-3.14 -2.63,-3.12 -2.64,-3.12 -2.64,-3.13 -2.63,-3.12 -2.64,-3.12 -2.63,-3.12 -2.64,-3.12 -2.64,-3.11 -2.64,-3.12 -2.64,-3.12 -2.65,-3.11 -2.65,-3.12 -2.64,-3.13 -2.65,-3.1 -2.65,-3.12 -2.64,-3.11 -2.64,-3.13 -2.66,-3.1 -2.65,-3.13 -2.64,-3.12 -2.64,-3.11 -2.65,-3.12 -2.65,-3.12 -2.65,-3.11 -2.64,-3.12 -2.65,-3.12 -2.64,-3.13 -2.64,-3.12 -2.64,-3.12 -2.64,-3.13 -2.63,-3.13 -2.63,-3.13 -2.63,-3.13 -2.62,-3.14 -2.63,-3.15 -2.62,-3.14 -2.61,-3.15 -2.61,-3.16 -2.59,-3.15 -2.6,-3.18 -2.58,-3.16 -2.58,-3.19 -2.55,-3.18 -2.56,-3.21 -2.53,-3.2 -2.53,-3.22 -2.49,-3.23 -2.49,-3.26 -2.46,-3.26 -2.42,-3.29 -2.4,-3.32 -2.35,-3.33 -2.3,-3.37 -2.25,-3.4 -2.19,-3.46 -2.1,-3.48 -1.98,-3.55 -1.87,-3.62 -1.71,-3.69 -1.51,-3.77 -1.27,-3.87 -0.97,-3.96 -0.61,-4.04 -0.22,-4.11 0.22,-4.12 0.64,-4.1 1.03,-4.04 1.36,-3.94 1.62,-3.84 1.85,-3.74 2.02,-3.63 2.15,-3.54 2.26,-3.47 2.36,-3.41 2.43,-3.33 2.48,-3.3 2.54,-3.24 2.59,-3.2 2.62,-3.18 2.66,-3.13 2.69,-3.1 2.71,-3.08 2.75,-3.05 2.76,-3.04 2.77,-3.01 2.81,-2.99 2.82,-2.96 2.84,-2.96 2.84,-2.94 2.87,-2.93 2.86,-2.89 2.89,-2.87 2.88,-2.87 2.9,-2.84 2.92,-2.85 2.93,-2.83 2.94,-2.81 2.94,-2.81 2.95,-2.79 2.97,-2.79 2.97,-2.75 3,-2.77 2.98,-2.75 3.01,-2.73 3.01,-2.73 3.03,-2.72 3.02,-2.71 3.04,-2.69 3.05,-2.69 3.05,-2.68 3.06,-2.66 3.08,-2.67 3.06,-2.65 3.1,-2.63 3.09,-2.64 3.1,-2.61 3.1,-2.62 3.12,-2.59 3.13,-2.6 3.12,-2.58 3.14,-2.57 3.15,-2.56 3.14,-2.56 3.17,-2.55 3.16,-2.54 3.18,-2.52 3.18,-2.52 3.17,-2.51 3.21,-2.49 3.19,-2.5 3.22,-2.48 3.2,-2.47 3.24,-2.46 3.22,-2.46 3.23,-2.44 3.25,-2.44 3.24,-2.43 3.27,-2.41 3.25,-2.42 3.28,-2.4 3.27,-2.38 3.29,-2.38 3.29,-2.37 3.3,-2.37 3.3,-2.35 3.32,-2.34 3.32,-2.33 3.31,-2.33 3.35,-2.32 3.32,-2.3 3.35,-2.31 3.36,-2.29 3.36,-2.27 3.37,-2.26 3.37,-2.27 3.37,-2.24 3.39,-2.25 3.4,-2.22 3.39,-2.24 3.41,-2.2 3.41,-2.21 3.43,-2.18 3.42,-2.19 3.43,-2.16 3.44,-2.17 3.46,-2.15 3.45,-2.13 3.46,-2.14 3.47,-2.12 3.46,-2.11 3.48,-2.1 3.49,-2.09 3.5,-2.08 3.49,-2.07 3.51,-2.06 3.51,-2.05 3.52,-2.04 3.53,-2.02 3.53,-2.01 3.53,-2 3.55,-2 3.56,-1.99 3.55,-1.96 3.56,-1.96 3.57,-1.96 3.58,-1.94 3.58,-1.92 3.59,-1.91 3.6,-1.92 3.59,-1.88 3.61,-1.87 3.61,-1.88 3.62,-1.86 3.62,-1.84 3.63,-1.83 3.64,-1.82 3.65,-1.8 3.63,-1.8 3.67,-1.79 3.66,-1.77 3.66,-1.75 3.66,-1.75 3.68,-1.73 3.69,-1.72 3.68,-1.71 3.69,-1.69 3.71,-1.68 3.7,-1.67 3.71,-1.65 3.72,-1.63 3.71,-1.63 3.73,-1.62 3.72,-1.6 3.75,-1.58 3.73,-1.57 3.75,-1.55 3.74,-1.56 3.76,-1.52 3.77,-1.52 3.77,-1.49 3.77,-1.49 3.78,-1.47 3.77,-1.46 3.79,-1.44 3.79,-1.43 3.8,-1.4 3.8,-1.4 3.8,-1.37 3.82,-1.38 3.81,-1.34 3.82,-1.33 3.83,-1.32 3.82,-1.31 3.84,-1.29 3.84,-1.27 3.84,-1.25 3.85,-1.24 3.85,-1.22 3.86,-1.2 3.87,-1.2 3.86,-1.16 3.87,-1.17 3.88,-1.14 3.89,-1.11 3.89,-1.11 3.88,-1.08 3.9,-1.07 3.9,-1.05 3.91,-1.03 3.9,-1.01 3.92,-1 3.92,-0.98 3.92,-0.96 3.93,-0.95 3.93,-0.91 3.94,-0.9 3.94,-0.89 3.96,-0.86 3.95,-0.85 3.95,-0.83 3.96,-0.81 3.96,-0.79 3.97,-0.76 3.97,-0.74 3.99,-0.73 3.98,-0.7 3.98,-0.69 3.99,-0.65 4,-0.64 4,-0.63 3.99,-0.59 4.01,-0.57 4.01,-0.55 4.01,-0.53 4.03,-0.51 4.02,-0.49 4.02,-0.46 4.03,-0.44 4.02,-0.41 4.04,-0.38 4.04,-0.38 4.03,-0.33 4.04,-0.32 4.05,-0.29 4.04,-0.26 4.05,-0.24 4.05,-0.22 4.05,-0.18 4.06,-0.17 4.05,-0.14 4.05,-0.11 4.05,-0.07 4.05,-0.05 4.07,-0.03 4.05,0 4.05,0.03 4.05,0.05 4.06,0.1 4.05,0.11 4.05,0.15 4.05,0.17 4.05,0.21 4.04,0.23 4.04,0.26 4.05,0.3 4.02,0.33 4.04,0.36 4.02,0.39 4.03,0.42 4.02,0.45 4.01,0.49 4.01,0.53 4.01,0.54 3.99,0.58 4,0.63 3.98,0.65 3.98,0.68 3.97,0.72 3.97,0.75 3.96,0.79 3.95,0.83 3.94,0.86 3.94,0.89 3.92,0.93 3.92,0.97 3.9,1 3.9,1.04 3.88,1.07 3.89,1.11 3.87,1.15 3.84,1.19 3.86,1.23 3.83,1.26 3.82,1.3 3.81,1.35 3.79,1.37 3.79,1.43 3.77,1.46 3.75,1.49 3.74,1.55 3.74,1.56 3.7,1.63 3.69,1.66 3.69,1.69 3.66,1.75 3.66,1.78 3.62,1.83 3.6,1.86 3.6,1.9 3.58,1.96 3.55,1.98 3.52,2.04 3.51,2.07 3.5,2.12 3.47,2.15 3.44,2.19 3.41,2.25 3.4,2.28 3.37,2.33 3.35,2.36 3.31,2.4 3.29,2.44 3.26,2.48 3.24,2.53 3.2,2.57 3.16,2.59 3.15,2.64 3.11,2.68 3.07,2.71 3.05,2.75 3.01,2.79 2.97,2.83 2.94,2.86 2.9,2.88 2.87,2.93 2.81,2.91 2.76,2.96 2.72,2.98 2.69,3.01 2.65,3.04 2.61,3.08 2.58,3.1 2.52,3.12 2.51,3.15 2.46,3.18 2.42,3.2 2.38,3.22 2.35,3.26 2.3,3.26 2.26,3.3 2.24,3.32 2.17,3.33 2.15,3.36 2.13,3.37 2.07,3.4 2.02,3.41 2,3.43 1.96,3.44 1.92,3.47 1.88,3.48 1.84,3.5 1.82,3.51 1.76,3.54 1.74,3.54 1.69,3.55 1.66,3.58 1.63,3.58 1.59,3.59 1.56,3.61 1.51,3.62 1.48,3.63 1.45,3.65 1.41,3.65 1.39,3.67 1.35,3.67 1.31,3.69 1.28,3.71 1.25,3.7 1.22,3.72 1.18,3.72 1.15,3.73 1.11,3.75 1.1,3.74 1.05,3.76 1.03,3.78 1,3.77 0.95,3.78 0.95,3.78 0.9,3.8 0.88,3.81 0.84,3.81 0.82,3.82 0.79,3.81 0.76,3.83 0.74,3.84 0.71,3.84 0.68,3.84 0.64,3.86 0.62,3.85 0.61,3.86 0.57,3.86 0.54,3.87 0.51,3.89 0.5,3.87 0.47,3.88 0.43,3.9 0.43,3.89 0.39,3.89 0.36,3.92 0.35,3.9 0.32,3.91 0.31,3.91 0.26,3.93 0.25,3.93 0.22,3.92 0.21,3.94 0.18,3.94 0.15,3.96 0.14,3.94 0.11,3.96 0.1,3.97 0.07,3.99 0.04,3.99 0.03,4 0,4.02 -0.02,4.04 -0.04,4.05 -0.06,4.08 -0.08,4.09 -0.11,4.11 -0.12,4.12 -0.16,4.14 -0.16,4.1 -0.2,4.11 -0.2,4.08 -0.23,4.05 -0.25,4.05 -0.26,4.03 -0.28,4.02 -0.3,4 -0.32,3.99 -0.33,3.99 -0.37,3.98 -0.36,3.98 -0.39,3.97 -0.4,3.96 -0.41,3.96 -0.45,3.97 -0.44,3.95 -0.47,3.96 -0.49,3.95 -0.5,3.94 -0.51,3.95 -0.53,3.96 -0.54,3.94 -0.57,3.94 -0.57,3.95 -0.58,3.94 -0.61,3.95 -0.63,3.94 -0.62,3.94 -0.65,3.92 -0.67,3.95 -0.67,3.93 -0.69,3.93 -0.69,3.94 -0.72,3.93 -0.72,3.94 -0.75,3.93 -0.75,3.92 -0.78,3.93 -0.78,3.92 -0.79,3.93 -0.8,3.93 -0.82,3.93 -0.82,3.92 -0.85,3.93 -0.84,3.91 -0.86,3.93 -0.88,3.91 -0.88,3.93 -0.91,3.91 -0.9,3.91 -0.91,3.93 -0.93,3.91 -0.95,3.91 -0.96,3.92 -0.95,3.91 -0.98,3.91 -0.96,3.92 -0.99,3.91 -1,3.91 -1.01,3.9 -1.02,3.91 -1.02,3.9 -1.04,3.91 -1.05,3.92 -1.05,3.9 -1.05,3.89 -1.07,3.92 -1.08,3.9 -1.08,3.89 -1.1,3.9 -1.1,3.92 -1.11,3.9 -1.11,3.89 -1.12,3.9 -1.13,3.9 -1.13,3.9 -1.14,3.9 -1.14,3.9 -1.15,3.9 -1.17,3.9 -1.16,3.88 -1.17,3.9 -1.18,3.9 -1.18,3.9 -1.17,3.9 -1.2,3.9 -1.19,3.88 -1.19,3.9 -1.2,3.9 -1.2,3.9 -1.21,3.9 -1.21,3.89 -1.22,3.89 -1.22,3.9 -1.22,3.9 -1.22,3.9 -1.22,3.9 -1.23,3.89 -1.21,3.9 -1.24,3.92 -1.22,3.89 -1.24,3.9 -1.23,3.9 -1.22,3.92 -1.24,3.89 -1.22,3.92 -1.23,3.9 -1.22,3.91 -1.24,3.91 -1.22,3.91 -1.22,3.92 -1.22,3.91 -1.21,3.93 -1.22,3.91 -1.21,3.92 -1.19,3.92 -1.21,3.92 -1.19,3.93 -1.19,3.93 -1.18,3.94 -1.18,3.93 -1.17,3.93 -1.16,3.95 -1.17,3.94 -1.14,3.94 -1.15,3.95 -1.12,3.96 -1.13,3.95 -1.11,3.96 -1.09,3.96 -1.1,3.96 -1.08,3.97 -1.07,3.98 -1.06,3.96 -1.03,3.99 -1.03,3.98 -1,4 -1,3.99 -0.99,4 -0.95,3.99 -0.96,4.02 -0.93,4 -0.9,4.02 -0.89,4.02 -0.87,4.02 -0.85,4.04 -0.83,4.02 -0.8,4.04 -0.8,4.05 -0.75,4.06 -0.73,4.05 -0.72,4.06 -0.68,4.05 -0.66,4.08 -0.62,4.07 -0.61,4.08 -0.57,4.07 -0.54,4.1 -0.5,4.09 -0.48,4.1 -0.45,4.09 -0.4,4.1 -0.38,4.11 -0.35,4.11 -0.3,4.12 -0.28,4.11 -0.22,4.12 -0.19,4.12 -0.17,4.12 -0.11,4.12 -0.08,4.13 -0.04,4.12 0.01,4.13 0.04,4.13 0.08,4.12 0.13,4.12 0.17,4.14 0.22,4.11 0.24,4.12 0.31,4.12 0.34,4.1 0.38,4.11 0.43,4.11 0.47,4.1 0.52,4.1 0.55,4.08 0.6,4.08 0.65,4.08 0.68,4.06 0.74,4.05 0.76,4.05 0.82,4.06 0.84,4.02 0.9,4.02 0.94,4.01 0.97,4.01 1,3.99 1.05,3.98 1.09,3.97 1.12,3.95 1.17,3.94 1.19,3.94 1.23,3.92 1.27,3.89 1.3,3.9 1.32,3.89 1.37,3.85 1.39,3.86 1.43,3.83 1.44,3.83 1.49,3.8 1.51,3.79 1.52,3.79 1.57,3.76 1.58,3.74 1.61,3.74 1.64,3.7 1.67,3.7 1.67,3.68 1.7,3.68 1.72,3.65 1.75,3.63 1.76,3.61 1.78,3.59 1.78,3.59 1.81,3.56 1.82,3.54 1.84,3.52 1.85,3.51 1.86,3.49 1.87,3.45 1.88,3.44 1.89,3.42 1.9,3.4 1.9,3.37 1.92,3.34 1.91,3.32 1.92,3.3 1.91,3.26 1.92,3.24 1.91,3.19 1.9,3.17 1.9,3.13 1.9,3.09 1.88,3.05 1.86,3 1.84,2.95 1.83,2.9 1.79,2.83 1.77,2.76 1.73,2.69 1.61,2.51 1.57,2.41 1.5,2.3 1.41,2.18 1.35,2.03 1.23,1.88 1.13,1.69 0.98,1.49 0.84,1.25 1.12,1.68 0.26,0.39 0.04,0.06"
         style="fill:none;stroke:#000000;stroke-opacity:1;stroke-width:27.75;stroke-linecap:butt;stroke-linejoin:round;stroke-miterlimit:10;stroke-dasharray:none"
         id="path3023" /></g></g><g
     id="g3025"><g
       id="g3027"
       clip-path="url(#clipPath3029)"><path
         d="m 5411.14,2660.34 0,-36.08"
         style="fill:none;stroke:#000000;stroke-opacity:1;stroke-width:13.875;stroke-linecap:butt;stroke-linejoin:round;stroke-miterlimit:10;stroke-dasharray:none"
         id="path3033" /><path
         d="m 5185.82,2660.34 0,-36.08"
         style="fill:none;stroke:#000000;stroke-opacity:1;stroke-width:13.875;stroke-linecap:butt;stroke-linejoin:round;stroke-miterlimit:10;stroke-dasharray:none"
         id="path3035" /><path
         d="m 4960.51,2660.34 0,-36.08"
         style="fill:none;stroke:#000000;stroke-opacity:1;stroke-width:13.875;stroke-linecap:butt;stroke-linejoin:round;stroke-miterlimit:10;stroke-dasharray:none"
         id="path3037" /><path
         d="m 4509.88,2660.34 0,-36.08"
         style="fill:none;stroke:#000000;stroke-opacity:1;stroke-width:13.875;stroke-linecap:butt;stroke-linejoin:round;stroke-miterlimit:10;stroke-dasharray:none"
         id="path3039" /><path
         d="m 4284.57,2660.34 0,-36.08"
         style="fill:none;stroke:#000000;stroke-opacity:1;stroke-width:13.875;stroke-linecap:butt;stroke-linejoin:round;stroke-miterlimit:10;stroke-dasharray:none"
         id="path3041" /><path
         d="m 4059.26,2660.34 0,-36.08"
         style="fill:none;stroke:#000000;stroke-opacity:1;stroke-width:13.875;stroke-linecap:butt;stroke-linejoin:round;stroke-miterlimit:10;stroke-dasharray:none"
         id="path3043" /><path
         d="m 3833.94,2660.34 0,-36.08"
         style="fill:none;stroke:#000000;stroke-opacity:1;stroke-width:13.875;stroke-linecap:butt;stroke-linejoin:round;stroke-miterlimit:10;stroke-dasharray:none"
         id="path3045" /><path
         d="m 3383.32,2660.34 0,-36.08"
         style="fill:none;stroke:#000000;stroke-opacity:1;stroke-width:13.875;stroke-linecap:butt;stroke-linejoin:round;stroke-miterlimit:10;stroke-dasharray:none"
         id="path3047" /><path
         d="m 3158,2660.34 0,-36.08"
         style="fill:none;stroke:#000000;stroke-opacity:1;stroke-width:13.875;stroke-linecap:butt;stroke-linejoin:round;stroke-miterlimit:10;stroke-dasharray:none"
         id="path3049" /><path
         d="m 2932.69,2660.34 0,-36.08"
         style="fill:none;stroke:#000000;stroke-opacity:1;stroke-width:13.875;stroke-linecap:butt;stroke-linejoin:round;stroke-miterlimit:10;stroke-dasharray:none"
         id="path3051" /><path
         d="m 2707.38,2660.34 0,-36.08"
         style="fill:none;stroke:#000000;stroke-opacity:1;stroke-width:13.875;stroke-linecap:butt;stroke-linejoin:round;stroke-miterlimit:10;stroke-dasharray:none"
         id="path3053" /><path
         d="m 2256.75,2660.34 0,-36.08"
         style="fill:none;stroke:#000000;stroke-opacity:1;stroke-width:13.875;stroke-linecap:butt;stroke-linejoin:round;stroke-miterlimit:10;stroke-dasharray:none"
         id="path3055" /><path
         d="m 2031.44,2660.34 0,-36.08"
         style="fill:none;stroke:#000000;stroke-opacity:1;stroke-width:13.875;stroke-linecap:butt;stroke-linejoin:round;stroke-miterlimit:10;stroke-dasharray:none"
         id="path3057" /><path
         d="m 1806.12,2660.34 0,-36.08"
         style="fill:none;stroke:#000000;stroke-opacity:1;stroke-width:13.875;stroke-linecap:butt;stroke-linejoin:round;stroke-miterlimit:10;stroke-dasharray:none"
         id="path3059" /><path
         d="m 1580.8,2660.34 0,-36.08"
         style="fill:none;stroke:#000000;stroke-opacity:1;stroke-width:13.875;stroke-linecap:butt;stroke-linejoin:round;stroke-miterlimit:10;stroke-dasharray:none"
         id="path3061" /><path
         d="m 1130.19,2660.34 0,-36.08"
         style="fill:none;stroke:#000000;stroke-opacity:1;stroke-width:13.875;stroke-linecap:butt;stroke-linejoin:round;stroke-miterlimit:10;stroke-dasharray:none"
         id="path3063" /><path
         d="m 904.875,2660.34 0,-36.08"
         style="fill:none;stroke:#000000;stroke-opacity:1;stroke-width:13.875;stroke-linecap:butt;stroke-linejoin:round;stroke-miterlimit:10;stroke-dasharray:none"
         id="path3065" /><path
         d="m 679.562,2660.34 0,-36.08"
         style="fill:none;stroke:#000000;stroke-opacity:1;stroke-width:13.875;stroke-linecap:butt;stroke-linejoin:round;stroke-miterlimit:10;stroke-dasharray:none"
         id="path3067" /><path
         d="m 454.25,2660.34 0,-36.08"
         style="fill:none;stroke:#000000;stroke-opacity:1;stroke-width:13.875;stroke-linecap:butt;stroke-linejoin:round;stroke-miterlimit:10;stroke-dasharray:none"
         id="path3069" /><path
         d="m 228.938,2660.34 5182.202,0"
         style="fill:none;stroke:#000000;stroke-opacity:1;stroke-width:13.875;stroke-linecap:butt;stroke-linejoin:round;stroke-miterlimit:10;stroke-dasharray:none"
         id="path3071" /></g></g><g
     id="g3073"><g
       id="g3075"
       clip-path="url(#clipPath3077)"><path
         d="m 3888.47,2258.16 c 2.89,-3.03 5.05,-6.14 6.49,-9.31 1.17,-2.03 2.9,-7.53 5.2,-16.49 l 7.82,11.49 c 2.02,2.9 4.5,5.61 7.48,8.13 2.95,2.53 5.52,4.31 7.7,5.32 1.44,0.58 3.02,0.86 4.75,0.86 2.46,0 4.46,-0.68 5.97,-2.06 1.51,-1.37 2.28,-2.99 2.28,-4.88 0,-2.31 -0.43,-3.9 -1.31,-4.76 -1.58,-1.44 -3.47,-2.18 -5.63,-2.18 -1.31,0 -2.6,0.29 -3.9,0.88 -2.75,0.86 -4.63,1.3 -5.63,1.3 -1.46,0 -3.11,-0.8 -5,-2.39 -3.6,-3.03 -7.95,-8.96 -13,-17.77 l 7.15,-30.14 c 1.16,-4.63 2.09,-7.41 2.81,-8.35 0.74,-0.94 1.53,-1.4 2.39,-1.4 1.17,0 2.61,0.64 4.34,1.94 3.18,2.75 5.93,6.29 8.24,10.63 l 3.03,-1.53 c -3.76,-6.93 -8.45,-12.71 -14.08,-17.34 -3.18,-2.59 -5.93,-3.9 -8.25,-3.9 -3.32,0 -5.92,1.89 -7.81,5.63 -1.29,2.32 -3.83,12.14 -7.57,29.49 -9.26,-15.89 -16.62,-26.09 -22.12,-30.57 -3.62,-3.02 -7.09,-4.55 -10.41,-4.55 -2.31,0 -4.48,0.88 -6.5,2.61 -1.31,1.29 -1.96,3.02 -1.96,5.2 0,1.87 0.65,3.47 1.96,4.76 1.3,1.31 2.88,1.96 4.77,1.96 1.87,0 3.83,-0.95 5.86,-2.82 1.58,-1.3 2.81,-1.96 3.67,-1.96 0.59,0 1.45,0.45 2.61,1.31 2.75,2.32 6.51,7.16 11.27,14.53 4.77,7.36 7.88,12.72 9.32,16.04 -3.61,14.3 -5.56,21.82 -5.86,22.54 -1.28,3.9 -3.02,6.65 -5.2,8.24 -2.16,1.6 -5.41,2.39 -9.75,2.39 -1.31,0 -2.82,-0.07 -4.55,-0.22 l 0,3.26 23.42,4.11 z m 124.05,42.07 -28.18,-98.66 c -1.73,-5.77 -2.59,-9.96 -2.59,-12.57 0,-2.16 0.75,-3.82 2.28,-4.98 1.51,-1.16 5.02,-1.95 10.51,-2.38 l -0.87,-3.26 -45.32,0 1.1,3.26 c 4.91,0.13 8.09,0.5 9.53,1.08 2.46,1.15 4.34,2.59 5.63,4.33 1.89,2.74 3.84,7.59 5.86,14.52 l 20.38,70.91 c 1.31,4.32 2.03,6.78 2.17,7.36 0.15,1.16 0.22,2.32 0.22,3.47 0,2.03 -0.54,3.61 -1.62,4.78 -1.09,1.15 -2.64,1.73 -4.67,1.73 -1.44,0 -3.83,-0.36 -7.16,-1.08 l -1.08,3.24 29.71,8.25 4.1,0"
         style="fill:#000000;fill-opacity:1;fill-rule:nonzero;stroke:none"
         id="path3081" /></g></g><g
     id="g3083"><g
       id="g3085"
       clip-path="url(#clipPath3087)"><path
         d="m 228.938,2660.34 0,-72.15"
         style="fill:none;stroke:#000000;stroke-opacity:1;stroke-width:13.875;stroke-linecap:butt;stroke-linejoin:round;stroke-miterlimit:10;stroke-dasharray:none"
         id="path3091" /></g></g><g
     id="g3093"><g
       id="g3095"
       clip-path="url(#clipPath3097)"><path
         d="m 113.816,2449.81 119.238,0 0,9.3242 -119.238,0 0,-9.3242 z"
         style="fill:#000000;fill-opacity:1;fill-rule:nonzero;stroke:none"
         id="path3101" /></g></g><g
     id="g3103"><g
       id="g3105"
       clip-path="url(#clipPath3107)"><path
         d="m 229.371,2508.13 29.051,14.1 2.816,0 0,-100.82 c 0,-6.65 0.289,-10.81 0.867,-12.46 0.579,-1.66 1.735,-2.93 3.469,-3.8 1.735,-0.86 5.278,-1.38 10.625,-1.51 l 0,-3.26 -44.879,0 0,3.26 c 5.637,0.13 9.289,0.65 10.95,1.51 1.664,0.87 2.82,2.03 3.468,3.47 0.653,1.44 0.977,5.71 0.977,12.79 l 0,64.39 c 0,8.81 -0.289,14.45 -0.867,16.9 -0.434,1.89 -1.192,3.26 -2.278,4.12 -1.082,0.88 -2.422,1.31 -4.011,1.31 -2.168,0 -5.129,-0.95 -8.887,-2.82 l -1.301,2.82 z m 75.445,-48.79 c 0,13.6 2.059,25.34 6.18,35.25 4.117,9.89 9.574,17.23 16.367,21.99 5.348,3.76 10.84,5.65 16.477,5.65 9.105,0 17.269,-4.64 24.496,-13.88 9.105,-11.57 13.66,-27.25 13.66,-47.05 0,-13.87 -1.988,-25.66 -5.961,-35.34 -3.976,-9.68 -9.07,-16.73 -15.285,-21.13 -6.215,-4.41 -12.141,-6.62 -17.777,-6.62 -11.418,0 -20.957,6.73 -28.618,20.16 -6.359,11.42 -9.539,25.09 -9.539,40.97 z m 17.344,-2.16 c 0,-16.47 2.024,-29.91 6.07,-40.32 3.325,-8.67 8.309,-13.02 14.958,-13.02 3.179,0 6.468,1.42 9.867,4.23 3.394,2.82 5.961,7.64 7.695,14.42 2.746,9.98 4.117,24.21 4.117,42.71 0,13.58 -1.445,24.93 -4.336,34.03 -2.023,6.81 -4.769,11.57 -8.238,14.32 -2.313,1.88 -5.203,2.82 -8.672,2.82 -3.902,0 -7.441,-1.73 -10.621,-5.2 -4.191,-4.92 -7.047,-12.62 -8.562,-23.09 -1.52,-10.48 -2.278,-20.79 -2.278,-30.9"
         style="fill:#000000;fill-opacity:1;fill-rule:nonzero;stroke:none"
         id="path3111" /><path
         d="m 1355.5,2660.34 0,-72.15"
         style="fill:none;stroke:#000000;stroke-opacity:1;stroke-width:13.875;stroke-linecap:butt;stroke-linejoin:round;stroke-miterlimit:10;stroke-dasharray:none"
         id="path3113" /></g></g><g
     id="g3115"><g
       id="g3117"
       clip-path="url(#clipPath3119)"><path
         d="m 1279.32,2449.81 119.227,0 0,9.3242 -119.227,0 0,-9.3242 z"
         style="fill:#000000;fill-opacity:1;fill-rule:nonzero;stroke:none"
         id="path3123" /></g></g><g
     id="g3125"><g
       id="g3127"
       clip-path="url(#clipPath3129)"><path
         d="m 1451.88,2519.84 -6.94,-14.96 -35.77,0 -7.79,-16.05 c 15.45,-2.31 27.74,-8.09 36.85,-17.35 7.79,-7.93 11.71,-17.34 11.71,-28.18 0,-6.35 -1.28,-12.21 -3.8,-17.55 -2.53,-5.35 -5.75,-9.9 -9.65,-13.66 -3.9,-3.77 -8.24,-6.72 -13.01,-8.88 -6.65,-3.33 -13.59,-5 -20.82,-5 -7.07,0 -12.25,1.24 -15.48,3.69 -3.26,2.46 -4.88,5.14 -4.88,8.02 0,1.74 0.68,3.22 2.06,4.44 1.37,1.24 3.07,1.85 5.08,1.85 1.45,0 2.75,-0.23 3.9,-0.66 1.17,-0.43 3.11,-1.66 5.86,-3.67 4.48,-3.04 8.96,-4.57 13.44,-4.57 6.94,0 12.97,2.61 18.11,7.81 5.13,5.21 7.68,11.56 7.68,19.08 0,7.23 -2.3,13.95 -6.93,20.16 -4.62,6.22 -10.98,11.06 -19.08,14.53 -6.49,2.59 -15.25,4.12 -26.22,4.55 l 22.97,46.4 42.71,0"
         style="fill:#000000;fill-opacity:1;fill-rule:nonzero;stroke:none"
         id="path3133" /><path
         d="m 2482.06,2660.34 0,-72.15"
         style="fill:none;stroke:#000000;stroke-opacity:1;stroke-width:13.875;stroke-linecap:butt;stroke-linejoin:round;stroke-miterlimit:10;stroke-dasharray:none"
         id="path3135" /><path
         d="m 2365.24,2487.09 c 0,13.6 2.07,25.34 6.19,35.25 4.11,9.89 9.57,17.23 16.36,21.99 5.35,3.76 10.85,5.65 16.48,5.65 9.11,0 17.28,-4.64 24.49,-13.88 9.12,-11.57 13.67,-27.25 13.67,-47.05 0,-13.87 -1.98,-25.66 -5.97,-35.34 -3.96,-9.68 -9.07,-16.73 -15.27,-21.13 -6.22,-4.41 -12.14,-6.62 -17.79,-6.62 -11.42,0 -20.95,6.73 -28.61,20.16 -6.37,11.42 -9.55,25.09 -9.55,40.97 z m 17.35,-2.16 c 0,-16.47 2.02,-29.91 6.07,-40.32 3.32,-8.67 8.32,-13.02 14.96,-13.02 3.18,0 6.47,1.42 9.87,4.23 3.4,2.82 5.96,7.64 7.7,14.42 2.73,9.98 4.1,24.21 4.1,42.71 0,13.58 -1.44,24.93 -4.33,34.03 -2.02,6.81 -4.77,11.57 -8.24,14.32 -2.3,1.88 -5.2,2.82 -8.67,2.82 -3.9,0 -7.44,-1.73 -10.61,-5.2 -4.21,-4.92 -7.05,-12.62 -8.58,-23.09 -1.51,-10.48 -2.27,-20.79 -2.27,-30.9"
         style="fill:#000000;fill-opacity:1;fill-rule:nonzero;stroke:none"
         id="path3137" /><path
         d="m 3608.62,2660.34 0,-72.15"
         style="fill:none;stroke:#000000;stroke-opacity:1;stroke-width:13.875;stroke-linecap:butt;stroke-linejoin:round;stroke-miterlimit:10;stroke-dasharray:none"
         id="path3139" /><path
         d="m 3644.13,2519.84 -6.94,-14.96 -35.77,0 -7.8,-16.05 c 15.46,-2.31 27.76,-8.09 36.86,-17.35 7.79,-7.93 11.71,-17.34 11.71,-28.18 0,-6.35 -1.28,-12.21 -3.8,-17.55 -2.53,-5.35 -5.75,-9.9 -9.65,-13.66 -3.9,-3.77 -8.24,-6.72 -13.01,-8.88 -6.65,-3.33 -13.59,-5 -20.82,-5 -7.07,0 -12.25,1.24 -15.49,3.69 -3.25,2.46 -4.87,5.14 -4.87,8.02 0,1.74 0.68,3.22 2.05,4.44 1.37,1.24 3.07,1.85 5.09,1.85 1.45,0 2.75,-0.23 3.9,-0.66 1.17,-0.43 3.11,-1.66 5.86,-3.67 4.48,-3.04 8.96,-4.57 13.44,-4.57 6.94,0 12.97,2.61 18.11,7.81 5.13,5.21 7.68,11.56 7.68,19.08 0,7.23 -2.3,13.95 -6.93,20.16 -4.62,6.22 -10.98,11.06 -19.08,14.53 -6.49,2.59 -15.25,4.12 -26.22,4.55 l 22.97,46.4 42.71,0"
         style="fill:#000000;fill-opacity:1;fill-rule:nonzero;stroke:none"
         id="path3141" /><path
         d="m 4735.19,2660.34 0,-72.15"
         style="fill:none;stroke:#000000;stroke-opacity:1;stroke-width:13.875;stroke-linecap:butt;stroke-linejoin:round;stroke-miterlimit:10;stroke-dasharray:none"
         id="path3143" /><path
         d="m 4669.37,2508.13 29.05,14.1 2.82,0 0,-100.82 c 0,-6.65 0.29,-10.81 0.86,-12.46 0.58,-1.66 1.73,-2.93 3.47,-3.8 1.73,-0.86 5.27,-1.38 10.63,-1.51 l 0,-3.26 -44.89,0 0,3.26 c 5.65,0.13 9.3,0.65 10.95,1.51 1.66,0.87 2.83,2.03 3.47,3.47 0.65,1.44 0.98,5.71 0.98,12.79 l 0,64.39 c 0,8.81 -0.29,14.45 -0.87,16.9 -0.43,1.89 -1.2,3.26 -2.28,4.12 -1.08,0.88 -2.41,1.31 -4.01,1.31 -2.16,0 -5.13,-0.95 -8.88,-2.82 l -1.3,2.82 z m 75.43,-48.79 c 0,13.6 2.08,25.34 6.2,35.25 4.1,9.89 9.57,17.23 16.35,21.99 5.36,3.76 10.85,5.65 16.49,5.65 9.1,0 17.27,-4.64 24.48,-13.88 9.12,-11.57 13.67,-27.25 13.67,-47.05 0,-13.87 -1.98,-25.66 -5.96,-35.34 -3.97,-9.68 -9.08,-16.73 -15.28,-21.13 -6.21,-4.41 -12.14,-6.62 -17.79,-6.62 -11.42,0 -20.95,6.73 -28.61,20.16 -6.37,11.42 -9.55,25.09 -9.55,40.97 z m 17.35,-2.16 c 0,-16.47 2.03,-29.91 6.08,-40.32 3.31,-8.67 8.31,-13.02 14.95,-13.02 3.18,0 6.47,1.42 9.87,4.23 3.4,2.82 5.97,7.64 7.7,14.42 2.73,9.98 4.11,24.21 4.11,42.71 0,13.58 -1.45,24.93 -4.33,34.03 -2.03,6.81 -4.78,11.57 -8.24,14.32 -2.31,1.88 -5.21,2.82 -8.68,2.82 -3.9,0 -7.43,-1.73 -10.61,-5.2 -4.2,-4.92 -7.05,-12.62 -8.57,-23.09 -1.52,-10.48 -2.28,-20.79 -2.28,-30.9"
         style="fill:#000000;fill-opacity:1;fill-rule:nonzero;stroke:none"
         id="path3145" /><path
         d="m 2482.06,5411.14 -36.08,0"
         style="fill:none;stroke:#000000;stroke-opacity:1;stroke-width:13.875;stroke-linecap:butt;stroke-linejoin:round;stroke-miterlimit:10;stroke-dasharray:none"
         id="path3147" /><path
         d="m 2482.06,5181.91 -36.08,0"
         style="fill:none;stroke:#000000;stroke-opacity:1;stroke-width:13.875;stroke-linecap:butt;stroke-linejoin:round;stroke-miterlimit:10;stroke-dasharray:none"
         id="path3149" /><path
         d="m 2482.06,4723.44 -36.08,0"
         style="fill:none;stroke:#000000;stroke-opacity:1;stroke-width:13.875;stroke-linecap:butt;stroke-linejoin:round;stroke-miterlimit:10;stroke-dasharray:none"
         id="path3151" /><path
         d="m 2482.06,4494.2 -36.08,0"
         style="fill:none;stroke:#000000;stroke-opacity:1;stroke-width:13.875;stroke-linecap:butt;stroke-linejoin:round;stroke-miterlimit:10;stroke-dasharray:none"
         id="path3153" /><path
         d="m 2482.06,4264.97 -36.08,0"
         style="fill:none;stroke:#000000;stroke-opacity:1;stroke-width:13.875;stroke-linecap:butt;stroke-linejoin:round;stroke-miterlimit:10;stroke-dasharray:none"
         id="path3155" /><path
         d="m 2482.06,4035.74 -36.08,0"
         style="fill:none;stroke:#000000;stroke-opacity:1;stroke-width:13.875;stroke-linecap:butt;stroke-linejoin:round;stroke-miterlimit:10;stroke-dasharray:none"
         id="path3157" /><path
         d="m 2482.06,3577.27 -36.08,0"
         style="fill:none;stroke:#000000;stroke-opacity:1;stroke-width:13.875;stroke-linecap:butt;stroke-linejoin:round;stroke-miterlimit:10;stroke-dasharray:none"
         id="path3159" /><path
         d="m 2482.06,3348.04 -36.08,0"
         style="fill:none;stroke:#000000;stroke-opacity:1;stroke-width:13.875;stroke-linecap:butt;stroke-linejoin:round;stroke-miterlimit:10;stroke-dasharray:none"
         id="path3161" /><path
         d="m 2482.06,2889.57 -36.08,0"
         style="fill:none;stroke:#000000;stroke-opacity:1;stroke-width:13.875;stroke-linecap:butt;stroke-linejoin:round;stroke-miterlimit:10;stroke-dasharray:none"
         id="path3163" /><path
         d="m 2482.06,3118.81 -36.08,0"
         style="fill:none;stroke:#000000;stroke-opacity:1;stroke-width:13.875;stroke-linecap:butt;stroke-linejoin:round;stroke-miterlimit:10;stroke-dasharray:none"
         id="path3165" /><path
         d="m 2482.06,2431.09 -36.08,0"
         style="fill:none;stroke:#000000;stroke-opacity:1;stroke-width:13.875;stroke-linecap:butt;stroke-linejoin:round;stroke-miterlimit:10;stroke-dasharray:none"
         id="path3167" /><path
         d="m 2482.06,2201.87 -36.08,0"
         style="fill:none;stroke:#000000;stroke-opacity:1;stroke-width:13.875;stroke-linecap:butt;stroke-linejoin:round;stroke-miterlimit:10;stroke-dasharray:none"
         id="path3169" /><path
         d="m 2482.06,1972.64 -36.08,0"
         style="fill:none;stroke:#000000;stroke-opacity:1;stroke-width:13.875;stroke-linecap:butt;stroke-linejoin:round;stroke-miterlimit:10;stroke-dasharray:none"
         id="path3171" /><path
         d="m 2482.06,1743.39 -36.08,0"
         style="fill:none;stroke:#000000;stroke-opacity:1;stroke-width:13.875;stroke-linecap:butt;stroke-linejoin:round;stroke-miterlimit:10;stroke-dasharray:none"
         id="path3173" /><path
         d="m 2482.06,1284.92 -36.08,0"
         style="fill:none;stroke:#000000;stroke-opacity:1;stroke-width:13.875;stroke-linecap:butt;stroke-linejoin:round;stroke-miterlimit:10;stroke-dasharray:none"
         id="path3175" /><path
         d="m 2482.06,1055.7 -36.08,0"
         style="fill:none;stroke:#000000;stroke-opacity:1;stroke-width:13.875;stroke-linecap:butt;stroke-linejoin:round;stroke-miterlimit:10;stroke-dasharray:none"
         id="path3177" /><path
         d="m 2482.06,826.465 -36.08,0"
         style="fill:none;stroke:#000000;stroke-opacity:1;stroke-width:13.875;stroke-linecap:butt;stroke-linejoin:round;stroke-miterlimit:10;stroke-dasharray:none"
         id="path3179" /><path
         d="m 2482.06,597.223 -36.08,0"
         style="fill:none;stroke:#000000;stroke-opacity:1;stroke-width:13.875;stroke-linecap:butt;stroke-linejoin:round;stroke-miterlimit:10;stroke-dasharray:none"
         id="path3181" /><path
         d="m 2482.06,138.75 -36.08,0"
         style="fill:none;stroke:#000000;stroke-opacity:1;stroke-width:13.875;stroke-linecap:butt;stroke-linejoin:round;stroke-miterlimit:10;stroke-dasharray:none"
         id="path3183" /><path
         d="m 2482.06,138.75 0,5272.39"
         style="fill:none;stroke:#000000;stroke-opacity:1;stroke-width:13.875;stroke-linecap:butt;stroke-linejoin:round;stroke-miterlimit:10;stroke-dasharray:none"
         id="path3185" /></g></g><g
     id="g3187"><g
       id="g3189"
       clip-path="url(#clipPath3191)"><path
         d="m 1793.34,4048.03 c 2.89,-3.02 5.05,-6.13 6.5,-9.31 1.16,-2.02 2.9,-7.52 5.2,-16.48 l 7.81,11.49 c 2.03,2.89 4.51,5.6 7.48,8.13 2.96,2.52 5.52,4.3 7.7,5.31 1.44,0.58 3.02,0.86 4.76,0.86 2.46,0 4.46,-0.68 5.97,-2.05 1.51,-1.37 2.27,-3 2.27,-4.89 0,-2.3 -0.43,-3.89 -1.3,-4.75 -1.59,-1.45 -3.47,-2.18 -5.64,-2.18 -1.3,0 -2.59,0.29 -3.89,0.87 -2.75,0.86 -4.64,1.31 -5.64,1.31 -1.45,0 -3.11,-0.81 -4.99,-2.39 -3.61,-3.04 -7.95,-8.97 -13,-17.77 l 7.14,-30.14 c 1.17,-4.64 2.1,-7.41 2.82,-8.36 0.74,-0.94 1.52,-1.39 2.38,-1.39 1.17,0 2.61,0.63 4.35,1.94 3.18,2.74 5.92,6.28 8.24,10.63 l 3.02,-1.53 c -3.75,-6.94 -8.45,-12.71 -14.08,-17.35 -3.17,-2.59 -5.92,-3.89 -8.24,-3.89 -3.33,0 -5.93,1.88 -7.81,5.63 -1.29,2.32 -3.83,12.14 -7.58,29.48 -9.25,-15.88 -16.62,-26.08 -22.11,-30.56 -3.63,-3.03 -7.09,-4.55 -10.41,-4.55 -2.32,0 -4.48,0.87 -6.51,2.61 -1.3,1.28 -1.96,3.02 -1.96,5.2 0,1.87 0.66,3.47 1.96,4.76 1.31,1.3 2.89,1.95 4.77,1.95 1.88,0 3.83,-0.94 5.86,-2.81 1.58,-1.31 2.82,-1.96 3.68,-1.96 0.58,0 1.44,0.45 2.61,1.3 2.74,2.32 6.5,7.16 11.26,14.53 4.77,7.37 7.88,12.72 9.33,16.04 -3.61,14.31 -5.57,21.83 -5.86,22.55 -1.29,3.9 -3.02,6.64 -5.2,8.24 -2.17,1.59 -5.41,2.39 -9.76,2.39 -1.3,0 -2.81,-0.07 -4.55,-0.23 l 0,3.27 23.42,4.1 z m 111.06,-79.78 -59.4,0 0,3.26 c 30.34,26.58 50.37,47.4 60.05,62.44 4.48,6.94 6.72,14.3 6.72,22.12 0,6.06 -1.88,11.01 -5.64,14.84 -3.75,3.83 -8.6,5.75 -14.52,5.75 -8.25,0 -15.03,-3.99 -20.39,-11.92 l -3.24,1.51 c 3.04,7.52 7.43,13.36 13.22,17.57 5.78,4.18 12,6.28 18.65,6.28 7.66,0 14.05,-2.61 19.19,-7.81 5.12,-5.2 7.68,-11.49 7.68,-18.86 0,-5.2 -0.93,-9.97 -2.81,-14.3 -2.75,-6.94 -7.88,-14.61 -15.39,-22.99 -11.57,-13.16 -26.96,-28.18 -46.18,-45.1 l 29.92,0 c 4.77,0 8.74,1.01 11.92,3.04 3.18,2.03 5.42,4.71 6.73,8.02 l 3.47,0 -9.98,-23.85"
         style="fill:#000000;fill-opacity:1;fill-rule:nonzero;stroke:none"
         id="path3195" /></g></g><g
     id="g3197"><g
       id="g3199"
       clip-path="url(#clipPath3201)"><path
         d="m 2482.06,367.992 -72.15,0"
         style="fill:none;stroke:#000000;stroke-opacity:1;stroke-width:13.875;stroke-linecap:butt;stroke-linejoin:round;stroke-miterlimit:10;stroke-dasharray:none"
         id="path3205" /></g></g><g
     id="g3207"><g
       id="g3209"
       clip-path="url(#clipPath3211)"><path
         d="m 2084.07,354.688 119.227,0 0,9.32422 -119.227,0 0,-9.32422 z"
         style="fill:#000000;fill-opacity:1;fill-rule:nonzero;stroke:none"
         id="path3215" /></g></g><g
     id="g3217"><g
       id="g3219"
       clip-path="url(#clipPath3221)"><path
         d="m 2199.62,413.004 29.05,14.098 2.82,0 0,-100.817 c 0,-6.648 0.29,-10.808 0.86,-12.461 0.58,-1.664 1.73,-2.926 3.47,-3.801 1.73,-0.859 5.27,-1.375 10.63,-1.511 l 0,-3.262 -44.89,0 0,3.262 c 5.65,0.136 9.3,0.652 10.95,1.511 1.66,0.875 2.83,2.028 3.47,3.469 0.65,1.442 0.98,5.715 0.98,12.793 l 0,64.395 c 0,8.808 -0.29,14.441 -0.87,16.898 -0.43,1.887 -1.2,3.262 -2.28,4.121 -1.08,0.875 -2.41,1.305 -4.01,1.305 -2.16,0 -5.13,-0.945 -8.88,-2.816 l -1.3,2.816 z m 75.43,-48.785 c 0,13.597 2.07,25.336 6.2,35.242 4.1,9.894 9.57,17.234 16.35,21.992 5.36,3.762 10.85,5.649 16.49,5.649 9.1,0 17.27,-4.637 24.48,-13.875 9.12,-11.575 13.67,-27.25 13.67,-47.051 0,-13.875 -1.98,-25.656 -5.96,-35.34 -3.97,-9.684 -9.08,-16.734 -15.28,-21.133 -6.21,-4.41 -12.14,-6.617 -17.79,-6.617 -11.42,0 -20.95,6.73 -28.61,20.16 -6.37,11.418 -9.55,25.086 -9.55,40.973 z m 17.35,-2.164 c 0,-16.469 2.03,-29.914 6.08,-40.321 3.31,-8.672 8.31,-13.015 14.95,-13.015 3.18,0 6.47,1.414 9.87,4.23 3.4,2.817 5.97,7.633 7.7,14.418 2.73,9.977 4.11,24.211 4.11,42.707 0,13.582 -1.45,24.934 -4.33,34.035 -2.03,6.801 -4.78,11.571 -8.24,14.321 -2.31,1.871 -5.21,2.816 -8.68,2.816 -3.9,0 -7.43,-1.734 -10.61,-5.203 -4.2,-4.914 -7.05,-12.613 -8.57,-23.09 -1.52,-10.473 -2.28,-20.785 -2.28,-30.898"
         style="fill:#000000;fill-opacity:1;fill-rule:nonzero;stroke:none"
         id="path3225" /><path
         d="m 2482.06,1514.16 -72.15,0"
         style="fill:none;stroke:#000000;stroke-opacity:1;stroke-width:13.875;stroke-linecap:butt;stroke-linejoin:round;stroke-miterlimit:10;stroke-dasharray:none"
         id="path3227" /></g></g><g
     id="g3229"><g
       id="g3231"
       clip-path="url(#clipPath3233)"><path
         d="m 2167.32,1506.31 119.227,0 0,9.3242 -119.227,0 0,-9.3242 z"
         style="fill:#000000;fill-opacity:1;fill-rule:nonzero;stroke:none"
         id="path3237" /></g></g><g
     id="g3239"><g
       id="g3241"
       clip-path="url(#clipPath3243)"><path
         d="m 2339.88,1576.34 -6.94,-14.96 -35.77,0 -7.79,-16.05 c 15.45,-2.31 27.74,-8.09 36.85,-17.35 7.79,-7.93 11.71,-17.34 11.71,-28.18 0,-6.35 -1.28,-12.21 -3.8,-17.55 -2.53,-5.35 -5.75,-9.91 -9.65,-13.66 -3.9,-3.77 -8.24,-6.72 -13.01,-8.88 -6.65,-3.33 -13.59,-5 -20.82,-5 -7.07,0 -12.25,1.24 -15.49,3.69 -3.25,2.46 -4.87,5.14 -4.87,8.02 0,1.74 0.68,3.22 2.05,4.44 1.37,1.24 3.07,1.85 5.09,1.85 1.45,0 2.75,-0.23 3.9,-0.66 1.17,-0.43 3.11,-1.66 5.86,-3.67 4.48,-3.04 8.96,-4.57 13.44,-4.57 6.94,0 12.97,2.61 18.11,7.81 5.13,5.21 7.68,11.56 7.68,19.08 0,7.23 -2.3,13.95 -6.93,20.16 -4.62,6.22 -10.98,11.06 -19.08,14.53 -6.49,2.59 -15.25,4.12 -26.22,4.55 l 22.97,46.4 42.71,0"
         style="fill:#000000;fill-opacity:1;fill-rule:nonzero;stroke:none"
         id="path3247" /><path
         d="m 2482.06,2660.34 -72.15,0"
         style="fill:none;stroke:#000000;stroke-opacity:1;stroke-width:13.875;stroke-linecap:butt;stroke-linejoin:round;stroke-miterlimit:10;stroke-dasharray:none"
         id="path3249" /><path
         d="m 2482.06,3806.51 -72.15,0"
         style="fill:none;stroke:#000000;stroke-opacity:1;stroke-width:13.875;stroke-linecap:butt;stroke-linejoin:round;stroke-miterlimit:10;stroke-dasharray:none"
         id="path3251" /><path
         d="m 2339.88,3865.71 -6.94,-14.95 -35.77,0 -7.79,-16.06 c 15.45,-2.3 27.74,-8.09 36.85,-17.34 7.79,-7.94 11.71,-17.34 11.71,-28.18 0,-6.36 -1.28,-12.21 -3.8,-17.55 -2.53,-5.36 -5.75,-9.91 -9.65,-13.67 -3.9,-3.76 -8.24,-6.71 -13.01,-8.88 -6.65,-3.33 -13.59,-4.99 -20.82,-4.99 -7.07,0 -12.25,1.23 -15.49,3.69 -3.25,2.45 -4.87,5.13 -4.87,8.02 0,1.73 0.68,3.22 2.05,4.43 1.37,1.24 3.07,1.85 5.09,1.85 1.45,0 2.75,-0.22 3.9,-0.65 1.17,-0.43 3.11,-1.66 5.86,-3.68 4.48,-3.04 8.96,-4.56 13.44,-4.56 6.94,0 12.97,2.61 18.11,7.81 5.13,5.2 7.68,11.56 7.68,19.08 0,7.22 -2.3,13.94 -6.93,20.16 -4.62,6.21 -10.98,11.06 -19.08,14.53 -6.49,2.59 -15.25,4.12 -26.22,4.55 l 22.97,46.39 42.71,0"
         style="fill:#000000;fill-opacity:1;fill-rule:nonzero;stroke:none"
         id="path3253" /><path
         d="m 2482.06,4952.67 -72.15,0"
         style="fill:none;stroke:#000000;stroke-opacity:1;stroke-width:13.875;stroke-linecap:butt;stroke-linejoin:round;stroke-miterlimit:10;stroke-dasharray:none"
         id="path3255" /><path
         d="m 2199.62,4991.75 29.05,14.09 2.82,0 0,-100.81 c 0,-6.65 0.29,-10.8 0.86,-12.47 0.58,-1.66 1.73,-2.92 3.47,-3.79 1.73,-0.87 5.27,-1.37 10.63,-1.52 l 0,-3.25 -44.89,0 0,3.25 c 5.65,0.15 9.3,0.65 10.95,1.52 1.66,0.87 2.83,2.02 3.47,3.47 0.65,1.44 0.98,5.71 0.98,12.79 l 0,64.39 c 0,8.81 -0.29,14.45 -0.87,16.91 -0.43,1.88 -1.2,3.25 -2.28,4.12 -1.08,0.87 -2.41,1.3 -4.01,1.3 -2.16,0 -5.13,-0.94 -8.88,-2.82 l -1.3,2.82 z m 75.43,-48.78 c 0,13.58 2.07,25.33 6.2,35.23 4.1,9.9 9.57,17.23 16.35,22 5.36,3.76 10.85,5.64 16.49,5.64 9.1,0 17.27,-4.63 24.48,-13.88 9.12,-11.56 13.67,-27.24 13.67,-47.04 0,-13.87 -1.98,-25.65 -5.96,-35.34 -3.97,-9.68 -9.08,-16.72 -15.28,-21.13 -6.21,-4.41 -12.14,-6.62 -17.79,-6.62 -11.42,0 -20.95,6.72 -28.61,20.17 -6.37,11.41 -9.55,25.07 -9.55,40.97 z m 17.35,-2.17 c 0,-16.48 2.03,-29.92 6.08,-40.32 3.31,-8.68 8.31,-13.01 14.95,-13.01 3.18,0 6.47,1.41 9.87,4.23 3.4,2.82 5.97,7.62 7.7,14.41 2.73,9.98 4.11,24.21 4.11,42.71 0,13.59 -1.45,24.93 -4.33,34.04 -2.03,6.79 -4.78,11.56 -8.24,14.31 -2.31,1.88 -5.21,2.82 -8.68,2.82 -3.9,0 -7.43,-1.74 -10.61,-5.2 -4.2,-4.92 -7.05,-12.61 -8.57,-23.09 -1.52,-10.49 -2.28,-20.78 -2.28,-30.9"
         style="fill:#000000;fill-opacity:1;fill-rule:nonzero;stroke:none"
         id="path3257" /></g></g></g><path
   style="fill:none;stroke:#000000;stroke-width:2;stroke-linecap:butt;stroke-linejoin:miter;stroke-miterlimit:4;stroke-opacity:1;stroke-dasharray:none"
   d="m 4,204 84,0"
   id="path5043"
   inkscape:connector-curvature="0"
   sodipodi:nodetypes="cc" /><path
   style="fill:none;stroke:#ff0000;stroke-width:4;stroke-linecap:butt;stroke-linejoin:miter;stroke-miterlimit:4;stroke-opacity:1;stroke-dasharray:32, 8, 4, 8;stroke-dashoffset:0"
   d="m 4,184 84,0"
   id="path5045"
   inkscape:connector-curvature="0"
   sodipodi:nodetypes="cc" /><path
   style="fill:none;stroke:#00fe1d;stroke-width:4;stroke-linecap:butt;stroke-linejoin:miter;stroke-miterlimit:4;stroke-opacity:1;stroke-dasharray:32, 4;stroke-dashoffset:0"
   d="m 4,160 84,0"
   id="path5047"
   inkscape:connector-curvature="0"
   sodipodi:nodetypes="cc" /><g
   id="g5823"
   transform="matrix(0.96153846,0,0,0.96153846,-513.46154,-268.98461)"><path
     transform="matrix(0.8,0,0,-0.8,0,555)"
     d="m 745,166.25 c 0,6.90356 -5.59644,12.5 -12.5,12.5 -6.90356,0 -12.5,-5.59644 -12.5,-12.5 0,-6.90356 5.59644,-12.5 12.5,-12.5 6.90356,0 12.5,5.59644 12.5,12.5 z"
     sodipodi:ry="12.5"
     sodipodi:rx="12.5"
     sodipodi:cy="166.25"
     sodipodi:cx="732.5"
     id="path5049"
     style="fill:none;stroke:#000000;stroke-opacity:1"
     sodipodi:type="arc" /><path
     sodipodi:nodetypes="cc"
     transform="matrix(0.8,0,0,-0.8,0,555)"
     inkscape:connector-curvature="0"
     id="path5819"
     d="m 723.75,157.5 17.5,17.5"
     style="fill:none;stroke:#000000;stroke-width:1px;stroke-linecap:butt;stroke-linejoin:miter;stroke-opacity:1" /><path
     sodipodi:nodetypes="cc"
     transform="matrix(0.8,0,0,-0.8,0,555)"
     inkscape:connector-curvature="0"
     id="path5821"
     d="m 723.75,175 17.5,-17.5"
     style="fill:none;stroke:#000000;stroke-width:1px;stroke-linecap:butt;stroke-linejoin:miter;stroke-opacity:1" /></g><text
   xml:space="preserve"
   style="font-size:8px;font-style:normal;font-weight:normal;line-height:125%;letter-spacing:0px;word-spacing:0px;fill:#000000;fill-opacity:1;stroke:none;font-family:Times New Roman;-inkscape-font-specification:Times New Roman"
   x="95.999992"
   y="-201.60001"
   id="text5828"
   sodipodi:linespacing="125%"
   transform="scale(1,-1)"><tspan
     sodipodi:role="line"
     id="tspan5830"
     x="95.999992"
     y="-201.60001"
     style="font-size:14.39999962px">Homotopic path</tspan></text>

<text
   xml:space="preserve"
   style="font-size:8px;font-style:normal;font-weight:normal;line-height:125%;letter-spacing:0px;word-spacing:0px;fill:#000000;fill-opacity:1;stroke:none;font-family:Times New Roman;-inkscape-font-specification:Times New Roman"
   x="97.599968"
   y="-179.19998"
   id="text5832"
   sodipodi:linespacing="125%"
   transform="scale(1,-1)"><tspan
     sodipodi:role="line"
     id="tspan5834"
     x="97.599968"
     y="-179.19998"
     style="font-size:14.39999962px;font-style:italic;-inkscape-font-specification:'Times New Roman, Italic'">f<tspan
   style="font-size:52.00042725%;font-style:italic;baseline-shift:sub;-inkscape-font-specification:'Times New Roman, Italic'"
   id="tspan5968">1</tspan></tspan></text>

<text
   xml:space="preserve"
   style="font-size:8px;font-style:normal;font-weight:normal;line-height:125%;letter-spacing:0px;word-spacing:0px;fill:#000000;fill-opacity:1;stroke:none;font-family:Times New Roman;-inkscape-font-specification:Times New Roman"
   x="97.599968"
   y="-156.79999"
   id="text5836"
   sodipodi:linespacing="125%"
   transform="scale(1,-1)"><tspan
     sodipodi:role="line"
     id="tspan5838"
     x="97.599968"
     y="-156.79999"
     style="font-size:14.39999962px;font-style:italic;-inkscape-font-specification:'Times New Roman, Italic'">f<tspan
   style="font-size:52.00042725%;font-style:italic;baseline-shift:sub;-inkscape-font-specification:'Times New Roman, Italic'"
   id="tspan5970">2</tspan></tspan></text>

<text
   xml:space="preserve"
   style="font-size:8px;font-style:normal;font-weight:normal;line-height:125%;letter-spacing:0px;word-spacing:0px;fill:#000000;fill-opacity:1;stroke:none;font-family:Times New Roman;-inkscape-font-specification:Times New Roman"
   x="96.362968"
   y="-133.38031"
   id="text5844"
   sodipodi:linespacing="125%"
   transform="scale(1,-1)"><tspan
     sodipodi:role="line"
     id="tspan5846"
     x="96.362968"
     y="-133.38031"
     style="font-size:14.39999962px">Solution, <tspan
   style="font-style:italic;-inkscape-font-specification:'Times New Roman, Italic'"
   id="tspan5972"></tspan>=1</tspan></text>

<g
   transform="matrix(0.96153846,0,0,0.96153846,-513.46154,-268.98461)"
   id="g5848"
   style="stroke:#0707bb;stroke-opacity:1"><path
     sodipodi:type="arc"
     style="fill:none;stroke:#0707bb;stroke-opacity:1"
     id="path5850"
     sodipodi:cx="732.5"
     sodipodi:cy="166.25"
     sodipodi:rx="12.5"
     sodipodi:ry="12.5"
     d="m 745,166.25 c 0,6.90356 -5.59644,12.5 -12.5,12.5 -6.90356,0 -12.5,-5.59644 -12.5,-12.5 0,-6.90356 5.59644,-12.5 12.5,-12.5 6.90356,0 12.5,5.59644 12.5,12.5 z"
     transform="matrix(0.8,0,0,-0.8,0,555)" /><path
     style="fill:none;stroke:#0707bb;stroke-width:1px;stroke-linecap:butt;stroke-linejoin:miter;stroke-opacity:1"
     d="m 723.75,157.5 17.5,17.5"
     id="path5852"
     inkscape:connector-curvature="0"
     transform="matrix(0.8,0,0,-0.8,0,555)"
     sodipodi:nodetypes="cc" /><path
     style="fill:none;stroke:#0707bb;stroke-width:1px;stroke-linecap:butt;stroke-linejoin:miter;stroke-opacity:1"
     d="m 723.75,175 17.5,-17.5"
     id="path5854"
     inkscape:connector-curvature="0"
     transform="matrix(0.8,0,0,-0.8,0,555)"
     sodipodi:nodetypes="cc" /></g><g
   id="g5856"
   transform="matrix(0.96153846,0,0,0.96153846,-254.33077,-10.238461)"
   style="stroke:#0707bb;stroke-opacity:1"><path
     transform="matrix(0.8,0,0,-0.8,0,555)"
     d="m 745,166.25 c 0,6.90356 -5.59644,12.5 -12.5,12.5 -6.90356,0 -12.5,-5.59644 -12.5,-12.5 0,-6.90356 5.59644,-12.5 12.5,-12.5 6.90356,0 12.5,5.59644 12.5,12.5 z"
     sodipodi:ry="12.5"
     sodipodi:rx="12.5"
     sodipodi:cy="166.25"
     sodipodi:cx="732.5"
     id="path5858"
     style="fill:none;stroke:#0707bb;stroke-opacity:1"
     sodipodi:type="arc" /><path
     sodipodi:nodetypes="cc"
     transform="matrix(0.8,0,0,-0.8,0,555)"
     inkscape:connector-curvature="0"
     id="path5860"
     d="m 723.75,157.5 17.5,17.5"
     style="fill:none;stroke:#0707bb;stroke-width:1px;stroke-linecap:butt;stroke-linejoin:miter;stroke-opacity:1" /><path
     sodipodi:nodetypes="cc"
     transform="matrix(0.8,0,0,-0.8,0,555)"
     inkscape:connector-curvature="0"
     id="path5862"
     d="m 723.75,175 17.5,-17.5"
     style="fill:none;stroke:#0707bb;stroke-width:1px;stroke-linecap:butt;stroke-linejoin:miter;stroke-opacity:1" /></g><g
   id="g5864"
   transform="matrix(0.96153846,0,0,0.96153846,-252.73077,-35.838461)"
   style="stroke:#0707bb;stroke-opacity:1"><path
     transform="matrix(0.8,0,0,-0.8,0,555)"
     d="m 745,166.25 c 0,6.90356 -5.59644,12.5 -12.5,12.5 -6.90356,0 -12.5,-5.59644 -12.5,-12.5 0,-6.90356 5.59644,-12.5 12.5,-12.5 6.90356,0 12.5,5.59644 12.5,12.5 z"
     sodipodi:ry="12.5"
     sodipodi:rx="12.5"
     sodipodi:cy="166.25"
     sodipodi:cx="732.5"
     id="path5866"
     style="fill:none;stroke:#0707bb;stroke-opacity:1"
     sodipodi:type="arc" /><path
     sodipodi:nodetypes="cc"
     transform="matrix(0.8,0,0,-0.8,0,555)"
     inkscape:connector-curvature="0"
     id="path5868"
     d="m 723.75,157.5 17.5,17.5"
     style="fill:none;stroke:#0707bb;stroke-width:1px;stroke-linecap:butt;stroke-linejoin:miter;stroke-opacity:1" /><path
     sodipodi:nodetypes="cc"
     transform="matrix(0.8,0,0,-0.8,0,555)"
     inkscape:connector-curvature="0"
     id="path5870"
     d="m 723.75,175 17.5,-17.5"
     style="fill:none;stroke:#0707bb;stroke-width:1px;stroke-linecap:butt;stroke-linejoin:miter;stroke-opacity:1" /></g><g
   transform="matrix(0.96153846,0,0,0.96153846,-248.59231,-120.63846)"
   id="g5872"
   style="stroke:#0707bb;stroke-opacity:1"><path
     sodipodi:type="arc"
     style="fill:none;stroke:#0707bb;stroke-opacity:1"
     id="path5874"
     sodipodi:cx="732.5"
     sodipodi:cy="166.25"
     sodipodi:rx="12.5"
     sodipodi:ry="12.5"
     d="m 745,166.25 c 0,6.90356 -5.59644,12.5 -12.5,12.5 -6.90356,0 -12.5,-5.59644 -12.5,-12.5 0,-6.90356 5.59644,-12.5 12.5,-12.5 6.90356,0 12.5,5.59644 12.5,12.5 z"
     transform="matrix(0.8,0,0,-0.8,0,555)" /><path
     style="fill:none;stroke:#0707bb;stroke-width:1px;stroke-linecap:butt;stroke-linejoin:miter;stroke-opacity:1"
     d="m 723.75,157.5 17.5,17.5"
     id="path5876"
     inkscape:connector-curvature="0"
     transform="matrix(0.8,0,0,-0.8,0,555)"
     sodipodi:nodetypes="cc" /><path
     style="fill:none;stroke:#0707bb;stroke-width:1px;stroke-linecap:butt;stroke-linejoin:miter;stroke-opacity:1"
     d="m 723.75,175 17.5,-17.5"
     id="path5878"
     inkscape:connector-curvature="0"
     transform="matrix(0.8,0,0,-0.8,0,555)"
     sodipodi:nodetypes="cc" /></g><g
   id="g5880"
   transform="matrix(0.96153846,0,0,0.96153846,-178.84615,-124.76923)"
   style="stroke:#0707bb;stroke-opacity:1"><path
     transform="matrix(0.8,0,0,-0.8,0,555)"
     d="m 745,166.25 c 0,6.90356 -5.59644,12.5 -12.5,12.5 -6.90356,0 -12.5,-5.59644 -12.5,-12.5 0,-6.90356 5.59644,-12.5 12.5,-12.5 6.90356,0 12.5,5.59644 12.5,12.5 z"
     sodipodi:ry="12.5"
     sodipodi:rx="12.5"
     sodipodi:cy="166.25"
     sodipodi:cx="732.5"
     id="path5882"
     style="fill:none;stroke:#0707bb;stroke-opacity:1"
     sodipodi:type="arc" /><path
     sodipodi:nodetypes="cc"
     transform="matrix(0.8,0,0,-0.8,0,555)"
     inkscape:connector-curvature="0"
     id="path5884"
     d="m 723.75,157.5 17.5,17.5"
     style="fill:none;stroke:#0707bb;stroke-width:1px;stroke-linecap:butt;stroke-linejoin:miter;stroke-opacity:1" /><path
     sodipodi:nodetypes="cc"
     transform="matrix(0.8,0,0,-0.8,0,555)"
     inkscape:connector-curvature="0"
     id="path5886"
     d="m 723.75,175 17.5,-17.5"
     style="fill:none;stroke:#0707bb;stroke-width:1px;stroke-linecap:butt;stroke-linejoin:miter;stroke-opacity:1" /></g><g
   transform="matrix(0.96153846,0,0,0.96153846,-113.07692,-127.76923)"
   id="g5888"
   style="stroke:#0707bb;stroke-opacity:1"><path
     sodipodi:type="arc"
     style="fill:none;stroke:#0707bb;stroke-opacity:1"
     id="path5890"
     sodipodi:cx="732.5"
     sodipodi:cy="166.25"
     sodipodi:rx="12.5"
     sodipodi:ry="12.5"
     d="m 745,166.25 c 0,6.90356 -5.59644,12.5 -12.5,12.5 -6.90356,0 -12.5,-5.59644 -12.5,-12.5 0,-6.90356 5.59644,-12.5 12.5,-12.5 6.90356,0 12.5,5.59644 12.5,12.5 z"
     transform="matrix(0.8,0,0,-0.8,0,555)" /><path
     style="fill:none;stroke:#0707bb;stroke-width:1px;stroke-linecap:butt;stroke-linejoin:miter;stroke-opacity:1"
     d="m 723.75,157.5 17.5,17.5"
     id="path5892"
     inkscape:connector-curvature="0"
     transform="matrix(0.8,0,0,-0.8,0,555)"
     sodipodi:nodetypes="cc" /><path
     style="fill:none;stroke:#0707bb;stroke-width:1px;stroke-linecap:butt;stroke-linejoin:miter;stroke-opacity:1"
     d="m 723.75,175 17.5,-17.5"
     id="path5894"
     inkscape:connector-curvature="0"
     transform="matrix(0.8,0,0,-0.8,0,555)"
     sodipodi:nodetypes="cc" /></g><path
   sodipodi:type="arc"
   style="fill:#000000;fill-opacity:1;stroke:none"
   id="path5940"
   sodipodi:cx="737.5"
   sodipodi:cy="296.25"
   sodipodi:rx="2.5"
   sodipodi:ry="2.5"
   d="m 740,296.25 c 0,1.38071 -1.11929,2.5 -2.5,2.5 -1.38071,0 -2.5,-1.11929 -2.5,-2.5 0,-1.38071 1.11929,-2.5 2.5,-2.5 1.38071,0 2.5,1.11929 2.5,2.5 z"
   transform="matrix(1.92,0,0,-1.92,-1117,835.6)" /><path
   transform="matrix(1.92,0,0,-1.92,-951.2,989.6)"
   d="m 740,296.25 c 0,1.38071 -1.11929,2.5 -2.5,2.5 -1.38071,0 -2.5,-1.11929 -2.5,-2.5 0,-1.38071 1.11929,-2.5 2.5,-2.5 1.38071,0 2.5,1.11929 2.5,2.5 z"
   sodipodi:ry="2.5"
   sodipodi:rx="2.5"
   sodipodi:cy="296.25"
   sodipodi:cx="737.5"
   id="path5942"
   style="fill:#000000;fill-opacity:1;stroke:none"
   sodipodi:type="arc" /><text
   xml:space="preserve"
   style="font-size:8px;font-style:normal;font-weight:normal;line-height:125%;letter-spacing:0px;word-spacing:0px;fill:#000000;fill-opacity:1;stroke:none;font-family:Times New Roman;-inkscape-font-specification:Times New Roman"
   x="292"
   y="-248"
   id="text5944"
   sodipodi:linespacing="125%"
   transform="scale(1,-1)"><tspan
     sodipodi:role="line"
     id="tspan5946"
     x="292"
     y="-248"
     style="font-size:16px;font-style:italic;-inkscape-font-specification:'Times New Roman, Italic'">A</tspan></text>

<text
   xml:space="preserve"
   style="font-size:8px;font-style:normal;font-weight:normal;line-height:125%;letter-spacing:0px;word-spacing:0px;fill:#000000;fill-opacity:1;stroke:none;font-family:Times New Roman;-inkscape-font-specification:Times New Roman"
   x="460"
   y="-428"
   id="text5948"
   sodipodi:linespacing="125%"
   transform="scale(1,-1)"
   inkscape:transform-center-y="-29.52356"><tspan
     sodipodi:role="line"
     id="tspan5950"
     x="460"
     y="-428"
     style="font-size:16px;font-style:italic;-inkscape-font-specification:'Times New Roman, Italic'">B</tspan></text>

<text
   transform="scale(1,-1)"
   sodipodi:linespacing="125%"
   id="text5952"
   y="-104"
   x="40"
   style="font-size:8px;font-style:normal;font-weight:normal;line-height:125%;letter-spacing:0px;word-spacing:0px;fill:#000000;fill-opacity:1;stroke:none;font-family:Times New Roman;-inkscape-font-specification:Times New Roman"
   xml:space="preserve"><tspan
     style="font-size:16px;font-style:italic;-inkscape-font-specification:'Times New Roman, Italic'"
     y="-104"
     x="40"
     id="tspan5954"
     sodipodi:role="line">A</tspan></text>

<text
   inkscape:transform-center-y="-29.52356"
   transform="scale(1,-1)"
   sodipodi:linespacing="125%"
   id="text5956"
   y="-80"
   x="40"
   style="font-size:8px;font-style:normal;font-weight:normal;line-height:125%;letter-spacing:0px;word-spacing:0px;fill:#000000;fill-opacity:1;stroke:none;font-family:Times New Roman;-inkscape-font-specification:Times New Roman"
   xml:space="preserve"><tspan
     style="font-size:16px;font-style:italic;-inkscape-font-specification:'Times New Roman, Italic'"
     y="-80"
     x="40"
     id="tspan5958"
     sodipodi:role="line">B</tspan></text>

<text
   xml:space="preserve"
   style="font-size:8px;font-style:normal;font-weight:normal;line-height:125%;letter-spacing:0px;word-spacing:0px;fill:#000000;fill-opacity:1;stroke:none;font-family:Times New Roman;-inkscape-font-specification:Times New Roman"
   x="95.999992"
   y="-81.599998"
   id="text5960"
   sodipodi:linespacing="125%"
   transform="scale(1,-1)"><tspan
     sodipodi:role="line"
     id="tspan5962"
     x="95.999992"
     y="-81.599998"
     style="font-size:14.39999962px"><tspan
   style="font-style:italic;-inkscape-font-specification:'Times New Roman, Italic'"
   id="tspan5976"></tspan>=0.5</tspan></text>

<text
   transform="scale(1,-1)"
   sodipodi:linespacing="125%"
   id="text5964"
   y="-105.6"
   x="95.999992"
   style="font-size:8px;font-style:normal;font-weight:normal;line-height:125%;letter-spacing:0px;word-spacing:0px;fill:#000000;fill-opacity:1;stroke:none;font-family:Times New Roman;-inkscape-font-specification:Times New Roman"
   xml:space="preserve"><tspan
     style="font-size:14.39999962px"
     y="-105.6"
     x="95.999992"
     id="tspan5966"
     sodipodi:role="line"><tspan
   style="font-style:italic;-inkscape-font-specification:'Times New Roman, Italic'"
   id="tspan5974"></tspan>=0.5</tspan></text>

<text
   xml:space="preserve"
   style="font-size:8px;font-style:normal;font-weight:normal;line-height:125%;letter-spacing:0px;word-spacing:0px;fill:#000000;fill-opacity:1;stroke:none;font-family:Times New Roman;-inkscape-font-specification:Times New Roman"
   x="288"
   y="-408"
   id="text5978"
   sodipodi:linespacing="125%"
   transform="scale(1,-1)"><tspan
     sodipodi:role="line"
     id="tspan5980"
     x="288"
     y="-408"
     style="font-size:14.39999961999999911px;font-style:italic;-inkscape-font-specification:'Times New Roman, Italic'">s<tspan
   style="font-size:9.36013222000000056px;baseline-shift:sub;font-style:italic;-inkscape-font-specification:'Times New Roman, Italic'"
   id="tspan5998">1</tspan></tspan></text>

<text
   xml:space="preserve"
   style="font-size:8px;font-style:normal;font-weight:normal;line-height:125%;letter-spacing:0px;word-spacing:0px;fill:#000000;fill-opacity:1;stroke:none;font-family:Times New Roman;-inkscape-font-specification:Times New Roman"
   x="288"
   y="-352"
   id="text5982"
   sodipodi:linespacing="125%"
   transform="scale(1,-1)"><tspan
     sodipodi:role="line"
     id="tspan5984"
     x="288"
     y="-352"
     style="font-size:14.39999961999999911px;font-style:italic;-inkscape-font-specification:'Times New Roman, Italic'">s<tspan
   style="font-size:9.36013222000000056px;baseline-shift:sub;font-style:italic;-inkscape-font-specification:'Times New Roman, Italic'"
   id="tspan6000">2</tspan></tspan></text>

<text
   xml:space="preserve"
   style="font-size:8px;font-style:normal;font-weight:normal;line-height:125%;letter-spacing:0px;word-spacing:0px;fill:#000000;fill-opacity:1;stroke:none;font-family:Times New Roman;-inkscape-font-specification:Times New Roman"
   x="288"
   y="-304"
   id="text5986"
   sodipodi:linespacing="125%"
   transform="scale(1,-1)"><tspan
     sodipodi:role="line"
     id="tspan5988"
     x="288"
     y="-304"
     style="font-size:14.39999961999999911px;font-style:italic;-inkscape-font-specification:'Times New Roman, Italic'">s<tspan
   style="font-size:9.36013222000000056px;baseline-shift:sub;font-style:italic;-inkscape-font-specification:'Times New Roman, Italic'"
   id="tspan6002">3</tspan></tspan></text>

<text
   xml:space="preserve"
   style="font-size:8px;font-style:normal;font-weight:normal;line-height:125%;letter-spacing:0px;word-spacing:0px;fill:#000000;fill-opacity:1;stroke:none;font-family:Times New Roman;-inkscape-font-specification:Times New Roman"
   x="400"
   y="-287.99997"
   id="text5990"
   sodipodi:linespacing="125%"
   transform="scale(1,-1)"><tspan
     sodipodi:role="line"
     id="tspan5992"
     x="400"
     y="-287.99997"
     style="font-size:14.39999961999999911px;font-style:italic;-inkscape-font-specification:'Times New Roman, Italic'">s<tspan
   style="font-size:9.36013222000000056px;baseline-shift:sub;font-style:italic;-inkscape-font-specification:'Times New Roman, Italic'"
   id="tspan6004">4</tspan></tspan></text>

<text
   xml:space="preserve"
   style="font-size:8px;font-style:normal;font-weight:normal;line-height:125%;letter-spacing:0px;word-spacing:0px;fill:#000000;fill-opacity:1;stroke:none;font-family:Times New Roman;-inkscape-font-specification:Times New Roman"
   x="472"
   y="-288"
   id="text5994"
   sodipodi:linespacing="125%"
   transform="scale(1,-1)"><tspan
     sodipodi:role="line"
     id="tspan5996"
     x="472"
     y="-288"
     style="font-size:14.39999961999999911px;font-style:italic;-inkscape-font-specification:'Times New Roman, Italic'">s<tspan
   style="font-size:9.36013222000000056px;baseline-shift:sub;font-style:italic;-inkscape-font-specification:'Times New Roman, Italic'"
   id="tspan6006">5</tspan></tspan></text>

</g></svg>