<?xml version="1.0" encoding="UTF-8" standalone="no"?>
<!-- Created with Inkscape (http://www.inkscape.org/) -->

<svg
   xmlns:dc="http://purl.org/dc/elements/1.1/"
   xmlns:cc="http://creativecommons.org/ns#"
   xmlns:rdf="http://www.w3.org/1999/02/22-rdf-syntax-ns#"
   xmlns:svg="http://www.w3.org/2000/svg"
   xmlns="http://www.w3.org/2000/svg"
   xmlns:sodipodi="http://sodipodi.sourceforge.net/DTD/sodipodi-0.dtd"
   xmlns:inkscape="http://www.inkscape.org/namespaces/inkscape"
   width="744.09448819"
   height="1052.3622047"
   id="svg2"
   version="1.1"
   inkscape:version="0.48.1 r9760"
   sodipodi:docname="doblelineapoli.svg">
  <defs
     id="defs4" />
  <sodipodi:namedview
     id="base"
     pagecolor="#ffffff"
     bordercolor="#666666"
     borderopacity="1.0"
     inkscape:pageopacity="0.0"
     inkscape:pageshadow="2"
     inkscape:zoom="2.185914"
     inkscape:cx="202.13229"
     inkscape:cy="675.11026"
     inkscape:document-units="px"
     inkscape:current-layer="layer1"
     showgrid="true"
     showguides="true"
     inkscape:guide-bbox="true"
     inkscape:window-width="780"
     inkscape:window-height="424"
     inkscape:window-x="0"
     inkscape:window-y="0"
     inkscape:window-maximized="1">
    <inkscape:grid
       type="xygrid"
       id="grid3223" />
  </sodipodi:namedview>
  <metadata
     id="metadata7">
    <rdf:RDF>
      <cc:Work
         rdf:about="">
        <dc:format>image/svg+xml</dc:format>
        <dc:type
           rdf:resource="http://purl.org/dc/dcmitype/StillImage" />
        <dc:title></dc:title>
      </cc:Work>
    </rdf:RDF>
  </metadata>
  <g
     inkscape:label="Layer 1"
     inkscape:groupmode="layer"
     id="layer1">
    <text
       style="font-size:11.29729652px;font-style:italic;font-weight:bold;text-anchor:start;fill:#000000;stroke-width:0.025in;font-family:Times"
       xml:space="preserve"
       x="167.49902"
       y="411.31635"
       font-style="italic"
       font-weight="bold"
       font-size="152"
       id="text3010"><tspan
         style="font-size:12px;font-style:italic;font-variant:normal;font-weight:bold;font-stretch:normal;font-family:Arial;-inkscape-font-specification:Arial Bold Italic"
         id="tspan4022">No path region</tspan></text>
    <g
       style="fill:none;stroke-width:0.025in"
       transform="matrix(-2.7300957e-7,-0.07432432,0.07432432,-2.7300957e-7,52.345583,602.62634)"
       id="g3012">
      <text
         style="font-size:114px;font-style:italic;font-weight:bold;text-anchor:start;fill:#000000;font-family:New Century Schoolbook"
         xml:space="preserve"
         x="0"
         y="0"
         font-style="italic"
         font-weight="bold"
         font-size="114"
         id="text3014"><tspan
           style="-inkscape-font-specification:Arial Bold Italic;font-family:Arial;font-weight:bold;font-style:italic;font-stretch:normal;font-variant:normal;font-size:134.54546237px"
           id="tspan4018">Isolated Homotopy branch</tspan></text>
    </g>
    <g
       style="fill:none;stroke-width:0.025in"
       transform="matrix(-2.7300957e-7,-0.07432432,0.07432432,-2.7300957e-7,702.92663,602.09678)"
       id="g3016">
      <text
         style="font-size:114px;font-style:italic;font-weight:bold;text-anchor:start;fill:#000000;font-family:New Century Schoolbook"
         xml:space="preserve"
         x="0"
         y="0"
         font-style="italic"
         font-weight="bold"
         font-size="114"
         id="text3018"><tspan
           style="-inkscape-font-specification:Arial Bold Italic;font-family:Arial;font-weight:bold;font-style:italic;font-stretch:normal;font-variant:normal;font-size:134.54546237px"
           id="tspan4032">Isolated homotopy branch</tspan></text>
    </g>
    <g
       style="fill:none;stroke-width:0.025in"
       transform="matrix(-2.7300957e-7,-0.07432432,0.07432432,-2.7300957e-7,473.69015,575.96214)"
       id="g3020">
      <text
         style="font-size:114px;font-style:italic;font-weight:bold;text-anchor:start;fill:#000000;font-family:New Century Schoolbook"
         xml:space="preserve"
         x="0"
         y="0"
         font-style="italic"
         font-weight="bold"
         font-size="114"
         id="text3022"><tspan
           style="font-size:134.54545593px;font-style:italic;font-variant:normal;font-weight:bold;font-stretch:normal;font-family:Arial;-inkscape-font-specification:Arial Bold Italic"
           id="tspan4028">Solution line 3</tspan></text>
    </g>
    <g
       style="fill:none;stroke-width:0.025in"
       transform="matrix(-2.7300957e-7,-0.07432432,0.07432432,-2.7300957e-7,291.0753,576.01585)"
       id="g3024">
      <text
         style="font-size:114px;font-style:italic;font-weight:bold;text-anchor:start;fill:#000000;font-family:New Century Schoolbook"
         xml:space="preserve"
         x="0"
         y="0"
         font-style="italic"
         font-weight="bold"
         font-size="114"
         id="text3026"><tspan
           style="font-size:134.54545593px;font-style:italic;font-variant:normal;font-weight:bold;font-stretch:normal;font-family:Arial;-inkscape-font-specification:Arial Bold Italic"
           id="tspan4024">Solution line 2</tspan></text>
    </g>
    <g
       style="fill:none;stroke-width:0.025in"
       transform="matrix(-2.7300957e-7,-0.07432432,0.07432432,-2.7300957e-7,625.1496,575.96214)"
       id="g3028">
      <text
         style="font-size:114px;font-style:italic;font-weight:bold;text-anchor:start;fill:#000000;font-family:New Century Schoolbook"
         xml:space="preserve"
         x="0"
         y="0"
         font-style="italic"
         font-weight="bold"
         font-size="114"
         id="text3030"><tspan
           style="font-size:134.54545593px;font-style:italic;font-variant:normal;font-weight:bold;font-stretch:normal;font-family:Arial;-inkscape-font-specification:Arial Bold Italic"
           id="tspan4030">Solution line 4</tspan></text>
    </g>
    <g
       style="fill:none;stroke-width:0.025in"
       transform="matrix(-2.7300957e-7,-0.07432432,0.07432432,-2.7300957e-7,136.62936,575.71555)"
       id="g3032">
      <text
         style="font-size:114px;font-style:italic;font-weight:bold;text-anchor:start;fill:#000000;font-family:New Century Schoolbook"
         xml:space="preserve"
         x="0"
         y="0"
         font-style="italic"
         font-weight="bold"
         font-size="114"
         id="text3034"><tspan
           style="font-size:134.54545593px;font-style:italic;font-variant:normal;font-weight:bold;font-stretch:normal;font-family:Arial;-inkscape-font-specification:Arial Bold Italic"
           id="tspan4020">Solution line 1</tspan></text>
    </g>
    <text
       style="font-size:8px;font-style:italic;font-weight:bold;text-anchor:start;fill:#000000;stroke-width:0.025in;font-family:arial;-inkscape-font-specification:arial"
       xml:space="preserve"
       x="626.83203"
       y="652.50549"
       font-style="italic"
       font-weight="bold"
       font-size="101"
       id="text3036"><tspan
         style="font-size:9px;font-family:Arial;-inkscape-font-specification:Arial"
         id="tspan3071">Homotopy parameter</tspan></text>
    <g
       id="g4000"
       transform="translate(196.38416,-312.83929)">
      <text
         id="text3008"
         font-size="152"
         font-weight="bold"
         font-style="italic"
         y="685.20148"
         x="308.61584"
         xml:space="preserve"
         style="font-size:11.29729652px;font-style:italic;font-weight:bold;text-anchor:start;fill:#000000;stroke-width:0.025in;font-family:Times">Solutions</text>
      <ellipse
         id="ellipse3042"
         style="fill:#ff0000;stroke:#ff0000;stroke-width:8"
         ry="54"
         rx="82"
         transform="matrix(0.07432432,0,0,0.07432432,298.06179,681.70822)"
         cx="0"
         cy="0"
         sodipodi:cx="0"
         sodipodi:cy="0"
         sodipodi:rx="82"
         sodipodi:ry="54"
         d="M 82,0 C 82,29.823376 45.287349,54 0,54 -45.287349,54 -82,29.823376 -82,0 c 0,-29.823376 36.712651,-54 82,-54 45.287349,0 82,24.176624 82,54 z" />
    </g>
    <polyline
       points="522,2592 522,5474 "
       style="fill:none;stroke:#000000;stroke-width:8;stroke-linecap:butt;stroke-linejoin:miter;stroke-dasharray:41, 41"
       id="polyline3044"
       transform="matrix(0.07432432,0,0,0.0778134,255.99422,213.16986)" />
    <polyline
       points="286,5568 283,2141 "
       style="fill:none;stroke:#000000;stroke-width:33.63636398;stroke-linecap:butt;stroke-linejoin:miter;stroke-miterlimit:4;stroke-opacity:0.34513275;stroke-dasharray:none"
       id="polyline3046"
       transform="matrix(0.07432432,0,0,0.07250212,273.99422,236.1704)" />
    <polyline
       points="313 2253 282 2128 250 2254 "
       style="fill:none;stroke:#000000;stroke-width:20.18181992;stroke-miterlimit:8;stroke-opacity:0.30530976;stroke-dasharray:none"
       id="polyline3048"
       transform="matrix(0.07432432,0,0,0.07432432,273.99422,229.26906)" />
    <polyline
       points="1629,2576 1629,5458 "
       style="fill:none;stroke:#000000;stroke-width:8.16690957;stroke-linecap:butt;stroke-linejoin:miter;stroke-dasharray:16.33381913,8.16690957;stroke-miterlimit:4;stroke-dashoffset:0"
       id="polyline3050"
       transform="matrix(0.07432432,0,0,0.07432432,255.99422,232.26906)" />
    <polyline
       points="2771,2576 2771,5458 "
       style="fill:none;stroke:#000000;stroke-width:8;stroke-linecap:butt;stroke-linejoin:miter;stroke-dasharray:41, 41"
       id="polyline3052"
       transform="matrix(0.07432432,0,0,0.07740077,255.99422,215.4778)" />
    <polyline
       points="-2173,5480 5273,5480 "
       style="fill:none;stroke:#000000;stroke-width:33.63636559;stroke-linecap:butt;stroke-linejoin:miter;stroke-miterlimit:4;stroke-dasharray:none"
       id="polyline3054"
       transform="matrix(0.07432432,0,0,0.07432432,255.99422,232.26906)" />
    <polyline
       points="5163 5511 5289 5480 5163 5448 "
       style="fill:none;stroke:#000000;stroke-width:20.18181936;stroke-miterlimit:8;stroke-dasharray:none"
       id="polyline3056"
       transform="matrix(0.07432432,0,0,0.07432432,255.99422,232.26906)" />
    <polyline
       points="5007,2639 5007,5521 "
       style="fill:none;stroke:#000000;stroke-width:8;stroke-linecap:butt;stroke-linejoin:miter;stroke-dasharray:41, 41"
       id="polyline3058"
       transform="matrix(0.07432432,0,0,0.07824427,255.99422,208.37557)" />
    <polyline
       points="-1748,2639 -1748,5521 "
       style="fill:none;stroke:#000000;stroke-width:8;stroke-linecap:butt;stroke-linejoin:miter;stroke-dasharray:41, 41"
       id="polyline3060"
       transform="matrix(0.07432432,0,0,0.07807079,254.99422,208.83338)" />
    <polyline
       points="-1700,5527 -1653,5574 -614,5574 -566,5622 -519,5574 425,5574 472,5527 "
       style="fill:none;stroke:#000000;stroke-width:16.21756744;stroke-linecap:butt;stroke-linejoin:round;stroke-miterlimit:4;stroke-dasharray:none"
       id="polyline3062"
       transform="matrix(0.07366482,0,0,0.07432432,255.2302,233.26906)" />
    <polyline
       points="2834,2503 2881,2456 3921,2456 3968,2409 4015,2456 4960,2456 5007,2503 "
       style="fill:none;stroke:#000000;stroke-width:16;stroke-linecap:butt;stroke-linejoin:round"
       id="polyline3068"
       transform="matrix(0.07132996,0,0,0.07432432,265.35091,235.26906)" />
    <polyline
       points="-1700,2551 -1653,2503 -614,2503 -566,2456 -519,2503 425,2503 472,2551 "
       style="fill:none;stroke:#000000;stroke-width:16;stroke-linecap:butt;stroke-linejoin:round"
       id="polyline3070"
       transform="matrix(0.07366483,0,0,0.07432432,255.2302,232.26906)" />
    <polyline
       points="1654,5325 1651,5325 1645,5324 1632,5322 1614,5320 1588,5316 1554,5312 1512,5306 1465,5298 1411,5290 1352,5281 1290,5271 1226,5260 1162,5249 1098,5237 1035,5226 975,5214 918,5202 866,5190 816,5177 771,5165 730,5153 693,5141 661,5128 632,5116 606,5102 585,5088 567,5075 553,5060 541,5044 533,5028 527,5012 523,4992 522,4971 525,4949 531,4925 539,4900 550,4875 562,4848 577,4819 594,4790 613,4759 633,4727 654,4695 676,4661 698,4627 721,4593 744,4557 766,4522 787,4488 808,4452 827,4417 844,4383 860,4349 874,4314 886,4282 895,4249 901,4217 906,4184 908,4153 906,4121 901,4090 895,4058 886,4027 874,3994 860,3962 844,3929 827,3896 807,3862 787,3829 766,3796 743,3762 721,3730 698,3697 676,3665 654,3633 633,3603 613,3573 594,3544 577,3517 562,3490 549,3464 538,3440 531,3417 525,3395 522,3373 522,3353 527,3334 532,3317 540,3301 552,3286 566,3271 584,3256 605,3243 630,3229 660,3214 692,3201 729,3187 770,3173 815,3159 864,3145 917,3130 974,3116 1033,3101 1096,3087 1160,3072 1224,3059 1288,3045 1350,3032 1408,3020 1462,3009 1510,3000 1551,2993 1585,2986 1611,2981 1630,2978 1641,2976 1648,2974 1651,2974 "
       style="fill:none;stroke:#000000;stroke-width:16;stroke-linecap:butt;stroke-linejoin:bevel"
       id="polyline3072"
       transform="matrix(0.07432432,0,0,0.07432432,255.99422,232.26906)" />
    <polyline
       points="1654,5325 1657,5325 1664,5324 1675,5322 1694,5320 1720,5316 1754,5312 1795,5306 1843,5298 1897,5290 1955,5281 2017,5271 2081,5260 2146,5249 2211,5237 2272,5226 2332,5214 2389,5202 2441,5190 2491,5177 2536,5165 2577,5153 2614,5141 2646,5128 2675,5116 2700,5102 2722,5088 2740,5075 2754,5060 2766,5044 2774,5028 2780,5012 2783,4992 2784,4971 2781,4949 2775,4925 2768,4900 2758,4875 2744,4848 2729,4819 2712,4790 2693,4759 2674,4727 2653,4695 2630,4661 2608,4627 2585,4593 2562,4557 2540,4522 2519,4488 2498,4452 2479,4417 2462,4383 2446,4349 2432,4314 2420,4282 2411,4249 2405,4217 2401,4184 2398,4153 2401,4121 2405,4090 2411,4058 2420,4027 2432,3994 2446,3962 2462,3929 2479,3896 2498,3862 2519,3829 2540,3796 2562,3762 2585,3730 2608,3697 2630,3665 2653,3633 2674,3603 2693,3573 2712,3544 2729,3517 2744,3490 2758,3464 2768,3440 2775,3417 2781,3395 2784,3373 2783,3353 2780,3334 2774,3317 2766,3301 2754,3286 2740,3271 2722,3256 2700,3243 2675,3229 2646,3214 2614,3201 2577,3187 2536,3173 2491,3159 2441,3145 2389,3130 2332,3116 2272,3101 2211,3087 2146,3072 2081,3059 2017,3045 1955,3032 1897,3020 1843,3009 1795,3000 1754,2993 1720,2986 1694,2981 1675,2978 1664,2976 1657,2974 1654,2974 "
       style="fill:none;stroke:#000000;stroke-width:16;stroke-linecap:butt;stroke-linejoin:bevel"
       id="polyline3074"
       transform="matrix(0.07432432,0,0,0.07432432,255.99422,232.26906)" />
    <polyline
       points="-2881,5480 -2878,5479 -2872,5478 -2860,5475 -2841,5470 -2815,5464 -2782,5456 -2741,5445 -2692,5433 -2639,5419 -2580,5403 -2519,5386 -2455,5369 -2391,5351 -2327,5332 -2265,5313 -2205,5294 -2149,5276 -2096,5257 -2047,5239 -2002,5222 -1962,5205 -1925,5187 -1892,5170 -1863,5153 -1839,5137 -1817,5120 -1799,5102 -1785,5084 -1774,5066 -1765,5048 -1759,5028 -1756,5007 -1755,4986 -1757,4963 -1762,4940 -1769,4915 -1778,4890 -1788,4864 -1802,4835 -1817,4807 -1834,4777 -1851,4748 -1870,4717 -1890,4685 -1910,4653 -1931,4620 -1952,4587 -1974,4554 -1994,4521 -2015,4488 -2034,4454 -2053,4422 -2070,4389 -2086,4356 -2099,4325 -2112,4293 -2121,4263 -2130,4233 -2136,4202 -2139,4172 -2141,4142 -2139,4111 -2135,4079 -2129,4048 -2119,4015 -2108,3984 -2093,3950 -2077,3918 -2059,3884 -2040,3850 -2019,3817 -1997,3783 -1974,3750 -1951,3716 -1928,3682 -1905,3650 -1882,3617 -1860,3585 -1839,3554 -1819,3524 -1801,3495 -1784,3466 -1771,3439 -1758,3413 -1749,3386 -1741,3362 -1736,3338 -1735,3316 -1736,3294 -1739,3274 -1745,3256 -1755,3237 -1766,3219 -1781,3202 -1800,3184 -1821,3166 -1846,3148 -1876,3129 -1908,3110 -1945,3090 -1985,3071 -2029,3050 -2076,3029 -2127,3008 -2181,2986 -2237,2964 -2295,2942 -2352,2920 -2411,2899 -2467,2879 -2519,2861 -2569,2845 -2612,2829 -2649,2816 -2680,2807 -2703,2798 -2720,2793 -2731,2790 -2737,2788 -2740,2787 "
       style="fill:none;stroke:#000000;stroke-width:15.9974556;stroke-linecap:butt;stroke-linejoin:bevel;stroke-miterlimit:4;stroke-dasharray:none;stroke-dashoffset:0"
       id="polyline3076"
       transform="matrix(0.07432432,0,0,0.07432432,253.99422,232.26906)" />
    <polyline
       points="6141,5480 6138,5479 6132,5478 6120,5475 6101,5470 6075,5464 6041,5456 6001,5445 5952,5433 5899,5419 5840,5403 5779,5386 5715,5369 5651,5351 5587,5332 5525,5313 5465,5294 5408,5276 5356,5257 5307,5239 5261,5222 5222,5205 5185,5187 5152,5170 5123,5153 5099,5137 5077,5120 5059,5102 5045,5084 5034,5066 5025,5048 5019,5028 5016,5007 5015,4986 5017,4963 5022,4940 5028,4915 5038,4890 5048,4864 5062,4835 5077,4807 5093,4777 5111,4748 5130,4717 5150,4685 5170,4653 5191,4620 5212,4587 5234,4554 5254,4521 5275,4488 5294,4454 5313,4422 5330,4389 5345,4356 5359,4325 5372,4293 5381,4263 5390,4233 5396,4202 5399,4172 5401,4142 5399,4111 5395,4079 5388,4048 5379,4015 5367,3984 5353,3950 5337,3918 5319,3884 5300,3850 5279,3817 5257,3783 5234,3750 5211,3716 5188,3682 5165,3650 5142,3617 5120,3585 5099,3554 5079,3524 5061,3495 5044,3466 5030,3439 5018,3413 5008,3386 5001,3362 4996,3338 4995,3316 4996,3294 4999,3274 5005,3256 5015,3237 5026,3219 5041,3202 5060,3184 5081,3166 5106,3148 5135,3129 5168,3110 5205,3090 5245,3071 5289,3050 5336,3029 5386,3008 5441,2986 5497,2964 5554,2942 5612,2920 5671,2899 5727,2879 5779,2861 5828,2845 5871,2829 5909,2816 5940,2807 5963,2798 5980,2793 5991,2790 5996,2788 6000,2787 "
       style="fill:none;stroke:#000000;stroke-width:16;stroke-linecap:butt;stroke-linejoin:bevel"
       id="polyline3078"
       transform="matrix(0.07432432,0,0,0.07432432,255.99422,232.26906)" />
    <g
       style="fill:none;stroke-width:0.025in"
       transform="matrix(-2.7300957e-7,-0.07432432,0.07432432,-2.7300957e-7,375.58205,577.05344)"
       id="g3080">
      <text
         style="font-size:126px;font-style:italic;font-weight:bold;text-anchor:start;fill:#000000;font-family:New Century Schoolbook"
         xml:space="preserve"
         x="0"
         y="0"
         font-style="italic"
         font-weight="bold"
         font-size="126"
         id="text3082"><tspan
           style="font-size:134.54545593px;font-style:italic;font-variant:normal;font-weight:bold;font-stretch:normal;font-family:Arial;-inkscape-font-specification:Arial Bold Italic"
           id="tspan4026">Symmetry axis</tspan></text>
    </g>
    <text
       style="font-size:11.29729652px;font-style:italic;font-weight:bold;text-anchor:start;fill:#000000;stroke-width:0.025in;font-family:Times"
       xml:space="preserve"
       x="209.45305"
       y="660.6001"
       font-style="italic"
       font-weight="bold"
       font-size="152"
       id="text3084"><tspan
         style="font-size:12px;font-style:italic;font-variant:normal;font-weight:bold;font-stretch:normal;font-family:Arial;-inkscape-font-specification:Arial Bold Italic"
         id="tspan4054">a</tspan></text>
    <polyline
       points="519,5527 566,5574 1606,5574 1653,5622 1700,5574 2645,5574 2692,5527 "
       style="fill:none;stroke:#000000;stroke-width:16.34953308;stroke-linecap:butt;stroke-linejoin:round;stroke-miterlimit:4;stroke-dasharray:none"
       id="polyline3064"
       transform="matrix(0.07248044,0,0,0.07432432,262.38266,233.26906)" />
    <text
       style="font-size:11.29729652px;font-style:italic;font-weight:bold;text-anchor:start;fill:#000000;stroke-width:0.025in;font-family:Times"
       xml:space="preserve"
       x="378.35907"
       y="660.6001"
       font-style="italic"
       font-weight="bold"
       font-size="152"
       id="text3086"><tspan
         style="font-size:12px;font-style:italic;font-variant:normal;font-weight:bold;font-stretch:normal;font-family:Arial;-inkscape-font-specification:Arial Bold Italic"
         id="tspan4056">a</tspan></text>
    <polyline
       points="2787,5527 2834,5574 3874,5574 3921,5622 3968,5574 4913,5574 4960,5527 "
       style="fill:none;stroke:#000000;stroke-width:16.48085594;stroke-linecap:butt;stroke-linejoin:round;stroke-miterlimit:4;stroke-dasharray:none"
       id="polyline3066"
       transform="matrix(0.07132996,0,0,0.07432432,268.70339,233.26906)" />
    <text
       style="font-size:11.29729652px;font-style:italic;font-weight:bold;text-anchor:start;fill:#000000;stroke-width:0.025in;font-family:Times"
       xml:space="preserve"
       x="544.92664"
       y="660.6001"
       font-style="italic"
       font-weight="bold"
       font-size="152"
       id="text3088"><tspan
         style="font-size:12px;font-style:italic;font-variant:normal;font-weight:bold;font-stretch:normal;font-family:Arial;-inkscape-font-specification:Arial Bold Italic"
         id="tspan4058">a</tspan></text>
    <text
       style="font-size:11.29729652px;font-style:italic;font-weight:bold;text-anchor:start;fill:#000000;stroke-width:0.025in;font-family:Times;-inkscape-font-specification:Arial Bold Italic"
       xml:space="preserve"
       x="656"
       y="644.36218"
       font-style="italic"
       font-weight="normal"
       font-size="152"
       id="text3090"><tspan
         style="font-size:12px;font-style:italic;font-variant:normal;font-weight:bold;font-stretch:normal;font-family:Arial;-inkscape-font-specification:Arial Bold Italic"
         id="tspan3069">λ</tspan></text>
    <text
       style="font-size:11.29729652px;font-style:italic;font-weight:bold;text-anchor:start;fill:#000000;stroke-width:0.025in;font-family:Times"
       xml:space="preserve"
       x="502.49905"
       y="411.25552"
       font-style="italic"
       font-weight="bold"
       font-size="152"
       id="text3092"><tspan
         style="font-size:12px;font-style:italic;font-variant:normal;font-weight:bold;font-stretch:normal;font-family:Arial;-inkscape-font-specification:Arial Bold Italic"
         id="tspan4034">No path region</tspan></text>
    <text
       style="font-size:13.15540504px;font-style:italic;font-weight:bold;text-anchor:start;fill:#000000;stroke-width:0.025in;font-family:New Century Schoolbook"
       xml:space="preserve"
       x="290.52124"
       y="382.31635"
       font-style="italic"
       font-weight="bold"
       font-size="177"
       id="text3094"><tspan
         style="font-size:13px;font-style:italic;font-variant:normal;font-weight:bold;font-stretch:normal;font-family:Arial;-inkscape-font-specification:Arial Bold Italic"
         id="tspan4036">x</tspan></text>
    <ellipse
       d="M 82,0 C 82,29.823376 45.287349,54 0,54 -45.287349,54 -82,29.823376 -82,0 c 0,-29.823376 36.712651,-54 82,-54 45.287349,0 82,24.176624 82,54 z"
       sodipodi:ry="54"
       sodipodi:rx="82"
       sodipodi:cy="0"
       sodipodi:cx="0"
       cy="0"
       cx="0"
       transform="matrix(0.07432432,0,0,0.07432432,463.1361,481.44472)"
       rx="82"
       ry="54"
       style="fill:#ff0000;stroke:#ff0000;stroke-width:8"
       id="ellipse3096" />
    <ellipse
       d="M 82,0 C 82,29.823376 45.287349,54 0,54 -45.287349,54 -82,29.823376 -82,0 c 0,-29.823376 36.712651,-54 82,-54 45.287349,0 82,24.176624 82,54 z"
       sodipodi:ry="54"
       sodipodi:rx="82"
       sodipodi:cy="0"
       sodipodi:cx="0"
       cy="0"
       cx="0"
       transform="matrix(0.07432432,0,0,0.07432432,628.13609,481.55283)"
       rx="82"
       ry="54"
       style="fill:#ff0000;stroke:#ff0000;stroke-width:8"
       id="ellipse3098" />
    <ellipse
       d="M 82,0 C 82,29.823376 45.287349,54 0,54 -45.287349,54 -82,29.823376 -82,0 c 0,-29.823376 36.712651,-54 82,-54 45.287349,0 82,24.176624 82,54 z"
       sodipodi:ry="54"
       sodipodi:rx="82"
       sodipodi:cy="0"
       sodipodi:cx="0"
       cy="0"
       cx="0"
       transform="matrix(0.07432432,0,0,0.07432432,462.39286,603.14066)"
       rx="82"
       ry="54"
       style="fill:#ff0000;stroke:#ff0000;stroke-width:8"
       id="ellipse3100" />
    <ellipse
       d="M 82,0 C 82,29.823376 45.287349,54 0,54 -45.287349,54 -82,29.823376 -82,0 c 0,-29.823376 36.712651,-54 82,-54 45.287349,0 82,24.176624 82,54 z"
       sodipodi:ry="54"
       sodipodi:rx="82"
       sodipodi:cy="0"
       sodipodi:cx="0"
       cy="0"
       cx="0"
       transform="matrix(0.07432432,0,0,0.07432432,628.13609,602.91769)"
       rx="82"
       ry="54"
       style="fill:#ff0000;stroke:#ff0000;stroke-width:8"
       id="ellipse3106" />
    <circle
       d="m 1726,5332 c 0,51.9148 -42.0852,94 -94,94 -51.9148,0 -94,-42.0852 -94,-94 0,-51.9148 42.0852,-94 94,-94 51.9148,0 94,42.0852 94,94 z"
       sodipodi:ry="94"
       sodipodi:rx="94"
       sodipodi:cy="5332"
       sodipodi:cx="1632"
       cx="1632"
       cy="5332"
       r="94"
       style="fill:#ff00ff;stroke:#000000;stroke-width:8"
       id="circle3108"
       transform="matrix(0.07432432,0,0,0.07432432,255.99422,232.26906)" />
    <circle
       d="m 1734,2985 c 0,51.9148 -42.0852,94 -94,94 -51.9148,0 -94,-42.0852 -94,-94 0,-51.9148 42.0852,-94 94,-94 51.9148,0 94,42.0852 94,94 z"
       sodipodi:ry="94"
       sodipodi:rx="94"
       sodipodi:cy="2985"
       sodipodi:cx="1640"
       cx="1640"
       cy="2985"
       r="94"
       style="fill:#ff00ff;stroke:#000000;stroke-width:8"
       id="circle3110"
       transform="matrix(0.07432432,0,0,0.07432432,254.99422,232.26906)" />
    <ellipse
       id="ellipse3993"
       style="fill:#ff0000;stroke:#ff0000;stroke-width:8"
       ry="54"
       rx="82"
       transform="matrix(0.07432432,0,0,0.07432432,124.79152,481.10688)"
       cx="0"
       cy="0"
       sodipodi:cx="0"
       sodipodi:cy="0"
       sodipodi:rx="82"
       sodipodi:ry="54"
       d="M 82,0 C 82,29.823376 45.287349,54 0,54 -45.287349,54 -82,29.823376 -82,0 c 0,-29.823376 36.712651,-54 82,-54 45.287349,0 82,24.176624 82,54 z" />
    <ellipse
       id="ellipse3995"
       style="fill:#ff0000;stroke:#ff0000;stroke-width:8"
       ry="54"
       rx="82"
       transform="matrix(0.07432432,0,0,0.07432432,125.01449,603.29607)"
       cx="0"
       cy="0"
       sodipodi:cx="0"
       sodipodi:cy="0"
       sodipodi:rx="82"
       sodipodi:ry="54"
       d="M 82,0 C 82,29.823376 45.287349,54 0,54 -45.287349,54 -82,29.823376 -82,0 c 0,-29.823376 36.712651,-54 82,-54 45.287349,0 82,24.176624 82,54 z" />
    <text
       xml:space="preserve"
       style="font-size:18px;font-style:italic;font-weight:bold;line-height:125%;letter-spacing:0px;word-spacing:0px;fill:#000000;fill-opacity:1;stroke:none;font-family:Times New Roman;-inkscape-font-specification:Arial Bold Italic"
       x="112"
       y="407.36218"
       id="text4038"
       sodipodi:linespacing="125%"><tspan
         sodipodi:role="line"
         id="tspan4040"
         x="112"
         y="407.36218"
         style="font-size:12px;font-style:italic;font-variant:normal;font-weight:bold;font-stretch:normal;font-family:Arial;-inkscape-font-specification:Arial Bold Italic">λ= -a</tspan></text>
    <text
       sodipodi:linespacing="125%"
       id="text4042"
       y="407.36218"
       x="299"
       style="font-size:18px;font-style:normal;font-weight:normal;line-height:125%;letter-spacing:0px;word-spacing:0px;fill:#000000;fill-opacity:1;stroke:none;font-family:Times New Roman;-inkscape-font-specification:Times New Roman"
       xml:space="preserve"><tspan
         style="font-size:12px;font-style:italic;font-variant:normal;font-weight:bold;font-stretch:normal;font-family:Arial;-inkscape-font-specification:Arial Bold Italic"
         y="407.36218"
         x="299"
         id="tspan4044"
         sodipodi:role="line">λ=0</tspan></text>
    <text
       xml:space="preserve"
       style="font-size:18px;font-style:normal;font-weight:normal;line-height:125%;letter-spacing:0px;word-spacing:0px;fill:#000000;fill-opacity:1;stroke:none;font-family:Times New Roman;-inkscape-font-specification:Times New Roman"
       x="452"
       y="407.36218"
       id="text4046"
       sodipodi:linespacing="125%"><tspan
         sodipodi:role="line"
         id="tspan4048"
         x="452"
         y="407.36218"
         style="font-size:12px;font-style:italic;font-variant:normal;font-weight:bold;font-stretch:normal;font-family:Arial;-inkscape-font-specification:Arial Bold Italic">λ=a</tspan></text>
    <text
       sodipodi:linespacing="125%"
       id="text4050"
       y="407.36218"
       x="615"
       style="font-size:18px;font-style:normal;font-weight:normal;line-height:125%;letter-spacing:0px;word-spacing:0px;fill:#000000;fill-opacity:1;stroke:none;font-family:Times New Roman;-inkscape-font-specification:Times New Roman"
       xml:space="preserve"><tspan
         style="font-size:12px;font-style:italic;font-variant:normal;font-weight:bold;font-stretch:normal;font-family:Arial;-inkscape-font-specification:Arial Bold Italic"
         y="407.36218"
         x="615"
         id="tspan4052"
         sodipodi:role="line">λ=2a</tspan></text>
    <g
       id="g3877"
       transform="translate(0,-23)">
      <polyline
         points="519,5527 566,5574 1606,5574 1653,5622 1700,5574 2645,5574 2692,5527 "
         style="fill:none;stroke:#000000;stroke-width:11.42564678;stroke-linecap:butt;stroke-linejoin:round;stroke-miterlimit:4;stroke-dasharray:none"
         id="polyline4004"
         transform="matrix(0.14841233,0,0,0.07432432,222.974,277.26906)" />
      <text
         style="font-size:11.29729652px;font-style:italic;font-weight:bold;text-anchor:start;fill:#000000;stroke-width:0.025in;font-family:Times"
         xml:space="preserve"
         x="461"
         y="706.36218"
         font-style="italic"
         font-weight="bold"
         font-size="152"
         id="text4060"><tspan
           style="font-size:12px;font-style:italic;font-variant:normal;font-weight:bold;font-stretch:normal;font-family:Arial;-inkscape-font-specification:Arial Bold Italic"
           id="tspan4062">2a</tspan></text>
    </g>
    <text
       xml:space="preserve"
       style="font-size:18px;font-style:normal;font-weight:bold;line-height:125%;letter-spacing:0px;word-spacing:0px;fill:#000000;fill-opacity:1;stroke:none;font-family:Times New Roman;-inkscape-font-specification:Arial Bold"
       x="55"
       y="622.36218"
       id="text4064"
       sodipodi:linespacing="125%"><tspan
         sodipodi:role="line"
         id="tspan4066"
         x="55"
         y="622.36218"
         style="font-size:12px;font-style:normal;font-variant:normal;font-weight:bold;font-stretch:normal;font-family:Arial;-inkscape-font-specification:Arial Bold">SB1</tspan></text>
    <text
       xml:space="preserve"
       style="font-size:18px;font-style:normal;font-weight:bold;line-height:125%;letter-spacing:0px;word-spacing:0px;fill:#000000;fill-opacity:1;stroke:none;font-family:Times New Roman;-inkscape-font-specification:Arial Bold"
       x="331"
       y="612.36218"
       id="text4068"
       sodipodi:linespacing="125%"><tspan
         sodipodi:role="line"
         id="tspan4070"
         x="331"
         y="612.36218"
         style="font-size:12px;font-style:normal;font-variant:normal;font-weight:bold;font-stretch:normal;font-family:Arial;-inkscape-font-specification:Arial Bold">SB2</tspan></text>
    <text
       xml:space="preserve"
       style="font-size:18px;font-style:normal;font-weight:bold;line-height:125%;letter-spacing:0px;word-spacing:0px;fill:#000000;fill-opacity:1;stroke:none;font-family:Times New Roman;-inkscape-font-specification:Arial Bold"
       x="405"
       y="612.36218"
       id="text4072"
       sodipodi:linespacing="125%"><tspan
         sodipodi:role="line"
         id="tspan4074"
         x="405"
         y="612.36218"
         style="font-size:12px;font-style:normal;font-variant:normal;font-weight:bold;font-stretch:normal;font-family:Arial;-inkscape-font-specification:Arial Bold">SB3</tspan></text>
    <text
       xml:space="preserve"
       style="font-size:18px;font-style:normal;font-weight:bold;line-height:125%;letter-spacing:0px;word-spacing:0px;fill:#000000;fill-opacity:1;stroke:none;font-family:Times New Roman;-inkscape-font-specification:Arial Bold"
       x="670"
       y="622.36218"
       id="text4076"
       sodipodi:linespacing="125%"><tspan
         sodipodi:role="line"
         id="tspan4078"
         x="670"
         y="622.36218"
         style="font-size:12px;font-style:normal;font-variant:normal;font-weight:bold;font-stretch:normal;font-family:Arial;-inkscape-font-specification:Arial Bold">SB4</tspan></text>
  </g>
  <g
     inkscape:groupmode="layer"
     id="layer2"
     inkscape:label="Layer 2">
    <ellipse
       d="M 82,0 C 82,29.823376 45.287349,54 0,54 -45.287349,54 -82,29.823376 -82,0 c 0,-29.823376 36.712651,-54 82,-54 45.287349,0 82,24.176624 82,54 z"
       sodipodi:ry="54"
       sodipodi:rx="82"
       sodipodi:cy="0"
       sodipodi:cx="0"
       cy="0"
       cx="0"
       transform="matrix(0.07432432,0,0,0.07432432,294.79152,481.10688)"
       rx="82"
       ry="54"
       style="fill:#ff0000;stroke:#ff0000;stroke-width:8"
       id="ellipse3038" />
    <ellipse
       d="M 82,0 C 82,29.823376 45.287349,54 0,54 -45.287349,54 -82,29.823376 -82,0 c 0,-29.823376 36.712651,-54 82,-54 45.287349,0 82,24.176624 82,54 z"
       sodipodi:ry="54"
       sodipodi:rx="82"
       sodipodi:cy="0"
       sodipodi:cx="0"
       cy="0"
       cx="0"
       transform="matrix(0.07432432,0,0,0.07432432,295.01449,603.29607)"
       rx="82"
       ry="54"
       style="fill:#ff0000;stroke:#ff0000;stroke-width:8"
       id="ellipse3040" />
  </g>
</svg>
