<?xml version="1.0" encoding="UTF-8" standalone="no"?>
<!-- Creator: fig2dev Version 3.2 Patchlevel 5d -->

<!-- CreationDate: Sun Apr 10 18:09:23 2011 -->

<!-- Magnification: 1.050 -->

<svg
   xmlns:dc="http://purl.org/dc/elements/1.1/"
   xmlns:cc="http://creativecommons.org/ns#"
   xmlns:rdf="http://www.w3.org/1999/02/22-rdf-syntax-ns#"
   xmlns:svg="http://www.w3.org/2000/svg"
   xmlns="http://www.w3.org/2000/svg"
   xmlns:sodipodi="http://sodipodi.sourceforge.net/DTD/sodipodi-0.dtd"
   xmlns:inkscape="http://www.inkscape.org/namespaces/inkscape"
   width="2.8in"
   height="3.1in"
   viewBox="85 2157 3392 3716"
   id="svg2"
   version="1.1"
   inkscape:version="0.48.1 r9760"
   sodipodi:docname="dbh2.svg">
  <metadata
     id="metadata78">
    <rdf:RDF>
      <cc:Work
         rdf:about="">
        <dc:format>image/svg+xml</dc:format>
        <dc:type
           rdf:resource="http://purl.org/dc/dcmitype/StillImage" />
        <dc:title></dc:title>
      </cc:Work>
    </rdf:RDF>
  </metadata>
  <defs
     id="defs76">
    <filter
       id="filter3142"
       inkscape:label="filter1" />
  </defs>
  <sodipodi:namedview
     pagecolor="#ffffff"
     bordercolor="#666666"
     borderopacity="1"
     objecttolerance="10"
     gridtolerance="10"
     guidetolerance="10"
     inkscape:pageopacity="0"
     inkscape:pageshadow="2"
     inkscape:window-width="809"
     inkscape:window-height="480"
     id="namedview74"
     showgrid="false"
     inkscape:zoom="2.7127232"
     inkscape:cx="95.247093"
     inkscape:cy="168.83765"
     inkscape:window-x="0"
     inkscape:window-y="0"
     inkscape:window-maximized="1"
     inkscape:current-layer="layer1" />
  <g
     style="stroke-width:.025in; fill:none"
     id="g4">
    <!-- Line: box -->
    <rect
       x="1653"
       y="2976"
       width="1133"
       height="2362"
       rx="0"
       style="stroke:#0000ff;stroke-width:16; stroke-linejoin:miter; stroke-linecap:butt; stroke-dasharray:41 41;fill:#eff7ff; "
       id="rect6" />
    <!-- Ellipse -->
    <ellipse
       transform="translate(522,3348) rotate(0.00000000)"
       rx="82"
       ry="54"
       style="fill:#ff0000;stroke:#ff0000;stroke-width:8;"
       id="ellipse8" />
    <!-- Ellipse -->
    <ellipse
       transform="translate(525,4992) rotate(0.00000000)"
       rx="82"
       ry="54"
       style="fill:#ff0000;stroke:#ff0000;stroke-width:8;"
       id="ellipse10" />
    <!-- Text -->
    <text
       xml:space="preserve"
       x="1559"
       y="2740"
       fill="#000000"
       font-family="Times"
       font-style="italic"
       font-weight="bold"
       font-size="152"
       text-anchor="start"
       id="text12">B</text>
    <!-- Text -->
    <text
       xml:space="preserve"
       x="614"
       y="2740"
       fill="#000000"
       font-family="New Century Schoolbook"
       font-style="italic"
       font-weight="bold"
       font-size="114"
       text-anchor="start"
       id="text14">Final Point</text>
    <!-- Text -->
    <text
       xml:space="preserve"
       x="755"
       y="5811"
       fill="#000000"
       font-family="New Century Schoolbook"
       font-style="italic"
       font-weight="bold"
       font-size="114"
       text-anchor="start"
       id="text16">Starting Point</text>
    <!-- Text -->
    <g
       transform="translate(1700,3543) rotate(-270.00063138)"
       id="g18">
      <text
         xml:space="preserve"
         x="0"
         y="0"
         fill="#000000"
         font-family="Times"
         font-style="italic"
         font-weight="bold"
         font-size="152"
         text-anchor="start"
         id="text20">Symmetric brach</text>
    </g>
    <!-- Text -->
    <text
       xml:space="preserve"
       x="1984"
       y="5811"
       fill="#000000"
       font-family="Times"
       font-style="italic"
       font-weight="bold"
       font-size="152"
       text-anchor="start"
       id="text22">A</text>
    <!-- Ellipse -->
    <ellipse
       transform="translate(483,2267) rotate(-0.00000000)"
       rx="82"
       ry="54"
       style="fill:#ff0000;stroke:#ff0000;stroke-width:8;"
       id="ellipse24" />
    <!-- Line -->
    <polyline
       points="522,2592 522,5474 "
       style="stroke:#000000;stroke-width:8; stroke-linejoin:miter; stroke-linecap:butt; stroke-dasharray:41 41;"
       id="polyline26" />
    <!-- Line -->
    <polyline
       points="286,5568 286,2372 "
       style="stroke:#000000;stroke-width:8; stroke-linejoin:miter; stroke-linecap:butt; "
       id="polyline28" />
    <!-- Arrowhead on XXXpoint 286 5568 - 286 2340-->
    <polyline
       points="318 2483 286 2358 255 2483 "
       style="stroke:#000000;stroke-width:8;stroke-miterlimit:8; "
       id="polyline30" />
    <!-- Line -->
    <polyline
       points="97,5474 3386,5474 "
       style="stroke:#000000;stroke-width:8; stroke-linejoin:miter; stroke-linecap:butt; "
       id="polyline32" />
    <!-- Arrowhead on XXXpoint 97 5474 - 3420 5474-->
    <polyline
       points="3276 5505 3402 5474 3276 5442 "
       style="stroke:#000000;stroke-width:8;stroke-miterlimit:8; "
       id="polyline34" />
    <!-- Line -->
    <polyline
       points="897,5669 1443,5434 "
       style="stroke:#000000;stroke-width:8; stroke-linejoin:miter; stroke-linecap:butt; "
       id="polyline36" />
    <!-- Arrowhead on XXXpoint 897 5669 - 1572 5379-->
    <polygon
       points="1453 5463 1556 5385 1427 5405 1453 5463  "
       style="stroke:#000000;stroke-width:8;stroke-miterlimit:8; fill:#000000;"
       id="polygon38" />
    <!-- Line -->
    <polyline
       points="992,2787 1443,2916 "
       style="stroke:#000000;stroke-width:8; stroke-linejoin:miter; stroke-linecap:butt; "
       id="polyline40" />
    <!-- Arrowhead on XXXpoint 992 2787 - 1579 2955-->
    <polygon
       points="1432 2945 1562 2951 1448 2886 1432 2945  "
       style="stroke:#000000;stroke-width:8;stroke-miterlimit:8; fill:#000000;"
       id="polygon42" />
    <!-- Line -->
    <polyline
       points="1700,5149 2188,5149 "
       style="stroke:#000000;stroke-width:8; stroke-linejoin:miter; stroke-linecap:butt; "
       id="polyline44" />
    <!-- Arrowhead on XXXpoint 1700 5149 - 2330 5149-->
    <polygon
       points="2187 5181 2313 5149 2187 5118 2187 5181  "
       style="stroke:#000000;stroke-width:8;stroke-miterlimit:8; fill:#000000;"
       id="polygon46" />
    <!-- Line -->
    <polyline
       points="2362,3165 1872,3165 "
       style="stroke:#000000;stroke-width:8; stroke-linejoin:miter; stroke-linecap:butt; "
       id="polyline48" />
    <!-- Arrowhead on XXXpoint 2362 3165 - 1732 3165-->
    <polygon
       points="1875 3133 1749 3165 1875 3196 1875 3133  "
       style="stroke:#000000;stroke-width:8;stroke-miterlimit:8; fill:#000000;"
       id="polygon50" />
    <!-- Line -->
    <polyline
       points="1654,5325 1651,5325 1645,5324 1632,5322 1614,5320 1588,5316 1554,5312 1512,5306 1465,5298 1411,5290 1352,5281 1290,5271 1226,5260 1162,5249 1098,5237 1035,5226 975,5214 918,5202 866,5190 816,5177 771,5165 730,5153 693,5141 661,5128 632,5116 606,5102 585,5088 567,5075 553,5060 541,5044 533,5028 527,5012 523,4992 522,4971 525,4949 531,4925 539,4900 550,4875 562,4848 577,4819 594,4790 613,4759 633,4727 654,4695 676,4661 698,4627 721,4593 744,4557 766,4522 787,4488 808,4452 827,4417 844,4383 860,4349 874,4314 886,4282 895,4249 901,4217 906,4184 908,4153 906,4121 901,4090 895,4058 886,4027 874,3994 860,3962 844,3929 827,3896 807,3862 787,3829 766,3796 743,3762 721,3730 698,3697 676,3665 654,3633 633,3603 613,3573 594,3544 577,3517 562,3490 549,3464 538,3440 531,3417 525,3395 522,3373 522,3353 527,3334 532,3317 540,3301 552,3286 566,3271 584,3256 605,3243 630,3229 660,3214 692,3201 729,3187 770,3173 815,3159 864,3145 917,3130 974,3116 1033,3101 1096,3087 1160,3072 1224,3059 1288,3045 1350,3032 1408,3020 1462,3009 1510,3000 1551,2993 1585,2986 1611,2981 1630,2978 1641,2976 1648,2974 1651,2974 "
       style="stroke:#000000;stroke-width:16; stroke-linejoin:bevel; stroke-linecap:butt; "
       id="polyline52" />
    <!-- Line -->
    <polyline
       points="1654,5325 1657,5325 1664,5324 1675,5322 1694,5320 1720,5316 1754,5312 1795,5306 1843,5298 1897,5290 1955,5281 2017,5271 2081,5260 2146,5249 2211,5237 2272,5226 2332,5214 2389,5202 2441,5190 2491,5177 2536,5165 2577,5153 2614,5141 2646,5128 2675,5116 2700,5102 2722,5088 2740,5075 2754,5060 2766,5044 2774,5028 2780,5012 2783,4992 2784,4971 2781,4949 2775,4925 2768,4900 2758,4875 2744,4848 2729,4819 2712,4790 2693,4759 2674,4727 2653,4695 2630,4661 2608,4627 2585,4593 2562,4557 2540,4522 2519,4488 2498,4452 2479,4417 2462,4383 2446,4349 2432,4314 2420,4282 2411,4249 2405,4217 2401,4184 2398,4153 2401,4121 2405,4090 2411,4058 2420,4027 2432,3994 2446,3962 2462,3929 2479,3896 2498,3862 2519,3829 2540,3796 2562,3762 2585,3730 2608,3697 2630,3665 2653,3633 2674,3603 2693,3573 2712,3544 2729,3517 2744,3490 2758,3464 2768,3440 2775,3417 2781,3395 2784,3373 2783,3353 2780,3334 2774,3317 2766,3301 2754,3286 2740,3271 2722,3256 2700,3243 2675,3229 2646,3214 2614,3201 2577,3187 2536,3173 2491,3159 2441,3145 2389,3130 2332,3116 2272,3101 2211,3087 2146,3072 2081,3059 2017,3045 1955,3032 1897,3020 1843,3009 1795,3000 1754,2993 1720,2986 1694,2981 1675,2978 1664,2976 1657,2974 1654,2974 "
       style="stroke:#000000;stroke-width:16; stroke-linejoin:bevel; stroke-linecap:butt; "
       id="polyline54" />
    <!-- Text -->
    <text
       xml:space="preserve"
       x="113"
       y="2490"
       fill="#000000"
       font-family="New Century Schoolbook"
       font-style="italic"
       font-weight="bold"
       font-size="177"
       text-anchor="start"
       id="text56">x</text>
    <!-- Text -->
    <text
       xml:space="preserve"
       x="3349"
       y="5442"
       fill="#000000"
       font-family="Times"
       font-style="italic"
       font-weight="normal"
       font-size="152"
       text-anchor="start"
       id="text58">o</text>
    <!-- Text -->
    <text
       xml:space="preserve"
       x="661"
       y="2314"
       fill="#000000"
       font-family="Times"
       font-style="italic"
       font-weight="bold"
       font-size="152"
       text-anchor="start"
       id="text60">Solution</text>
    <!-- Text -->
    <g
       transform="translate(2929,3307) rotate(-270.00063138)"
       id="g62">
      <text
         xml:space="preserve"
         x="-134.60318"
         y="-0.0014832813"
         font-style="italic"
         font-weight="bold"
         font-size="152"
         id="text64"
         style="font-size:152px;font-style:italic;font-weight:bold;text-anchor:start;fill:#000000;font-family:Times">Half of solutions region</text>
    </g>
    <!-- Ellipse -->
    <ellipse
       transform="translate(2787,3366) rotate(-0.00000000)"
       rx="82"
       ry="54"
       style="fill:#ff0000;stroke:#ff0000;stroke-width:8;"
       id="ellipse66" />
    <!-- Ellipse -->
    <ellipse
       transform="translate(2777,4963) rotate(-0.00000000)"
       rx="82"
       ry="54"
       style="fill:#ff0000;stroke:#ff0000;stroke-width:8;"
       id="ellipse68" />
    <!-- Circle -->
    <circle
       cx="1632"
       cy="5332"
       r="94"
       style="fill:#ff00ff;stroke:#000000;stroke-width:8;"
       id="circle70" />
    <!-- Circle -->
    <circle
       cx="1640"
       cy="2985"
       r="94"
       style="fill:#ff00ff;stroke:#000000;stroke-width:8;"
       id="circle72" />
  </g>
  <g
     inkscape:groupmode="layer"
     id="layer1"
     inkscape:label="Layer 2">
    <text
       xml:space="preserve"
       style="font-size:215.36508179000000496px;font-style:italic;font-variant:normal;font-weight:bold;font-stretch:normal;line-height:125%;letter-spacing:0px;word-spacing:0px;fill:#000000;fill-opacity:1;stroke:none;font-family:Arial;-inkscape-font-specification:Arial Bold Italic;filter:url(#filter3142)"
       x="2099.54"
       y="2905.6379"
       id="text3056"
       sodipodi:linespacing="125%"><tspan
         sodipodi:role="line"
         id="tspan3058"
         x="2099.54"
         y="2905.6379">λ<tspan
   style="font-size:141.33332825px;baseline-shift:sub"
   id="tspan3060">2</tspan>(x)</tspan></text>
  </g>
</svg>
